#N canvas 493 364 558 408 10;
#X obj 72 201 phasor~;
#X obj 73 287 *~;
#X floatatom 106 253 5 0 0 0 - - -;
#X obj 106 272 * 0.01;
#X obj 106 294 pad~;
#X floatatom 128 150 5 0 0 0 - - -;
#X obj 72 134 r sc16;
#X obj 131 185 r bt;
#X obj 72 257 *~;
#X obj 246 207 phasor~;
#X obj 310 168 r bt;
#X obj 246 258 *~;
#X obj 246 121 r sc16;
#X obj 58 327 adac~;
#X obj 231 328 adac~;
#X obj 246 294 *~;
#X floatatom 279 259 5 0 0 0 - - -;
#X obj 279 278 * 0.01;
#X obj 279 300 pad~;
#X obj 327 377 mix~;
#X floatatom 327 314 5 0 0 0 - - -;
#X obj 327 333 * 0.01;
#X obj 327 355 pad~;
#N canvas 691 461 367 256 scale 0;
#X obj 164 197 s scale;
#X obj 73 68 sel 0 1 2 3 4 5 6 7 xxxxxxxxxxxxxxxxxxxx;
#X obj 73 44 r bar;
#X floatatom 35 69 5 0 0 0 - - -;
#X msg 65 112 46 2 4 7;
#X msg 128 112 43 2 3 7;
#X msg 255 112 42 4 7 11;
#X msg 190 112 s 3 8 10;
#X msg 195 134 k 45;
#X msg 269 134 k 44;
#X connect 1 0 4 0;
#X connect 1 1 5 0;
#X connect 1 2 4 0;
#X connect 1 3 5 0;
#X connect 1 4 7 0;
#X connect 1 5 8 0;
#X connect 1 6 6 0;
#X connect 1 7 9 0;
#X connect 2 0 1 0;
#X connect 2 0 3 0;
#X connect 4 0 0 0;
#X connect 5 0 0 0;
#X connect 6 0 0 0;
#X connect 7 0 0 0;
#X connect 8 0 0 0;
#X connect 9 0 0 0;
#X coords 0 256 1 255 85 60 0;
#X restore 314 50 pd scale;
#X obj 157 47 r scale;
#N canvas 80 499 523 381 metro 0;
#X floatatom 62 123 5 0 0 0 - - -;
#X obj 100 121 counter 2 0 16;
#X obj 100 80 metro 150;
#X obj 66 102 s bt;
#X obj 74 220 s sc16;
#X obj 124 220 sel;
#X obj 138 264 s bar;
#X obj 92 160 t f f;
#X obj 100 58 inlet;
#X floatatom 257 105 5 0 0 0 - - -;
#X obj 171 84 count 32;
#X obj 124 242 count 8;
#X obj 91 185 +;
#X obj 221 151 unpack 0 0 0;
#X obj 219 254 f;
#X obj 259 254 f;
#X obj 221 127 r events;
#X obj 219 232 b;
#X obj 259 232 b;
#X floatatom 141 32 5 0 0 0 - - -;
#X obj 141 54 s mt;
#X obj 282 191 moses;
#N canvas 742 340 550 448 events 0;
#X obj 232 379 s events;
#X msg 445 274 0 4 30;
#X msg 46 274 4 0 1;
#X msg 347 274 0 4 31;
#X msg 151 274 4 0 2;
#X obj 75 231 r mt;
#X msg 247 274 0 4 29;
#X obj 151 252 del;
#X obj 46 252 del;
#X obj 247 252 del;
#X obj 445 252 del;
#X obj 41 296 bng 15 250 50 0 empty empty empty 17 7 0 10 -262144 -1
-1;
#X obj 146 296 bng 15 250 50 0 empty empty empty 17 7 0 10 -262144
-1 -1;
#X obj 252 296 bng 15 250 50 0 empty empty empty 17 7 0 10 -262144
-1 -1;
#X obj 352 296 bng 15 250 50 0 empty empty empty 17 7 0 10 -262144
-1 -1;
#X obj 450 296 bng 15 250 50 0 empty empty empty 17 7 0 10 -262144
-1 -1;
#X obj 75 252 * 16;
#X obj 180 230 r mt;
#X obj 180 252 * 16;
#X obj 276 230 r mt;
#X obj 276 252 * 16;
#X obj 474 230 r mt;
#X obj 474 252 * 16;
#X obj 124 48 r bar;
#X obj 124 72 sel 0 1 2 3 4 5 6 7 xxxxxxxxxxxxxxxxxxxxxxxxxxxx;
#X connect 1 0 0 0;
#X connect 1 0 15 0;
#X connect 2 0 0 0;
#X connect 2 0 11 0;
#X connect 3 0 0 0;
#X connect 3 0 14 0;
#X connect 4 0 0 0;
#X connect 4 0 12 0;
#X connect 5 0 16 0;
#X connect 6 0 0 0;
#X connect 6 0 13 0;
#X connect 7 0 4 0;
#X connect 8 0 2 0;
#X connect 9 0 6 0;
#X connect 10 0 1 0;
#X connect 16 0 8 1;
#X connect 17 0 18 0;
#X connect 18 0 7 1;
#X connect 19 0 20 0;
#X connect 20 0 9 1;
#X connect 21 0 22 0;
#X connect 22 0 10 1;
#X connect 23 0 24 0;
#X connect 24 0 1 0;
#X connect 24 0 8 0;
#X connect 24 1 4 0;
#X connect 24 1 9 0;
#X connect 24 2 1 0;
#X connect 24 2 8 0;
#X connect 24 3 4 0;
#X connect 24 3 9 0;
#X connect 24 4 2 0;
#X connect 24 4 10 0;
#X connect 24 5 3 0;
#X connect 24 5 7 0;
#X connect 24 6 2 0;
#X connect 24 6 10 0;
#X connect 24 7 3 0;
#X restore 385 283 pd events;
#X msg 203 15 149.8;
#X obj 253 28 loadbang;
#X text 37 282 non-complicated alternative: [moses 2] f's-> 4|0;
#X msg 186 59 reset \$1;
#X msg 249 82 goto \$1;
#X msg 249 51 0;
#X obj 295 230 f;
#X floatatom 295 254 5 0 0 0 - - -;
#X connect 1 0 0 0;
#X connect 1 0 7 0;
#X connect 2 0 1 0;
#X connect 2 0 3 0;
#X connect 2 0 10 0;
#X connect 5 0 11 0;
#X connect 7 0 12 0;
#X connect 7 1 5 0;
#X connect 8 0 2 0;
#X connect 10 0 9 0;
#X connect 10 0 21 0;
#X connect 11 0 6 0;
#X connect 12 0 4 0;
#X connect 13 0 14 1;
#X connect 13 1 15 1;
#X connect 13 2 21 1;
#X connect 14 0 12 1;
#X connect 14 0 29 0;
#X connect 15 0 12 1;
#X connect 15 0 29 0;
#X connect 16 0 13 0;
#X connect 17 0 14 0;
#X connect 18 0 15 0;
#X connect 19 0 2 1;
#X connect 19 0 20 0;
#X connect 21 0 17 0;
#X connect 21 1 18 0;
#X connect 23 0 19 0;
#X connect 24 0 23 0;
#X connect 24 0 28 0;
#X connect 26 0 10 0;
#X connect 27 0 1 0;
#X connect 28 0 26 0;
#X connect 28 0 27 0;
#X connect 29 0 30 0;
#X restore 249 50 pd metro;
#X obj 249 30 tgl 15 0 empty empty empty 17 7 0 10 -262144 -1 -1 1
1;
#X floatatom 372 155 5 0 0 0 - - -;
#X obj 372 173 % 150;
#X obj 246 141 pipe 300;
#X obj 310 190 del;
#X obj 454 135 r mt;
#X obj 372 131 * 2;
#X floatatom 361 232 5 0 0 0 - - -;
#X floatatom 182 226 5 0 0 0 - - -;
#X msg 154 118 oct \$1;
#X floatatom 154 99 5 0 0 0 - - -;
#X obj 169 247 loadbang;
#X floatatom 129 166 5 0 0 0 - - -;
#X floatatom 311 150 5 0 0 0 - - -;
#X text 313 294 master vol;
#X obj 72 226 >~ 0.75;
#X msg 165 273 45;
#X floatatom 143 226 5 0 0 0 - - -;
#X floatatom 322 232 5 0 0 0 - - -;
#X obj 246 163 muse;
#X obj 72 158 muse;
#X obj 297 24 r play;
#X obj 404 302 r vol;
#X text 70 42 myQuil;
#X msg 198 271 30;
#X obj 72 180 pad~ 2;
#X obj 246 185 pad~ 2;
#X obj 310 212 ad~ 10 200;
#X obj 247 228 >~ 0.9;
#X obj 131 206 ad~ 3 185;
#N canvas 747 546 450 300 info 0;
#X text 174 77 artist : Nobuo Uematsu;
#X text 181 91 title : Final Fantasy;
#X text 174 105 length : 195000;
#X restore 371 83 pd info;
#X obj 443 325 del 180000;
#X msg 372 382 15000;
#X obj 443 347 t;
#X msg 382 351 0;
#X obj 460 271 r play;
#X connect 0 0 41 0;
#X connect 1 0 13 0;
#X connect 1 0 13 1;
#X connect 2 0 3 0;
#X connect 3 0 4 0;
#X connect 4 0 1 1;
#X connect 5 0 46 1;
#X connect 6 0 46 0;
#X connect 7 0 55 0;
#X connect 8 0 1 0;
#X connect 9 0 54 0;
#X connect 10 0 30 0;
#X connect 11 0 15 0;
#X connect 12 0 29 0;
#X connect 15 0 14 0;
#X connect 15 0 14 1;
#X connect 16 0 17 0;
#X connect 17 0 18 0;
#X connect 18 0 15 1;
#X connect 20 0 21 0;
#X connect 21 0 22 0;
#X connect 22 0 19 0;
#X connect 24 0 45 0;
#X connect 24 0 46 0;
#X connect 26 0 25 0;
#X connect 27 0 28 0;
#X connect 27 0 29 1;
#X connect 28 0 30 1;
#X connect 29 0 45 0;
#X connect 30 0 53 0;
#X connect 31 0 32 0;
#X connect 31 0 28 1;
#X connect 32 0 27 0;
#X connect 33 0 53 2;
#X connect 34 0 55 2;
#X connect 35 0 45 0;
#X connect 35 0 46 0;
#X connect 36 0 35 0;
#X connect 37 0 50 0;
#X connect 37 0 42 0;
#X connect 38 0 51 1;
#X connect 39 0 52 1;
#X connect 41 0 8 0;
#X connect 42 0 2 0;
#X connect 43 0 55 1;
#X connect 44 0 53 1;
#X connect 45 0 52 0;
#X connect 46 0 51 0;
#X connect 47 0 26 0;
#X connect 48 0 22 0;
#X connect 50 0 16 0;
#X connect 51 0 0 0;
#X connect 52 0 9 0;
#X connect 53 0 11 1;
#X connect 54 0 11 0;
#X connect 55 0 8 1;
#X connect 57 0 59 0;
#X connect 58 0 22 1;
#X connect 59 0 60 0;
#X connect 59 1 58 0;
#X connect 60 0 22 0;
#X connect 61 0 57 0;
