#N canvas 877 206 726 540 12;
#X obj 236 172 vline~;
#X obj 345 376 *~;
#X obj 50 33 inlet;
#X obj 370 115 noise~;
#X obj 115 182 /~ 8;
#X obj 518 298 +~ 1000;
#X obj 371 166 osc~ 4400;
#X obj 518 269 *~ 1000;
#X obj 24 24 tgl 15 0 empty empty empty 17 7 0 10 -262144 -1 -1 0 1
;
#X obj 455 353 *~;
#X obj 371 141 *~ 880;
#X obj 417 220 vcf~ 10;
#X obj 416 248 *~ 5555;
#X obj 366 402 inlet;
#X obj 154 107 pack 0 0 0;
#X msg 236 148 \$1 \, \$2 \$3;
#X obj 237 33 grand 50 200;
#X obj 39 150 bng 15 250 50 0 empty empty empty 17 7 0 10 -262144 -1
-1;
#X obj 335 484 adac~;
#X obj 147 7 t b b b b b;
#X obj 116 144 ad~ 1 800;
#X obj 518 240 ad~ 0 100;
#X obj 45 172 r play;
#X obj 378 456 throw~ sview;
#X obj 27 216 del 1500;
#X obj 366 349 freqm~;
#X obj 345 426 *~;
#X obj 85 9 spigot;
#X floatatom 363 13 5 0 0 0 - - -, f 5;
#X floatatom 414 15 5 0 0 0 - - -, f 5;
#X floatatom 364 52 5 0 0 0 - - -, f 5;
#X floatatom 416 52 5 0 0 0 - - -, f 5;
#X floatatom 366 87 5 0 0 0 - - -, f 5;
#X floatatom 418 90 5 0 0 0 - - -, f 5;
#X obj 147 335 fkick 85 37;
#X floatatom 219 362 5 0 0 0 - - -, f 5;
#X obj 219 384 * 0.01;
#X obj 198 58 grand 15 50;
#X obj 154 82 grand 120 300;
#X floatatom 590 126 5 0 0 0 - - -, f 5;
#X floatatom 641 128 5 0 0 0 - - -, f 5;
#X obj 570 193 grand 0 225;
#X obj 147 360 *~ 0.4;
#X connect 0 0 25 2;
#X connect 1 0 26 0;
#X connect 2 0 27 0;
#X connect 3 0 10 0;
#X connect 4 0 1 0;
#X connect 5 0 11 1;
#X connect 6 0 11 0;
#X connect 7 0 5 0;
#X connect 7 0 9 0;
#X connect 8 0 27 1;
#X connect 9 0 25 1;
#X connect 10 0 6 0;
#X connect 11 0 12 0;
#X connect 12 0 25 0;
#X connect 13 0 26 1;
#X connect 14 0 15 0;
#X connect 15 0 0 0;
#X connect 16 0 14 2;
#X connect 17 0 19 0;
#X connect 19 0 20 0;
#X connect 19 0 21 0;
#X connect 19 0 34 0;
#X connect 19 1 41 0;
#X connect 19 2 38 0;
#X connect 19 3 37 0;
#X connect 19 4 16 0;
#X connect 20 0 4 0;
#X connect 21 0 7 0;
#X connect 21 0 9 1;
#X connect 22 0 24 0;
#X connect 24 0 8 0;
#X connect 25 0 1 1;
#X connect 26 0 18 1;
#X connect 26 0 18 0;
#X connect 26 0 23 0;
#X connect 27 0 19 0;
#X connect 28 0 16 2;
#X connect 29 0 16 3;
#X connect 30 0 37 2;
#X connect 31 0 37 3;
#X connect 32 0 38 2;
#X connect 33 0 38 3;
#X connect 34 0 42 0;
#X connect 35 0 36 0;
#X connect 36 0 42 1;
#X connect 37 0 14 1;
#X connect 38 0 14 0;
#X connect 39 0 41 2;
#X connect 40 0 41 3;
#X connect 41 0 21 2;
#X connect 42 0 26 0;
#X coords 0 -1 1 1 85 60 1 0 0;
