#N canvas 273 443 485 347 10;
#X obj 257 153 dac~;
#X obj 261 119 *~;
#X obj 343 145 * 0.01;
#X floatatom 343 125 5 0 0 0 - - -, f 5;
#N canvas 0 50 450 250 (subpatch) 0;
#X array view 500 float 1;
#A 0 0 0 0 0 0 0 0 0 0 0 0 0 0 0 0 0 0 0 0 0 0 0 0 0 0 0 0 0 0 0 0
0 0 0 0 0 0 0 0 0 0 0 0 0 0 0 0 0 0 0 0 0 0 0 0 0 0 0 0 0 0 0 0 0 0
0 0 0 0 0 0 0 0 0 0 0 0 0 0 0 0 0 0 0 0 0 0 0 0 0 0 0 0 0 0 0 0 0 0
0 0 0 0 0 0 0 0 0 0 0 0 0 0 0 0 0 0 0 0 0 0 0 0 0 0 0 0 0 0 0 0 0 0
0 0 0 0 0 0 0 0 0 0 0 0 0 0 0 0 0 0 0 0 0 0 0 0 0 0 0 0 0 0 0 0 0 0
0 0 0 0 0 0 0 0 0 0 0 0 0 0 0 0 0 0 0 0 0 0 0 0 0 0 0 0 0 0 0 0 0 0
0 0 0 0 0 0 0 0 0 0 0 0 0 0 0 0 0 0 0 0 0 0 0 0 0 0 0 0 0 0 0 0 0 0
0 0 0 0 0 0 0 0 0 0 0 0 0 0 0 0 0 0 0 0 0 0 0 0 0 0 0 0 0 0 0 0 0 0
0 0 0 0 0 0 0 0 0 0 0 0 0 0 0 0 0 0 0 0 0 0 0 0 0 0 0 0 0 0 0 0 0 0
0 0 0 0 0 0 0 0 0 0 0 0 0 0 0 0 0 0 0 0 0 0 0 0 0 0 0 0 0 0 0 0 0 0
0 0 0 0 0 0 0 0 0 0 0 0 0 0 0 0 0 0 0 0 0 0 0 0 0 0 0 0 0 0 0 0 0 0
0 0 0 0 0 0 0 0 0 0 0 0 0 0 0 0 0 0 0 0 0 0 0 0 0 0 0 0 0 0 0 0 0 0
0 0 0 0 0 0 0 0 0 0 0 0 0 0 0 0 0 0 0 0 0 0 0 0 0 0 0 0 0 0 0 0 0 0
0 0 0 0 0 0 0 0 0 0 0 0 0 0 0 0 0 0 0 0 0 0 0 0 0 0 0 0 0 0 0 0 0 0
0 0 0 0 0 0 0 0 0 0 0 0 0 0 0 0 0 0 0 0 0 0 0 0 0 0 0;
#X coords 0 1 499 -1 200 140 1;
#X restore 262 186 graph;
#X obj 347 106 tabwrite~ view;
#X floatatom 421 67 5 0 0 0 - - -, f 5;
#X obj 347 65 tgl 15 0 empty empty empty 17 7 0 10 -261234 -1 -1 0
1;
#X obj 261 65 *~;
#X obj 224 131 tgl 15 0 empty empty empty 17 7 0 10 -204786 -1 -1 0
1;
#X obj 96 173 s tog;
#X obj 50 23 tgl 15 0 empty empty empty 17 7 0 10 -203904 -1 -1 0 1
;
#X obj 347 84 metro 18.87;
#N canvas 660 105 340 219 pause 0;
#X msg 93 148 0, f 2;
#X obj 93 52 spigot;
#X obj 208 64 == 0;
#X obj 129 78 f;
#X obj 159 52 t f f;
#X obj 159 30 inlet;
#X obj 93 30 inlet;
#X obj 191 145 outlet;
#X obj 93 170 outlet;
#X obj 108 124 outlet;
#X obj 159 124 t b b;
#X msg 117 148 1, f 2;
#X obj 108 102 sel 0;
#X obj 159 102 sel 1;
#X obj 132 30 !;
#X connect 0 0 8 0;
#X connect 1 0 0 0;
#X connect 1 0 3 0;
#X connect 2 0 1 1;
#X connect 3 0 12 0;
#X connect 3 0 13 0;
#X connect 4 0 3 1;
#X connect 4 0 13 0;
#X connect 4 1 2 0;
#X connect 5 0 4 0;
#X connect 6 0 1 0;
#X connect 10 0 11 0;
#X connect 10 1 7 0;
#X connect 11 0 8 0;
#X connect 12 0 9 0;
#X connect 13 0 10 0;
#X coords 0 219 1 218 85 60 0;
#X restore 171 151 pd pause;
#X obj 18 88 s bt;
#X obj 303 21 r bt;
#X obj 61 215 -;
#X obj 171 128 r bt;
#X floatatom 182 66 5 0 0 0 - - -, f 5;
#X obj 61 239 spigot;
#X obj 126 195 t f f;
#X obj 286 21 bng 15 250 50 0 empty empty empty 17 7 0 10 -262130 -1
-1;
#X floatatom 109 34 5 0 0 0 - - -, f 5;
#X obj 109 59 s met;
#X obj 79 127 r met;
#X obj 50 67 t b b b;
#X obj 85 148 * 1.2;
#X obj 164 46 r pet;
#X obj 122 127 s atk;
#X obj 337 21 r atk;
#X obj 72 195 r atk;
#X obj 101 263 f;
#X obj 50 43 metro;
#X obj 40 153 grand;
#X obj 85 305 s dcy;
#X obj 378 21 r dcy;
#X text 214 115 START;
#X obj 148 263 3000;
#X floatatom 129 153 5 0 0 0 - - -, f 5;
#X floatatom 189 227 5 0 0 0 - - -, f 5;
#X obj 189 246 * 10;
#X text 14 7 PAUSE||PUNCH;
#X msg 291 65 1;
#X obj 282 43 ad~ 10 130;
#X floatatom 179 295 5 0 0 0 - - -, f 5;
#X floatatom 130 297 5 0 0 0 - - -, f 5;
#X obj 10 28 r tog;
#X obj 54 173 s pet;
#X obj 210 98 r play;
#X obj 347 165 r vol;
#X obj 261 98 *~ 0.6;
#X obj 308 129 pad~;
#N canvas 500 146 374 225 vals 0;
#X obj 230 196 outlet~;
#X obj 5 196 outlet~;
#X obj 115 196 outlet~;
#X obj 230 148 pad~;
#X obj 5 150 pad~;
#X obj 115 148 pad~;
#X floatatom 182 75 5 0 0 0 - - -, f 5;
#X floatatom 237 118 5 0 0 0 - - -, f 5;
#X floatatom 126 118 5 0 0 0 - - -, f 5;
#X floatatom 141 75 5 0 0 0 - - -, f 5;
#X obj 145 15 r bt;
#X obj 5 96 muse 22.18 4 7;
#X obj 5 72 rand 16;
#X floatatom 11 119 5 0 0 0 - - -, f 5;
#X obj 145 38 t b b;
#X obj 39 150 grand 1 25;
#X obj 277 15 r met;
#X obj 217 46 / 2;
#X obj 333 46 / 6;
#X obj 230 74 rand 16;
#X obj 178 118 b;
#X obj 273 141 grand 1 0;
#X obj 157 148 grand 1 0;
#X obj 115 96 grand 20 1203;
#X obj 230 96 muse 27.18 4 7;
#X connect 3 0 0 0;
#X connect 4 0 1 0;
#X connect 5 0 2 0;
#X connect 6 0 23 3;
#X connect 9 0 23 2;
#X connect 10 0 14 0;
#X connect 11 0 4 0;
#X connect 11 0 13 0;
#X connect 12 0 11 0;
#X connect 14 0 12 0;
#X connect 14 0 19 0;
#X connect 14 0 23 0;
#X connect 14 1 20 0;
#X connect 15 0 4 1;
#X connect 16 0 17 0;
#X connect 16 0 18 0;
#X connect 17 0 22 3;
#X connect 18 0 21 3;
#X connect 19 0 24 0;
#X connect 20 0 15 0;
#X connect 20 0 21 0;
#X connect 20 0 22 0;
#X connect 21 0 3 1;
#X connect 22 0 5 1;
#X connect 23 0 5 0;
#X connect 23 0 8 0;
#X connect 24 0 3 0;
#X connect 24 0 7 0;
#X coords 0 225 1 224 85 60 0;
#X restore 177 -2 pd vals;
#X obj 181 20 freqm~;
#N canvas 494 498 302 182 vals 0;
#X obj 9 142 outlet~;
#X obj 185 142 outlet~;
#X obj 9 96 pad~;
#X obj 185 96 pad~;
#X obj 140 38 r met;
#X floatatom 99 25 5 0 0 0 - - -, f 5;
#X floatatom 247 23 5 0 0 0 - - -, f 5;
#X floatatom 16 66 5 0 0 0 - - -, f 5;
#X floatatom 198 68 5 0 0 0 - - -, f 5;
#X floatatom 207 23 5 0 0 0 - - -, f 5;
#X floatatom 60 25 5 0 0 0 - - -, f 5;
#X obj 87 -19 r bt;
#X obj 154 60 / 6;
#X obj 87 3 t b b;
#X obj 119 60 b;
#X floatatom 174 3 5 0 0 0 - - -, f 5;
#X obj 47 84 grand 1 0;
#X obj 223 96 grand 1 0;
#X obj 9 44 grand 400 1207;
#X obj 185 44 grand 0 1009;
#X connect 2 0 0 0;
#X connect 3 0 1 0;
#X connect 4 0 12 0;
#X connect 5 0 18 3;
#X connect 6 0 19 3;
#X connect 9 0 19 2;
#X connect 10 0 18 2;
#X connect 11 0 13 0;
#X connect 12 0 16 3;
#X connect 12 0 17 3;
#X connect 13 0 18 0;
#X connect 13 0 19 0;
#X connect 13 1 14 0;
#X connect 14 0 16 0;
#X connect 14 0 17 0;
#X connect 15 0 12 1;
#X connect 16 0 2 1;
#X connect 17 0 3 1;
#X connect 18 0 2 0;
#X connect 18 0 7 0;
#X connect 19 0 3 0;
#X connect 19 0 8 0;
#X coords 0 182 1 181 85 60 0;
#X restore 230 20 pd vals;
#N canvas 1091 661 161 166 fmblock 0;
#X obj 35 15 *~;
#X obj 35 37 +~;
#X obj 35 81 outlet~;
#X obj 35 -29 inlet~;
#X obj 58 -7 inlet~;
#X obj 65 15 inlet~;
#X obj 35 59 osc~;
#X connect 0 0 1 0;
#X connect 1 0 6 0;
#X connect 3 0 0 0;
#X connect 4 0 0 1;
#X connect 5 0 1 1;
#X connect 6 0 2 0;
#X coords 0 166 1 165 85 60 0;
#X restore 206 43 pd fmblock;
#X obj 109 12 ii 3000;
#X obj 122 105 grand 1 1;
#X obj 164 83 / 50;
#X text 17 297 miwi;
#N canvas 159 139 450 300 info 0;
#X text 165 105 artist : miwi;
#X text 172 119 title : ModStep;
#X text 165 133 length : 179700;
#X restore 19 278 pd info;
#X connect 1 0 0 0;
#X connect 1 0 0 1;
#X connect 2 0 51 0;
#X connect 3 0 2 0;
#X connect 6 0 12 1;
#X connect 7 0 12 0;
#X connect 8 0 5 0;
#X connect 8 0 50 0;
#X connect 9 0 13 1;
#X connect 11 0 32 0;
#X connect 12 0 5 0;
#X connect 13 0 20 0;
#X connect 13 1 37 0;
#X connect 13 2 31 0;
#X connect 15 0 43 0;
#X connect 16 0 19 0;
#X connect 17 0 13 0;
#X connect 18 0 58 1;
#X connect 19 0 31 0;
#X connect 20 0 10 0;
#X connect 20 1 19 1;
#X connect 21 0 43 0;
#X connect 22 0 23 0;
#X connect 22 0 32 1;
#X connect 24 0 26 0;
#X connect 24 0 33 2;
#X connect 25 0 14 0;
#X connect 25 1 33 0;
#X connect 25 2 57 0;
#X connect 26 0 33 3;
#X connect 27 0 58 0;
#X connect 29 0 43 1;
#X connect 30 0 16 1;
#X connect 31 0 34 0;
#X connect 31 0 45 0;
#X connect 32 0 25 0;
#X connect 33 0 16 0;
#X connect 33 0 47 0;
#X connect 35 0 43 2;
#X connect 37 0 34 0;
#X connect 37 0 44 0;
#X connect 38 0 26 1;
#X connect 39 0 40 0;
#X connect 40 0 37 1;
#X connect 40 0 43 2;
#X connect 42 0 8 1;
#X connect 43 0 8 1;
#X connect 46 0 11 0;
#X connect 48 0 9 0;
#X connect 49 0 51 0;
#X connect 50 0 1 0;
#X connect 51 0 1 1;
#X connect 52 0 53 0;
#X connect 52 1 53 1;
#X connect 52 2 53 2;
#X connect 53 0 55 0;
#X connect 54 0 55 1;
#X connect 54 1 55 2;
#X connect 55 0 8 0;
#X connect 56 0 22 0;
#X connect 57 0 28 0;
#X connect 58 0 57 3;
#X coords 0 -1 1 1 85 60 1 0 0;
