#N canvas 599 451 429 314 10;
#X floatatom 200 223 5 0 0 0 - - -, f 5;
#N canvas 0 50 450 250 (subpatch) 0;
#X array view 500 float 1 black black;
#A 0 -0.115543 -0.116231 -0.111539 -0.11679 -0.127648 -0.138966 -0.147925
-0.147435 -0.146453 -0.144626 -0.152848 -0.163508 -0.176724 -0.183113
-0.175588 -0.16813 -0.167746 -0.174667 -0.176489 -0.180338 -0.172803
-0.162507 -0.154994 -0.157465 -0.156253 -0.151158 -0.144862 -0.132233
-0.111962 -0.0987219 -0.0898542 -0.0800986 -0.0755802 -0.0617111 -0.045399
-0.0277099 -0.0121429 -0.0121643 -0.0157973 -0.0233315 -0.0218977 -0.0147464
-0.00663687 -0.00212144 -0.00461098 -0.00738408 -0.0125403 -0.00598083
0.00527664 0.0175786 0.0171936 0.011684 0.00961202 0.0120867 0.0126376
0.0257076 0.0251014 0.0183773 0.0106054 0.0039582 0.00443495 0.00406741
0.00873094 0.00308727 0.206463 0.203733 0.193746 0.174113 0.176048
0.174514 0.182832 0.178353 0.170916 0.160101 0.149347 0.141707 0.149312
0.156668 0.160217 0.167672 0.164827 0.166668 0.178581 0.179825 0.188436
0.196007 0.202163 0.207852 0.204549 0.205556 0.214612 0.224501 0.228047
0.225158 0.213259 0.200564 0.191283 0.185728 0.190511 0.184978 0.176127
0.159546 0.152701 0.145034 0.147951 0.140925 0.127588 0.112959 0.0973427
0.0936829 0.100781 0.109833 0.112783 0.112724 0.108094 0.0973443 0.101759
0.108938 0.118046 0.122599 0.123784 0.118046 0.116436 0.123989 0.135814
0.14467 0.149516 0.150193 0.15233 0.144729 0.157714 0.16733 0.168973
0.16824 0.165609 0.168177 0.171986 0.177985 0.186517 0.194366 0.198067
0.193581 0.189868 0.19252 0.199978 0.207285 0.213974 0.219059 0.216626
0.212435 0.214922 0.217838 0.216196 0.210285 0.199335 0.185189 0.171907
0.166145 0.160858 0.158475 0.145446 0.134867 0.117419 0.108749 0.0980526
0.0945668 0.0868833 0.0757512 0.0640218 0.0538211 0.058204 0.0606383
0.0644676 0.0685416 0.0695187 0.0706804 0.0704798 0.0750077 0.0840402
0.095503 0.107581 0.108962 0.114322 0.118587 0.128763 0.137203 0.14963
0.158913 0.163343 0.15968 0.166773 0.171249 0.181637 0.186653 0.18819
0.188057 0.190726 0.192303 0.197773 0.204975 0.206099 0.205349 0.207082
0.197474 0.194156 0.190609 0.188239 0.181906 0.175264 0.171818 0.161402
0.16155 0.161435 0.15826 0.151515 0.14306 0.140087 0.139706 0.138612
0.141437 0.142545 0.140159 0.135881 0.13289 0.131774 0.137075 0.139656
0.144114 0.148035 0.148761 0.151923 0.158934 0.163975 0.166549 0.168542
0.170866 0.177099 0.181514 0.180841 0.186954 0.189538 0.184104 0.186689
0.188321 0.195064 0.200577 0.198058 0.199811 0.195623 0.192064 0.19445
0.19119 0.188906 0.187809 0.177466 0.175694 0.174219 0.178035 0.177491
0.175751 0.17787 0.174841 0.172028 0.170732 0.177391 0.177335 0.186102
0.190945 0.191981 0.197659 0.208473 0.223062 0.230666 0.235868 0.237878
0.243169 0.252555 0.25943 0.270403 0.278501 0.27965 0.285483 0.286952
0.293994 0.295958 0.300927 0.298621 0.294126 0.287703 0.286318 0.291922
0.296788 0.296288 0.296227 0.291075 0.288928 0.282725 0.283482 0.287049
0.283917 0.274794 0.259226 0.257737 0.253996 0.253215 0.249585 0.238795
0.228511 0.212306 0.202442 0.201253 0.194898 0.193782 0.190481 0.18191
0.174932 0.170939 0.16397 0.158999 0.151185 0.14013 0.133252 0.126037
0.11511 0.115668 0.109848 0.110814 0.109611 0.10314 0.0928063 0.092949
0.0912955 0.0921308 0.100256 0.0934874 0.0809867 0.0786931 0.0760247
0.0779089 0.0800732 0.0834017 0.0723073 0.0638045 0.0597864 0.0567018
0.0687828 0.0705157 0.0688101 0.0634056 0.0547413 0.0543289 0.0651086
0.0708636 0.0723715 0.0722525 0.0667288 0.0677205 0.0777149 0.091592
0.108504 0.116986 0.120501 0.12366 0.129204 0.149548 0.16574 0.174873
0.185833 0.189644 0.192266 0.195079 0.198863 0.21502 0.225785 0.228214
0.228888 0.23054 0.234094 0.245674 0.252451 0.252599 0.256192 0.251209
0.244939 0.249627 0.261038 0.269202 0.277658 0.28334 0.281613 0.280311
0.284833 0.294595 0.296351 0.301533 0.29597 0.287997 0.286386 0.290118
0.295875 0.295175 0.284716 0.270428 0.254014 0.244936 0.2496 0.252173
0.258135 0.251705 0.241312 0.234164 0.230854 0.232076 0.241353 0.238795
0.226646 0.218098 0.219285 0.221019 0.227728 0.230497 0.228966 0.218995
0.21368 0.207539 0.215263 0.220251 0.222561 0.217501 0.206619 0.198716
0.189989 0.187196 0.184758 0.184192 0.178176 0.165619 0.156676 0.151629
0.150604 0.154349 0.149504 0.143152 0.125019 0.116609 0.109163 0.121352
0.12799 0.129401 0.12255 0.123633 0.123895 0.130042 0.149389 0.158902
0.159753 0.162921 0.161475 0.167162 0.178968 0.190935 0.198553 0.199447
0.197253 0.187364 0.187027 0.193132 0.204726 0.202969 0.197894 0.181855
0.170521 0.168013 0.173978 0.172565 0.173947 0.162294 0.153429 0.14397
0.141702 0.14438 0.149277 0.137856 0.132456 0.123026 0.11703 0.12629
0.133918 0.140704 0.138538 0.132277 0.121153 0.117989 0.130251 0.142097
0.145762 0.13926 0.139473 0.13613 0.145004;
#X coords 0 1 499 -1 200 140 1;
#X restore 193 18 graph;
#X obj 31 53 tgl 15 0 empty empty empty 17 7 0 10 -262144 -1 -1 1 1
;
#X obj 21 228 tabwrite~ view;
#X obj 21 187 tgl 15 0 empty empty empty 17 7 0 10 -262144 -1 -1 1
1;
#X obj 31 30 r tog;
#X obj 31 74 metro;
#X obj 31 96 s bt;
#N canvas 723 389 404 236 drums 0;
#X obj 200 51 noise~;
#X obj 187 106 *~;
#X floatatom 340 75 5 0 0 0 - - -, f 5;
#X floatatom 302 74 5 0 0 0 - - -, f 5;
#X obj 235 195 throw~ sview;
#X obj 204 170 *~;
#X obj 52 131 sel;
#X floatatom 122 86 5 0 0 0 - - -, f 5;
#X floatatom 82 86 5 0 0 0 - - -, f 5;
#X obj 172 206 adac~;
#X obj 52 33 spigot;
#X obj 91 13 r b4;
#X obj 253 29 r c;
#X obj 52 13 r c;
#X obj 52 77 sel;
#N canvas 1195 525 450 300 vol 0;
#X obj 195 90 ii;
#X obj 224 139 r met;
#X obj 195 139 *;
#X obj 146 138 t;
#X obj 146 262 outlet;
#X obj 195 262 outlet;
#X obj 309 72 r eq;
#X obj 309 94 == 0;
#X obj 37 165 spigot;
#X obj 81 143 r eq;
#X obj 195 238 spigot;
#X obj 146 238 spigot;
#X obj 157 186 r b4;
#X obj 309 169 sel;
#X msg 309 191 10;
#X obj 37 143 r eq6;
#X obj 157 206 t f f;
#X obj 146 111 spigot;
#X obj 146 89 cpt;
#X obj 146 67 r bt;
#X floatatom 205 184 5 0 0 0 - - -, f 5;
#X floatatom 193 73 5 0 0 0 - - -, f 5;
#X floatatom 271 142 5 0 0 0 - - -, f 5;
#X obj 195 115 rand 100 700;
#X obj 146 162 rind 0.5 0.65;
#X obj 37 187 graid 0.65 0 63;
#X msg 122 206 0.65;
#X connect 0 0 23 0;
#X connect 1 0 2 1;
#X connect 2 0 10 0;
#X connect 3 0 24 0;
#X connect 3 1 23 0;
#X connect 6 0 7 0;
#X connect 7 0 10 1;
#X connect 7 0 13 0;
#X connect 7 0 17 1;
#X connect 8 0 25 0;
#X connect 9 0 8 1;
#X connect 10 0 5 0;
#X connect 11 0 4 0;
#X connect 12 0 16 0;
#X connect 13 0 14 0;
#X connect 14 0 5 0;
#X connect 15 0 8 0;
#X connect 16 0 26 0;
#X connect 16 1 14 0;
#X connect 16 1 11 1;
#X connect 17 0 3 0;
#X connect 18 0 17 0;
#X connect 18 1 21 0;
#X connect 19 0 18 0;
#X connect 23 0 2 0;
#X connect 23 0 18 1;
#X connect 23 0 22 0;
#X connect 24 0 11 0;
#X connect 24 0 20 0;
#X connect 25 0 11 0;
#X connect 26 0 11 0;
#X restore 127 109 pd vol;
#N canvas 724 292 450 300 vol 0;
#X obj 205 87 ii;
#X obj 234 139 r met;
#X obj 205 139 *;
#X obj 152 138 t;
#X obj 152 242 outlet;
#X obj 205 242 outlet;
#X obj 152 111 spigot;
#X obj 309 72 r eq;
#X obj 309 94 == 0;
#X obj 37 165 spigot;
#X obj 81 143 r eq;
#X obj 205 218 spigot;
#X obj 152 218 spigot;
#X obj 309 157 sel;
#X msg 309 179 10;
#X obj 37 143 r eq7;
#X obj 166 196 r b8;
#X floatatom 212 190 5 0 0 0 - - -, f 5;
#X obj 152 90 cpt;
#X obj 205 116 rand 100 1000;
#X obj 152 68 r bt;
#X obj 37 188 graid 0.09 0 63;
#X obj 152 163 rind 0.06 0.1;
#X floatatom 115 163 5 0 0 0 - - -, f 5;
#X connect 0 0 19 0;
#X connect 1 0 2 1;
#X connect 2 0 11 0;
#X connect 3 0 22 0;
#X connect 3 1 19 0;
#X connect 6 0 3 0;
#X connect 7 0 8 0;
#X connect 8 0 6 1;
#X connect 8 0 11 1;
#X connect 8 0 13 0;
#X connect 9 0 21 0;
#X connect 10 0 9 1;
#X connect 11 0 5 0;
#X connect 11 0 17 0;
#X connect 12 0 4 0;
#X connect 13 0 14 0;
#X connect 14 0 5 0;
#X connect 15 0 9 0;
#X connect 16 0 12 1;
#X connect 18 0 6 0;
#X connect 19 0 2 0;
#X connect 19 0 18 1;
#X connect 20 0 18 0;
#X connect 21 0 12 0;
#X connect 22 0 12 0;
#X connect 22 0 23 0;
#X restore 214 114 pd vol;
#N canvas 786 365 450 300 ptrn 0;
#X obj 81 232 outlet;
#X obj 86 61 r c;
#X obj 86 107 sel;
#X obj 86 129 t;
#X obj 86 210 spigot;
#X obj 267 219 outlet;
#X obj 188 228 outlet;
#X obj 114 133 bng 15 250 50 0 empty empty empty 17 7 0 10 -262144
-1 -1;
#X floatatom 273 245 5 0 0 0 - - -, f 5;
#X floatatom 234 245 5 0 0 0 - - -, f 5;
#X obj 86 173 t f f;
#X floatatom 154 175 5 0 0 0 - - -, f 5;
#X obj 86 85 % 72;
#X obj 220 140 expr (($f1-3) / -1) + 14;
#X obj 135 210 r b32;
#X obj 257 196 expr $f1/10 + 3;
#X obj 220 161 expr $f1/8 + 2;
#X obj 86 151 rand 2 9;
#X connect 1 0 12 0;
#X connect 2 0 3 0;
#X connect 3 0 17 0;
#X connect 4 0 0 0;
#X connect 7 0 17 0;
#X connect 10 0 4 0;
#X connect 10 1 13 0;
#X connect 10 1 15 0;
#X connect 12 0 2 0;
#X connect 13 0 16 0;
#X connect 14 0 4 1;
#X connect 15 0 5 0;
#X connect 15 0 8 0;
#X connect 16 0 6 0;
#X connect 16 0 9 0;
#X connect 17 0 10 0;
#X connect 17 0 11 0;
#X restore 83 55 pd ptrn;
#N canvas 467 620 450 300 bd 0;
#X obj 174 13 inlet;
#X obj 135 272 adac~;
#X obj 178 244 throw~ sview;
#X obj 145 214 *~;
#X obj 176 36 spigot;
#X obj 215 13 r b0;
#X obj 175 214 inlet~;
#X floatatom 123 102 5 0 0 0 - - -, f 5;
#X floatatom 167 102 5 0 0 0 - - -, f 5;
#X obj 176 57 t;
#X floatatom 136 147 5 0 0 0 - - -, f 5;
#X obj 136 166 * 0.01;
#X obj 280 7 r bt;
#X obj 280 29 cpt;
#X obj 280 51 t;
#X obj 280 96 pad;
#X obj 313 51 *;
#X obj 342 51 r met;
#X floatatom 310 94 5 0 0 0 - - -, f 5;
#X obj 313 29 rand 5 30;
#X obj 80 147 *~ 0.65;
#X obj 79 122 fkick 90 36;
#N canvas 696 462 288 212 reverb 0;
#X obj 70 148 outlet~;
#X obj 70 103 inlet~;
#X obj 121 102 pad;
#X obj 121 60 t;
#X obj 164 81 rind;
#X floatatom 151 102 5 0 0 0 - - -, f 5;
#X obj 176 60 * 1.5;
#X obj 99 81 rind 175;
#X obj 121 39 r pt2;
#X obj 176 39 r _dcay2;
#X floatatom 61 63 5 0 0 0 - - -, f 5;
#X floatatom 48 82 5 0 0 0 - - -, f 5;
#X obj 80 125 rev2~ 85 75;
#X connect 1 0 0 0;
#X connect 1 0 12 0;
#X connect 2 0 5 0;
#X connect 3 0 7 0;
#X connect 3 1 4 0;
#X connect 4 0 2 1;
#X connect 6 0 4 1;
#X connect 7 0 2 0;
#X connect 10 0 12 2;
#X connect 11 0 12 1;
#X connect 12 0 0 0;
#X coords 0 0 1 1 85 60 0;
#X restore 99 191 pd reverb;
#X obj 281 73 rind 36 36.2;
#X connect 0 0 4 0;
#X connect 3 0 1 1;
#X connect 3 0 1 0;
#X connect 3 0 2 0;
#X connect 4 0 9 0;
#X connect 5 0 4 1;
#X connect 6 0 3 1;
#X connect 7 0 21 1;
#X connect 8 0 21 2;
#X connect 9 0 21 0;
#X connect 10 0 11 0;
#X connect 11 0 20 1;
#X connect 12 0 13 0;
#X connect 13 0 14 0;
#X connect 14 0 23 0;
#X connect 14 1 19 0;
#X connect 15 0 18 0;
#X connect 15 0 21 2;
#X connect 16 0 15 1;
#X connect 17 0 16 1;
#X connect 19 0 13 1;
#X connect 19 0 16 0;
#X connect 20 0 22 0;
#X connect 21 0 20 0;
#X connect 22 0 3 0;
#X connect 23 0 15 0;
#X restore 77 166 pd bd;
#X obj 52 55 % 6;
#X obj 262 95 ad~ 6 30;
#X obj 52 109 randv 4 4;
#X obj 253 52 % 48;
#X obj 253 74 sel 24;
#X obj 132 130 pad~;
#X obj 219 135 pad~;
#N canvas 855 149 450 628 snare 0;
#X obj 165 285 vline~;
#X obj 151 500 *~;
#X obj 119 332 cos~;
#X obj 135 202 t f f;
#X obj 119 312 *~;
#X msg 135 176 70;
#X obj 150 527 outlet~;
#X obj 206 574 switch~;
#X obj 206 526 env~;
#X obj 206 550 > 0.1;
#X msg 269 260 1;
#X obj 169 126 t b b b;
#X obj 169 72 inlet;
#X text 307 533 ajf;
#X obj 165 343 *~;
#X obj 151 477 cos~;
#X obj 121 549 s~ \$0-fb;
#X obj 54 334 r~ \$0-fb;
#X obj 104 383 +~;
#X obj 53 410 *~;
#X obj 166 368 *~;
#X obj 105 358 sig~ 5;
#X msg 191 180 6;
#X obj 135 228 /;
#X msg 165 263 1 0 0 \, 0 \$1 3;
#X text 271 511 efficient snare drum;
#X obj 169 97 sel 1;
#X obj 89 151 del 5;
#X msg 89 176 90;
#X connect 0 0 4 0;
#X connect 0 0 14 0;
#X connect 0 0 14 1;
#X connect 1 0 6 0;
#X connect 1 0 8 0;
#X connect 1 0 16 0;
#X connect 2 0 18 1;
#X connect 3 0 23 0;
#X connect 3 1 24 0;
#X connect 4 0 2 0;
#X connect 5 0 3 0;
#X connect 8 0 9 0;
#X connect 9 0 7 0;
#X connect 10 0 7 0;
#X connect 11 0 27 0;
#X connect 11 1 22 0;
#X connect 11 2 10 0;
#X connect 12 0 26 0;
#X connect 14 0 20 0;
#X connect 14 0 20 1;
#X connect 15 0 1 0;
#X connect 17 0 19 0;
#X connect 18 0 19 1;
#X connect 19 0 15 0;
#X connect 20 0 1 1;
#X connect 21 0 18 0;
#X connect 22 0 23 1;
#X connect 23 0 4 1;
#X connect 24 0 0 0;
#X connect 26 0 11 0;
#X connect 27 0 28 0;
#X connect 27 0 5 0;
#X connect 28 0 3 0;
#X restore 258 143 pd snare;
#X msg 258 122 1;
#X obj 288 127 bng 15 250 50 0 empty empty empty 17 7 0 10 -262144
-1 -1;
#X obj 328 168 *~;
#X obj 375 143 ad~ 1 800;
#X obj 328 143 freqm~;
#N canvas 948 128 450 301 vals 0;
#X obj 37 128 noise~;
#X obj 37 150 *~ 880;
#X obj 37 216 *~ 5555;
#X obj 37 194 vcf~ 5;
#X obj 37 238 outlet~;
#X obj 89 169 +~ 1000;
#X obj 118 198 *~;
#X obj 89 111 ad~ 0 100;
#X obj 89 140 *~ 900;
#X obj 118 238 outlet~;
#X obj 37 172 osc~;
#X obj 185 211 vline~;
#X obj 185 162 pack 0 0 0;
#X msg 185 187 \$1 \, \$2 \$3;
#X obj 252 88 rind 20 70;
#X obj 218 113 rind 10 30;
#X obj 185 238 outlet~;
#X obj 148 22 inlet;
#X obj 148 44 t b b b b b;
#X obj 149 88 rind 200;
#X floatatom 328 51 5 0 0 0 - - -, f 5;
#X floatatom 302 111 5 0 0 0 - - -, f 5;
#X floatatom 268 141 5 0 0 0 - - -, f 5;
#X floatatom 262 169 5 0 0 0 - - -, f 5;
#X obj 185 137 rind 300 800;
#X connect 0 0 1 0;
#X connect 1 0 10 0;
#X connect 2 0 4 0;
#X connect 3 0 2 0;
#X connect 5 0 3 1;
#X connect 6 0 9 0;
#X connect 7 0 6 1;
#X connect 7 0 8 0;
#X connect 8 0 5 0;
#X connect 8 0 6 0;
#X connect 10 0 3 0;
#X connect 11 0 16 0;
#X connect 12 0 13 0;
#X connect 13 0 11 0;
#X connect 14 0 12 2;
#X connect 15 0 12 1;
#X connect 17 0 18 0;
#X connect 18 0 7 0;
#X connect 18 1 19 0;
#X connect 18 2 24 0;
#X connect 18 3 15 0;
#X connect 18 4 14 0;
#X connect 19 0 7 2;
#X connect 20 0 14 2;
#X connect 21 0 15 2;
#X connect 22 0 24 2;
#X connect 23 0 24 1;
#X connect 24 0 12 0;
#X restore 324 116 pd vals;
#N canvas 696 462 288 212 reverb 0;
#X obj 70 148 outlet~;
#X obj 70 103 inlet~;
#X obj 121 102 pad;
#X obj 121 60 t;
#X obj 164 81 rind;
#X floatatom 167 106 5 0 0 0 - - -, f 5;
#X obj 176 60 * 1.5;
#X obj 99 81 rind 175;
#X obj 121 39 r pt2;
#X obj 176 39 r _dcay2;
#X floatatom 61 63 5 0 0 0 - - -, f 5;
#X floatatom 48 82 5 0 0 0 - - -, f 5;
#X obj 80 125 rev2~ 101 70;
#X connect 1 0 0 0;
#X connect 1 0 12 0;
#X connect 2 0 5 0;
#X connect 3 0 7 0;
#X connect 3 1 4 0;
#X connect 4 0 2 1;
#X connect 6 0 4 1;
#X connect 7 0 2 0;
#X connect 8 0 3 0;
#X connect 9 0 6 0;
#X connect 10 0 12 2;
#X connect 11 0 12 1;
#X connect 12 0 0 0;
#X coords 0 0 1 1 85 60 0;
#X restore 328 210 pd reverb;
#X floatatom 233 84 5 0 0 0 - - -, f 5;
#X floatatom 186 27 5 0 0 0 - - -, f 5;
#X obj 200 73 lop~ 500;
#X obj 328 190 *~ 1.2;
#X obj 165 52 *~ 4;
#X connect 0 0 36 0;
#X connect 1 0 33 0;
#X connect 2 0 20 2;
#X connect 3 0 20 1;
#X connect 5 0 4 0;
#X connect 5 0 9 1;
#X connect 5 0 9 0;
#X connect 6 0 18 0;
#X connect 7 0 21 2;
#X connect 8 0 21 1;
#X connect 10 0 19 0;
#X connect 11 0 10 1;
#X connect 12 0 22 0;
#X connect 13 0 10 0;
#X connect 14 0 21 0;
#X connect 15 0 24 0;
#X connect 15 1 24 1;
#X connect 16 0 25 0;
#X connect 16 1 25 1;
#X connect 17 0 19 1;
#X connect 17 1 21 1;
#X connect 17 2 21 2;
#X connect 19 0 14 0;
#X connect 20 0 1 1;
#X connect 21 0 6 0;
#X connect 22 0 23 0;
#X connect 23 0 20 0;
#X connect 23 0 27 0;
#X connect 23 0 32 0;
#X connect 23 0 30 0;
#X connect 24 0 18 1;
#X connect 25 0 5 1;
#X connect 26 0 5 0;
#X connect 27 0 26 0;
#X connect 27 0 28 0;
#X connect 29 0 37 0;
#X connect 30 0 29 1;
#X connect 31 0 29 0;
#X connect 32 0 31 0;
#X connect 32 1 31 1;
#X connect 32 2 31 2;
#X connect 33 0 5 0;
#X connect 34 0 36 1;
#X connect 35 0 38 1;
#X connect 36 0 38 0;
#X connect 37 0 33 0;
#X connect 38 0 1 0;
#X coords 0 236 1 235 85 60 0;
#X restore 31 162 pd drums;
#X obj 87 186 catch~ sview;
#N canvas 73 662 383 312 fm 0;
#X obj 112 285 adac~;
#N canvas 546 530 447 393 shape 0;
#X obj 250 160 r met;
#X obj 278 187 r dcay;
#X obj 250 182 f;
#X obj 278 209 b;
#X obj 240 204 *;
#X obj 203 192 *;
#X obj 165 167 %;
#X obj 79 302 s pt;
#X obj 136 167 sel;
#X obj 79 211 t;
#X obj 111 249 rind 2 100;
#X obj 188 281 f;
#X obj 129 285 t b f;
#X obj 188 314 -;
#X obj 240 226 b;
#X obj 128 337 s _atak;
#X obj 188 337 s _dcay;
#X obj 178 225 /;
#X obj 128 200 r atak;
#X floatatom 89 282 5 0 0 0 - - -, f 5;
#X floatatom 203 168 5 0 0 0 - - -, f 5;
#X obj 174 77 sel;
#X obj 125 33 r c;
#X obj 203 77 t;
#X obj 203 114 rand 3 4 6 8 9 12 16 18;
#X obj 126 55 % 24;
#X connect 0 0 2 0;
#X connect 1 0 4 1;
#X connect 1 0 3 0;
#X connect 2 0 4 0;
#X connect 3 0 2 0;
#X connect 4 0 5 1;
#X connect 4 0 14 0;
#X connect 5 0 11 1;
#X connect 5 0 17 0;
#X connect 6 0 8 0;
#X connect 8 0 9 0;
#X connect 9 0 7 0;
#X connect 9 1 10 0;
#X connect 10 0 12 0;
#X connect 10 0 19 0;
#X connect 11 0 13 0;
#X connect 12 0 11 0;
#X connect 12 1 15 0;
#X connect 12 1 13 1;
#X connect 13 0 16 0;
#X connect 14 0 5 0;
#X connect 17 0 10 2;
#X connect 18 0 17 1;
#X connect 20 0 5 0;
#X connect 20 0 6 1;
#X connect 21 0 23 0;
#X connect 22 0 25 0;
#X connect 23 0 24 0;
#X connect 24 0 20 0;
#X connect 25 0 21 0;
#X connect 25 0 6 0;
#X coords 0 0 1 1 85 60 0;
#X restore 303 77 pd shape;
#X obj 14 82 *~;
#X obj 14 39 freqm~;
#N canvas 354 533 450 300 vals 0;
#X floatatom 68 115 5 0 0 0 - - -, f 5;
#X floatatom 256 50 5 0 0 0 - - -, f 5;
#X floatatom 199 120 5 0 0 0 - - -, f 5;
#X floatatom 362 85 5 0 0 0 - - -, f 5;
#X obj 317 253 outlet~;
#X obj 167 252 outlet~;
#X obj 23 260 outlet~;
#X obj 167 70 r pt;
#X floatatom 70 41 5 0 0 0 - - -, f 5;
#X msg 70 60 k \$1;
#X obj 256 69 * 10;
#X floatatom 348 41 5 0 0 0 - - -, f 5;
#X msg 348 60 k \$1;
#X obj 23 134 rand 24;
#X obj 23 156 muse 14 7;
#X obj 316 151 muse 7 3 5 7 10;
#X obj 316 129 rand 37;
#X obj 185 175 r peek;
#X obj 167 148 rind 40 4000;
#X obj 259 174 / 1;
#X obj 266 101 r _dcay;
#X obj 23 211 pad~;
#X obj 167 212 pad~;
#X obj 316 212 pad~;
#X floatatom 262 207 5 0 0 0 - - -, f 5;
#X connect 0 0 13 1;
#X connect 1 0 10 0;
#X connect 2 0 18 1;
#X connect 3 0 16 1;
#X connect 7 0 16 0;
#X connect 7 0 18 0;
#X connect 7 0 13 0;
#X connect 8 0 9 0;
#X connect 9 0 14 0;
#X connect 10 0 18 2;
#X connect 11 0 12 0;
#X connect 12 0 15 0;
#X connect 13 0 14 0;
#X connect 14 0 21 0;
#X connect 15 0 23 0;
#X connect 16 0 15 0;
#X connect 17 0 16 0;
#X connect 17 0 18 0;
#X connect 17 0 13 0;
#X connect 18 0 22 0;
#X connect 19 0 22 1;
#X connect 19 0 24 0;
#X connect 20 0 19 0;
#X connect 21 0 6 0;
#X connect 22 0 5 0;
#X connect 23 0 4 0;
#X restore 11 16 pd vals;
#N canvas 640 361 387 247 vals 0;
#X obj 230 218 outlet~;
#X obj 5 218 outlet~;
#X obj 115 218 outlet~;
#X obj 230 171 curve~;
#X obj 5 172 curve~;
#X obj 115 170 curve~;
#X obj 145 40 t;
#X obj 168 117 b;
#X floatatom 13 18 5 0 0 0 - - -, f 5;
#X msg 13 37 k \$1;
#X floatatom 251 16 5 0 0 0 - - -, f 5;
#X msg 251 35 k \$1;
#X floatatom 106 16 5 0 0 0 - - -, f 5;
#X msg 106 35 k \$1;
#X obj 249 152 rind;
#X obj 124 151 rind;
#X obj 10 151 rind;
#X obj 145 17 r pt2;
#X obj 58 198 r peek;
#X obj 239 74 rind 30;
#X obj 2 73 rind 25;
#X obj 125 73 rind 40;
#X obj 0 96 muse 80 4 7 9 10;
#X obj 120 96 muse 76 4 7 9 10;
#X obj 239 96 muse 40 4 7 9 10;
#X obj 46 151 rind -0.7;
#X obj 159 151 rind -0.7;
#X obj 284 152 rind -0.7;
#X obj 182 36 r _dcay2;
#X obj 218 56 r ramp;
#X floatatom 192 78 5 0 0 0 - - -, f 5;
#X obj 202 117 *;
#X obj 31 116 / 2;
#X obj 254 117 / 4;
#X connect 3 0 0 0;
#X connect 4 0 1 0;
#X connect 5 0 2 0;
#X connect 6 0 19 0;
#X connect 6 0 20 0;
#X connect 6 0 21 0;
#X connect 6 1 7 0;
#X connect 7 0 14 0;
#X connect 7 0 15 0;
#X connect 7 0 16 0;
#X connect 7 0 25 0;
#X connect 7 0 26 0;
#X connect 7 0 27 0;
#X connect 8 0 9 0;
#X connect 9 0 22 0;
#X connect 10 0 11 0;
#X connect 11 0 24 0;
#X connect 12 0 13 0;
#X connect 13 0 23 0;
#X connect 14 0 3 1;
#X connect 15 0 5 1;
#X connect 16 0 4 1;
#X connect 17 0 6 0;
#X connect 18 0 16 0;
#X connect 18 0 15 0;
#X connect 18 0 14 0;
#X connect 18 0 25 0;
#X connect 19 0 24 0;
#X connect 20 0 22 0;
#X connect 21 0 23 0;
#X connect 22 0 4 0;
#X connect 23 0 5 0;
#X connect 24 0 3 0;
#X connect 25 0 4 2;
#X connect 26 0 5 2;
#X connect 27 0 3 2;
#X connect 28 0 30 0;
#X connect 28 0 31 0;
#X connect 29 0 31 1;
#X connect 31 0 32 0;
#X connect 31 0 33 0;
#X connect 31 0 15 1;
#X connect 32 0 16 1;
#X connect 33 0 14 1;
#X coords 0 247 1 246 85 60 0;
#X restore 150 16 pd vals;
#X obj 157 39 freqm~;
#N canvas 1033 343 316 261 vals 0;
#X obj 38 219 outlet~;
#X obj 161 218 outlet~;
#X obj 38 197 curve~;
#X obj 161 196 curve~;
#X obj 113 30 t;
#X obj 104 118 b;
#X floatatom 202 32 5 0 0 0 - - -, f 5;
#X msg 202 54 k \$1;
#X floatatom 67 25 5 0 0 0 - - -, f 5;
#X msg 66 44 k \$1;
#X floatatom 148 46 5 0 0 0 - - -, f 5;
#X floatatom 258 11 5 0 0 0 - - -, f 5;
#X msg 74 -17 7;
#X obj 57 173 rind;
#X obj 180 174 rind;
#X obj 113 8 r pt2;
#X obj 173 128 r ramp;
#X obj 20 37 r peek;
#X obj 167 101 muse -11 4 7 9 10;
#X obj 39 78 rind 32;
#X obj 167 78 rind 30;
#X obj 39 100 muse 50 4 7 9 10;
#X obj 161 -6 r _dcay2;
#X obj 94 173 rind -0.7;
#X obj 217 174 rind -0.7;
#X obj 136 122 /;
#X connect 2 0 0 0;
#X connect 3 0 1 0;
#X connect 4 0 19 0;
#X connect 4 0 20 0;
#X connect 4 1 5 0;
#X connect 5 0 13 0;
#X connect 5 0 14 0;
#X connect 5 0 23 0;
#X connect 5 0 24 0;
#X connect 6 0 7 0;
#X connect 7 0 18 0;
#X connect 8 0 9 0;
#X connect 9 0 21 0;
#X connect 12 0 8 0;
#X connect 12 0 6 0;
#X connect 13 0 2 1;
#X connect 14 0 3 1;
#X connect 15 0 4 0;
#X connect 16 0 25 1;
#X connect 17 0 14 0;
#X connect 17 0 13 0;
#X connect 17 0 19 0;
#X connect 17 0 20 0;
#X connect 18 0 3 0;
#X connect 19 0 21 0;
#X connect 20 0 18 0;
#X connect 21 0 2 0;
#X connect 22 0 25 0;
#X connect 23 0 2 2;
#X connect 24 0 3 2;
#X connect 25 0 14 1;
#X connect 25 0 13 1;
#X coords 0 261 1 260 85 60 0;
#X restore 208 16 pd vals;
#X obj 226 127 ad~;
#X floatatom 259 124 5 0 0 0 - _dcay2 -, f 5;
#X floatatom 262 102 5 0 0 0 - _atak2 -, f 5;
#X obj 208 147 *~;
#X obj 220 101 r pt2;
#N canvas 1001 529 447 393 shape2 0;
#X obj 262 171 r met;
#X obj 262 193 f;
#X obj 290 220 b;
#X obj 252 215 *;
#X obj 203 192 *;
#X obj 165 167 %;
#X obj 136 167 sel;
#X obj 79 211 t;
#X obj 185 275 f;
#X obj 129 279 t b f;
#X obj 185 308 -;
#X obj 252 237 b;
#X obj 178 225 /;
#X floatatom 88 277 5 0 0 0 - - -, f 5;
#X obj 128 331 s _atak2;
#X obj 190 331 s _dcay2;
#X obj 79 296 s pt2;
#X obj 290 198 r dcay2;
#X obj 128 200 r atak2;
#X floatatom 206 163 5 0 0 0 - - -, f 5;
#X obj 177 74 sel;
#X obj 128 25 r c;
#X obj 206 74 t;
#X obj 111 249 rind 2 100;
#X obj 128 47 % 18;
#X obj 206 108 rand 2 3 4 6 8 9;
#X connect 0 0 1 0;
#X connect 1 0 3 0;
#X connect 2 0 1 0;
#X connect 3 0 4 1;
#X connect 3 0 11 0;
#X connect 4 0 8 1;
#X connect 4 0 12 0;
#X connect 5 0 6 0;
#X connect 6 0 7 0;
#X connect 7 0 16 0;
#X connect 7 1 23 0;
#X connect 8 0 10 0;
#X connect 9 0 8 0;
#X connect 9 1 10 1;
#X connect 9 1 14 0;
#X connect 10 0 15 0;
#X connect 11 0 4 0;
#X connect 12 0 23 2;
#X connect 17 0 3 1;
#X connect 17 0 2 0;
#X connect 18 0 12 1;
#X connect 19 0 5 1;
#X connect 19 0 4 0;
#X connect 20 0 22 0;
#X connect 21 0 24 0;
#X connect 22 0 25 0;
#X connect 23 0 9 0;
#X connect 23 0 13 0;
#X connect 24 0 20 0;
#X connect 24 0 5 0;
#X connect 25 0 19 0;
#X coords 0 0 1 1 85 60 0;
#X restore 303 179 pd shape2;
#X obj 208 248 pan~;
#X obj 208 80 *~;
#X obj 106 194 throw~ sview;
#X obj 14 248 pan~;
#N canvas 530 587 450 300 dcay2 0;
#X obj 181 191 pad;
#X obj 181 213 s dcay2;
#X obj 246 148 r met;
#X obj 217 148 *;
#X obj 182 135 t;
#X obj 204 63 r eq;
#X obj 204 85 == 0;
#X floatatom 307 43 5 0 0 0 - - -, f 5;
#X obj 265 85 s dcay2;
#X obj 265 41 r eq3;
#X obj 217 107 ii;
#X floatatom 122 224 5 0 0 0 - - -, f 5;
#X obj 165 107 spigot;
#X obj 165 85 cpt;
#X obj 165 63 r bt;
#X obj 217 127 rand 100 700;
#X obj 332 101 r peek;
#X obj 265 63 graid 2 0.1 63;
#X obj 182 168 rind 0.25 1.5;
#X obj 121 169 ii 1.2;
#X connect 0 0 11 0;
#X connect 0 0 1 0;
#X connect 2 0 3 1;
#X connect 3 0 0 1;
#X connect 4 0 18 0;
#X connect 4 1 15 0;
#X connect 5 0 6 0;
#X connect 6 0 12 1;
#X connect 7 0 17 0;
#X connect 9 0 17 0;
#X connect 10 0 15 0;
#X connect 12 0 4 0;
#X connect 13 0 12 0;
#X connect 14 0 13 0;
#X connect 15 0 3 0;
#X connect 15 0 13 1;
#X connect 16 0 15 0;
#X connect 16 0 18 0;
#X connect 17 0 8 0;
#X connect 18 0 0 0;
#X connect 19 0 0 0;
#X restore 303 159 pd dcay2;
#N canvas 330 327 450 300 dcay 0;
#X obj 155 167 pad;
#X obj 155 189 s dcay;
#X obj 218 121 r met;
#X obj 189 121 *;
#X obj 155 120 t;
#X obj 179 33 r eq;
#X obj 179 55 == 0;
#X obj 244 67 s dcay;
#X floatatom 286 25 5 0 0 0 - - -, f 5;
#X obj 244 23 r eq1;
#X floatatom 98 201 5 0 0 0 - - -, f 5;
#X obj 191 77 ii;
#X obj 140 79 spigot;
#X obj 140 57 cpt;
#X obj 140 35 r bt;
#X obj 191 98 rand 100 1000;
#X obj 307 106 r peek;
#X obj 244 45 graid 2 0.1 63;
#X obj 155 145 rind 0.15 2;
#X connect 0 0 1 0;
#X connect 0 0 10 0;
#X connect 2 0 3 1;
#X connect 3 0 0 1;
#X connect 4 0 18 0;
#X connect 4 1 15 0;
#X connect 5 0 6 0;
#X connect 6 0 12 1;
#X connect 8 0 17 0;
#X connect 9 0 17 0;
#X connect 11 0 15 0;
#X connect 12 0 4 0;
#X connect 13 0 12 0;
#X connect 14 0 13 0;
#X connect 15 0 3 0;
#X connect 15 0 13 1;
#X connect 16 0 15 0;
#X connect 16 0 18 0;
#X connect 17 0 7 0;
#X connect 18 0 0 0;
#X restore 303 57 pd dcay;
#N canvas 879 414 391 232 vol 0;
#X obj 197 47 ii;
#X obj 226 96 r met;
#X obj 197 96 *;
#X obj 148 95 t;
#X obj 148 144 outlet;
#X obj 197 167 outlet;
#X msg 302 136 10;
#X obj 34 96 spigot;
#X obj 75 74 r eq;
#X obj 197 144 spigot;
#X obj 302 29 r eq;
#X obj 302 51 == 0;
#X obj 302 114 sel;
#X obj 34 74 r eq2;
#X obj 148 68 spigot;
#X obj 148 46 cpt;
#X obj 148 24 r bt;
#X obj 197 72 rand 100 500;
#X obj 34 118 graid 0.34 0 63;
#X obj 148 119 rind 0.13 0.27;
#X connect 0 0 17 0;
#X connect 1 0 2 1;
#X connect 2 0 9 0;
#X connect 3 0 19 0;
#X connect 3 1 17 0;
#X connect 6 0 5 0;
#X connect 7 0 18 0;
#X connect 8 0 7 1;
#X connect 9 0 5 0;
#X connect 10 0 11 0;
#X connect 11 0 9 1;
#X connect 11 0 12 0;
#X connect 11 0 14 1;
#X connect 12 0 6 0;
#X connect 13 0 7 0;
#X connect 14 0 3 0;
#X connect 15 0 14 0;
#X connect 16 0 15 0;
#X connect 17 0 2 0;
#X connect 17 0 15 1;
#X connect 18 0 4 0;
#X connect 19 0 4 0;
#X restore 233 60 pd vol;
#X obj 208 39 fmbloc~;
#N canvas 584 515 450 302 vol 0;
#X obj 195 89 ii;
#X obj 224 139 r met;
#X obj 195 139 *;
#X obj 146 138 t;
#X obj 146 236 outlet;
#X obj 195 236 outlet;
#X obj 146 110 spigot;
#X obj 37 165 spigot;
#X obj 81 143 r eq;
#X obj 195 212 spigot;
#X obj 37 143 r eq0;
#X obj 146 212 spigot;
#X obj 160 190 r b4;
#X floatatom 252 77 5 0 0 0 - - -, f 5;
#X floatatom 250 233 5 0 0 0 - - -, f 5;
#X obj 146 68 r bt;
#X obj 146 89 cpt;
#X obj 195 114 rand 100 500;
#X msg 303 179 10;
#X obj 303 71 r eq;
#X obj 303 157 sel;
#X floatatom 206 186 5 0 0 0 - - -, f 5;
#X floatatom 303 223 5 0 0 0 - - -, f 5;
#X obj 146 163 rind 0.04 0.12;
#X obj 37 187 graid 0.12 0 63;
#X obj 303 93 ==;
#X floatatom 349 99 5 0 0 0 - - -, f 5;
#X floatatom 71 75 5 0 0 0 - - -, f 5;
#X connect 0 0 17 0;
#X connect 1 0 2 1;
#X connect 2 0 9 0;
#X connect 3 0 23 0;
#X connect 3 1 17 0;
#X connect 6 0 3 0;
#X connect 7 0 24 0;
#X connect 8 0 7 1;
#X connect 9 0 5 0;
#X connect 9 0 14 0;
#X connect 10 0 7 0;
#X connect 11 0 4 0;
#X connect 12 0 11 1;
#X connect 15 0 16 0;
#X connect 16 0 6 0;
#X connect 17 0 2 0;
#X connect 17 0 13 0;
#X connect 17 0 16 1;
#X connect 18 0 5 0;
#X connect 19 0 25 0;
#X connect 20 0 18 0;
#X connect 23 0 11 0;
#X connect 23 0 21 0;
#X connect 24 0 11 0;
#X connect 25 0 20 0;
#X connect 25 0 6 1;
#X connect 25 0 9 1;
#X connect 26 0 25 0;
#X connect 27 0 11 0;
#X restore 38 61 pd vol;
#X obj 32 124 ad~;
#X floatatom 64 119 5 0 0 0 - _dcay -, f 5;
#X floatatom 56 101 5 0 0 0 - _atak -, f 5;
#X obj 14 150 *~;
#X obj 26 101 r pt;
#N canvas 579 156 450 300 atak 0;
#X obj 146 95 %;
#X obj 146 117 sel;
#X obj 199 92 ii;
#X obj 228 139 r met;
#X obj 199 139 *;
#X obj 146 138 t;
#X obj 146 51 r c;
#X obj 199 115 rind 100 500;
#X obj 146 182 pad;
#X obj 146 204 s atak;
#X obj 146 160 rind 5 10;
#X connect 0 0 1 0;
#X connect 1 0 5 0;
#X connect 2 0 7 0;
#X connect 3 0 4 1;
#X connect 4 0 8 1;
#X connect 5 0 10 0;
#X connect 5 1 7 0;
#X connect 6 0 0 0;
#X connect 7 0 0 1;
#X connect 7 0 4 0;
#X connect 8 0 9 0;
#X connect 10 0 8 0;
#X restore 303 37 pd atak;
#N canvas 1051 168 450 300 atak2 0;
#X obj 146 95 %;
#X obj 146 117 sel;
#X obj 199 92 ii;
#X obj 228 139 r met;
#X obj 199 139 *;
#X obj 146 138 t;
#X obj 146 51 r c;
#X floatatom 256 77 5 0 0 0 - - -, f 5;
#X obj 199 115 rind 100 500;
#X obj 146 182 pad;
#X obj 146 204 s atak2;
#X obj 146 160 rind 10 20;
#X connect 0 0 1 0;
#X connect 1 0 5 0;
#X connect 2 0 8 0;
#X connect 3 0 4 1;
#X connect 4 0 9 1;
#X connect 5 0 11 0;
#X connect 5 1 8 0;
#X connect 6 0 0 0;
#X connect 8 0 0 1;
#X connect 8 0 4 0;
#X connect 8 0 7 0;
#X connect 9 0 10 0;
#X connect 11 0 9 0;
#X restore 303 139 pd atak2;
#N canvas 418 586 288 212 reverb 0;
#X obj 78 142 outlet~;
#X obj 78 97 inlet~;
#X obj 129 96 pad;
#X obj 128 54 t;
#X obj 171 75 rind;
#X floatatom 159 118 5 0 0 0 - - -, f 5;
#X obj 88 119 rev2~ 93;
#X obj 107 75 rind 150;
#X obj 183 53 * 1.5;
#X obj 128 33 r pt;
#X obj 183 31 r _dcay;
#X connect 1 0 0 0;
#X connect 1 0 6 0;
#X connect 2 0 5 0;
#X connect 2 0 6 2;
#X connect 3 0 7 0;
#X connect 3 1 4 0;
#X connect 4 0 2 1;
#X connect 6 0 0 0;
#X connect 7 0 2 0;
#X connect 8 0 4 1;
#X connect 9 0 3 0;
#X connect 10 0 8 0;
#X coords 0 0 1 1 85 60 0;
#X restore 14 194 pd reverb;
#N canvas 723 620 288 212 reverb 0;
#X obj 70 148 outlet~;
#X obj 70 103 inlet~;
#X obj 121 102 pad;
#X obj 121 60 t;
#X obj 164 81 rind;
#X floatatom 151 102 5 0 0 0 - - -, f 5;
#X obj 176 60 * 1.5;
#X obj 99 81 rind 175;
#X obj 121 39 r pt2;
#X obj 176 39 r _dcay2;
#X floatatom 61 63 5 0 0 0 - - -, f 5;
#X obj 80 125 rev2~ 88 50;
#X connect 1 0 0 0;
#X connect 1 0 11 0;
#X connect 2 0 5 0;
#X connect 3 0 7 0;
#X connect 3 1 4 0;
#X connect 4 0 2 1;
#X connect 6 0 4 1;
#X connect 7 0 2 0;
#X connect 10 0 11 2;
#X connect 11 0 0 0;
#X coords 0 0 1 1 85 60 0;
#X restore 208 196 pd reverb;
#X obj 26 227 rind 0.25 0.75;
#X obj 220 228 rind 0.3 0.7;
#X obj 237 80 pad~;
#X obj 43 82 pad~;
#X connect 2 0 26 0;
#X connect 3 0 2 0;
#X connect 4 0 3 0;
#X connect 4 1 3 1;
#X connect 4 2 3 2;
#X connect 5 0 6 0;
#X connect 5 1 6 1;
#X connect 5 2 6 2;
#X connect 6 0 21 0;
#X connect 7 0 21 1;
#X connect 7 1 21 2;
#X connect 8 0 11 1;
#X connect 9 0 8 2;
#X connect 10 0 8 1;
#X connect 11 0 31 0;
#X connect 12 0 8 0;
#X connect 12 0 33 0;
#X connect 14 0 0 0;
#X connect 14 1 0 1;
#X connect 15 0 11 0;
#X connect 17 0 0 0;
#X connect 17 1 0 1;
#X connect 20 0 34 0;
#X connect 20 1 34 1;
#X connect 21 0 15 0;
#X connect 22 0 35 0;
#X connect 22 1 35 1;
#X connect 23 0 26 1;
#X connect 24 0 23 2;
#X connect 25 0 23 1;
#X connect 26 0 30 0;
#X connect 27 0 23 0;
#X connect 27 0 32 0;
#X connect 30 0 16 0;
#X connect 30 0 17 0;
#X connect 31 0 14 0;
#X connect 31 0 16 0;
#X connect 32 0 17 1;
#X connect 33 0 14 1;
#X connect 34 0 15 1;
#X connect 35 0 2 1;
#X coords 0 312 1 311 85 60 0;
#X restore 31 118 pd fm;
#X floatatom 358 240 5 0 0 0 - - -, f 5;
#X obj 358 259 s atak;
#X obj 359 208 s met;
#X floatatom 359 187 5 0 0 0 - - -, f 5;
#X floatatom 258 225 5 0 0 0 - - -, f 5;
#X obj 258 264 s dcay;
#X floatatom 259 185 5 0 0 0 - - -, f 5;
#X obj 259 204 s ramp;
#N canvas 817 261 465 341 hum 0;
#X obj 95 186 s lbt;
#X obj 219 136 s latak;
#X obj 219 83 r met;
#X obj 269 136 s lramp;
#N canvas 936 738 409 260 lofm 0;
#X obj 143 101 *~;
#X floatatom 239 46 5 0 0 0 - ldcay -, f 5;
#X obj 234 24 bng 15 250 50 0 empty empty empty 17 7 0 10 -262144 -1
-1;
#X floatatom 198 46 5 0 0 0 - latak -, f 5;
#X obj 143 135 *~;
#X obj 188 26 r lbt;
#X obj 127 182 adac~;
#X obj 170 158 throw~ sview;
#N canvas 375 608 450 200 vals 0;
#X floatatom 35 95 5 0 0 0 - lramp -, f 5;
#X obj 19 115 curve~;
#X obj 19 50 r lt;
#X floatatom 104 55 5 0 0 0 - - -, f 5;
#X floatatom 182 56 5 0 0 0 - - -, f 5;
#X floatatom 183 95 5 0 0 0 - xlramp -, f 5;
#X obj 167 115 curve~;
#X obj 167 21 r lbt;
#X floatatom 221 56 5 0 0 0 - - -, f 5;
#X obj 167 75 rind 100 800;
#X floatatom 321 98 5 0 0 0 - ramp -, f 5;
#X obj 305 117 curve~;
#X obj 305 55 r lt;
#X obj 19 145 outlet~;
#X obj 167 142 outlet~;
#X obj 305 145 outlet~;
#X obj 215 32 ii;
#X obj 19 75 muse 31 2 3 -1 -4 -5;
#X obj 305 77 muse 50 2 3 4 5 4;
#X obj 66 115 rind -0.7;
#X obj 218 115 rind -0.7;
#X obj 356 117 rind -0.7;
#X connect 0 0 1 1;
#X connect 1 0 13 0;
#X connect 2 0 3 0;
#X connect 2 0 17 0;
#X connect 4 0 9 1;
#X connect 5 0 6 1;
#X connect 6 0 14 0;
#X connect 7 0 9 0;
#X connect 7 0 19 0;
#X connect 7 0 20 0;
#X connect 7 0 21 0;
#X connect 8 0 9 2;
#X connect 9 0 6 0;
#X connect 10 0 11 1;
#X connect 11 0 15 0;
#X connect 12 0 18 0;
#X connect 16 0 9 0;
#X connect 17 0 1 0;
#X connect 18 0 11 0;
#X connect 19 0 1 2;
#X connect 20 0 6 2;
#X connect 21 0 11 2;
#X restore 75 26 pd vals;
#X obj 79 52 freqm~;
#N canvas 932 531 311 248 vals 0;
#X obj 38 180 outlet~;
#X obj 38 150 curve~;
#X obj 113 17 t;
#X obj 124 114 b;
#X floatatom 67 12 5 0 0 0 - - -, f 5;
#X msg 66 31 k \$1;
#X msg 74 -30 7;
#X obj 72 150 rind;
#X floatatom 84 114 5 0 0 0 - - -, f 5;
#X floatatom 45 114 5 0 0 0 - - -, f 5;
#X obj 113 -5 r lbt;
#X obj 161 -19 r ldcay;
#X floatatom 107 41 5 0 0 0 - - -, f 5;
#X obj 158 115 / 4;
#X obj 38 87 muse 19 2 3 7 8;
#X obj 38 62 rind 30;
#X connect 1 0 0 0;
#X connect 2 0 15 0;
#X connect 2 1 3 0;
#X connect 3 0 7 0;
#X connect 4 0 5 0;
#X connect 5 0 14 0;
#X connect 6 0 4 0;
#X connect 7 0 1 1;
#X connect 10 0 2 0;
#X connect 11 0 13 0;
#X connect 12 0 15 1;
#X connect 13 0 7 2;
#X connect 14 0 1 0;
#X connect 14 0 9 0;
#X connect 14 1 8 0;
#X connect 15 0 14 0;
#X coords 0 248 1 247 85 60 0;
#X restore 132 26 pd vals;
#X obj 188 65 ad~;
#X obj 130 74 *~ 0.5;
#X obj 130 52 fmbloc~;
#N canvas 877 526 450 300 vol 0;
#X obj 195 89 ii;
#X obj 224 139 r met;
#X obj 195 139 *;
#X obj 146 138 t;
#X obj 146 262 outlet;
#X obj 195 262 outlet;
#X obj 309 71 r eq;
#X obj 309 93 == 0;
#X obj 16 170 spigot;
#X obj 60 148 r eq;
#X obj 195 238 spigot;
#X obj 146 238 spigot;
#X obj 309 169 sel;
#X msg 309 191 10;
#X obj 16 148 r eq4;
#X obj 172 183 r b4;
#X obj 172 203 t f f;
#X msg 127 202 0.12;
#X obj 146 110 spigot;
#X obj 146 89 cpt;
#X obj 146 67 r bt;
#X obj 195 114 rand 100 1000;
#X obj 146 163 rind 0.05 0.09;
#X obj 15 192 graid 0.09 0 63;
#X connect 0 0 21 0;
#X connect 1 0 2 1;
#X connect 2 0 10 0;
#X connect 3 0 22 0;
#X connect 3 1 21 0;
#X connect 6 0 7 0;
#X connect 7 0 10 1;
#X connect 7 0 12 0;
#X connect 7 0 18 1;
#X connect 8 0 23 0;
#X connect 9 0 8 1;
#X connect 10 0 5 0;
#X connect 11 0 4 0;
#X connect 12 0 13 0;
#X connect 13 0 5 0;
#X connect 14 0 8 0;
#X connect 15 0 16 0;
#X connect 16 0 17 0;
#X connect 16 1 11 1;
#X connect 16 1 13 0;
#X connect 17 0 11 0;
#X connect 18 0 3 0;
#X connect 19 0 18 0;
#X connect 20 0 19 0;
#X connect 21 0 2 0;
#X connect 21 0 19 1;
#X connect 22 0 11 0;
#X connect 23 0 11 0;
#X restore 185 112 pd vol;
#X obj 190 133 pad~;
#X connect 0 0 4 0;
#X connect 1 0 11 2;
#X connect 2 0 11 0;
#X connect 3 0 11 1;
#X connect 4 0 6 1;
#X connect 4 0 6 0;
#X connect 4 0 7 0;
#X connect 5 0 11 0;
#X connect 8 0 9 0;
#X connect 8 1 9 1;
#X connect 8 2 9 2;
#X connect 9 0 0 0;
#X connect 9 0 13 0;
#X connect 10 0 13 1;
#X connect 11 0 0 1;
#X connect 12 0 0 0;
#X connect 13 0 12 0;
#X connect 14 0 15 0;
#X connect 14 1 15 1;
#X connect 15 0 4 1;
#X restore 57 151 pd lofm;
#N canvas 936 420 408 257 hifm 0;
#X obj 134 97 *~;
#X floatatom 234 52 5 0 0 0 - ldcay -, f 5;
#X floatatom 177 25 5 0 0 0 - latak -, f 5;
#X obj 134 131 *~;
#X obj 194 133 r lbt;
#X obj 129 204 adac~;
#X obj 43 177 throw~ sview;
#N canvas 468 433 450 177 vals 0;
#X floatatom 70 83 5 0 0 0 - lramp -, f 5;
#X obj 33 100 curve~;
#X obj 33 62 muse 59 10 10 12;
#X floatatom 203 19 5 0 0 0 - - -, f 5;
#X floatatom 194 44 5 0 0 0 - - -, f 5;
#X floatatom 208 85 5 0 0 0 - xlramp -, f 5;
#X obj 152 108 curve~;
#X obj 152 22 r lbt;
#X floatatom 234 44 5 0 0 0 - - -, f 5;
#X floatatom 163 84 5 0 0 0 - - -, f 5;
#X obj 152 63 rind 100 800;
#X floatatom 326 86 5 0 0 0 - ramp -, f 5;
#X obj 310 110 curve~;
#X floatatom 346 45 5 0 0 0 - - -, f 5;
#X obj 310 64 muse 29 2 -3 -2;
#X obj 310 44 r ht;
#X obj 33 140 outlet~;
#X obj 152 140 outlet~;
#X obj 310 139 outlet~;
#X obj 119 27 ii;
#X obj 33 41 r ht;
#X obj 363 119 rind -0.7;
#X obj 205 108 rind -0.7;
#X obj 83 100 rind -0.7;
#X obj 152 43 t;
#X connect 0 0 1 1;
#X connect 1 0 16 0;
#X connect 2 0 1 0;
#X connect 4 0 10 1;
#X connect 5 0 6 1;
#X connect 6 0 17 0;
#X connect 7 0 24 0;
#X connect 8 0 10 2;
#X connect 9 0 6 0;
#X connect 10 0 3 0;
#X connect 10 0 6 0;
#X connect 11 0 12 1;
#X connect 12 0 18 0;
#X connect 13 0 14 1;
#X connect 14 0 12 0;
#X connect 15 0 14 0;
#X connect 19 0 10 0;
#X connect 20 0 2 0;
#X connect 21 0 12 2;
#X connect 22 0 6 2;
#X connect 23 0 1 2;
#X connect 24 0 10 0;
#X connect 24 1 21 0;
#X connect 24 1 22 0;
#X connect 24 1 23 0;
#X restore 57 22 pd vals;
#X obj 60 44 freqm~;
#N canvas 924 433 311 248 vals 0;
#X obj 38 190 outlet~;
#X obj 38 168 curve~;
#X obj 138 34 t;
#X obj 90 115 b;
#X floatatom 53 21 5 0 0 0 - - -, f 5;
#X msg 52 40 k \$1;
#X msg 53 -5 7;
#X obj 54 145 rind;
#X floatatom 193 88 5 0 0 0 - - -, f 5;
#X floatatom 44 106 5 0 0 0 - - -, f 5;
#X obj 138 12 r lbt;
#X obj 142 115 r ldcay;
#X obj 38 87 muse 19 2 3 7 8;
#X obj 38 65 rind 0 30;
#X obj 116 115 / 4;
#X obj 91 145 rind -0.7;
#X connect 1 0 0 0;
#X connect 2 0 13 0;
#X connect 2 1 3 0;
#X connect 3 0 7 0;
#X connect 3 0 15 0;
#X connect 4 0 5 0;
#X connect 5 0 12 0;
#X connect 6 0 4 0;
#X connect 7 0 1 1;
#X connect 10 0 2 0;
#X connect 11 0 14 0;
#X connect 12 0 1 0;
#X connect 12 0 9 0;
#X connect 12 1 8 0;
#X connect 13 0 12 0;
#X connect 14 0 7 2;
#X connect 15 0 1 2;
#X coords 0 248 1 247 85 60 0;
#X restore 117 22 pd vals;
#X obj 183 183 ii 0.5;
#X obj 167 44 ad~;
#X obj 134 177 pan~;
#X obj 111 64 *~ 0.6;
#X obj 111 44 fmbloc~;
#N canvas 410 528 450 300 vol 0;
#X obj 195 88 ii;
#X obj 224 139 r met;
#X obj 195 139 *;
#X obj 146 138 t;
#X obj 146 262 outlet;
#X obj 195 262 outlet;
#X obj 309 70 r eq;
#X obj 309 92 == 0;
#X obj 16 170 spigot;
#X obj 60 148 r eq;
#X obj 195 238 spigot;
#X obj 146 238 spigot;
#X obj 309 157 sel;
#X msg 309 179 10;
#X obj 16 148 r eq5;
#X obj 167 187 r b4;
#X obj 167 207 t f f;
#X msg 128 207 0.17;
#X obj 146 109 spigot;
#X obj 146 88 cpt;
#X obj 146 66 r bt;
#X obj 195 113 rand 100 1000;
#X obj 146 163 rind 0.06 0.13;
#X obj 16 192 graid 0.13 0 63;
#X connect 0 0 21 0;
#X connect 1 0 2 1;
#X connect 2 0 10 0;
#X connect 3 0 22 0;
#X connect 3 1 21 0;
#X connect 6 0 7 0;
#X connect 7 0 10 1;
#X connect 7 0 12 0;
#X connect 7 0 18 1;
#X connect 8 0 23 0;
#X connect 9 0 8 1;
#X connect 10 0 5 0;
#X connect 11 0 4 0;
#X connect 12 0 13 0;
#X connect 13 0 5 0;
#X connect 14 0 8 0;
#X connect 15 0 16 0;
#X connect 16 0 17 0;
#X connect 16 1 11 1;
#X connect 16 1 13 0;
#X connect 17 0 11 0;
#X connect 18 0 3 0;
#X connect 19 0 18 0;
#X connect 20 0 19 0;
#X connect 21 0 2 0;
#X connect 21 0 19 1;
#X connect 22 0 11 0;
#X connect 23 0 11 0;
#X restore 170 88 pd vol;
#X obj 146 154 rind 0.4 0.6;
#X obj 175 109 pad~;
#X connect 0 0 3 0;
#X connect 1 0 11 2;
#X connect 2 0 11 1;
#X connect 3 0 6 0;
#X connect 3 0 12 0;
#X connect 4 0 11 0;
#X connect 4 0 16 0;
#X connect 7 0 8 0;
#X connect 7 1 8 1;
#X connect 7 2 8 2;
#X connect 8 0 0 0;
#X connect 8 0 14 0;
#X connect 9 0 14 1;
#X connect 10 0 12 1;
#X connect 11 0 0 1;
#X connect 12 0 5 0;
#X connect 12 1 5 1;
#X connect 13 0 0 0;
#X connect 14 0 13 0;
#X connect 15 0 17 0;
#X connect 15 1 17 1;
#X connect 16 0 12 1;
#X connect 17 0 3 1;
#X restore 57 129 pd hifm;
#X floatatom 80 215 5 0 0 0 - - -, f 5;
#X obj 133 232 s lt;
#X floatatom 243 232 5 0 0 0 - - -, f 5;
#X floatatom 168 232 5 0 0 0 - - -, f 5;
#X obj 208 232 s ht;
#X obj 208 210 randv 4 1;
#X obj 122 97 spigot;
#N canvas 836 529 452 352 shape 0;
#X obj 215 216 -;
#X obj 246 238 s ldcay;
#X obj 206 296 s xlramp;
#X obj 246 216 r latak;
#X obj 202 102 r met;
#X obj 215 197 f;
#X obj 246 197 b;
#X floatatom 285 122 5 0 0 0 - - -, f 5;
#X msg 297 81 128;
#X obj 199 134 f;
#X obj 252 97 b;
#X obj 206 167 * 318;
#X connect 0 0 1 0;
#X connect 3 0 0 1;
#X connect 3 0 6 0;
#X connect 4 0 9 1;
#X connect 4 0 10 0;
#X connect 5 0 0 0;
#X connect 6 0 5 0;
#X connect 7 0 10 0;
#X connect 7 0 11 1;
#X connect 8 0 7 0;
#X connect 9 0 11 0;
#X connect 10 0 9 0;
#X connect 11 0 2 0;
#X connect 11 0 5 0;
#X restore 212 182 pd shape;
#X obj 219 114 * 0.1;
#X floatatom 254 83 5 0 0 0 - - -, f 5;
#X floatatom 176 136 5 0 0 0 - - -, f 5;
#X obj 122 163 t;
#X obj 122 76 r c;
#X obj 122 141 sel;
#X obj 161 76 r b8;
#X obj 135 210 randv 6 1;
#X obj 122 119 % 192;
#X connect 2 0 14 0;
#X connect 6 0 7 0;
#X connect 11 0 8 0;
#X connect 11 0 10 0;
#X connect 12 0 22 0;
#X connect 14 0 1 0;
#X connect 14 0 3 0;
#X connect 14 0 16 0;
#X connect 15 0 14 1;
#X connect 17 0 0 0;
#X connect 17 1 11 0;
#X connect 17 1 21 0;
#X connect 18 0 12 0;
#X connect 19 0 17 0;
#X connect 20 0 12 1;
#X connect 21 0 7 0;
#X connect 21 0 9 0;
#X connect 22 0 19 0;
#X restore 31 140 pd hum;
#N canvas 73 620 450 300 record 0;
#X obj 227 69 bng 15 250 50 0 empty empty empty 17 7 0 10 -262144 -1
-1;
#X msg 227 89 open imafreq.wav;
#X obj 177 232 writesf~ 2;
#X msg 249 121 start;
#X msg 322 137 stop;
#X obj 128 188 inlet~;
#X obj 297 187 inlet~;
#X connect 0 0 1 0;
#X connect 1 0 2 0;
#X connect 3 0 2 0;
#X connect 4 0 2 0;
#X connect 5 0 2 0;
#X connect 6 0 2 1;
#X restore 132 272 pd record;
#X obj 258 243 * 0.01;
#X obj 139 218 r vol;
#N canvas 1048 600 450 300 mix 0;
#X obj 184 158 dac~;
#X obj 137 47 catch~ L;
#X obj 240 47 catch~ R;
#X obj 148 115 *~;
#X obj 240 115 *~;
#X obj 198 70 inlet;
#X obj 102 151 outlet~;
#X obj 278 147 outlet~;
#X obj 158 136 *~ 1;
#X obj 214 136 *~ 1;
#X connect 1 0 3 0;
#X connect 1 0 6 0;
#X connect 2 0 4 0;
#X connect 2 0 7 0;
#X connect 3 0 8 0;
#X connect 4 0 9 0;
#X connect 5 0 4 1;
#X connect 5 0 3 1;
#X connect 8 0 0 0;
#X connect 9 0 0 1;
#X restore 139 250 pd mix;
#N canvas 424 244 450 300 info 0;
#X text 174 77 artist : myQuil;
#X text 181 91 title : freq;
#X text 174 105 length off 480000;
#X restore 192 162 pd info;
#X obj 139 19 bng 15 250 50 0 empty empty empty 17 7 0 10 -262144 -1
-1;
#N canvas 584 465 450 300 timing 0;
#X obj 133 34 r bt;
#X obj 133 56 cup;
#X obj 133 139 s b0;
#X obj 165 120 s b4;
#X obj 198 139 s b8;
#X obj 104 78 s c;
#X obj 129 243 s met;
#X obj 111 177 r pre;
#X msg 133 99 1;
#X msg 165 99 1;
#X msg 198 99 1;
#X obj 111 199 sel;
#X floatatom 187 186 5 0 0 0 - - -, f 5;
#X floatatom 189 250 5 0 0 0 - - -, f 5;
#X floatatom 166 57 5 0 0 0 - - -, f 5;
#X msg 230 99 1;
#X floatatom 298 167 5 0 0 0 - - -, f 5;
#X floatatom 296 238 5 0 0 0 - - -, f 5;
#X obj 296 216 graid 69;
#X obj 304 63 bng 15 250 50 0 empty empty empty 17 7 0 10 -262144 -1
-1;
#X floatatom 332 105 5 0 0 0 - - -, f 5;
#X obj 343 26 metro 1;
#X obj 304 32 tgl 15 0 empty empty empty 17 7 0 10 -262144 -1 -1 0
1;
#X obj 291 144 tgl 15 0 empty empty empty 17 7 0 10 -262144 -1 -1 0
1;
#X obj 291 122 sel 999 1000;
#X obj 331 144 tgl 15 0 empty empty empty 17 7 0 10 -262144 -1 -1 0
1;
#X obj 332 83 rind 0 69;
#X obj 129 221 graid 10 80 63;
#X obj 230 120 s b32;
#X obj 133 78 sel 0 768 1536 6144;
#X connect 0 0 1 0;
#X connect 1 0 5 0;
#X connect 1 0 14 0;
#X connect 1 0 29 0;
#X connect 7 0 11 0;
#X connect 8 0 2 0;
#X connect 9 0 3 0;
#X connect 10 0 4 0;
#X connect 11 1 27 0;
#X connect 12 0 27 0;
#X connect 15 0 28 0;
#X connect 16 0 18 0;
#X connect 18 0 17 0;
#X connect 19 0 26 0;
#X connect 21 0 26 0;
#X connect 22 0 21 0;
#X connect 24 0 23 0;
#X connect 24 1 25 0;
#X connect 26 0 20 0;
#X connect 27 0 6 0;
#X connect 27 0 13 0;
#X connect 29 0 8 0;
#X connect 29 1 9 0;
#X connect 29 2 10 0;
#X connect 29 3 15 0;
#X restore 63 6 pd timing;
#N canvas 550 546 450 300 play 0;
#X obj 164 71 inlet;
#X obj 241 141 s eq;
#X msg 241 119 0;
#X msg 148 119 1;
#X obj 148 141 s play;
#X obj 198 141 s pre;
#X obj 164 93 t b b b;
#X msg 198 119 26;
#X connect 0 0 6 0;
#X connect 2 0 1 0;
#X connect 3 0 4 0;
#X connect 6 0 3 0;
#X connect 6 1 7 0;
#X connect 6 2 2 0;
#X connect 7 0 5 0;
#X restore 139 39 pd play;
#X obj 21 206 metro 20.32;
#X obj 200 239 / 1000;
#N canvas 58 485 450 300 playpause 0;
#X obj 94 73 tgl 15 0 empty empty empty 17 7 0 10 -262144 -1 -1 1 1
;
#X obj 126 88 sel 1 0;
#X msg 208 160 4000;
#X msg 208 117 800;
#X obj 179 160 f;
#X obj 179 117 f;
#X obj 197 140 r dcay;
#X obj 197 97 r atak;
#X msg 208 203 800;
#X obj 179 203 f;
#X obj 197 183 r xramp;
#X obj 257 220 s _xramp;
#X msg 126 169 1;
#X msg 49 186 0;
#X obj 81 186 s tog;
#X obj 44 142 spigot;
#X obj 83 96 == 0;
#X obj 76 162 f;
#X obj 44 120 r pt;
#X obj 44 164 t;
#X obj 127 51 r play;
#X obj 129 72 del 500;
#X obj 257 177 s _dcay;
#X obj 257 134 s _atak;
#X connect 0 0 16 0;
#X connect 0 0 1 0;
#X connect 0 0 17 1;
#X connect 1 0 4 0;
#X connect 1 0 5 0;
#X connect 1 0 9 0;
#X connect 1 0 12 0;
#X connect 1 1 2 0;
#X connect 1 1 3 0;
#X connect 1 1 8 0;
#X connect 2 0 22 0;
#X connect 3 0 23 0;
#X connect 4 0 22 0;
#X connect 5 0 23 0;
#X connect 6 0 4 1;
#X connect 7 0 5 1;
#X connect 8 0 11 0;
#X connect 9 0 11 0;
#X connect 10 0 9 1;
#X connect 12 0 14 0;
#X connect 13 0 14 0;
#X connect 15 0 19 0;
#X connect 16 0 15 1;
#X connect 17 0 1 0;
#X connect 18 0 15 0;
#X connect 19 0 13 0;
#X connect 19 1 17 0;
#X connect 20 0 21 0;
#X connect 21 0 0 0;
#X restore 99 162 pd playpause;
#X msg 30 268 peek;
#X obj 21 288 s peek;
#X obj 21 248 r play;
#X obj 63 52 r met;
#X obj 97 94 r eq8;
#X obj 76 115 graid 0.01 2000 63;
#X floatatom 142 91 5 0 63 0 - - -, f 5;
#X floatatom 100 70 5 0 0 0 - - -, f 5;
#X obj 207 186 ii 150;
#X connect 0 0 29 0;
#X connect 2 0 6 0;
#X connect 4 0 28 0;
#X connect 5 0 2 0;
#X connect 6 0 7 0;
#X connect 9 0 3 0;
#X connect 11 0 12 0;
#X connect 14 0 13 0;
#X connect 15 0 21 0;
#X connect 17 0 18 0;
#X connect 21 0 16 0;
#X connect 22 0 23 0;
#X connect 23 0 20 0;
#X connect 23 1 20 1;
#X connect 25 0 27 0;
#X connect 28 0 3 0;
#X connect 29 0 23 0;
#X connect 31 0 32 0;
#X connect 33 0 31 0;
#X connect 34 0 6 1;
#X connect 34 0 38 0;
#X connect 35 0 36 0;
#X connect 36 0 17 0;
#X connect 37 0 36 0;
#X connect 39 0 17 0;
#X coords 0 314 1 313 85 60 0;
