#N canvas 624 352 485 347 10;
#X obj 257 153 dac~;
#X obj 261 119 *~;
#X obj 343 145 * 0.01;
#X floatatom 343 125 5 0 0 0 - - -, f 5;
#N canvas 0 50 450 250 (subpatch) 0;
#X array view 500 float 1;
#A 0 0 0 0 0 0 0 0 0 0 0 0 0 0 0 0 0 0 0 0 0 0 0 0 0 0 0 0 0 0 0 0
0 0 0 0 0 0 0 0 0 0 0 0 0 0 0 0 0 0 0 0 0 0 0 0 0 0 0 0 0 0 0 0 0 0
0 0 0 0 0 0 0 0 0 0 0 0 0 0 0 0 0 0 0 0 0 0 0 0 0 0 0 0 0 0 0 0 0 0
0 0 0 0 0 0 0 0 0 0 0 0 0 0 0 0 0 0 0 0 0 0 0 0 0 0 0 0 0 0 0 0 0 0
0 0 0 0 0 0 0 0 0 0 0 0 0 0 0 0 0 0 0 0 0 0 0 0 0 0 0 0 0 0 0 0 0 0
0 0 0 0 0 0 0 0 0 0 0 0 0 0 0 0 0 0 0 0 0 0 0 0 0 0 0 0 0 0 0 0 0 0
0 0 0 0 0 0 0 0 0 0 0 0 0 0 0 0 0 0 0 0 0 0 0 0 0 0 0 0 0 0 0 0 0 0
0 0 0 0 0 0 0 0 0 0 0 0 0 0 0 0 0 0 0 0 0 0 0 0 0 0 0 0 0 0 0 0 0 0
0 0 0 0 0 0 0 0 0 0 0 0 0 0 0 0 0 0 0 0 0 0 0 0 0 0 0 0 0 0 0 0 0 0
0 0 0 0 0 0 0 0 0 0 0 0 0 0 0 0 0 0 0 0 0 0 0 0 0 0 0 0 0 0 0 0 0 0
0 0 0 0 0 0 0 0 0 0 0 0 0 0 0 0 0 0 0 0 0 0 0 0 0 0 0 0 0 0 0 0 0 0
0 0 0 0 0 0 0 0 0 0 0 0 0 0 0 0 0 0 0 0 0 0 0 0 0 0 0 0 0 0 0 0 0 0
0 0 0 0 0 0 0 0 0 0 0 0 0 0 0 0 0 0 0 0 0 0 0 0 0 0 0 0 0 0 0 0 0 0
0 0 0 0 0 0 0 0 0 0 0 0 0 0 0 0 0 0 0 0 0 0 0 0 0 0 0 0 0 0 0 0 0 0
0 0 0 0 0 0 0 0 0 0 0 0 0 0 0 0 0 0 0 0 0 0 0 0 0 0 0;
#X coords 0 1 499 -1 200 140 1;
#X restore 262 186 graph;
#X obj 347 106 tabwrite~ view;
#X floatatom 421 67 5 0 0 0 - - -, f 5;
#X obj 347 65 tgl 15 0 empty empty empty 17 7 0 10 -261234 -1 -1 0
1;
#X obj 261 65 *~;
#X obj 224 131 tgl 15 0 empty empty empty 17 7 0 10 -204786 -1 -1 0
1;
#X obj 96 173 s tog;
#X obj 50 23 tgl 15 0 empty empty empty 17 7 0 10 -203904 -1 -1 0 1
;
#X obj 347 84 metro 18.87;
#N canvas 660 105 340 219 pause 0;
#X msg 93 148 0, f 2;
#X obj 93 52 spigot;
#X obj 208 64 == 0;
#X obj 129 78 f;
#X obj 159 52 t f f;
#X obj 159 30 inlet;
#X obj 93 30 inlet;
#X obj 191 145 outlet;
#X obj 93 170 outlet;
#X obj 108 124 outlet;
#X obj 159 124 t b b;
#X msg 117 148 1, f 2;
#X obj 108 102 sel 0;
#X obj 159 102 sel 1;
#X obj 132 30 !;
#X connect 0 0 8 0;
#X connect 1 0 0 0;
#X connect 1 0 3 0;
#X connect 2 0 1 1;
#X connect 3 0 12 0;
#X connect 3 0 13 0;
#X connect 4 0 3 1;
#X connect 4 0 13 0;
#X connect 4 1 2 0;
#X connect 5 0 4 0;
#X connect 6 0 1 0;
#X connect 10 0 11 0;
#X connect 10 1 7 0;
#X connect 11 0 8 0;
#X connect 12 0 9 0;
#X connect 13 0 10 0;
#X coords 0 219 1 218 85 60 0;
#X restore 171 151 pd pause;
#X obj 18 88 s bt;
#X obj 281 14 r bt;
#X obj 61 215 -;
#X obj 171 128 r bt;
#X floatatom 214 64 5 0 0 0 - - -, f 5;
#X obj 61 239 spigot;
#X obj 126 195 t f f;
#N canvas 674 326 535 390 fm 0;
#X obj 140 201 +~;
#X obj 140 160 *~;
#X obj 140 87 muse 44.36 4 7;
#X obj 243 18 r bt;
#X obj 141 343 outlet~;
#X obj 243 40 t b b;
#X obj 398 48 r met;
#X obj 418 85 / 6;
#X floatatom 352 25 5 0 0 0 - - -, f 5;
#X obj 140 109 pad~;
#X obj 199 134 pad~ 35;
#X obj 262 213 pad~ 20;
#X floatatom 196 27 5 0 0 0 - - -, f 5;
#X floatatom 361 185 5 0 0 0 - - -, f 5;
#X floatatom 258 90 5 0 0 0 - - -, f 5;
#X floatatom 240 71 5 0 0 0 - - -, f 5;
#X floatatom 365 224 5 0 0 0 - - -, f 5;
#X floatatom 220 169 5 0 0 0 - - -, f 5;
#X floatatom 160 136 5 0 0 0 - - -, f 5;
#X floatatom 101 110 5 0 0 0 - - -, f 5;
#X obj 199 113 grand 20 1200;
#X obj 140 65 grand 15 0 15;
#X obj 323 160 muse 44.36 4 7;
#X obj 323 138 grand 15 0 15;
#X floatatom 400 117 5 0 0 0 - - -, f 5;
#X floatatom 420 191 5 0 0 0 - - -, f 5;
#X msg 301 247 4 7 10;
#X floatatom 439 58 5 0 0 0 - - -, f 5;
#X floatatom 428 142 5 0 0 0 - - -, f 5;
#X floatatom 274 148 5 0 0 0 - - -, f 5;
#X obj 167 177 *~ -1;
#X obj 101 132 osc~;
#X obj 197 238 lop~;
#X floatatom 234 245 5 0 0 0 - - -, f 5;
#X obj 141 259 *~;
#X floatatom 77 240 5 0 0 0 - - -, f 5;
#X floatatom 57 195 5 0 0 0 - - -, f 5;
#X floatatom 99 194 5 0 0 0 - - -, f 5;
#X obj 35 242 pad~;
#X obj 301 60 grand 1 25;
#X obj 301 82 grand 1 125;
#X obj 308 104 grand 1 300;
#X obj 396 23 / 2;
#X obj 372 290 grand 1 2;
#X obj 140 223 osc~;
#X obj 30 217 grand 400 1200;
#X obj 143 287 +~;
#X obj 225 330 pad~ 20;
#X obj 224 286 grand 0 1000;
#X floatatom 182 284 5 0 0 0 - - -, f 5;
#X floatatom 321 283 5 0 0 0 - - -, f 5;
#X obj 141 317 osc~;
#X floatatom 448 27 5 0 0 0 - - -, f 5;
#X connect 0 0 44 0;
#X connect 1 0 30 0;
#X connect 1 0 0 0;
#X connect 2 0 19 0;
#X connect 2 0 9 0;
#X connect 3 0 5 0;
#X connect 5 0 20 0;
#X connect 5 0 21 0;
#X connect 5 0 23 0;
#X connect 5 0 45 0;
#X connect 5 0 48 0;
#X connect 5 1 39 0;
#X connect 5 1 40 0;
#X connect 5 1 41 0;
#X connect 5 1 43 0;
#X connect 6 0 7 0;
#X connect 6 0 42 0;
#X connect 7 0 39 3;
#X connect 7 0 41 3;
#X connect 7 0 43 3;
#X connect 8 0 39 3;
#X connect 9 0 31 0;
#X connect 10 0 1 1;
#X connect 11 0 0 1;
#X connect 12 0 21 3;
#X connect 12 0 21 1;
#X connect 14 0 20 3;
#X connect 15 0 20 2;
#X connect 20 0 10 0;
#X connect 20 0 18 0;
#X connect 21 0 2 0;
#X connect 22 0 29 0;
#X connect 22 0 11 0;
#X connect 23 0 22 0;
#X connect 24 0 23 3;
#X connect 24 0 23 1;
#X connect 25 0 22 1;
#X connect 26 0 2 0;
#X connect 26 0 22 0;
#X connect 27 0 7 1;
#X connect 28 0 23 3;
#X connect 31 0 1 0;
#X connect 33 0 32 1;
#X connect 34 0 46 0;
#X connect 36 0 45 2;
#X connect 37 0 45 3;
#X connect 38 0 34 1;
#X connect 39 0 9 1;
#X connect 40 0 10 1;
#X connect 41 0 11 1;
#X connect 41 0 47 1;
#X connect 42 0 40 3;
#X connect 43 0 38 1;
#X connect 44 0 34 0;
#X connect 45 0 35 0;
#X connect 45 0 38 0;
#X connect 46 0 51 0;
#X connect 47 0 46 1;
#X connect 48 0 47 0;
#X connect 48 0 49 0;
#X connect 50 0 48 3;
#X connect 51 0 4 0;
#X connect 52 0 42 1;
#X coords 0 390 1 389 85 60 0;
#X restore 241 43 pd fm;
#X obj 264 14 bng 15 250 50 0 empty empty empty 17 7 0 10 -262130 -1
-1;
#X floatatom 108 34 5 0 0 0 - - -, f 5;
#X obj 109 59 s met;
#X obj 79 127 r met;
#X obj 50 67 t b b b;
#X obj 85 148 * 1.2;
#X obj 196 43 r pet;
#X obj 122 127 s atk;
#X obj 315 14 r atk;
#X obj 72 195 r atk;
#X obj 101 263 f;
#X obj 50 43 metro;
#X obj 40 153 grand;
#X obj 85 305 s dcy;
#X obj 356 14 r dcy;
#X text 214 115 START;
#X obj 122 105 grand 1 700;
#X obj 148 263 3000;
#X floatatom 129 153 5 0 0 0 - - -, f 5;
#X floatatom 189 227 5 0 0 0 - - -, f 5;
#X obj 189 246 * 10;
#X text 14 7 PAUSE||PUNCH;
#X msg 291 65 1;
#X obj 282 43 ad~ 10 130;
#X floatatom 179 295 5 0 0 0 - - -, f 5;
#X floatatom 130 297 5 0 0 0 - - -, f 5;
#X obj 10 28 r tog;
#X obj 196 83 / 6;
#X obj 54 173 s pet;
#X obj 109 14 ii 1000;
#X obj 210 98 r play;
#X obj 347 165 r vol;
#X obj 261 98 *~ 0.6;
#X obj 308 129 pad~;
#X connect 1 0 0 0;
#X connect 1 0 0 1;
#X connect 2 0 55 0;
#X connect 3 0 2 0;
#X connect 6 0 12 1;
#X connect 7 0 12 0;
#X connect 8 0 5 0;
#X connect 8 0 54 0;
#X connect 9 0 13 1;
#X connect 11 0 33 0;
#X connect 12 0 5 0;
#X connect 13 0 20 0;
#X connect 13 1 39 0;
#X connect 13 2 32 0;
#X connect 15 0 45 0;
#X connect 16 0 19 0;
#X connect 17 0 13 0;
#X connect 18 0 49 1;
#X connect 19 0 32 0;
#X connect 20 0 10 0;
#X connect 20 1 19 1;
#X connect 21 0 8 0;
#X connect 22 0 45 0;
#X connect 23 0 24 0;
#X connect 23 0 33 1;
#X connect 23 0 49 0;
#X connect 25 0 27 0;
#X connect 25 0 34 2;
#X connect 26 0 14 0;
#X connect 26 1 34 0;
#X connect 26 2 38 0;
#X connect 27 0 34 3;
#X connect 28 0 49 0;
#X connect 30 0 45 1;
#X connect 31 0 16 1;
#X connect 32 0 35 0;
#X connect 32 0 47 0;
#X connect 33 0 26 0;
#X connect 34 0 16 0;
#X connect 34 0 50 0;
#X connect 36 0 45 2;
#X connect 38 0 29 0;
#X connect 39 0 35 0;
#X connect 39 0 46 0;
#X connect 40 0 27 1;
#X connect 41 0 42 0;
#X connect 42 0 39 1;
#X connect 42 0 45 2;
#X connect 44 0 8 1;
#X connect 45 0 8 1;
#X connect 48 0 11 0;
#X connect 49 0 38 3;
#X connect 51 0 23 0;
#X connect 52 0 9 0;
#X connect 53 0 55 0;
#X connect 54 0 1 0;
#X connect 55 0 1 1;
#X coords 0 -1 1 1 85 60 1 0 0;
