#N canvas 204 278 429 411 10;
#X floatatom 262 336 5 0 0 0 - - -, f 5;
#N canvas 0 50 450 250 (subpatch) 0;
#X array view 500 float 1;
#A 0 0 0 0 0 0 0 0 0 0 0 0 0 0 0 0 0 0 0 0 0 0 0 0 0 0 0 0 0 0 0 0
0 0 0 0 0 0 0 0 0 0 0 0 0 0 0 0 0 0 0 0 0 0 0 0 0 0 0 0 0 0 0 0 0 0
0 0 0 0 0 0 0 0 0 0 0 0 0 0 0 0 0 0 0 0 0 0 0 0 0 0 0 0 0 0 0 0 0 0
0 0 0 0 0 0 0 0 0 0 0 0 0 0 0 0 0 0 0 0 0 0 0 0 0 0 0 0 0 0 0 0 0 0
0 0 0 0 0 0 0 0 0 0 0 0 0 0 0 0 0 0 0 0 0 0 0 0 0 0 0 0 0 0 0 0 0 0
0 0 0 0 0 0 0 0 0 0 0 0 0 0 0 0 0 0 0 0 0 0 0 0 0 0 0 0 0 0 0 0 0 0
0 0 0 0 0 0 0 0 0 0 0 0 0 0 0 0 0 0 0 0 0 0 0 0 0 0 0 0 0 0 0 0 0 0
0 0 0 0 0 0 0 0 0 0 0 0 0 0 0 0 0 0 0 0 0 0 0 0 0 0 0 0 0 0 0 0 0 0
0 0 0 0 0 0 0 0 0 0 0 0 0 0 0 0 0 0 0 0 0 0 0 0 0 0 0 0 0 0 0 0 0 0
0 0 0 0 0 0 0 0 0 0 0 0 0 0 0 0 0 0 0 0 0 0 0 0 0 0 0 0 0 0 0 0 0 0
0 0 0 0 0 0 0 0 0 0 0 0 0 0 0 0 0 0 0 0 0 0 0 0 0 0 0 0 0 0 0 0 0 0
0 0 0 0 0 0 0 0 0 0 0 0 0 0 0 0 0 0 0 0 0 0 0 0 0 0 0 0 0 0 0 0 0 0
0 0 0 0 0 0 0 0 0 0 0 0 0 0 0 0 0 0 0 0 0 0 0 0 0 0 0 0 0 0 0 0 0 0
0 0 0 0 0 0 0 0 0 0 0 0 0 0 0 0 0 0 0 0 0 0 0 0 0 0 0 0 0 0 0 0 0 0
0 0 0 0 0 0 0 0 0 0 0 0 0 0 0 0 0 0 0 0 0 0 0 0 0 0 0;
#X coords 0 1 499 -1 200 140 1;
#X restore 193 14 graph;
#X obj 31 49 tgl 15 0 empty empty empty 17 7 0 10 -262144 -1 -1 0 1
;
#X obj 109 166 tgl 15 0 empty empty empty 17 7 0 10 -262144 -1 -1 0
1;
#X obj 141 181 sel 1 0;
#X obj 36 366 tabwrite~ view;
#X obj 36 325 tgl 15 0 empty empty empty 17 7 0 10 -262144 -1 -1 0
1;
#X obj 31 26 r tog;
#X floatatom 53 326 6 0 0 0 - view -, f 6;
#X msg 223 253 4000;
#X obj 36 344 metro;
#X msg 223 210 800;
#X obj 194 253 f;
#X obj 194 210 f;
#X obj 212 233 r dcay;
#X obj 212 190 r atak;
#X obj 272 270 s _dcay;
#X obj 272 227 s _atak;
#X msg 223 296 800;
#X obj 194 296 f;
#X obj 212 276 r xramp;
#X obj 272 313 s _xramp;
#X msg 141 262 1;
#X msg 64 279 0;
#X obj 96 279 s tog;
#X obj 31 70 metro;
#X obj 31 92 s bt;
#N canvas 488 529 377 236 drums 0;
#X obj 200 51 noise~;
#X obj 200 79 *~;
#X floatatom 306 77 5 0 0 0 - - -, f 5;
#X floatatom 300 61 5 0 0 0 - - -, f 5;
#X obj 235 195 throw~ sview;
#X obj 200 160 *~;
#X obj 52 131 sel;
#X floatatom 122 86 5 0 0 0 - - -, f 5;
#X floatatom 82 86 5 0 0 0 - - -, f 5;
#X obj 174 195 adac~;
#X obj 52 33 spigot;
#X obj 91 13 r b4;
#X obj 253 29 r c;
#X obj 52 13 r c;
#X obj 52 77 sel;
#N canvas 1195 519 450 300 vol 0;
#X obj 195 90 ii;
#X obj 224 139 r met;
#X obj 195 139 *;
#X obj 146 138 t;
#X obj 146 262 outlet;
#X obj 195 262 outlet;
#X obj 309 72 r eq;
#X obj 309 94 == 0;
#X obj 37 165 spigot;
#X obj 81 143 r eq;
#X obj 195 238 spigot;
#X obj 146 238 spigot;
#X obj 157 186 r b4;
#X obj 309 169 sel;
#X msg 309 191 10;
#X obj 37 143 r eq6;
#X obj 157 206 t f f;
#X obj 146 111 spigot;
#X obj 146 89 cpt;
#X obj 146 67 r bt;
#X floatatom 205 184 5 0 0 0 - - -, f 5;
#X floatatom 193 73 5 0 0 0 - - -, f 5;
#X floatatom 271 142 5 0 0 0 - - -, f 5;
#X obj 195 115 rand 100 700;
#X obj 146 162 rind 0.5 0.7;
#X obj 37 187 graid 0.7 0 63;
#X msg 125 206 0.7;
#X connect 0 0 23 0;
#X connect 1 0 2 1;
#X connect 2 0 10 0;
#X connect 3 0 24 0;
#X connect 3 1 23 0;
#X connect 6 0 7 0;
#X connect 7 0 10 1;
#X connect 7 0 13 0;
#X connect 7 0 17 1;
#X connect 8 0 25 0;
#X connect 9 0 8 1;
#X connect 10 0 5 0;
#X connect 11 0 4 0;
#X connect 12 0 16 0;
#X connect 13 0 14 0;
#X connect 14 0 5 0;
#X connect 15 0 8 0;
#X connect 16 0 26 0;
#X connect 16 1 14 0;
#X connect 16 1 11 1;
#X connect 17 0 3 0;
#X connect 18 0 17 0;
#X connect 18 1 21 0;
#X connect 19 0 18 0;
#X connect 23 0 2 0;
#X connect 23 0 18 1;
#X connect 23 0 22 0;
#X connect 24 0 11 0;
#X connect 24 0 20 0;
#X connect 25 0 11 0;
#X connect 26 0 11 0;
#X restore 127 109 pd vol;
#X obj 132 130 pad~;
#N canvas 724 286 450 300 vol 0;
#X obj 205 87 ii;
#X obj 234 139 r met;
#X obj 205 139 *;
#X obj 152 138 t;
#X obj 152 242 outlet;
#X obj 205 242 outlet;
#X obj 152 111 spigot;
#X obj 309 72 r eq;
#X obj 309 94 == 0;
#X obj 37 165 spigot;
#X obj 81 143 r eq;
#X obj 205 218 spigot;
#X obj 152 218 spigot;
#X obj 309 157 sel;
#X msg 309 179 10;
#X obj 37 143 r eq7;
#X obj 166 196 r b8;
#X floatatom 212 190 5 0 0 0 - - -, f 5;
#X obj 152 90 cpt;
#X obj 205 116 rand 100 1000;
#X obj 152 68 r bt;
#X obj 152 163 rind 0.04 0.09;
#X obj 37 188 graid 0.09 0 63;
#X connect 0 0 19 0;
#X connect 1 0 2 1;
#X connect 2 0 11 0;
#X connect 3 0 21 0;
#X connect 3 1 19 0;
#X connect 6 0 3 0;
#X connect 7 0 8 0;
#X connect 8 0 6 1;
#X connect 8 0 11 1;
#X connect 8 0 13 0;
#X connect 9 0 22 0;
#X connect 10 0 9 1;
#X connect 11 0 5 0;
#X connect 11 0 17 0;
#X connect 12 0 4 0;
#X connect 13 0 14 0;
#X connect 14 0 5 0;
#X connect 15 0 9 0;
#X connect 16 0 12 1;
#X connect 18 0 6 0;
#X connect 19 0 2 0;
#X connect 19 0 18 1;
#X connect 20 0 18 0;
#X connect 21 0 12 0;
#X connect 22 0 12 0;
#X restore 214 114 pd vol;
#X obj 219 135 pad~;
#X obj 253 52 % 48;
#X obj 253 74 sel 24;
#N canvas 1073 493 450 300 ptrn 0;
#X obj 81 232 outlet;
#X obj 86 61 r c;
#X obj 86 107 sel;
#X obj 86 129 t;
#X obj 86 210 spigot;
#X obj 267 219 outlet;
#X obj 188 228 outlet;
#X obj 114 133 bng 15 250 50 0 empty empty empty 17 7 0 10 -262144
-1 -1;
#X floatatom 273 245 5 0 0 0 - - -, f 5;
#X floatatom 234 245 5 0 0 0 - - -, f 5;
#X obj 86 173 t f f;
#X floatatom 154 175 5 0 0 0 - - -, f 5;
#X obj 257 196 expr $f1/5 + 2;
#X obj 86 151 rand 2 7;
#X obj 220 140 expr (($f1-2) / -1) + 7;
#X obj 220 162 expr $f1/3 + 2;
#X obj 86 85 % 72;
#X obj 135 210 r b14;
#X connect 1 0 16 0;
#X connect 2 0 3 0;
#X connect 3 0 13 0;
#X connect 4 0 0 0;
#X connect 7 0 13 0;
#X connect 10 0 4 0;
#X connect 10 1 12 0;
#X connect 10 1 14 0;
#X connect 12 0 5 0;
#X connect 12 0 8 0;
#X connect 13 0 10 0;
#X connect 13 0 11 0;
#X connect 14 0 15 0;
#X connect 15 0 6 0;
#X connect 15 0 9 0;
#X connect 16 0 2 0;
#X connect 17 0 4 1;
#X restore 83 55 pd ptrn;
#N canvas 414 493 450 300 bd 0;
#X obj 185 182 *~;
#X obj 174 13 inlet;
#X obj 185 146 /~ 8;
#X obj 135 272 adac~;
#X obj 185 122 ad~ 1 800;
#X obj 178 244 throw~ sview;
#X obj 264 149 freqm~;
#X obj 145 214 *~;
#X obj 176 36 spigot;
#X obj 215 13 r b0;
#X obj 175 214 inlet~;
#X floatatom 123 102 5 0 0 0 - - -, f 5;
#X floatatom 167 102 5 0 0 0 - - -, f 5;
#N canvas 948 122 450 301 vals 0;
#X obj 37 128 noise~;
#X obj 37 150 *~ 880;
#X obj 37 216 *~ 5555;
#X obj 37 194 vcf~ 5;
#X obj 37 238 outlet~;
#X obj 89 169 +~ 1000;
#X obj 118 198 *~;
#X obj 89 111 ad~ 0 100;
#X obj 89 140 *~ 900;
#X obj 118 238 outlet~;
#X obj 37 172 osc~;
#X obj 185 211 vline~;
#X obj 185 162 pack 0 0 0;
#X msg 185 187 \$1 \, \$2 \$3;
#X obj 185 137 rind 120 300;
#X obj 252 88 rind 20 70;
#X obj 218 113 rind 10 30;
#X obj 185 238 outlet~;
#X obj 148 22 inlet;
#X obj 148 44 t b b b b b;
#X obj 149 88 rind 200;
#X connect 0 0 1 0;
#X connect 1 0 10 0;
#X connect 2 0 4 0;
#X connect 3 0 2 0;
#X connect 5 0 3 1;
#X connect 6 0 9 0;
#X connect 7 0 6 1;
#X connect 7 0 8 0;
#X connect 8 0 5 0;
#X connect 8 0 6 0;
#X connect 10 0 3 0;
#X connect 11 0 17 0;
#X connect 12 0 13 0;
#X connect 13 0 11 0;
#X connect 14 0 12 0;
#X connect 15 0 12 2;
#X connect 16 0 12 1;
#X connect 18 0 19 0;
#X connect 19 0 7 0;
#X connect 19 1 20 0;
#X connect 19 2 14 0;
#X connect 19 3 16 0;
#X connect 19 4 15 0;
#X connect 20 0 7 2;
#X restore 260 122 pd vals;
#X obj 176 57 t;
#X floatatom 136 147 5 0 0 0 - - -, f 5;
#X obj 136 166 * 0.01;
#X obj 79 122 fkick 70 34.25;
#X obj 280 7 r bt;
#X obj 280 29 cpt;
#X obj 280 51 t;
#X obj 280 96 pad;
#X obj 313 51 *;
#X obj 342 51 r met;
#X floatatom 318 120 5 0 0 0 - - -, f 5;
#X obj 313 29 rand 5 30;
#X obj 280 73 rind 34 34.4;
#X obj 80 147 *~ 0.65;
#X connect 0 0 7 0;
#X connect 1 0 8 0;
#X connect 2 0 0 0;
#X connect 4 0 2 0;
#X connect 6 0 0 1;
#X connect 7 0 3 1;
#X connect 7 0 3 0;
#X connect 7 0 5 0;
#X connect 8 0 14 0;
#X connect 9 0 8 1;
#X connect 10 0 7 1;
#X connect 11 0 17 1;
#X connect 12 0 17 2;
#X connect 13 0 6 0;
#X connect 13 1 6 1;
#X connect 13 2 6 2;
#X connect 14 0 4 0;
#X connect 14 0 17 0;
#X connect 14 1 13 0;
#X connect 15 0 16 0;
#X connect 16 0 27 1;
#X connect 17 0 27 0;
#X connect 18 0 19 0;
#X connect 19 0 20 0;
#X connect 20 0 26 0;
#X connect 20 1 25 0;
#X connect 21 0 24 0;
#X connect 21 0 17 2;
#X connect 22 0 21 1;
#X connect 23 0 22 1;
#X connect 25 0 19 1;
#X connect 25 0 22 0;
#X connect 26 0 21 0;
#X connect 27 0 7 0;
#X restore 77 166 pd bd;
#X obj 52 55 % 6;
#X obj 262 95 ad~ 6 30;
#X obj 52 109 randv 4 4;
#X connect 0 0 1 0;
#X connect 1 0 5 0;
#X connect 2 0 24 2;
#X connect 3 0 24 1;
#X connect 5 0 4 0;
#X connect 5 0 9 1;
#X connect 5 0 9 0;
#X connect 6 0 22 0;
#X connect 7 0 25 2;
#X connect 8 0 25 1;
#X connect 10 0 23 0;
#X connect 11 0 10 1;
#X connect 12 0 19 0;
#X connect 13 0 10 0;
#X connect 14 0 25 0;
#X connect 15 0 16 0;
#X connect 15 1 16 1;
#X connect 16 0 22 1;
#X connect 17 0 18 0;
#X connect 17 1 18 1;
#X connect 18 0 5 1;
#X connect 19 0 20 0;
#X connect 20 0 24 0;
#X connect 21 0 23 1;
#X connect 21 1 25 1;
#X connect 21 2 25 2;
#X connect 23 0 14 0;
#X connect 24 0 1 1;
#X connect 25 0 6 0;
#X coords 0 236 1 235 85 60 0;
#X restore 31 158 pd drums;
#X obj 59 235 spigot;
#X obj 98 189 == 0;
#X obj 91 255 f;
#X obj 102 309 catch~ sview;
#N canvas 1023 486 383 312 fm 0;
#X obj 112 285 adac~;
#N canvas 387 555 447 393 shape 0;
#X obj 250 160 r met;
#X obj 278 187 r dcay;
#X obj 250 182 f;
#X obj 278 209 b;
#X obj 240 204 *;
#X obj 203 192 *;
#X obj 165 167 %;
#X obj 79 302 s pt;
#X obj 136 167 sel;
#X obj 79 211 t;
#X obj 111 249 rind 2 100;
#X floatatom 128 224 5 0 0 0 - - -, f 5;
#X obj 185 281 f;
#X obj 129 285 t b f;
#X obj 185 314 -;
#X obj 240 226 b;
#X obj 128 337 s _atak;
#X obj 185 337 s _dcay;
#X obj 178 225 /;
#X obj 128 200 r atak;
#X floatatom 89 282 5 0 0 0 - - -, f 5;
#X floatatom 229 252 5 0 0 0 - - -, f 5;
#X floatatom 203 168 5 0 0 0 - - -, f 5;
#X obj 166 77 sel;
#X obj 117 33 r c;
#X obj 194 77 t;
#X obj 231 12 % 768;
#X obj 259 36 tgl 15 0 empty empty empty 17 7 0 10 -262144 -1 -1 0
1;
#X obj 231 34 sel;
#X obj 259 56 sel;
#X msg 236 78 5;
#X msg 250 78 4;
#X obj 118 55 % 12;
#X obj 174 114 rand 3 9;
#X connect 0 0 2 0;
#X connect 1 0 4 1;
#X connect 1 0 3 0;
#X connect 2 0 4 0;
#X connect 3 0 2 0;
#X connect 4 0 5 1;
#X connect 4 0 15 0;
#X connect 5 0 12 1;
#X connect 5 0 18 0;
#X connect 5 0 21 0;
#X connect 6 0 8 0;
#X connect 8 0 9 0;
#X connect 9 0 7 0;
#X connect 9 1 10 0;
#X connect 10 0 13 0;
#X connect 10 0 20 0;
#X connect 11 0 18 1;
#X connect 12 0 14 0;
#X connect 13 0 12 0;
#X connect 13 1 16 0;
#X connect 13 1 14 1;
#X connect 14 0 17 0;
#X connect 15 0 5 0;
#X connect 18 0 10 2;
#X connect 19 0 11 0;
#X connect 22 0 5 0;
#X connect 22 0 6 1;
#X connect 23 0 25 0;
#X connect 24 0 32 0;
#X connect 25 0 33 0;
#X connect 26 0 28 0;
#X connect 27 0 29 0;
#X connect 28 0 27 0;
#X connect 29 0 30 0;
#X connect 29 1 31 0;
#X connect 30 0 33 2;
#X connect 31 0 33 2;
#X connect 32 0 23 0;
#X connect 32 0 6 0;
#X connect 33 0 22 0;
#X coords 0 0 1 1 85 60 0;
#X restore 303 70 pd shape;
#X obj 14 82 *~;
#X obj 304 141 \$0;
#X obj 14 39 freqm~;
#N canvas 829 607 450 300 vals 0;
#X obj 23 178 pad~;
#X floatatom 96 126 5 0 0 0 - - -, f 5;
#X floatatom 256 50 5 0 0 0 - - -, f 5;
#X obj 167 170 pad~;
#X floatatom 199 120 5 0 0 0 - - -, f 5;
#X obj 316 173 pad~;
#X floatatom 362 85 5 0 0 0 - - -, f 5;
#X obj 317 253 outlet~;
#X obj 167 252 outlet~;
#X obj 23 260 outlet~;
#X obj 167 74 r pt;
#X floatatom 70 41 5 0 0 0 - - -, f 5;
#X msg 70 60 k \$1;
#X obj 256 69 * 10;
#X floatatom 348 41 5 0 0 0 - - -, f 5;
#X msg 348 60 k \$1;
#X obj 23 134 rand 24;
#X obj 23 156 muse 14 7;
#X obj 316 151 muse 7 3 5 7 10;
#X obj 316 129 rand 37;
#X floatatom 109 146 5 0 0 0 - - -, f 5;
#X floatatom 110 165 5 0 0 0 - - -, f 5;
#X floatatom 112 184 5 0 0 0 - - -, f 5;
#X obj 275 101 r _dcay;
#X obj 167 96 t;
#X obj 207 171 rind;
#X obj 248 216 / 1.5;
#X obj 353 173 rind;
#X obj 62 180 rind;
#X obj 122 41 r peek;
#X obj 167 148 rind 40 4000;
#X connect 0 0 9 0;
#X connect 1 0 16 1;
#X connect 2 0 13 0;
#X connect 3 0 8 0;
#X connect 4 0 30 1;
#X connect 5 0 7 0;
#X connect 6 0 19 1;
#X connect 10 0 24 0;
#X connect 11 0 12 0;
#X connect 12 0 17 0;
#X connect 13 0 30 2;
#X connect 14 0 15 0;
#X connect 15 0 18 0;
#X connect 16 0 17 0;
#X connect 16 0 20 0;
#X connect 17 0 0 0;
#X connect 18 0 5 0;
#X connect 19 0 18 0;
#X connect 19 0 21 0;
#X connect 23 0 26 0;
#X connect 24 0 19 0;
#X connect 24 0 16 0;
#X connect 24 0 30 0;
#X connect 25 0 3 1;
#X connect 26 0 25 2;
#X connect 26 0 27 2;
#X connect 26 0 28 2;
#X connect 27 0 5 1;
#X connect 28 0 0 1;
#X connect 29 0 25 0;
#X connect 29 0 27 0;
#X connect 29 0 28 0;
#X connect 29 0 19 0;
#X connect 29 0 16 0;
#X connect 29 0 30 0;
#X connect 30 0 3 0;
#X connect 30 0 22 0;
#X restore 11 16 pd vals;
#N canvas 593 226 387 238 vals 0;
#X obj 230 209 outlet~;
#X obj 5 209 outlet~;
#X obj 115 209 outlet~;
#X obj 239 159 pad~;
#X obj 5 163 pad~;
#X obj 115 161 pad~;
#X obj 145 51 t;
#X obj 168 128 b;
#X floatatom 13 29 5 0 0 0 - - -, f 5;
#X msg 13 48 k \$1;
#X floatatom 251 27 5 0 0 0 - - -, f 5;
#X msg 251 46 k \$1;
#X floatatom 106 27 5 0 0 0 - - -, f 5;
#X msg 106 46 k \$1;
#X obj 277 159 rind;
#X obj 154 161 rind;
#X obj 44 163 rind;
#X obj 145 28 r pt2;
#X obj 185 51 r _dcay2;
#X obj 199 131 / 1.5;
#X obj 75 131 r peek;
#X obj 120 107 muse 80 4 7 9 10;
#X obj 239 107 muse 120 4 7 9 10;
#X obj 125 84 rind 46;
#X obj 239 85 rind 30;
#X obj 2 84 rind 25;
#X obj 0 107 muse 35 4 7 9 10;
#X connect 3 0 0 0;
#X connect 4 0 1 0;
#X connect 5 0 2 0;
#X connect 6 0 23 0;
#X connect 6 0 24 0;
#X connect 6 0 25 0;
#X connect 6 1 7 0;
#X connect 7 0 14 0;
#X connect 7 0 15 0;
#X connect 7 0 16 0;
#X connect 8 0 9 0;
#X connect 9 0 26 0;
#X connect 10 0 11 0;
#X connect 11 0 22 0;
#X connect 12 0 13 0;
#X connect 13 0 21 0;
#X connect 14 0 3 1;
#X connect 15 0 5 1;
#X connect 16 0 4 1;
#X connect 17 0 6 0;
#X connect 18 0 19 0;
#X connect 19 0 16 1;
#X connect 19 0 14 1;
#X connect 19 0 15 1;
#X connect 20 0 16 0;
#X connect 20 0 15 0;
#X connect 20 0 14 0;
#X connect 21 0 5 0;
#X connect 22 0 3 0;
#X connect 23 0 21 0;
#X connect 24 0 22 0;
#X connect 25 0 26 0;
#X connect 26 0 4 0;
#X coords 0 238 1 237 85 60 0;
#X restore 150 16 pd vals;
#X obj 157 39 freqm~;
#N canvas 1270 449 316 251 vals 0;
#X obj 38 183 outlet~;
#X obj 161 187 outlet~;
#X obj 38 153 pad~;
#X obj 161 152 pad~;
#X obj 113 20 t;
#X obj 124 117 b;
#X floatatom 202 22 5 0 0 0 - - -, f 5;
#X msg 202 44 k \$1;
#X floatatom 67 15 5 0 0 0 - - -, f 5;
#X msg 66 34 k \$1;
#X floatatom 148 36 5 0 0 0 - - -, f 5;
#X floatatom 258 1 5 0 0 0 - - -, f 5;
#X msg 74 -27 7;
#X obj 72 153 rind;
#X obj 197 152 rind;
#X obj 154 119 / 1.5;
#X obj 113 -2 r pt2;
#X obj 161 -16 r _dcay2;
#X obj 198 119 r ramp;
#X obj 20 27 r peek;
#X obj 167 91 muse -11 4 7 9 10;
#X obj 39 68 rind 32;
#X obj 167 68 rind 30;
#X obj 39 90 muse 40 4 7 9 10;
#X connect 2 0 0 0;
#X connect 3 0 1 0;
#X connect 4 0 21 0;
#X connect 4 0 22 0;
#X connect 4 1 5 0;
#X connect 5 0 13 0;
#X connect 5 0 14 0;
#X connect 6 0 7 0;
#X connect 7 0 20 0;
#X connect 8 0 9 0;
#X connect 9 0 23 0;
#X connect 12 0 8 0;
#X connect 12 0 6 0;
#X connect 13 0 2 1;
#X connect 14 0 3 1;
#X connect 15 0 14 1;
#X connect 15 0 13 1;
#X connect 16 0 4 0;
#X connect 17 0 15 0;
#X connect 18 0 15 1;
#X connect 19 0 14 0;
#X connect 19 0 13 0;
#X connect 19 0 21 0;
#X connect 19 0 22 0;
#X connect 20 0 3 0;
#X connect 21 0 23 0;
#X connect 22 0 20 0;
#X connect 23 0 2 0;
#X coords 0 251 1 250 85 60 0;
#X restore 208 16 pd vals;
#X obj 226 127 ad~;
#X floatatom 259 124 5 0 0 0 - _dcay2 -, f 5;
#X floatatom 262 102 5 0 0 0 - _atak2 -, f 5;
#X obj 208 147 *~;
#X obj 337 140 bng 15 250 50 0 empty empty empty 17 7 0 10 -262144
-1 -1;
#X obj 220 101 r pt2;
#N canvas 849 555 447 393 shape2 0;
#X obj 262 171 r met;
#X obj 262 193 f;
#X obj 290 220 b;
#X obj 252 215 *;
#X obj 203 192 *;
#X obj 165 167 %;
#X obj 136 167 sel;
#X obj 79 211 t;
#X obj 111 249 rind 2 100;
#X floatatom 128 224 5 0 0 0 - - -, f 5;
#X obj 185 275 f;
#X obj 129 279 t b f;
#X obj 185 308 -;
#X obj 252 237 b;
#X obj 178 225 /;
#X floatatom 88 277 5 0 0 0 - - -, f 5;
#X floatatom 237 259 5 0 0 0 - - -, f 5;
#X obj 128 331 s _atak2;
#X obj 190 331 s _dcay2;
#X obj 79 296 s pt2;
#X obj 290 198 r dcay2;
#X obj 128 200 r atak2;
#X floatatom 206 163 5 0 0 0 - - -, f 5;
#X obj 177 74 sel;
#X obj 128 25 r c;
#X obj 205 74 t;
#X obj 242 8 % 768;
#X obj 270 32 tgl 15 0 empty empty empty 17 7 0 10 -262144 -1 -1 0
1;
#X obj 242 30 sel;
#X obj 270 52 sel;
#X obj 335 46 bng 15 250 50 0 empty empty empty 17 7 0 10 -262144 -1
-1;
#X floatatom 352 97 5 0 0 0 - - -, f 5;
#X floatatom 377 39 5 0 0 0 - - -, f 5;
#X floatatom 398 56 5 0 0 0 - - -, f 5;
#X obj 352 75 rand -4 5;
#X msg 247 74 5;
#X msg 262 74 4;
#X obj 128 47 % 18;
#X obj 182 109 rand 3 9;
#X connect 0 0 1 0;
#X connect 1 0 3 0;
#X connect 2 0 1 0;
#X connect 3 0 4 1;
#X connect 3 0 13 0;
#X connect 4 0 10 1;
#X connect 4 0 14 0;
#X connect 4 0 16 0;
#X connect 5 0 6 0;
#X connect 6 0 7 0;
#X connect 7 0 19 0;
#X connect 7 1 8 0;
#X connect 8 0 11 0;
#X connect 8 0 15 0;
#X connect 9 0 14 1;
#X connect 10 0 12 0;
#X connect 11 0 10 0;
#X connect 11 1 12 1;
#X connect 11 1 17 0;
#X connect 12 0 18 0;
#X connect 13 0 4 0;
#X connect 14 0 8 2;
#X connect 20 0 3 1;
#X connect 20 0 2 0;
#X connect 21 0 9 0;
#X connect 22 0 5 1;
#X connect 22 0 4 0;
#X connect 23 0 25 0;
#X connect 24 0 37 0;
#X connect 25 0 38 0;
#X connect 26 0 28 0;
#X connect 27 0 29 0;
#X connect 28 0 27 0;
#X connect 29 0 35 0;
#X connect 29 1 36 0;
#X connect 30 0 34 0;
#X connect 32 0 34 1;
#X connect 33 0 34 2;
#X connect 34 0 31 0;
#X connect 35 0 38 2;
#X connect 36 0 38 2;
#X connect 37 0 23 0;
#X connect 37 0 5 0;
#X connect 38 0 22 0;
#X coords 0 0 1 1 85 60 0;
#X restore 303 92 pd shape2;
#X obj 208 248 pan~;
#X obj 208 80 *~;
#X obj 106 194 throw~ sview;
#X obj 14 248 pan~;
#N canvas 753 310 450 300 dcay2 0;
#X obj 181 191 pad;
#X obj 181 213 s dcay2;
#X obj 246 148 r met;
#X obj 217 148 *;
#X obj 182 135 t;
#X obj 204 63 r eq;
#X obj 204 85 == 0;
#X floatatom 307 43 5 0 0 0 - - -, f 5;
#X obj 265 85 s dcay2;
#X obj 265 41 r eq3;
#X obj 217 107 ii;
#X floatatom 122 224 5 0 0 0 - - -, f 5;
#X obj 121 169 ii 0.6;
#X obj 165 107 spigot;
#X obj 165 85 cpt;
#X obj 165 63 r bt;
#X obj 217 127 rand 100 700;
#X obj 332 101 r peek;
#X obj 182 169 rind 0.5 0.9;
#X obj 265 63 graid 2 0.1 63;
#X connect 0 0 11 0;
#X connect 0 0 1 0;
#X connect 2 0 3 1;
#X connect 3 0 0 1;
#X connect 4 0 18 0;
#X connect 4 1 16 0;
#X connect 5 0 6 0;
#X connect 6 0 13 1;
#X connect 7 0 19 0;
#X connect 9 0 19 0;
#X connect 10 0 16 0;
#X connect 12 0 0 0;
#X connect 13 0 4 0;
#X connect 14 0 13 0;
#X connect 15 0 14 0;
#X connect 16 0 3 0;
#X connect 16 0 14 1;
#X connect 17 0 16 0;
#X connect 17 0 18 0;
#X connect 18 0 0 0;
#X connect 19 0 8 0;
#X restore 303 43 pd dcay2;
#N canvas 330 303 450 300 dcay 0;
#X obj 155 167 pad;
#X obj 155 189 s dcay;
#X obj 218 121 r met;
#X obj 189 121 *;
#X obj 155 120 t;
#X obj 179 33 r eq;
#X obj 179 55 == 0;
#X obj 244 67 s dcay;
#X floatatom 286 25 5 0 0 0 - - -, f 5;
#X obj 244 23 r eq1;
#X floatatom 98 201 5 0 0 0 - - -, f 5;
#X obj 191 77 ii;
#X obj 140 79 spigot;
#X obj 140 57 cpt;
#X obj 140 35 r bt;
#X obj 191 98 rand 100 1000;
#X obj 155 145 rind 0.15 0.95;
#X obj 307 106 r peek;
#X obj 244 45 graid 2 0.1 63;
#X connect 0 0 1 0;
#X connect 0 0 10 0;
#X connect 2 0 3 1;
#X connect 3 0 0 1;
#X connect 4 0 16 0;
#X connect 4 1 15 0;
#X connect 5 0 6 0;
#X connect 6 0 12 1;
#X connect 8 0 18 0;
#X connect 9 0 18 0;
#X connect 11 0 15 0;
#X connect 12 0 4 0;
#X connect 13 0 12 0;
#X connect 14 0 13 0;
#X connect 15 0 3 0;
#X connect 15 0 13 1;
#X connect 16 0 0 0;
#X connect 17 0 15 0;
#X connect 17 0 16 0;
#X connect 18 0 7 0;
#X restore 303 21 pd dcay;
#N canvas 879 396 391 232 vol 0;
#X obj 197 47 ii;
#X obj 226 96 r met;
#X obj 197 96 *;
#X obj 148 95 t;
#X obj 148 144 outlet;
#X obj 197 167 outlet;
#X msg 302 136 10;
#X obj 34 96 spigot;
#X obj 75 74 r eq;
#X obj 197 144 spigot;
#X obj 302 29 r eq;
#X obj 302 51 == 0;
#X obj 302 114 sel;
#X obj 34 74 r eq2;
#X obj 148 68 spigot;
#X obj 148 46 cpt;
#X obj 148 24 r bt;
#X obj 197 72 rand 100 500;
#X obj 148 118 rind 0.17 0.34;
#X obj 34 118 graid 0.34 0 63;
#X connect 0 0 17 0;
#X connect 1 0 2 1;
#X connect 2 0 9 0;
#X connect 3 0 18 0;
#X connect 3 1 17 0;
#X connect 6 0 5 0;
#X connect 7 0 19 0;
#X connect 8 0 7 1;
#X connect 9 0 5 0;
#X connect 10 0 11 0;
#X connect 11 0 9 1;
#X connect 11 0 12 0;
#X connect 11 0 14 1;
#X connect 12 0 6 0;
#X connect 13 0 7 0;
#X connect 14 0 3 0;
#X connect 15 0 14 0;
#X connect 16 0 15 0;
#X connect 17 0 2 0;
#X connect 17 0 15 1;
#X connect 18 0 4 0;
#X connect 19 0 4 0;
#X restore 233 60 pd vol;
#X obj 208 39 fmbloc~;
#X obj 304 118 r b0;
#N canvas 382 576 450 302 vol 0;
#X obj 195 89 ii;
#X obj 224 139 r met;
#X obj 195 139 *;
#X obj 146 138 t;
#X obj 146 236 outlet;
#X obj 195 236 outlet;
#X obj 146 110 spigot;
#X obj 37 165 spigot;
#X obj 81 143 r eq;
#X obj 195 212 spigot;
#X obj 37 143 r eq0;
#X obj 146 212 spigot;
#X obj 160 190 r b4;
#X floatatom 252 77 5 0 0 0 - - -, f 5;
#X floatatom 250 233 5 0 0 0 - - -, f 5;
#X obj 146 68 r bt;
#X obj 146 89 cpt;
#X obj 195 114 rand 100 500;
#X msg 303 179 10;
#X obj 303 71 r eq;
#X obj 303 93 == 0;
#X obj 303 157 sel;
#X floatatom 206 186 5 0 0 0 - - -, f 5;
#X floatatom 303 223 5 0 0 0 - - -, f 5;
#X obj 146 163 rind 0.04 0.12;
#X obj 37 187 graid 0.12 0 63;
#X connect 0 0 17 0;
#X connect 1 0 2 1;
#X connect 2 0 9 0;
#X connect 3 0 24 0;
#X connect 3 1 17 0;
#X connect 6 0 3 0;
#X connect 7 0 25 0;
#X connect 8 0 7 1;
#X connect 9 0 5 0;
#X connect 9 0 14 0;
#X connect 10 0 7 0;
#X connect 11 0 4 0;
#X connect 12 0 11 1;
#X connect 15 0 16 0;
#X connect 16 0 6 0;
#X connect 17 0 2 0;
#X connect 17 0 13 0;
#X connect 17 0 16 1;
#X connect 18 0 5 0;
#X connect 19 0 20 0;
#X connect 20 0 21 0;
#X connect 20 0 6 1;
#X connect 20 0 9 1;
#X connect 21 0 18 0;
#X connect 24 0 11 0;
#X connect 24 0 22 0;
#X connect 25 0 11 0;
#X restore 38 61 pd vol;
#X obj 32 124 ad~;
#X floatatom 64 119 5 0 0 0 - _dcay -, f 5;
#X floatatom 56 101 5 0 0 0 - _atak -, f 5;
#X obj 14 150 *~;
#X obj 26 101 r pt;
#X obj 43 82 pad~;
#X obj 237 80 pad~;
#X obj 220 228 rind 0.45 0.63;
#X obj 26 227 rind 0.33 0.75;
#X msg 304 162 \; atak 10;
#N canvas 579 156 450 300 atak 0;
#X obj 146 95 %;
#X obj 146 117 sel;
#X obj 199 92 ii;
#X obj 228 139 r met;
#X obj 199 139 *;
#X obj 146 138 t;
#X obj 146 51 r c;
#X obj 146 73 spigot;
#X floatatom 256 77 5 0 0 0 - - -, f 5;
#X obj 199 115 rind 100 500;
#X obj 146 160 rind 3 10;
#X obj 146 182 pad;
#X obj 146 204 s atak;
#X connect 0 0 1 0;
#X connect 1 0 5 0;
#X connect 2 0 9 0;
#X connect 3 0 4 1;
#X connect 4 0 11 1;
#X connect 5 0 10 0;
#X connect 5 1 9 0;
#X connect 6 0 7 0;
#X connect 7 0 0 0;
#X connect 9 0 0 1;
#X connect 9 0 4 0;
#X connect 9 0 8 0;
#X connect 10 0 11 0;
#X connect 11 0 12 0;
#X restore 118 74 pd atak;
#N canvas 1051 156 450 300 atak2 0;
#X obj 146 95 %;
#X obj 146 117 sel;
#X obj 199 92 ii;
#X obj 228 139 r met;
#X obj 199 139 *;
#X obj 146 138 t;
#X obj 146 51 r c;
#X obj 146 73 spigot;
#X floatatom 256 77 5 0 0 0 - - -, f 5;
#X obj 199 115 rind 100 500;
#X obj 146 160 rind 3 10;
#X obj 146 182 pad;
#X obj 146 204 s atak2;
#X connect 0 0 1 0;
#X connect 1 0 5 0;
#X connect 2 0 9 0;
#X connect 3 0 4 1;
#X connect 4 0 11 1;
#X connect 5 0 10 0;
#X connect 5 1 9 0;
#X connect 6 0 7 0;
#X connect 7 0 0 0;
#X connect 9 0 0 1;
#X connect 9 0 4 0;
#X connect 9 0 8 0;
#X connect 10 0 11 0;
#X connect 11 0 12 0;
#X restore 118 96 pd atak2;
#N canvas 418 586 288 212 reverb 0;
#X obj 78 142 outlet~;
#X obj 78 97 inlet~;
#X obj 129 96 pad;
#X obj 128 54 t;
#X obj 171 75 rind;
#X floatatom 159 118 5 0 0 0 - - -, f 5;
#X obj 88 119 rev2~ 93;
#X obj 107 75 rind 150;
#X obj 183 53 * 1.5;
#X obj 128 33 r pt;
#X obj 183 31 r _dcay;
#X connect 1 0 0 0;
#X connect 1 0 6 0;
#X connect 2 0 5 0;
#X connect 2 0 6 2;
#X connect 3 0 7 0;
#X connect 3 1 4 0;
#X connect 4 0 2 1;
#X connect 6 0 0 0;
#X connect 7 0 2 0;
#X connect 8 0 4 1;
#X connect 9 0 3 0;
#X connect 10 0 8 0;
#X coords 0 0 1 1 85 60 0;
#X restore 14 194 pd reverb;
#N canvas 723 586 288 212 reverb 0;
#X obj 70 148 outlet~;
#X obj 70 103 inlet~;
#X obj 121 102 pad;
#X obj 121 60 t;
#X obj 164 81 rind;
#X floatatom 152 124 5 0 0 0 - - -, f 5;
#X obj 176 60 * 1.5;
#X obj 99 81 rind 175;
#X obj 80 125 rev2~ 88;
#X obj 121 39 r pt2;
#X obj 176 39 r _dcay2;
#X connect 1 0 0 0;
#X connect 1 0 8 0;
#X connect 2 0 5 0;
#X connect 2 0 8 2;
#X connect 3 0 7 0;
#X connect 3 1 4 0;
#X connect 4 0 2 1;
#X connect 6 0 4 1;
#X connect 7 0 2 0;
#X connect 8 0 0 0;
#X connect 9 0 3 0;
#X connect 10 0 6 0;
#X coords 0 0 1 1 85 60 0;
#X restore 208 196 pd reverb;
#X connect 2 0 29 0;
#X connect 3 0 35 0;
#X connect 4 0 2 0;
#X connect 5 0 4 0;
#X connect 5 1 4 1;
#X connect 5 2 4 2;
#X connect 6 0 7 0;
#X connect 6 1 7 1;
#X connect 6 2 7 2;
#X connect 7 0 23 0;
#X connect 8 0 23 1;
#X connect 8 1 23 2;
#X connect 9 0 12 1;
#X connect 10 0 9 2;
#X connect 11 0 9 1;
#X connect 12 0 39 0;
#X connect 13 0 3 0;
#X connect 14 0 9 0;
#X connect 14 0 33 0;
#X connect 16 0 0 0;
#X connect 16 1 0 1;
#X connect 17 0 12 0;
#X connect 19 0 0 0;
#X connect 19 1 0 1;
#X connect 22 0 32 0;
#X connect 22 1 32 1;
#X connect 23 0 17 0;
#X connect 24 0 3 0;
#X connect 25 0 31 0;
#X connect 25 1 31 1;
#X connect 26 0 29 1;
#X connect 27 0 26 2;
#X connect 28 0 26 1;
#X connect 29 0 38 0;
#X connect 30 0 26 0;
#X connect 30 0 34 0;
#X connect 31 0 2 1;
#X connect 32 0 17 1;
#X connect 33 0 16 1;
#X connect 34 0 19 1;
#X connect 38 0 19 0;
#X connect 38 0 18 0;
#X connect 39 0 16 0;
#X coords 0 312 1 311 85 60 0;
#X restore 31 114 pd fm;
#X obj 59 213 r pt;
#X floatatom 358 242 5 0 0 0 - - -, f 5;
#X obj 358 261 s atak;
#X obj 359 204 s met;
#X floatatom 359 183 5 0 0 0 - - -, f 5;
#X floatatom 358 284 5 0 0 0 - - -, f 5;
#X obj 358 323 s dcay;
#X floatatom 359 345 5 0 0 0 - - -, f 5;
#X obj 359 364 s ramp;
#N canvas 579 528 465 341 hum 0;
#X obj 95 186 s lbt;
#X obj 219 136 s latak;
#X obj 239 35 r met;
#X obj 277 136 s lramp;
#X floatatom 212 159 5 0 0 0 - - -, f 5;
#N canvas 142 580 409 260 lofm 0;
#X obj 143 101 *~;
#X floatatom 239 46 5 0 0 0 - ldcay -, f 5;
#X obj 165 27 bng 15 250 50 0 empty empty empty 17 7 0 10 -262144 -1
-1;
#X floatatom 198 46 5 0 0 0 - latak -, f 5;
#X obj 143 135 *~;
#X obj 188 26 r lbt;
#X obj 127 182 adac~;
#X obj 170 158 throw~ sview;
#N canvas 599 316 450 177 vals 0;
#X floatatom 56 97 5 0 0 0 - lramp -, f 5;
#X obj 19 97 pad~;
#X obj 19 50 r lt;
#X floatatom 104 55 5 0 0 0 - - -, f 5;
#X floatatom 182 56 5 0 0 0 - - -, f 5;
#X floatatom 204 97 5 0 0 0 - xlramp -, f 5;
#X obj 167 97 pad~;
#X obj 167 21 r lbt;
#X floatatom 221 56 5 0 0 0 - - -, f 5;
#X obj 167 75 rind 100 800;
#X floatatom 342 99 5 0 0 0 - ramp -, f 5;
#X obj 305 99 pad~;
#X obj 305 55 r lt;
#X obj 19 145 outlet~;
#X obj 167 142 outlet~;
#X obj 305 145 outlet~;
#X obj 251 100 ii;
#X obj 19 75 muse 31 2 3 -1 -4 -5;
#X obj 305 77 muse 50 2 3 4 5 4;
#X connect 0 0 1 1;
#X connect 1 0 13 0;
#X connect 2 0 3 0;
#X connect 2 0 17 0;
#X connect 4 0 9 1;
#X connect 5 0 6 1;
#X connect 6 0 14 0;
#X connect 7 0 9 0;
#X connect 8 0 9 2;
#X connect 9 0 6 0;
#X connect 10 0 11 1;
#X connect 11 0 15 0;
#X connect 12 0 18 0;
#X connect 16 0 9 0;
#X connect 17 0 1 0;
#X connect 18 0 11 0;
#X restore 112 43 pd vals;
#X obj 116 69 freqm~;
#N canvas 932 525 311 248 vals 0;
#X obj 38 180 outlet~;
#X obj 38 150 pad~;
#X obj 113 17 t;
#X obj 124 114 b;
#X floatatom 67 12 5 0 0 0 - - -, f 5;
#X msg 66 31 k \$1;
#X msg 74 -30 7;
#X obj 72 150 rind;
#X floatatom 84 114 5 0 0 0 - - -, f 5;
#X floatatom 45 114 5 0 0 0 - - -, f 5;
#X obj 113 -5 r lbt;
#X obj 161 -19 r ldcay;
#X floatatom 107 41 5 0 0 0 - - -, f 5;
#X obj 158 115 / 4;
#X obj 38 87 muse 19 2 3 7 8;
#X obj 38 62 rind 30;
#X connect 1 0 0 0;
#X connect 2 0 15 0;
#X connect 2 1 3 0;
#X connect 3 0 7 0;
#X connect 4 0 5 0;
#X connect 5 0 14 0;
#X connect 6 0 4 0;
#X connect 7 0 1 1;
#X connect 10 0 2 0;
#X connect 11 0 13 0;
#X connect 12 0 15 1;
#X connect 13 0 7 2;
#X connect 14 0 1 0;
#X connect 14 0 9 0;
#X connect 14 1 8 0;
#X connect 15 0 14 0;
#X coords 0 248 1 247 85 60 0;
#X restore 60 69 pd vals;
#X obj 188 65 ad~;
#X obj 83 123 *~ 0.5;
#X obj 83 101 fmbloc~;
#N canvas 877 526 450 300 vol 0;
#X obj 195 89 ii;
#X obj 224 139 r met;
#X obj 195 139 *;
#X obj 146 138 t;
#X obj 146 262 outlet;
#X obj 195 262 outlet;
#X obj 309 71 r eq;
#X obj 309 93 == 0;
#X obj 16 170 spigot;
#X obj 60 148 r eq;
#X obj 195 238 spigot;
#X obj 146 238 spigot;
#X obj 309 169 sel;
#X msg 309 191 10;
#X obj 16 148 r eq4;
#X obj 172 183 r b4;
#X obj 172 203 t f f;
#X msg 127 202 0.12;
#X obj 146 110 spigot;
#X obj 146 89 cpt;
#X obj 146 67 r bt;
#X obj 195 114 rand 100 1000;
#X obj 146 163 rind 0.05 0.09;
#X obj 15 192 graid 0.09 0 63;
#X connect 0 0 21 0;
#X connect 1 0 2 1;
#X connect 2 0 10 0;
#X connect 3 0 22 0;
#X connect 3 1 21 0;
#X connect 6 0 7 0;
#X connect 7 0 10 1;
#X connect 7 0 12 0;
#X connect 7 0 18 1;
#X connect 8 0 23 0;
#X connect 9 0 8 1;
#X connect 10 0 5 0;
#X connect 11 0 4 0;
#X connect 12 0 13 0;
#X connect 13 0 5 0;
#X connect 14 0 8 0;
#X connect 15 0 16 0;
#X connect 16 0 17 0;
#X connect 16 1 11 1;
#X connect 16 1 13 0;
#X connect 17 0 11 0;
#X connect 18 0 3 0;
#X connect 19 0 18 0;
#X connect 20 0 19 0;
#X connect 21 0 2 0;
#X connect 21 0 19 1;
#X connect 22 0 11 0;
#X connect 23 0 11 0;
#X restore 185 112 pd vol;
#X obj 190 133 pad~;
#X connect 0 0 4 0;
#X connect 1 0 11 2;
#X connect 2 0 11 0;
#X connect 3 0 11 1;
#X connect 4 0 6 1;
#X connect 4 0 6 0;
#X connect 4 0 7 0;
#X connect 5 0 11 0;
#X connect 8 0 9 0;
#X connect 8 1 9 1;
#X connect 8 2 9 2;
#X connect 9 0 0 0;
#X connect 9 0 13 0;
#X connect 10 0 13 1;
#X connect 11 0 0 1;
#X connect 12 0 0 0;
#X connect 13 0 12 0;
#X connect 14 0 15 0;
#X connect 14 1 15 1;
#X connect 15 0 4 1;
#X restore 57 151 pd lofm;
#N canvas 906 492 443 257 hifm 0;
#X obj 134 97 *~;
#X floatatom 234 52 5 0 0 0 - ldcay -, f 5;
#X floatatom 177 25 5 0 0 0 - latak -, f 5;
#X obj 134 131 *~;
#X obj 194 133 r lbt;
#X obj 129 204 adac~;
#X obj 43 177 throw~ sview;
#N canvas 610 340 450 177 vals 0;
#X floatatom 70 83 5 0 0 0 - lramp -, f 5;
#X obj 33 83 pad~;
#X obj 33 62 muse 59 10 10 12;
#X obj 33 41 r ht;
#X floatatom 203 19 5 0 0 0 - - -, f 5;
#X floatatom 194 44 5 0 0 0 - - -, f 5;
#X floatatom 199 85 5 0 0 0 - xlramp -, f 5;
#X obj 152 85 pad~;
#X obj 152 41 r lbt;
#X floatatom 234 44 5 0 0 0 - - -, f 5;
#X floatatom 199 102 5 0 0 0 - - -, f 5;
#X obj 152 63 rind 100 800;
#X floatatom 347 86 5 0 0 0 - ramp -, f 5;
#X obj 310 86 pad~;
#X floatatom 346 45 5 0 0 0 - - -, f 5;
#X obj 310 64 muse 29 2 -3 -2;
#X obj 310 42 r ht;
#X obj 33 140 outlet~;
#X obj 152 140 outlet~;
#X obj 310 139 outlet~;
#X obj 258 92 ii;
#X connect 0 0 1 1;
#X connect 1 0 17 0;
#X connect 2 0 1 0;
#X connect 3 0 2 0;
#X connect 5 0 11 1;
#X connect 6 0 7 1;
#X connect 7 0 18 0;
#X connect 8 0 11 0;
#X connect 9 0 11 2;
#X connect 10 0 7 0;
#X connect 11 0 4 0;
#X connect 11 0 7 0;
#X connect 12 0 13 1;
#X connect 13 0 19 0;
#X connect 14 0 15 1;
#X connect 15 0 13 0;
#X connect 16 0 15 0;
#X connect 20 0 11 0;
#X restore 109 21 pd vals;
#X obj 112 43 freqm~;
#N canvas 622 580 311 248 vals 0;
#X obj 38 180 outlet~;
#X obj 38 150 pad~;
#X obj 113 17 t;
#X obj 124 114 b;
#X floatatom 67 12 5 0 0 0 - - -, f 5;
#X msg 66 31 k \$1;
#X floatatom 106 38 5 0 0 0 - - -, f 5;
#X msg 74 -30 7;
#X obj 72 150 rind;
#X floatatom 84 114 5 0 0 0 - - -, f 5;
#X floatatom 45 114 5 0 0 0 - - -, f 5;
#X obj 113 -5 r lbt;
#X obj 161 -19 r ldcay;
#X obj 38 87 muse 19 2 3 7 8;
#X obj 38 65 rind 0 30;
#X obj 154 116 / 4;
#X connect 1 0 0 0;
#X connect 2 0 14 0;
#X connect 2 1 3 0;
#X connect 3 0 8 0;
#X connect 4 0 5 0;
#X connect 5 0 13 0;
#X connect 6 0 14 1;
#X connect 7 0 4 0;
#X connect 8 0 1 1;
#X connect 11 0 2 0;
#X connect 12 0 15 0;
#X connect 13 0 1 0;
#X connect 13 0 10 0;
#X connect 13 1 9 0;
#X connect 14 0 13 0;
#X connect 15 0 8 2;
#X coords 0 248 1 247 85 60 0;
#X restore 56 43 pd vals;
#X obj 183 183 ii 0.5;
#X obj 167 44 ad~;
#X obj 134 177 pan~;
#X obj 72 102 *~ 0.6;
#X obj 72 80 fmbloc~;
#N canvas 410 528 450 300 vol 0;
#X obj 195 88 ii;
#X obj 224 139 r met;
#X obj 195 139 *;
#X obj 146 138 t;
#X obj 146 262 outlet;
#X obj 195 262 outlet;
#X obj 309 70 r eq;
#X obj 309 92 == 0;
#X obj 16 170 spigot;
#X obj 60 148 r eq;
#X obj 195 238 spigot;
#X obj 146 238 spigot;
#X obj 309 157 sel;
#X msg 309 179 10;
#X obj 16 148 r eq5;
#X obj 167 187 r b4;
#X obj 167 207 t f f;
#X msg 128 207 0.17;
#X obj 146 109 spigot;
#X obj 146 88 cpt;
#X obj 146 66 r bt;
#X obj 195 113 rand 100 1000;
#X obj 146 163 rind 0.06 0.13;
#X obj 16 192 graid 0.13 0 63;
#X connect 0 0 21 0;
#X connect 1 0 2 1;
#X connect 2 0 10 0;
#X connect 3 0 22 0;
#X connect 3 1 21 0;
#X connect 6 0 7 0;
#X connect 7 0 10 1;
#X connect 7 0 12 0;
#X connect 7 0 18 1;
#X connect 8 0 23 0;
#X connect 9 0 8 1;
#X connect 10 0 5 0;
#X connect 11 0 4 0;
#X connect 12 0 13 0;
#X connect 13 0 5 0;
#X connect 14 0 8 0;
#X connect 15 0 16 0;
#X connect 16 0 17 0;
#X connect 16 1 11 1;
#X connect 16 1 13 0;
#X connect 17 0 11 0;
#X connect 18 0 3 0;
#X connect 19 0 18 0;
#X connect 20 0 19 0;
#X connect 21 0 2 0;
#X connect 21 0 19 1;
#X connect 22 0 11 0;
#X connect 23 0 11 0;
#X restore 170 88 pd vol;
#X obj 175 109 pad~;
#X obj 146 154 rind 0.4 0.6;
#X connect 0 0 3 0;
#X connect 1 0 11 2;
#X connect 2 0 11 1;
#X connect 3 0 6 0;
#X connect 3 0 12 0;
#X connect 4 0 11 0;
#X connect 4 0 17 0;
#X connect 7 0 8 0;
#X connect 7 1 8 1;
#X connect 7 2 8 2;
#X connect 8 0 0 0;
#X connect 8 0 14 0;
#X connect 9 0 14 1;
#X connect 10 0 12 1;
#X connect 11 0 0 1;
#X connect 12 0 5 0;
#X connect 12 1 5 1;
#X connect 13 0 0 0;
#X connect 14 0 13 0;
#X connect 15 0 16 0;
#X connect 15 1 16 1;
#X connect 16 0 3 1;
#X connect 17 0 12 1;
#X restore 57 129 pd hifm;
#X floatatom 80 215 5 0 0 0 - - -, f 5;
#X obj 133 232 s lt;
#X floatatom 243 232 5 0 0 0 - - -, f 5;
#X floatatom 168 232 5 0 0 0 - - -, f 5;
#X obj 239 81 f;
#X floatatom 351 43 5 0 0 0 - - -, f 5;
#X obj 208 232 s ht;
#X obj 208 210 randv 4 1;
#X obj 122 97 spigot;
#X obj 277 114 * 1.3;
#N canvas 836 517 452 352 shape 0;
#X obj 215 216 -;
#X obj 246 238 s ldcay;
#X obj 206 296 s xlramp;
#X obj 246 216 r latak;
#X obj 202 102 r met;
#X obj 215 197 f;
#X obj 246 197 b;
#X floatatom 285 122 5 0 0 0 - - -, f 5;
#X msg 297 81 128;
#X obj 199 134 f;
#X obj 252 97 b;
#X obj 206 167 * 318;
#X connect 0 0 1 0;
#X connect 3 0 0 1;
#X connect 3 0 6 0;
#X connect 4 0 9 1;
#X connect 4 0 10 0;
#X connect 5 0 0 0;
#X connect 6 0 5 0;
#X connect 7 0 10 0;
#X connect 7 0 11 1;
#X connect 8 0 7 0;
#X connect 9 0 11 0;
#X connect 10 0 9 0;
#X connect 11 0 2 0;
#X connect 11 0 5 0;
#X restore 212 182 pd shape;
#X obj 219 114 * 0.1;
#X obj 239 57 t b f;
#X floatatom 309 46 5 0 0 0 - - -, f 5;
#X floatatom 176 120 5 0 0 0 - - -, f 5;
#X obj 122 163 t;
#X obj 122 76 r c;
#X obj 122 141 sel;
#X obj 161 76 r b8;
#X obj 135 210 randv 6 1;
#X obj 122 119 % 192;
#X connect 2 0 19 0;
#X connect 7 0 8 0;
#X connect 11 0 16 0;
#X connect 11 0 18 0;
#X connect 12 0 16 1;
#X connect 14 0 9 0;
#X connect 14 0 13 0;
#X connect 15 0 27 0;
#X connect 18 0 1 0;
#X connect 18 0 3 0;
#X connect 18 0 21 0;
#X connect 19 0 11 0;
#X connect 19 1 11 1;
#X connect 20 0 18 1;
#X connect 22 0 0 0;
#X connect 22 1 14 0;
#X connect 22 1 26 0;
#X connect 23 0 15 0;
#X connect 24 0 22 0;
#X connect 25 0 15 1;
#X connect 26 0 8 0;
#X connect 26 0 10 0;
#X connect 27 0 24 0;
#X restore 31 136 pd hum;
#N canvas 73 620 450 300 record 0;
#X obj 227 69 bng 15 250 50 0 empty empty empty 17 7 0 10 -262144 -1
-1;
#X msg 227 89 open imafreq.wav;
#X obj 177 232 writesf~ 2;
#X msg 249 121 start;
#X msg 322 137 stop;
#X obj 128 188 inlet~;
#X obj 297 187 inlet~;
#X connect 0 0 1 0;
#X connect 1 0 2 0;
#X connect 3 0 2 0;
#X connect 4 0 2 0;
#X connect 5 0 2 0;
#X connect 6 0 2 1;
#X restore 194 385 pd record;
#X obj 63 48 r _met;
#N canvas 0 82 450 300 privates 0;
#X obj 298 116 r met;
#X obj 298 138 s _met;
#X obj 117 116 r atak;
#X obj 117 138 s _atak;
#X obj 175 116 r dcay;
#X obj 175 138 s _dcay;
#X obj 233 116 r xramp;
#X obj 233 138 s _xramp;
#X connect 0 0 1 0;
#X connect 2 0 3 0;
#X connect 4 0 5 0;
#X connect 6 0 7 0;
#X restore 199 169 pd privates;
#X obj 358 302 * 0.01;
#X obj 262 352 * 0.01;
#X msg 101 332 \; view 18.87;
#X obj 59 257 t;
#X obj 109 146 r play;
#X obj 201 331 r vol;
#N canvas 1048 600 450 300 mix 0;
#X obj 184 158 dac~;
#X obj 137 47 catch~ L;
#X obj 240 47 catch~ R;
#X obj 148 115 *~;
#X obj 240 115 *~;
#X obj 198 70 inlet;
#X obj 102 151 outlet~;
#X obj 278 147 outlet~;
#X obj 158 136 *~ 1;
#X obj 214 136 *~ 1;
#X connect 1 0 3 0;
#X connect 1 0 6 0;
#X connect 2 0 4 0;
#X connect 2 0 7 0;
#X connect 3 0 8 0;
#X connect 4 0 9 0;
#X connect 5 0 4 1;
#X connect 5 0 3 1;
#X connect 8 0 0 0;
#X connect 9 0 0 1;
#X restore 201 363 pd mix;
#N canvas 424 244 450 300 info 0;
#X text 174 77 artist : miwi;
#X text 181 91 title : freq;
#X text 174 105 length off 480000;
#X restore 273 202 pd info;
#X obj 139 15 bng 15 250 50 0 empty empty empty 17 7 0 10 -262144 -1
-1;
#N canvas 584 465 450 300 timing 0;
#X obj 133 34 r bt;
#X obj 133 56 cup;
#X obj 133 139 s b0;
#X obj 165 120 s b4;
#X obj 198 139 s b8;
#X obj 104 78 s c;
#X obj 129 243 s met;
#X obj 111 177 r pre;
#X msg 133 99 1;
#X msg 165 99 1;
#X msg 198 99 1;
#X obj 111 199 sel;
#X floatatom 187 186 5 0 0 0 - - -, f 5;
#X floatatom 189 250 5 0 0 0 - - -, f 5;
#X floatatom 166 57 5 0 0 0 - - -, f 5;
#X msg 230 99 1;
#X floatatom 298 167 5 0 0 0 - - -, f 5;
#X floatatom 296 238 5 0 0 0 - - -, f 5;
#X obj 296 216 graid 69;
#X obj 304 63 bng 15 250 50 0 empty empty empty 17 7 0 10 -262144 -1
-1;
#X floatatom 332 105 5 0 0 0 - - -, f 5;
#X obj 343 26 metro 1;
#X obj 304 32 tgl 15 0 empty empty empty 17 7 0 10 -262144 -1 -1 0
1;
#X obj 291 144 tgl 15 0 empty empty empty 17 7 0 10 -262144 -1 -1 0
1;
#X obj 291 122 sel 999 1000;
#X obj 331 144 tgl 15 0 empty empty empty 17 7 0 10 -262144 -1 -1 0
1;
#X obj 332 83 rind 0 69;
#X obj 133 78 sel 0 768 1536 2688;
#X obj 230 120 s b14;
#X obj 129 221 graid 10 80 63;
#X connect 0 0 1 0;
#X connect 1 0 5 0;
#X connect 1 0 14 0;
#X connect 1 0 27 0;
#X connect 7 0 11 0;
#X connect 8 0 2 0;
#X connect 9 0 3 0;
#X connect 10 0 4 0;
#X connect 11 1 29 0;
#X connect 12 0 29 0;
#X connect 15 0 28 0;
#X connect 16 0 18 0;
#X connect 18 0 17 0;
#X connect 19 0 26 0;
#X connect 21 0 26 0;
#X connect 22 0 21 0;
#X connect 24 0 23 0;
#X connect 24 1 25 0;
#X connect 26 0 20 0;
#X connect 27 0 8 0;
#X connect 27 1 9 0;
#X connect 27 2 10 0;
#X connect 27 3 15 0;
#X connect 29 0 6 0;
#X connect 29 0 13 0;
#X restore 63 2 pd timing;
#X msg 313 357 peek;
#X obj 304 378 s peek;
#X obj 308 333 r play;
#N canvas 550 534 450 300 play 0;
#X obj 164 71 inlet;
#X obj 241 141 s eq;
#X msg 241 119 0;
#X msg 148 119 1;
#X obj 148 141 s play;
#X obj 198 141 s pre;
#X obj 164 93 t b b b;
#X msg 198 119 26;
#X connect 0 0 6 0;
#X connect 2 0 1 0;
#X connect 3 0 4 0;
#X connect 6 0 3 0;
#X connect 6 1 7 0;
#X connect 6 2 2 0;
#X connect 7 0 5 0;
#X restore 139 35 pd play;
#X msg 102 85 \; met 20 \; ramp 10 \; view 37.73 \;;
#X obj 114 65 ii;
#X obj 159 146 del 500;
#X connect 0 0 47 0;
#X connect 2 0 25 0;
#X connect 3 0 29 0;
#X connect 3 0 4 0;
#X connect 3 0 30 1;
#X connect 4 0 12 0;
#X connect 4 0 13 0;
#X connect 4 0 19 0;
#X connect 4 0 22 0;
#X connect 4 1 9 0;
#X connect 4 1 11 0;
#X connect 4 1 18 0;
#X connect 6 0 10 0;
#X connect 7 0 2 0;
#X connect 8 0 10 1;
#X connect 9 0 16 0;
#X connect 10 0 5 0;
#X connect 11 0 17 0;
#X connect 12 0 16 0;
#X connect 13 0 17 0;
#X connect 14 0 12 1;
#X connect 15 0 13 1;
#X connect 18 0 21 0;
#X connect 19 0 21 0;
#X connect 20 0 19 1;
#X connect 22 0 24 0;
#X connect 23 0 24 0;
#X connect 25 0 26 0;
#X connect 28 0 49 0;
#X connect 29 0 28 1;
#X connect 30 0 4 0;
#X connect 31 0 5 0;
#X connect 33 0 28 0;
#X connect 34 0 35 0;
#X connect 37 0 36 0;
#X connect 38 0 46 0;
#X connect 40 0 41 0;
#X connect 44 0 25 1;
#X connect 46 0 39 0;
#X connect 47 0 52 0;
#X connect 49 0 23 0;
#X connect 49 1 30 0;
#X connect 50 0 62 0;
#X connect 51 0 52 0;
#X connect 52 0 43 0;
#X connect 52 1 43 1;
#X connect 54 0 59 0;
#X connect 56 0 57 0;
#X connect 61 0 60 0;
#X connect 62 0 3 0;
#X coords 0 411 1 410 85 60 0;
