#N canvas 304 568 429 413 10;
#X floatatom 262 338 5 0 0 0 - - -, f 5;
#N canvas 0 50 450 250 (subpatch) 0;
#X array view 500 float 1;
#A 0 0.000224125 0.000159729 0.00227922 0.00649062 0.0126528 0.0205835
0.0300512 0.0407972 0.0525401 0.0650002 0.0778867 0.0909091 0.103801
0.116309 0.128205 0.139283 0.149383 0.158365 0.16614 0.172635 0.177808
0.18162 0.18403 0.184976 0.18441 0.182275 0.178553 0.173258 0.166467
0.158298 0.148953 0.138672 0.127765 0.116572 0.10549 0.0949406 0.0853563
0.0771831 0.0708409 0.0667173 0.0651263 0.0663136 0.0703991 0.0773914
0.0871437 0.0993793 0.11366 0.129432 0.146021 0.162693 0.178688 0.193272
0.205816 0.215828 0.223028 0.227382 0.229127 0.228762 0.227025 0.224838
0.223221 0.223187 0.225654 0.231322 0.240608 0.253538 0.269732 0.288392
0.308332 0.328076 0.345986 0.360435 0.369972 0.373525 0.370521 0.361003
0.345665 0.325794 0.303158 0.279824 0.257893 0.239271 0.225392 0.21704
0.214223 0.216141 0.221298 0.227685 0.233049 0.235243 0.232525 0.223836
0.209019 0.188856 0.164993 0.139781 0.115913 0.0960933 0.0826334 0.0771385
0.080255 0.0915681 0.109666 0.132315 0.156783 0.18022 0.200072 0.214443
0.22238 0.223985 0.220379 0.213524 0.205871 0.199978 0.198086 0.201766
0.211663 0.227409 0.247664 0.27033 0.292857 0.312626 0.327319 0.335251
0.33559 0.328452 0.31486 0.296576 0.275825 0.254984 0.236247 0.221332
0.211277 0.206321 0.205908 0.208787 0.213209 0.217168 0.218664 0.21597
0.207826 0.193593 0.173325 0.147727 0.118105 0.0861842 0.05392 0.0232941
-0.00390103 -0.0262318 -0.0427413 -0.0530131 -0.0571546 -0.0557483
-0.0497486 -0.0403526 -0.0288734 -0.0166332 -0.00483978 0.00547761
0.0135461 0.0188388 0.0211183 0.0203973 0.0169034 0.0110315 0.00330718
-0.00570197 -0.0153963 -0.025224 -0.0346938 -0.0434014 -0.051054 -0.0574562
-0.0625224 -0.0662617 -0.0687589 -0.0701565 -0.0706453 -0.0704422 -0.0697723
-0.0688608 -0.0679076 -0.0670868 -0.0665243 -0.0662967 -0.0663911 -0.0667449
-0.067195 -0.0675047 -0.0673954 -0.0665442 -0.0646393 -0.061407 -0.0566516
-0.0502496 -0.0421881 -0.0325354 -0.0214284 -0.00905795 0.00434513
0.0185311 0.0332404 0.0482152 0.0632051 0.0779716 0.0922963 0.105982
0.118852 0.130765 0.141605 0.151286 0.159762 0.167009 0.173038 0.177883
0.181601 0.184266 0.185959 0.186766 0.186765 0.186026 0.184596 0.182493
0.1797 0.176158 0.171761 0.166364 0.159791 0.151845 0.142333 0.131094
0.118011 0.103031 0.0861685 0.0675017 0.0471734 0.0253675 0.00230212
-0.0217888 -0.0466389 -0.0719686 -0.0974654 -0.122791 -0.147569 -0.171399
-0.193858 -0.214524 -0.232984 -0.248859 -0.26183 -0.271661 -0.278223
-0.281495 -0.281593 -0.278768 -0.273415 -0.266037 -0.25725 -0.247742
-0.238219 -0.229391 -0.22189 -0.21624 -0.212803 -0.211734 -0.212993
-0.216288 -0.221143 -0.22689 -0.232752 -0.23791 -0.241547 -0.242957
-0.241593 -0.237111 -0.229431 -0.218754 -0.205545 -0.190539 -0.174667
-0.159013 -0.144686 -0.132723 -0.12398 -0.119004 -0.117955 -0.120543
-0.12604 -0.133318 -0.140936 -0.147285 -0.150741 -0.149847 -0.143479
-0.130974 -0.11223 -0.0877397 -0.0585468 -0.0261594 0.00759701 0.0407755
0.0715075 0.0982139 0.119764 0.135595 0.145781 0.150996 0.152452 0.151723
0.15058 0.150754 0.153742 0.16062 0.171912 0.187532 0.206783 0.228459
0.250961 0.272531 0.291413 0.30609 0.315439 0.318837 0.316227 0.308107
0.295445 0.279555 0.261969 0.244241 0.227805 0.213835 0.203127 0.196046
0.192515 0.192034 0.193746 0.196551 0.199222 0.200507 0.199271 0.194584
0.185796 0.17258 0.154956 0.133266 0.108136 0.0804154 0.0511098 0.0212904
-0.00796708 -0.0356639 -0.0609205 -0.0830374 -0.101509 -0.116053 -0.126598
-0.133273 -0.136396 -0.136429 -0.133929 -0.129542 -0.123925 -0.11773
-0.111569 -0.105973 -0.101387 -0.0981488 -0.0964959 -0.0965516 -0.0983447
-0.101832 -0.10689 -0.113348 -0.120996 -0.129593 -0.138893 -0.148633
-0.158552 -0.168407 -0.177951 -0.18696 -0.19522 -0.202545 -0.20876
-0.213713 -0.217275 -0.219345 -0.219842 -0.218724 -0.215976 -0.211616
-0.205705 -0.198323 -0.189594 -0.179659 -0.168683 -0.156838 -0.144306
-0.131275 -0.117956 -0.104535 -0.0912312 -0.0782443 -0.0657711 -0.0539854
-0.0430327 -0.0330289 -0.0240336 -0.0160824 -0.00914904 -0.00318983
0.00189756 0.00623324 0.00996881 0.0132703 0.0163191 0.0192939 0.0223697
0.0257146 0.029483 0.0337888 0.0387375 0.0443873 0.0507794 0.0578925
0.0656931 0.0740731 0.0829167 0.0920293 0.10121 0.110185 0.118675 0.126351
0.132874 0.137886 0.141043 0.142023 0.140545 0.136389 0.129441 0.11969
0.107255 0.0923913 0.0754988 0.0570811 0.037749 0.0181791 -0.000925731
-0.0188606 -0.0349777 -0.0487183 -0.0596564 -0.0675481 -0.0723517 -0.0742597
-0.0736911 -0.0712841 -0.0678455 -0.064313 -0.0616429 -0.0607595 -0.0624179
-0.0671545 -0.0751774 -0.0863297 -0.100085 -0.11554 -0.131515 -0.146638
-0.159488 -0.168763 -0.173409 -0.172796 -0.166792 -0.155833 -0.140887
-0.123395 -0.105107 -0.0878762 -0.0734528 -0.0632267 -0.0580705 -0.0581631
-0.0629485 -0.071185 -0.0810646 -0.0904533 -0.0971662 -0.099282 -0.0954363
-0.0850315 -0.0683844 -0.046691 -0.0219307 0.00340997 0.0266567 0.0453198
0.0574297 0.0618312;
#X coords 0 1 499 -1 200 140 1;
#X restore 193 16 graph;
#X obj 31 51 tgl 15 0 empty empty empty 17 7 0 10 -262144 -1 -1 0 1
;
#X obj 103 168 tgl 15 0 empty empty empty 17 7 0 10 -262144 -1 -1 0
1;
#X obj 141 183 sel 1 0;
#X obj 36 368 tabwrite~ view;
#X obj 36 327 tgl 15 0 empty empty empty 17 7 0 10 -262144 -1 -1 0
1;
#X obj 31 28 r tog;
#X floatatom 53 328 6 0 0 0 - view -, f 6;
#X obj 112 64 loadbang;
#X msg 223 255 4000;
#X obj 36 346 metro;
#X msg 223 212 800;
#X obj 194 255 f;
#X obj 194 212 f;
#X obj 212 235 r dcay;
#X obj 212 192 r atak;
#X obj 272 272 s _dcay;
#X obj 272 229 s _atak;
#X msg 223 298 800;
#X obj 194 298 f;
#X obj 212 278 r xramp;
#X obj 272 315 s _xramp;
#X msg 141 264 1;
#X msg 64 281 0;
#X obj 96 281 s tog;
#X obj 31 72 metro;
#X obj 31 94 s bt;
#N canvas 636 542 424 324 drums 0;
#X obj 182 128 noise~;
#X obj 181 156 *~;
#X floatatom 290 120 5 0 0 0 - - -, f 5;
#X floatatom 284 104 5 0 0 0 - - -, f 5;
#X obj 216 272 throw~ sview;
#X obj 181 237 *~;
#X floatatom 253 158 5 0 0 0 - hhvol -, f 5;
#X obj 36 56 r bt;
#X floatatom 130 126 5 0 0 0 - bdvol -, f 5;
#X obj 48 145 sel;
#X obj 58 239 loadbang;
#X obj 134 145 * 0.01;
#X obj 253 173 * 0.01;
#X floatatom 118 101 5 0 0 0 - - -, f 5;
#X floatatom 78 101 5 0 0 0 - - -, f 5;
#X obj 48 124 randv 4 4;
#X obj 36 98 cpt 2;
#X obj 41 168 FM_BD;
#X obj 155 272 adac~;
#X obj 6 123 s bbt;
#X obj 246 139 ad~ 8 25;
#X obj 36 76 spigot;
#X msg 75 56 1;
#X obj 208 167 f;
#X obj 200 191 *;
#X floatatom 341 122 5 0 0 0 - - -, f 5;
#X obj 287 201 t b f;
#X msg 306 165 1;
#X msg 329 226 1;
#X obj 75 36 r b4;
#X obj 329 201 r b8;
#X obj 225 6 r c;
#X obj 237 95 % 16;
#X obj 237 117 sel 8;
#X msg 58 260 \; hhvol 9 \; bdvol 90;
#X msg 163 74 90;
#X obj 168 99 s bdvol;
#X floatatom 236 49 5 0 0 0 - - -, f 5;
#X msg 195 74 60;
#X obj 164 33 % 650;
#X obj 163 52 sel 0 320;
#X obj 133 175 pad~ 10000;
#X obj 200 212 pad~ 20000;
#X msg 338 165 0.2;
#X obj 333 100 % 2102;
#X obj 315 141 sel 512 1345;
#X connect 0 0 1 0;
#X connect 1 0 5 0;
#X connect 2 0 20 2;
#X connect 3 0 20 1;
#X connect 5 0 4 0;
#X connect 5 0 18 1;
#X connect 5 0 18 0;
#X connect 6 0 12 0;
#X connect 7 0 21 0;
#X connect 8 0 11 0;
#X connect 9 0 17 0;
#X connect 10 0 34 0;
#X connect 11 0 41 0;
#X connect 12 0 23 1;
#X connect 13 0 15 2;
#X connect 14 0 15 1;
#X connect 15 0 9 0;
#X connect 16 0 15 0;
#X connect 16 0 19 0;
#X connect 20 0 1 1;
#X connect 21 0 16 0;
#X connect 22 0 21 1;
#X connect 23 0 24 0;
#X connect 24 0 42 0;
#X connect 26 0 23 0;
#X connect 26 1 24 1;
#X connect 27 0 26 0;
#X connect 28 0 26 0;
#X connect 29 0 22 0;
#X connect 30 0 28 0;
#X connect 31 0 32 0;
#X connect 31 0 39 0;
#X connect 31 0 44 0;
#X connect 32 0 33 0;
#X connect 33 0 20 0;
#X connect 35 0 36 0;
#X connect 38 0 36 0;
#X connect 39 0 37 0;
#X connect 39 0 40 0;
#X connect 40 0 35 0;
#X connect 40 1 38 0;
#X connect 41 0 17 1;
#X connect 42 0 5 1;
#X connect 43 0 26 0;
#X connect 44 0 25 0;
#X connect 44 0 45 0;
#X connect 45 0 27 0;
#X connect 45 1 43 0;
#X coords 0 324 1 323 85 60 0;
#X restore 31 160 pd drums;
#X obj 59 237 spigot;
#X obj 98 191 == 0;
#X obj 91 257 f;
#X obj 102 311 catch~ sview;
#N canvas 628 56 498 403 fm 0;
#X obj 210 106 *~;
#X floatatom 299 64 5 0 0 0 - _dcay -, f 5;
#X floatatom 298 47 5 0 0 0 - _atak -, f 5;
#X obj 255 50 r pt;
#X floatatom 285 100 5 0 0 0 - #0-vol -, f 5;
#X obj 209 370 adac~;
#N canvas 673 383 447 393 shape 0;
#X obj 133 55 r bt;
#X obj 195 143 + 1;
#X obj 246 143 + 1;
#X obj 215 164 *;
#X obj 133 79 t;
#X obj 216 96 cpt 4;
#X obj 275 143 r met;
#X obj 271 175 r dcay;
#X obj 243 170 f;
#X obj 271 197 b;
#X obj 233 192 *;
#X obj 203 192 *;
#X obj 165 167 %;
#X obj 79 296 s pt;
#X obj 136 167 sel;
#X obj 195 121 rand 2;
#X floatatom 312 117 5 0 0 0 - - -, f 5;
#X floatatom 311 97 5 0 0 0 - - -, f 5;
#X floatatom 272 88 5 0 0 0 - - -, f 5;
#X floatatom 271 68 5 0 0 0 - - -, f 5;
#X obj 79 211 t;
#X obj 111 249 grand 2 100;
#X floatatom 236 57 5 0 0 0 - - -, f 5;
#X obj 133 113 cpt 4;
#X obj 203 23 rand 2;
#X obj 203 65 * 4;
#X obj 203 45 + 1;
#X floatatom 128 224 5 0 0 0 - - -, f 5;
#X obj 185 275 f;
#X obj 129 279 t b f;
#X obj 185 308 -;
#X obj 233 214 b;
#X obj 128 331 s _atak;
#X obj 185 331 s _dcay;
#X obj 178 225 /;
#X obj 128 200 r atak;
#X floatatom 237 278 5 0 0 0 - - -, f 5;
#X floatatom 237 259 5 0 0 0 - - -, f 5;
#X obj 246 121 rand 2;
#X connect 0 0 4 0;
#X connect 1 0 3 0;
#X connect 2 0 3 1;
#X connect 3 0 11 0;
#X connect 3 0 12 1;
#X connect 4 0 23 0;
#X connect 4 1 5 0;
#X connect 5 0 15 0;
#X connect 5 0 38 0;
#X connect 6 0 8 0;
#X connect 7 0 10 1;
#X connect 7 0 9 0;
#X connect 8 0 10 0;
#X connect 9 0 8 0;
#X connect 10 0 11 1;
#X connect 10 0 31 0;
#X connect 11 0 28 1;
#X connect 11 0 34 0;
#X connect 11 0 37 0;
#X connect 12 0 14 0;
#X connect 14 0 20 0;
#X connect 15 0 1 0;
#X connect 16 0 2 1;
#X connect 17 0 38 1;
#X connect 18 0 1 1;
#X connect 19 0 15 1;
#X connect 20 0 13 0;
#X connect 20 1 21 0;
#X connect 21 0 29 0;
#X connect 21 0 36 0;
#X connect 22 0 5 1;
#X connect 23 1 12 0;
#X connect 24 0 26 0;
#X connect 26 0 25 0;
#X connect 27 0 34 1;
#X connect 28 0 30 0;
#X connect 29 0 28 0;
#X connect 29 1 32 0;
#X connect 29 1 30 1;
#X connect 30 0 33 0;
#X connect 31 0 11 0;
#X connect 34 0 21 3;
#X connect 35 0 27 0;
#X connect 38 0 2 0;
#X coords 0 0 1 1 85 60 0;
#X restore 294 190 pd shape;
#X obj 209 146 *~;
#X obj 278 117 * 0.01;
#X obj 355 309 \$0;
#X obj 255 78 ad~;
#X obj 196 75 freqm~;
#N canvas 360 305 450 300 vals 0;
#X floatatom 58 178 5 0 0 0 - ramp -, f 5;
#X obj 23 178 pad~;
#X floatatom 97 117 5 0 0 0 - - -, f 5;
#X floatatom 256 50 5 0 0 0 - - -, f 5;
#X floatatom 204 170 5 0 0 0 - _xramp -, f 5;
#X obj 167 170 pad~;
#X floatatom 203 129 5 0 0 0 - - -, f 5;
#X floatatom 353 173 5 0 0 0 - ramp -, f 5;
#X obj 316 173 pad~;
#X floatatom 362 85 5 0 0 0 - - -, f 5;
#X obj 317 253 outlet~;
#X obj 167 252 outlet~;
#X obj 23 260 outlet~;
#X obj 167 74 r pt;
#X floatatom 70 41 5 0 0 0 - - -, f 5;
#X msg 70 60 k \$1;
#X obj 256 69 * 10;
#X obj 167 148 grand 40 4000;
#X floatatom 348 41 5 0 0 0 - - -, f 5;
#X msg 348 60 k \$1;
#X obj 23 134 rand 24;
#X obj 23 156 muse 14 7;
#X obj 316 151 muse 7 3 5 7 10;
#X obj 316 129 rand 37;
#X floatatom 109 146 5 0 0 0 - - -, f 5;
#X floatatom 110 165 5 0 0 0 - - -, f 5;
#X floatatom 112 184 5 0 0 0 - - -, f 5;
#X connect 0 0 1 1;
#X connect 1 0 12 0;
#X connect 2 0 20 1;
#X connect 3 0 16 0;
#X connect 4 0 5 1;
#X connect 5 0 11 0;
#X connect 6 0 17 2;
#X connect 7 0 8 1;
#X connect 8 0 10 0;
#X connect 9 0 23 1;
#X connect 13 0 17 0;
#X connect 13 0 20 0;
#X connect 13 0 23 0;
#X connect 14 0 15 0;
#X connect 15 0 21 0;
#X connect 16 0 17 3;
#X connect 17 0 5 0;
#X connect 17 0 26 0;
#X connect 18 0 19 0;
#X connect 19 0 22 0;
#X connect 20 0 21 0;
#X connect 20 0 24 0;
#X connect 21 0 1 0;
#X connect 22 0 8 0;
#X connect 23 0 22 0;
#X connect 23 0 25 0;
#X restore 193 52 pd vals;
#N canvas 571 245 387 238 vals 0;
#X obj 230 209 outlet~;
#X obj 5 209 outlet~;
#X obj 115 209 outlet~;
#X obj 239 159 pad~;
#X obj 5 163 pad~;
#X obj 115 161 pad~;
#X obj 145 51 t;
#X obj 168 128 b;
#X floatatom 13 29 5 0 0 0 - - -, f 5;
#X msg 13 48 k \$1;
#X floatatom 251 27 5 0 0 0 - - -, f 5;
#X msg 251 46 k \$1;
#X floatatom 106 27 5 0 0 0 - - -, f 5;
#X msg 106 46 k \$1;
#X obj 279 159 grand;
#X obj 157 161 grand;
#X obj 44 163 grand;
#X obj 145 28 r pt2;
#X obj 185 51 r _dcay2;
#X obj 199 131 / 1.5;
#X obj 0 107 muse 48 4 7 9 10;
#X obj 120 107 muse 72 4 7 9 10;
#X obj 239 107 muse 24 4 7 9 10;
#X obj 2 84 grand 0 20;
#X obj 125 84 grand 0 46;
#X obj 239 85 grand 0 30;
#X obj 75 131 r peek;
#X connect 3 0 0 0;
#X connect 4 0 1 0;
#X connect 5 0 2 0;
#X connect 6 0 23 0;
#X connect 6 0 24 0;
#X connect 6 0 25 0;
#X connect 6 1 7 0;
#X connect 7 0 14 0;
#X connect 7 0 15 0;
#X connect 7 0 16 0;
#X connect 8 0 9 0;
#X connect 9 0 20 0;
#X connect 10 0 11 0;
#X connect 11 0 22 0;
#X connect 12 0 13 0;
#X connect 13 0 21 0;
#X connect 14 0 3 1;
#X connect 15 0 5 1;
#X connect 16 0 4 1;
#X connect 17 0 6 0;
#X connect 18 0 19 0;
#X connect 19 0 16 2;
#X connect 19 0 15 2;
#X connect 19 0 14 2;
#X connect 20 0 4 0;
#X connect 21 0 5 0;
#X connect 22 0 3 0;
#X connect 23 0 20 0;
#X connect 24 0 21 0;
#X connect 25 0 22 0;
#X connect 26 0 16 0;
#X connect 26 0 15 0;
#X connect 26 0 14 0;
#X coords 0 238 1 237 85 60 0;
#X restore 20 99 pd vals;
#X obj 25 121 freqm~;
#N canvas 977 227 316 251 vals 0;
#X obj 38 183 outlet~;
#X obj 161 187 outlet~;
#X obj 38 153 pad~;
#X obj 161 152 pad~;
#X obj 113 20 t;
#X obj 124 117 b;
#X floatatom 202 22 5 0 0 0 - - -, f 5;
#X msg 202 44 k \$1;
#X floatatom 67 15 5 0 0 0 - - -, f 5;
#X msg 66 34 k \$1;
#X floatatom 148 36 5 0 0 0 - - -, f 5;
#X floatatom 258 1 5 0 0 0 - - -, f 5;
#X msg 74 -27 7;
#X obj 72 153 grand;
#X obj 197 152 grand;
#X obj 154 119 / 1.5;
#X obj 113 -2 r pt2;
#X obj 161 -16 r _dcay2;
#X obj 247 152 r ramp;
#X obj 39 90 muse 36 4 7 9 10;
#X obj 167 91 muse -12 4 7 9 10;
#X obj 35 62 grand 0 32;
#X obj 167 68 grand 0 30;
#X obj 20 27 r peek;
#X connect 2 0 0 0;
#X connect 3 0 1 0;
#X connect 4 0 21 0;
#X connect 4 0 22 0;
#X connect 4 1 5 0;
#X connect 5 0 13 0;
#X connect 5 0 14 0;
#X connect 6 0 7 0;
#X connect 7 0 20 0;
#X connect 8 0 9 0;
#X connect 9 0 19 0;
#X connect 12 0 8 0;
#X connect 12 0 6 0;
#X connect 13 0 2 1;
#X connect 14 0 3 1;
#X connect 15 0 13 2;
#X connect 15 0 14 2;
#X connect 16 0 4 0;
#X connect 17 0 15 0;
#X connect 18 0 15 1;
#X connect 19 0 2 0;
#X connect 20 0 3 0;
#X connect 21 0 19 0;
#X connect 22 0 20 0;
#X connect 23 0 22 0;
#X connect 23 0 21 0;
#X connect 23 0 14 0;
#X connect 23 0 13 0;
#X coords 0 251 1 250 85 60 0;
#X restore 74 121 pd vals;
#X obj 121 179 ad~;
#X floatatom 161 176 5 0 0 0 - _dcay2 -, f 5;
#X floatatom 156 159 5 0 0 0 - _atak2 -, f 5;
#X obj 60 251 *~;
#X obj 448 312 bng 15 250 50 0 empty empty empty 17 7 0 10 -262144
-1 -1;
#X obj 122 140 r pt2;
#N canvas 592 137 447 393 shape2 0;
#X obj 133 55 r bt;
#X obj 195 143 + 1;
#X obj 215 164 *;
#X obj 133 79 t;
#X obj 216 96 cpt 4;
#X obj 275 143 r met;
#X obj 243 170 f;
#X obj 271 197 b;
#X obj 233 192 *;
#X obj 203 192 *;
#X obj 165 167 %;
#X obj 136 167 sel;
#X obj 195 121 rand 2;
#X floatatom 324 233 5 0 0 0 - - -, f 5;
#X floatatom 278 97 5 0 0 0 - - -, f 5;
#X floatatom 90 124 5 0 0 0 - - -, f 5;
#X floatatom 271 68 5 0 0 0 - - -, f 5;
#X obj 79 211 t;
#X obj 111 249 grand 2 100;
#X floatatom 236 57 5 0 0 0 - - -, f 5;
#X obj 133 113 cpt 4;
#X obj 203 23 rand 2;
#X obj 203 65 * 4;
#X obj 203 45 + 1;
#X floatatom 128 224 5 0 0 0 - - -, f 5;
#X obj 185 275 f;
#X obj 129 279 t b f;
#X obj 185 308 -;
#X obj 233 214 b;
#X obj 178 225 /;
#X floatatom 237 278 5 0 0 0 - - -, f 5;
#X floatatom 237 259 5 0 0 0 - - -, f 5;
#X obj 128 331 s _atak2;
#X obj 190 331 s _dcay2;
#X obj 79 296 s pt2;
#X obj 128 200 r atak;
#X obj 271 175 r dcay;
#X floatatom 76 81 5 0 0 0 - - -, f 5;
#X msg 69 55 4;
#X msg 273 29 2;
#X obj 246 121 rand 2;
#X obj 246 143 + 1;
#X obj 359 94 r c;
#X msg 317 142 1;
#X floatatom 392 86 5 0 0 0 - - -, f 5;
#X msg 365 190 1;
#X msg 328 117 2;
#X msg 397 190 2;
#X msg 327 89 1;
#X obj 359 138 sel 0 768;
#X obj 359 116 % 935;
#X connect 0 0 3 0;
#X connect 1 0 2 0;
#X connect 2 0 9 0;
#X connect 2 0 10 1;
#X connect 3 0 20 0;
#X connect 3 1 4 0;
#X connect 4 0 12 0;
#X connect 4 0 40 0;
#X connect 5 0 6 0;
#X connect 6 0 8 0;
#X connect 7 0 6 0;
#X connect 8 0 9 1;
#X connect 8 0 28 0;
#X connect 9 0 25 1;
#X connect 9 0 29 0;
#X connect 9 0 31 0;
#X connect 10 0 11 0;
#X connect 11 0 17 0;
#X connect 12 0 1 0;
#X connect 13 0 41 1;
#X connect 14 0 40 1;
#X connect 15 0 1 1;
#X connect 16 0 12 1;
#X connect 17 0 34 0;
#X connect 17 1 18 0;
#X connect 18 0 26 0;
#X connect 18 0 30 0;
#X connect 19 0 4 1;
#X connect 20 1 10 0;
#X connect 21 0 23 0;
#X connect 23 0 22 0;
#X connect 24 0 29 1;
#X connect 25 0 27 0;
#X connect 26 0 25 0;
#X connect 26 1 27 1;
#X connect 26 1 32 0;
#X connect 27 0 33 0;
#X connect 28 0 9 0;
#X connect 29 0 18 3;
#X connect 35 0 24 0;
#X connect 36 0 8 1;
#X connect 36 0 7 0;
#X connect 37 0 20 1;
#X connect 38 0 20 1;
#X connect 39 0 4 1;
#X connect 40 0 41 0;
#X connect 41 0 2 1;
#X connect 42 0 50 0;
#X connect 45 0 13 0;
#X connect 46 0 14 0;
#X connect 47 0 13 0;
#X connect 48 0 14 0;
#X connect 49 0 45 0;
#X connect 49 0 46 0;
#X connect 49 1 48 0;
#X connect 49 1 47 0;
#X connect 50 0 44 0;
#X connect 50 0 49 0;
#X coords 0 0 1 1 85 60 0;
#X restore 294 209 pd shape2;
#X obj 54 307 pan~;
#X obj 52 275 *~;
#X obj 250 119 f;
#X obj 176 333 throw~ sview;
#X obj 247 98 r b8;
#X obj 227 286 pan~;
#X obj 63 199 grand 0.4 0.6;
#X obj 321 140 grand 0.25 0.75;
#X obj 370 186 r c;
#X obj 378 280 s \$0-vol;
#X obj 118 10 r c;
#X floatatom 134 99 5 0 0 0 - - -, f 5;
#X floatatom 78 56 5 0 0 0 - - -, f 5;
#X floatatom 420 212 5 0 0 0 - - -, f 5;
#X obj 333 229 r b8;
#X msg 328 250 1;
#X obj 307 274 spigot;
#X obj 381 117 s dcay;
#X floatatom 381 75 5 0 0 0 - - -, f 5;
#X floatatom 326 30 5 0 0 0 - - -, f 5;
#X msg 365 254 8.5;
#X msg 400 254 15;
#X obj 381 94 pad;
#X msg 432 100 15000;
#X obj 439 57 r b0;
#X obj 439 77 del 20;
#X msg 364 53 1.5;
#X msg 400 53 1;
#X msg 355 332 \; atak 10 \; dcay 1.25 \; \$1-vol 15;
#X obj 364 7 % 400;
#X obj 364 31 sel 0 300;
#X obj 370 209 % 631;
#X obj 370 230 sel 0 315;
#X obj 132 280 pad~ 10000;
#X obj 244 142 pad~ 15000;
#X msg 155 257 0.34;
#X obj 228 213 r b0;
#X obj 119 54 sel 0 256;
#X msg 107 77 0.19;
#X obj 118 31 % 1068;
#X msg 148 77 0.34;
#X obj 50 144 fmbloc~;
#X connect 0 0 7 0;
#X connect 1 0 10 2;
#X connect 1 0 28 2;
#X connect 2 0 10 1;
#X connect 3 0 10 0;
#X connect 3 0 30 0;
#X connect 4 0 8 0;
#X connect 7 0 28 0;
#X connect 7 0 26 0;
#X connect 8 0 25 1;
#X connect 9 0 51 0;
#X connect 10 0 0 1;
#X connect 11 0 0 0;
#X connect 12 0 11 0;
#X connect 12 1 11 1;
#X connect 12 2 11 2;
#X connect 13 0 14 0;
#X connect 13 1 14 1;
#X connect 13 2 14 2;
#X connect 14 0 64 0;
#X connect 15 0 64 1;
#X connect 15 1 64 2;
#X connect 16 0 19 1;
#X connect 17 0 16 2;
#X connect 17 0 23 2;
#X connect 18 0 16 1;
#X connect 19 0 24 0;
#X connect 20 0 9 0;
#X connect 21 0 16 0;
#X connect 21 0 29 0;
#X connect 23 0 5 0;
#X connect 23 1 5 1;
#X connect 24 0 23 0;
#X connect 24 0 26 0;
#X connect 25 0 57 0;
#X connect 27 0 25 0;
#X connect 28 0 5 0;
#X connect 28 1 5 1;
#X connect 29 0 23 1;
#X connect 30 0 28 1;
#X connect 31 0 54 0;
#X connect 33 0 52 0;
#X connect 33 0 62 0;
#X connect 34 0 56 0;
#X connect 37 0 38 0;
#X connect 38 0 39 1;
#X connect 39 0 25 0;
#X connect 41 0 45 0;
#X connect 43 0 32 0;
#X connect 44 0 32 0;
#X connect 47 0 48 0;
#X connect 48 0 46 0;
#X connect 49 0 41 0;
#X connect 50 0 41 0;
#X connect 52 0 42 0;
#X connect 52 0 53 0;
#X connect 53 0 49 0;
#X connect 53 1 50 0;
#X connect 54 0 36 0;
#X connect 54 0 55 0;
#X connect 55 0 39 0;
#X connect 55 0 43 0;
#X connect 55 1 44 0;
#X connect 55 1 25 0;
#X connect 56 0 24 1;
#X connect 57 0 7 1;
#X connect 58 0 56 0;
#X connect 59 0 58 0;
#X connect 59 0 9 0;
#X connect 60 0 61 0;
#X connect 60 1 63 0;
#X connect 61 0 34 0;
#X connect 62 0 35 0;
#X connect 62 0 60 0;
#X connect 63 0 34 0;
#X connect 64 0 19 0;
#X coords 0 403 1 402 85 60 0;
#X restore 31 116 pd fm;
#X obj 59 215 r pt;
#X floatatom 358 244 5 0 0 0 - - -, f 5;
#X obj 358 263 s atak;
#X obj 359 206 s met;
#X floatatom 359 185 5 0 0 0 - - -, f 5;
#X floatatom 358 286 5 0 0 0 - - -, f 5;
#X obj 358 325 s dcay;
#X floatatom 359 347 5 0 0 0 - - -, f 5;
#X obj 359 366 s ramp;
#N canvas 889 516 465 341 hum 0;
#X obj 95 186 s lbt;
#X obj 219 136 s latak;
#X obj 239 35 r met;
#X obj 277 136 s lramp;
#X floatatom 212 159 5 0 0 0 - - -, f 5;
#N canvas 843 597 409 260 lofm 0;
#X obj 143 101 *~;
#X floatatom 239 46 5 0 0 0 - ldcay -, f 5;
#X obj 165 27 bng 15 250 50 0 empty empty empty 17 7 0 10 -262144 -1
-1;
#X floatatom 198 46 5 0 0 0 - latak -, f 5;
#X obj 143 135 *~;
#X floatatom 215 92 5 0 0 0 - lmvol -, f 5;
#X obj 188 26 r lbt;
#X obj 127 182 adac~;
#X obj 170 158 throw~ sview;
#X obj 310 180 loadbang;
#X obj 177 114 * 0.01;
#N canvas 646 103 450 177 vals 0;
#X floatatom 56 97 5 0 0 0 - lramp -, f 5;
#X obj 19 97 pad~;
#X obj 19 50 r lt;
#X floatatom 104 55 5 0 0 0 - - -, f 5;
#X floatatom 262 56 5 0 0 0 - - -, f 5;
#X floatatom 204 97 5 0 0 0 - xlramp -, f 5;
#X obj 167 97 pad~;
#X obj 167 21 r lbt;
#X floatatom 221 56 5 0 0 0 - - -, f 5;
#X obj 167 75 grand 100 800;
#X floatatom 342 99 5 0 0 0 - ramp -, f 5;
#X obj 305 99 pad~;
#X obj 305 55 r lt;
#X obj 19 145 outlet~;
#X obj 167 142 outlet~;
#X obj 305 145 outlet~;
#X obj 251 100 ii;
#X obj 19 75 muse 31 2 3 -1 -4 -5;
#X obj 305 77 muse 50 2 3 4 5 4;
#X connect 0 0 1 1;
#X connect 1 0 13 0;
#X connect 2 0 3 0;
#X connect 2 0 17 0;
#X connect 4 0 9 3;
#X connect 5 0 6 1;
#X connect 6 0 14 0;
#X connect 7 0 9 0;
#X connect 8 0 9 2;
#X connect 9 0 6 0;
#X connect 10 0 11 1;
#X connect 11 0 15 0;
#X connect 12 0 18 0;
#X connect 16 0 9 0;
#X connect 17 0 1 0;
#X connect 18 0 11 0;
#X restore 112 43 pd vals;
#X obj 116 69 freqm~;
#N canvas 932 525 311 248 vals 0;
#X obj 38 180 outlet~;
#X obj 38 150 pad~;
#X obj 113 17 t;
#X obj 124 114 b;
#X floatatom 67 12 5 0 0 0 - - -, f 5;
#X msg 66 31 k \$1;
#X msg 74 -30 7;
#X obj 72 150 grand;
#X floatatom 84 114 5 0 0 0 - - -, f 5;
#X floatatom 45 114 5 0 0 0 - - -, f 5;
#X obj 113 -5 r lbt;
#X obj 161 -19 r ldcay;
#X floatatom 148 59 5 0 0 0 - - -, f 5;
#X obj 158 115 / 4;
#X obj 38 62 grand 0 30;
#X obj 38 87 muse 19 2 3 7 8;
#X connect 1 0 0 0;
#X connect 2 0 14 0;
#X connect 2 1 3 0;
#X connect 3 0 7 0;
#X connect 4 0 5 0;
#X connect 5 0 15 0;
#X connect 6 0 4 0;
#X connect 7 0 1 1;
#X connect 10 0 2 0;
#X connect 11 0 13 0;
#X connect 12 0 14 3;
#X connect 13 0 7 2;
#X connect 14 0 15 0;
#X connect 15 0 1 0;
#X connect 15 0 9 0;
#X connect 15 1 8 0;
#X coords 0 248 1 247 85 60 0;
#X restore 60 69 pd vals;
#X obj 188 65 ad~;
#X obj 300 40 r c;
#X floatatom 352 75 5 0 0 0 - - -, f 5;
#X obj 300 135 s lmvol;
#X obj 300 62 % 589;
#X obj 300 91 sel 0 389;
#X obj 178 135 pad~;
#X obj 258 70 r b8;
#X msg 228 136 10000;
#X msg 331 113 12;
#X msg 300 113 9;
#X msg 310 201 \; lmvol 12;
#X obj 83 123 *~ 0.5;
#X obj 83 101 fmbloc~;
#X connect 0 0 4 0;
#X connect 1 0 14 2;
#X connect 2 0 14 0;
#X connect 3 0 14 1;
#X connect 4 0 7 1;
#X connect 4 0 7 0;
#X connect 4 0 8 0;
#X connect 5 0 10 0;
#X connect 6 0 14 0;
#X connect 9 0 25 0;
#X connect 10 0 20 0;
#X connect 11 0 12 0;
#X connect 11 1 12 1;
#X connect 11 2 12 2;
#X connect 12 0 0 0;
#X connect 12 0 27 0;
#X connect 13 0 27 1;
#X connect 14 0 0 1;
#X connect 15 0 18 0;
#X connect 18 0 16 0;
#X connect 18 0 19 0;
#X connect 19 0 24 0;
#X connect 19 1 23 0;
#X connect 20 0 4 1;
#X connect 21 0 22 0;
#X connect 22 0 20 1;
#X connect 23 0 17 0;
#X connect 24 0 17 0;
#X connect 26 0 0 0;
#X connect 27 0 26 0;
#X restore 57 151 pd lofm;
#N canvas 843 280 405 257 hifm 0;
#X obj 134 97 *~;
#X floatatom 218 25 5 0 0 0 - ldcay -, f 5;
#X floatatom 177 25 5 0 0 0 - latak -, f 5;
#X obj 134 131 *~;
#X floatatom 200 44 5 0 0 0 - hmvol -, f 5;
#X obj 194 133 r lbt;
#X obj 129 204 adac~;
#X obj 43 177 throw~ sview;
#X obj 189 62 * 0.01;
#N canvas 610 340 450 177 vals 0;
#X floatatom 70 83 5 0 0 0 - lramp -, f 5;
#X obj 33 83 pad~;
#X obj 33 62 muse 59 10 10 12;
#X obj 33 41 r ht;
#X floatatom 203 19 5 0 0 0 - - -, f 5;
#X floatatom 247 44 5 0 0 0 - - -, f 5;
#X floatatom 199 85 5 0 0 0 - xlramp -, f 5;
#X obj 152 85 pad~;
#X obj 152 41 r lbt;
#X floatatom 206 44 5 0 0 0 - - -, f 5;
#X floatatom 199 102 5 0 0 0 - - -, f 5;
#X obj 152 63 grand 100 800;
#X floatatom 347 86 5 0 0 0 - ramp -, f 5;
#X obj 310 86 pad~;
#X floatatom 346 45 5 0 0 0 - - -, f 5;
#X obj 310 64 muse 29 2 -3 -2;
#X obj 310 42 r ht;
#X obj 33 140 outlet~;
#X obj 152 140 outlet~;
#X obj 310 139 outlet~;
#X obj 258 92 ii;
#X connect 0 0 1 1;
#X connect 1 0 17 0;
#X connect 2 0 1 0;
#X connect 3 0 2 0;
#X connect 5 0 11 3;
#X connect 6 0 7 1;
#X connect 7 0 18 0;
#X connect 8 0 11 0;
#X connect 9 0 11 2;
#X connect 10 0 7 0;
#X connect 11 0 4 0;
#X connect 11 0 7 0;
#X connect 12 0 13 1;
#X connect 13 0 19 0;
#X connect 14 0 15 1;
#X connect 15 0 13 0;
#X connect 16 0 15 0;
#X connect 20 0 11 0;
#X restore 109 21 pd vals;
#X obj 112 43 freqm~;
#N canvas 622 580 311 248 vals 0;
#X obj 38 180 outlet~;
#X obj 38 150 pad~;
#X obj 113 17 t;
#X obj 124 114 b;
#X floatatom 67 12 5 0 0 0 - - -, f 5;
#X msg 66 31 k \$1;
#X floatatom 102 48 5 0 0 0 - - -, f 5;
#X msg 74 -30 7;
#X obj 72 150 grand;
#X floatatom 84 114 5 0 0 0 - - -, f 5;
#X floatatom 45 114 5 0 0 0 - - -, f 5;
#X obj 113 -5 r lbt;
#X obj 161 -19 r ldcay;
#X obj 38 87 muse 19 2 3 7 8;
#X obj 38 65 grand 0 30;
#X obj 154 116 / 4;
#X connect 1 0 0 0;
#X connect 2 0 14 0;
#X connect 2 1 3 0;
#X connect 3 0 8 0;
#X connect 4 0 5 0;
#X connect 5 0 13 0;
#X connect 6 0 14 1;
#X connect 7 0 4 0;
#X connect 8 0 1 1;
#X connect 11 0 2 0;
#X connect 12 0 15 0;
#X connect 13 0 1 0;
#X connect 13 0 10 0;
#X connect 13 1 9 0;
#X connect 14 0 13 0;
#X connect 15 0 8 2;
#X coords 0 248 1 247 85 60 0;
#X restore 56 43 pd vals;
#X obj 146 154 grand 0.4 0.6;
#X obj 282 181 loadbang;
#X obj 183 183 ii 0.5;
#X obj 167 44 ad~;
#X obj 134 177 pan~;
#X msg 282 204 \; hmvol 19;
#X obj 286 15 r c;
#X obj 299 127 s hmvol;
#X floatatom 299 107 5 0 0 0 - - -, f 5;
#X floatatom 338 39 5 0 0 0 - - -, f 5;
#X obj 189 84 spigot;
#X obj 239 62 r b8;
#X msg 239 84 1;
#X msg 317 81 12;
#X obj 286 37 % 719;
#X obj 286 59 sel 0 450;
#X obj 160 106 pad~;
#X msg 224 112 10000;
#X obj 72 102 *~ 0.6;
#X obj 72 80 fmbloc~;
#X msg 287 81 17;
#X connect 0 0 3 0;
#X connect 1 0 15 2;
#X connect 1 0 16 2;
#X connect 2 0 15 1;
#X connect 3 0 7 0;
#X connect 3 0 16 0;
#X connect 4 0 8 0;
#X connect 5 0 12 0;
#X connect 5 0 15 0;
#X connect 8 0 22 0;
#X connect 9 0 10 0;
#X connect 9 1 10 1;
#X connect 9 2 10 2;
#X connect 10 0 0 0;
#X connect 10 0 31 0;
#X connect 11 0 31 1;
#X connect 12 0 16 1;
#X connect 13 0 17 0;
#X connect 14 0 16 1;
#X connect 15 0 0 1;
#X connect 16 0 6 0;
#X connect 16 1 6 1;
#X connect 18 0 26 0;
#X connect 20 0 19 0;
#X connect 22 0 28 0;
#X connect 23 0 24 0;
#X connect 23 0 8 0;
#X connect 23 0 29 0;
#X connect 24 0 22 1;
#X connect 25 0 20 0;
#X connect 26 0 21 0;
#X connect 26 0 27 0;
#X connect 27 0 32 0;
#X connect 27 1 25 0;
#X connect 28 0 3 1;
#X connect 29 0 28 1;
#X connect 30 0 0 0;
#X connect 31 0 30 0;
#X connect 32 0 20 0;
#X restore 57 129 pd hifm;
#X floatatom 80 215 5 0 0 0 - - -, f 5;
#X obj 133 232 s lt;
#X floatatom 243 232 5 0 0 0 - - -, f 5;
#X floatatom 168 232 5 0 0 0 - - -, f 5;
#X obj 239 81 f;
#X floatatom 351 43 5 0 0 0 - - -, f 5;
#X obj 208 232 s ht;
#X obj 208 210 randv 4 1;
#X obj 122 97 spigot;
#X msg 156 76 1;
#X obj 277 114 * 1.3;
#N canvas 836 517 452 352 shape 0;
#X obj 215 216 -;
#X obj 246 238 s ldcay;
#X obj 206 296 s xlramp;
#X obj 246 216 r latak;
#X obj 202 102 r met;
#X obj 215 197 f;
#X obj 246 197 b;
#X floatatom 285 122 5 0 0 0 - - -, f 5;
#X msg 297 81 128;
#X obj 199 134 f;
#X obj 252 97 b;
#X obj 206 167 * 106;
#X connect 0 0 1 0;
#X connect 3 0 0 1;
#X connect 3 0 6 0;
#X connect 4 0 9 1;
#X connect 4 0 10 0;
#X connect 5 0 0 0;
#X connect 6 0 5 0;
#X connect 7 0 10 0;
#X connect 7 0 11 1;
#X connect 8 0 7 0;
#X connect 9 0 11 0;
#X connect 10 0 9 0;
#X connect 11 0 2 0;
#X connect 11 0 5 0;
#X restore 212 182 pd shape;
#X obj 219 114 * 0.1;
#X obj 239 57 t b f;
#X floatatom 309 46 5 0 0 0 - - -, f 5;
#X floatatom 176 120 5 0 0 0 - - -, f 5;
#X obj 122 163 t;
#X obj 122 67 r c;
#X obj 122 119 % 64;
#X obj 122 141 sel;
#X obj 161 50 r b8;
#X obj 135 210 randv 6 1;
#X connect 2 0 20 0;
#X connect 7 0 8 0;
#X connect 11 0 17 0;
#X connect 11 0 19 0;
#X connect 12 0 17 1;
#X connect 14 0 9 0;
#X connect 14 0 13 0;
#X connect 15 0 25 0;
#X connect 16 0 15 1;
#X connect 19 0 1 0;
#X connect 19 0 3 0;
#X connect 19 0 22 0;
#X connect 20 0 11 0;
#X connect 20 1 11 1;
#X connect 21 0 19 1;
#X connect 23 0 0 0;
#X connect 23 1 14 0;
#X connect 23 1 28 0;
#X connect 24 0 15 0;
#X connect 25 0 26 0;
#X connect 26 0 23 0;
#X connect 27 0 16 0;
#X connect 28 0 8 0;
#X connect 28 0 10 0;
#X restore 31 138 pd hum;
#N canvas 73 620 450 300 record 0;
#X obj 227 69 bng 15 250 50 0 empty empty empty 17 7 0 10 -262144 -1
-1;
#X msg 227 89 open imafreq.wav;
#X obj 177 232 writesf~ 2;
#X msg 249 121 start;
#X msg 322 137 stop;
#X obj 128 188 inlet~;
#X obj 297 187 inlet~;
#X connect 0 0 1 0;
#X connect 1 0 2 0;
#X connect 3 0 2 0;
#X connect 4 0 2 0;
#X connect 5 0 2 0;
#X connect 6 0 2 1;
#X restore 194 387 pd record;
#X obj 63 50 r _met;
#N canvas 0 82 450 300 privates 0;
#X obj 298 116 r met;
#X obj 298 138 s _met;
#X obj 117 116 r atak;
#X obj 117 138 s _atak;
#X obj 175 116 r dcay;
#X obj 175 138 s _dcay;
#X obj 233 116 r xramp;
#X obj 233 138 s _xramp;
#X connect 0 0 1 0;
#X connect 2 0 3 0;
#X connect 4 0 5 0;
#X connect 6 0 7 0;
#X restore 199 171 pd privates;
#X obj 358 304 * 0.01;
#X obj 262 354 * 0.01;
#X msg 101 334 \; view 18.87;
#X obj 59 259 t;
#X obj 103 148 r play;
#X obj 201 333 r vol;
#N canvas 1048 600 450 300 mix 0;
#X obj 184 158 dac~;
#X obj 137 47 catch~ L;
#X obj 240 47 catch~ R;
#X obj 148 115 *~;
#X obj 240 115 *~;
#X obj 198 70 inlet;
#X obj 102 151 outlet~;
#X obj 278 147 outlet~;
#X obj 156 136 *~ 0.97;
#X obj 214 136 *~ 0.97;
#X connect 1 0 3 0;
#X connect 1 0 6 0;
#X connect 2 0 4 0;
#X connect 2 0 7 0;
#X connect 3 0 8 0;
#X connect 4 0 9 0;
#X connect 5 0 4 1;
#X connect 5 0 3 1;
#X connect 8 0 0 0;
#X connect 9 0 0 1;
#X restore 201 365 pd mix;
#N canvas 424 244 450 300 info 0;
#X text 174 77 artist : miwi;
#X text 181 91 title : freq;
#X text 174 105 length off 480000;
#X restore 273 204 pd info;
#X obj 139 17 bng 15 250 50 0 empty empty empty 17 7 0 10 -262144 -1
-1;
#X obj 139 37 s play;
#N canvas 727 534 450 300 timing 0;
#X obj 133 34 r bt;
#X obj 133 56 cup;
#X obj 133 78 sel 0 256 512 1024 2048;
#X obj 133 120 s b0;
#X obj 164 100 s b4;
#X obj 196 121 s b8;
#X obj 227 100 s b16;
#X obj 259 121 s b32;
#X obj 104 78 s c;
#X connect 0 0 1 0;
#X connect 1 0 2 0;
#X connect 1 0 8 0;
#X connect 2 0 3 0;
#X connect 2 1 4 0;
#X connect 2 2 5 0;
#X connect 2 3 6 0;
#X connect 2 4 7 0;
#X restore 63 4 pd timing;
#X msg 313 359 peek;
#X obj 304 380 s peek;
#X obj 308 335 r play;
#X msg 102 87 \; met 50 \; ramp 10 \; view 37.73 \;;
#N canvas 693 582 450 300 mix 1;
#X obj 143 86 s dcay;
#X obj 38 86 s met;
#X obj 143 64 graid 63 2 0.1;
#X obj 38 64 graid 63 1 150;
#X obj 143 42 r eq0;
#X obj 38 42 r pre;
#X obj 39 121 r eq;
#X obj 39 165 s play;
#X floatatom 185 44 5 0 0 0 - - -, f 5;
#X connect 2 0 0 0;
#X connect 3 0 1 0;
#X connect 4 0 2 0;
#X connect 5 0 3 0;
#X connect 6 0 7 0;
#X connect 8 0 2 0;
#X restore 286 177 pd mix;
#X connect 0 0 48 0;
#X connect 2 0 26 0;
#X connect 3 0 30 0;
#X connect 3 0 4 0;
#X connect 3 0 31 1;
#X connect 4 0 13 0;
#X connect 4 0 14 0;
#X connect 4 0 20 0;
#X connect 4 0 23 0;
#X connect 4 1 10 0;
#X connect 4 1 12 0;
#X connect 4 1 19 0;
#X connect 6 0 11 0;
#X connect 7 0 2 0;
#X connect 8 0 11 1;
#X connect 9 0 61 0;
#X connect 10 0 17 0;
#X connect 11 0 5 0;
#X connect 12 0 18 0;
#X connect 13 0 17 0;
#X connect 14 0 18 0;
#X connect 15 0 13 1;
#X connect 16 0 14 1;
#X connect 19 0 22 0;
#X connect 20 0 22 0;
#X connect 21 0 20 1;
#X connect 23 0 25 0;
#X connect 24 0 25 0;
#X connect 26 0 27 0;
#X connect 29 0 50 0;
#X connect 30 0 29 1;
#X connect 31 0 4 0;
#X connect 32 0 5 0;
#X connect 34 0 29 0;
#X connect 35 0 36 0;
#X connect 38 0 37 0;
#X connect 39 0 47 0;
#X connect 41 0 42 0;
#X connect 45 0 26 1;
#X connect 47 0 40 0;
#X connect 48 0 53 0;
#X connect 50 0 24 0;
#X connect 50 1 31 0;
#X connect 51 0 3 0;
#X connect 52 0 53 0;
#X connect 53 0 44 0;
#X connect 53 1 44 1;
#X connect 55 0 56 0;
#X connect 58 0 59 0;
#X coords 0 413 1 412 85 60 0;
