#N canvas 834 448 307 319 10;
#X obj 112 144 freqm~;
#X obj 77 80 metro;
#X obj 42 55 tgl 15 0 empty empty empty 17 7 0 10 -262144 -1 -1 1 1
;
#X floatatom 115 60 5 0 0 0 - - -;
#X obj 133 252 *~;
#X floatatom 231 233 5 0 0 0 - - -;
#X obj 125 277 dac~;
#X obj 121 80 s met;
#X obj 95 101 s bt;
#X obj 133 208 *~;
#X obj 7 80 sel;
#X obj 167 34 tgl 15 0 empty empty empty 17 7 0 10 -262144 -1 -1 1
1;
#X obj 167 55 metro 10000;
#X obj 178 248 r vol;
#X obj 186 33 r play;
#X obj 191 99 * 1000;
#X floatatom 209 121 5 0 0 0 - - -;
#X obj 7 275 *~;
#X obj 7 204 ad~ 5 10000;
#X obj 237 9 r shft;
#X obj 182 121 del;
#X obj 113 188 pad~ 200;
#X obj 25 248 pad~ 200;
#X obj 25 171 s shft;
#X obj 25 106 b;
#X floatatom 75 167 5 0 0 0 - - -;
#X obj 96 7 loadbang;
#X obj 115 38 650;
#X obj 224 263 * 0.01;
#X text 17 5 myQuil;
#X obj 25 148 * 5000;
#X obj 200 9 b;
#X obj 171 267 pad~;
#X obj 133 230 *~ 0.6;
#N canvas 721 135 450 300 info 0;
#X text 167 127 album : amPd;
#X text 160 113 artist : myQuil;
#X text 160 141 length : 0;
#X text 167 99 title : freq shift 2;
#X restore 228 191 pd info;
#X obj 232 145 bng 15 250 50 0 empty empty empty 17 7 0 10 -262144
-1 -1;
#X obj 232 165 s play;
#N canvas 881 105 378 261 vals 1;
#X obj 239 232 outlet~;
#X obj 5 232 outlet~;
#X obj 115 232 outlet~;
#X floatatom 246 152 5 0 0 0 - - -;
#X floatatom 126 154 5 0 0 0 - - -;
#X floatatom 6 150 5 0 0 0 - - -;
#X floatatom 63 109 5 0 0 0 - - -;
#X floatatom 182 108 5 0 0 0 - - -;
#X floatatom 301 111 5 0 0 0 - - -;
#X floatatom 47 170 5 0 0 0 - - -;
#X msg 47 189 k \$1;
#X floatatom 280 178 5 0 0 0 - - -;
#X msg 280 197 k \$1;
#X floatatom 164 182 5 0 0 0 - - -;
#X msg 164 201 k \$1;
#X obj 2 107 rand 46;
#X obj 0 130 muse 0 4 7 9 10;
#X obj 239 108 rand 30;
#X floatatom 57 151 5 0 0 0 - - -;
#X floatatom 165 152 5 0 0 0 - - -;
#X floatatom 296 156 5 0 0 0 - - -;
#X obj 2 82 metro;
#X obj 2 60 r tog;
#X obj 151 9 r met;
#X obj 119 84 metro;
#X obj 119 62 r tog;
#X floatatom 53 81 5 0 0 0 - - -;
#X floatatom 162 84 5 0 0 0 - - -;
#X obj 239 85 metro;
#X obj 239 63 r tog;
#X floatatom 286 85 5 0 0 0 - - -;
#X obj 195 9 / 2;
#X obj 239 182 pad~;
#X obj 115 184 pad~;
#X obj 5 186 pad~;
#X obj 119 107 rand 30;
#X obj 119 130 muse 96 4 7 9 10;
#X obj 239 130 muse -36 4 7 9 10;
#X obj 45 60 rind;
#X obj 162 62 rind;
#X obj 286 63 rind;
#X connect 6 0 15 1;
#X connect 7 0 35 1;
#X connect 8 0 17 1;
#X connect 9 0 10 0;
#X connect 10 0 16 0;
#X connect 11 0 12 0;
#X connect 12 0 37 0;
#X connect 13 0 14 0;
#X connect 14 0 36 0;
#X connect 15 0 16 0;
#X connect 15 0 18 0;
#X connect 16 0 5 0;
#X connect 16 0 34 0;
#X connect 17 0 37 0;
#X connect 21 0 15 0;
#X connect 21 0 38 0;
#X connect 22 0 21 0;
#X connect 23 0 31 0;
#X connect 23 0 38 1;
#X connect 23 0 39 1;
#X connect 23 0 40 1;
#X connect 24 0 35 0;
#X connect 24 0 39 0;
#X connect 25 0 24 0;
#X connect 28 0 17 0;
#X connect 28 0 40 0;
#X connect 29 0 28 0;
#X connect 31 0 38 2;
#X connect 31 0 39 2;
#X connect 31 0 40 2;
#X connect 32 0 0 0;
#X connect 33 0 2 0;
#X connect 34 0 1 0;
#X connect 35 0 36 0;
#X connect 36 0 4 0;
#X connect 36 0 33 0;
#X connect 36 1 19 0;
#X connect 37 0 3 0;
#X connect 37 0 32 0;
#X connect 37 1 20 0;
#X connect 38 0 21 1;
#X connect 38 0 26 0;
#X connect 38 0 34 1;
#X connect 39 0 24 1;
#X connect 39 0 27 0;
#X connect 39 0 33 1;
#X connect 40 0 28 1;
#X connect 40 0 30 0;
#X connect 40 0 32 1;
#X coords 0 261 1 260 85 60 0;
#X restore 112 122 pd vals;
#N canvas 1267 98 329 269 vals 1;
#X obj 38 201 outlet~;
#X floatatom 47 129 5 0 0 0 - - -;
#X floatatom 207 133 5 0 0 0 - - -;
#X floatatom 214 158 5 0 0 0 - - -;
#X msg 214 180 k \$1;
#X floatatom 81 154 5 0 0 0 - - -;
#X msg 80 173 k \$1;
#X floatatom 100 86 5 0 0 0 - - -;
#X floatatom 227 88 5 0 0 0 - - -;
#X floatatom 261 66 5 0 0 0 - - -;
#X floatatom 85 129 5 0 0 0 - - -;
#X obj 34 58 metro;
#X obj 34 36 r tog;
#X obj 113 -3 r met;
#X floatatom 85 57 5 0 0 0 - - -;
#X obj 157 -3 / 2;
#X obj 166 55 metro;
#X obj 166 33 r tog;
#X floatatom 217 54 5 0 0 0 - - -;
#X obj 161 205 outlet~;
#X obj 161 170 pad~;
#X obj 38 171 pad~;
#X obj 38 108 muse 48 4 7 9 10;
#X obj 165 108 muse -36 4 7 9 10;
#X obj 167 86 rand 30;
#X obj 38 86 rand 25;
#X obj 77 36 rind;
#X obj 209 33 rind;
#X connect 3 0 4 0;
#X connect 4 0 23 0;
#X connect 5 0 6 0;
#X connect 6 0 22 0;
#X connect 7 0 25 1;
#X connect 8 0 24 1;
#X connect 11 0 25 0;
#X connect 11 0 26 0;
#X connect 12 0 11 0;
#X connect 13 0 15 0;
#X connect 13 0 26 1;
#X connect 13 0 27 1;
#X connect 15 0 26 2;
#X connect 15 0 27 2;
#X connect 16 0 24 0;
#X connect 16 0 27 0;
#X connect 17 0 16 0;
#X connect 20 0 19 0;
#X connect 21 0 0 0;
#X connect 22 0 1 0;
#X connect 22 0 21 0;
#X connect 22 1 10 0;
#X connect 23 0 2 0;
#X connect 23 0 20 0;
#X connect 24 0 9 0;
#X connect 24 0 23 0;
#X connect 25 0 22 0;
#X connect 26 0 11 1;
#X connect 26 0 14 0;
#X connect 26 0 21 1;
#X connect 27 0 16 1;
#X connect 27 0 18 0;
#X connect 27 0 20 1;
#X coords 0 269 1 268 85 60 0;
#X restore 167 143 pd vals;
#X obj 35 80 s tog;
#X obj 134 166 fmbloc~;
#X obj 25 126 rind 2 5;
#X obj 191 77 rind 3 7;
#X obj 25 226 == 0;
#X connect 0 0 40 0;
#X connect 1 0 8 0;
#X connect 2 0 1 0;
#X connect 2 0 10 0;
#X connect 2 0 21 0;
#X connect 2 0 39 0;
#X connect 2 0 43 0;
#X connect 3 0 1 1;
#X connect 3 0 7 0;
#X connect 4 0 6 0;
#X connect 4 0 6 1;
#X connect 5 0 28 0;
#X connect 9 0 33 0;
#X connect 10 0 18 0;
#X connect 10 1 24 0;
#X connect 11 0 12 0;
#X connect 12 0 2 0;
#X connect 13 0 32 0;
#X connect 14 0 11 0;
#X connect 15 0 16 0;
#X connect 15 0 20 1;
#X connect 15 0 20 0;
#X connect 17 0 9 1;
#X connect 18 0 17 0;
#X connect 19 0 12 1;
#X connect 19 0 31 0;
#X connect 20 0 2 0;
#X connect 21 0 9 1;
#X connect 22 0 17 1;
#X connect 24 0 41 0;
#X connect 26 0 27 0;
#X connect 27 0 3 0;
#X connect 28 0 32 0;
#X connect 30 0 23 0;
#X connect 30 0 25 0;
#X connect 30 0 18 2;
#X connect 31 0 42 0;
#X connect 32 0 4 1;
#X connect 33 0 4 0;
#X connect 35 0 36 0;
#X connect 37 0 0 0;
#X connect 37 1 0 1;
#X connect 37 2 0 2;
#X connect 38 0 40 1;
#X connect 38 1 40 2;
#X connect 40 0 9 0;
#X connect 41 0 30 0;
#X connect 42 0 15 0;
#X connect 43 0 22 0;
#X coords 0 319 1 318 85 60 0;
