#N canvas 553 421 429 411 10;
#X floatatom 262 336 5 0 0 0 - - -, f 5;
#N canvas 0 50 450 250 (subpatch) 0;
#X array view 500 float 1;
#A 0 -0.0828253 -0.0778304 -0.0721467 -0.0658763 -0.0591069 -0.051926
-0.0444332 -0.0367471 -0.0290129 -0.0214037 -0.0141274 -0.00740747
-0.00147078 0.00346957 0.00725044 0.00976904 0.0110088 0.011048 0.0100548
0.00828007 0.00603043 0.00363106 0.00139552 -0.000413247 -0.00160911
-0.00210507 -0.0019221 -0.00117665 -7.16066e-005 0.00113783 0.00216512
0.00273417 0.00259956 0.00157622 -0.000445749 -0.00349987 -0.00754303
-0.0124601 -0.0180891 -0.0242315 -0.0306772 -0.0372283 -0.0437069 -0.0499785
-0.0559471 -0.0615696 -0.0668447 -0.0718038 -0.0765065 -0.0810156 -0.0853865
-0.0896614 -0.093845 -0.0979129 -0.1018 -0.105416 -0.108657 -0.111405
-0.11356 -0.115046 -0.115818 -0.115871 -0.115241 -0.113996 -0.112234
-0.110067 -0.107615 -0.104993 -0.102302 -0.0996261 -0.0970309 -0.0945542
-0.0922141 -0.0900066 -0.087906 -0.0858782 -0.0838692 -0.0818148 -0.0796441
-0.0772767 -0.0746364 -0.071642 -0.0682245 -0.0643221 -0.0598922 -0.0549191
-0.0494161 -0.0434273 -0.0370372 -0.0303596 -0.0235425 -0.0167476 -0.0101472
-0.00391068 0.00181621 0.00691798 0.0113132 0.0149739 0.0179088 0.0201714
0.0218375 0.0230074 0.0237834 0.0242609 0.0245205 0.0246215 0.024595
0.0244449 0.0241569 0.0236969 0.0230201 0.0220723 0.0208072 0.0191775
0.0171485 0.0146875 0.0117739 0.00839566 0.00454436 0.000215785 -0.00458638
-0.00986119 -0.015596 -0.0217757 -0.0283707 -0.0353427 -0.0426238 -0.0501309
-0.0577565 -0.0653632 -0.0727955 -0.0798792 -0.0864285 -0.0922547 -0.0971827
-0.101055 -0.103745 -0.105163 -0.105268 -0.104064 -0.101607 -0.0980001
-0.093381 -0.0879259 -0.0818317 -0.0753099 -0.0685691 -0.0618099 -0.0552172
-0.0489406 -0.0430987 -0.037771 -0.0329993 -0.0287752 -0.0250658 -0.0218109
-0.0189319 -0.016355 -0.0140156 -0.0118791 -0.00995035 -0.00828103
-0.00696851 -0.00615656 -0.00601353 -0.0067257 -0.00846063 -0.0113501
-0.0154662 -0.0207986 -0.027249 -0.0346257 -0.0426554 -0.051 -0.0592887
-0.0671422 -0.0742072 -0.0801827 -0.084844 -0.0880497 -0.0897475 -0.0899701
-0.0888117 -0.0864246 -0.082984 -0.0786796 -0.0736957 -0.0681988 -0.0623296
-0.0562095 -0.0499303 -0.0435679 0.0379163 0.0276634 0.0143752 0.0047443
-0.00327117 -0.0150184 -0.0243388 -0.0301609 -0.0395639 -0.0460524
-0.0505057 -0.0579024 -0.0602075 -0.0664214 -0.0678799 -0.0732203 -0.073982
-0.0781188 -0.0807358 -0.0811628 -0.0847844 -0.0885476 -0.0902163 -0.090621
-0.0910905 -0.0922441 -0.0937899 -0.0950632 -0.0953761 -0.0945192 -0.0938735
-0.0959971 -0.0996224 -0.0991061 -0.0961039 -0.0973486 -0.0940703 -0.0906443
-0.0880383 -0.0819156 -0.078198 -0.0717462 -0.0659581 -0.0616373 -0.0539472
-0.05165 -0.0467535 -0.042372 -0.0425763 -0.0396262 -0.0375328 -0.0388452
-0.0359685 -0.0326933 -0.0309932 -0.0233552 -0.015498 -0.00628288 0.00857159
0.0211794 0.0392705 0.0545356 0.0730195 0.087116 0.103278 0.113181
0.122494 0.129389 0.129906 0.12843 0.126387 0.12243 0.115628 0.106666
0.0968023 0.0870503 0.0781522 0.0707202 0.0651334 0.0605083 0.0544137
0.0478273 0.0442675 0.0406603 0.0349434 0.0323274 0.0265115 0.0231931
0.0169487 0.0132381 0.00624813 0.0014996 -0.00456992 -0.0118207 -0.0168434
-0.0236005 -0.0311726 -0.0366433 -0.0425913 -0.0502114 -0.0562636 -0.0611141
-0.0677074 -0.0739859 -0.0783072 -0.0836827 -0.0895136 -0.0933295 -0.0985669
-0.103433 -0.107433 -0.113081 -0.117128 -0.123264 -0.128092 -0.134677
-0.141296 -0.14772 -0.156201 -0.164746 -0.172928 -0.181581 -0.19135
-0.201719 -0.211971 -0.22169 -0.230616 -0.238605 -0.245715 -0.251876
-0.256625 -0.259993 -0.261824 -0.262574 -0.261917 -0.26004 -0.257486
-0.253856 -0.250084 -0.245553 -0.241272 -0.236581 -0.232122 -0.22783
-0.223235 -0.219286 -0.215095 -0.210617 -0.206689 -0.202266 -0.197406
-0.193026 -0.187999 -0.182549 -0.177596 -0.171813 -0.166177 -0.16063
-0.154451 -0.149052 -0.142795 -0.1375 -0.131406 -0.126168 -0.120715
-0.115052 -0.110436 -0.105573 -0.100349 -0.0955933 -0.0916896 -0.0881725
-0.0847587 -0.0814569 -0.0783089 -0.0752962 -0.0724385 -0.069977 -0.0679863
-0.0660639 -0.0641656 -0.0624261 -0.0609077 -0.059236 -0.0576922 -0.0559925
-0.0542546 -0.0523714 -0.0504608 -0.0484716 -0.0466321 -0.0449895 -0.0437436
-0.0431437 -0.0434736 -0.0449324 -0.0477898 -0.0522547 -0.0584968 -0.0664464
-0.0759497 -0.0869818 -0.0989223 -0.111203 -0.123434 -0.134787 -0.144471
-0.152241 -0.157333 -0.159599 -0.159111 -0.155829 -0.150476 -0.143371
-0.135373 -0.127362 -0.119712 -0.113463 -0.109095 -0.106647 -0.106246
-0.107893 -0.111496 -0.116718 -0.123083 -0.130078 -0.137215 -0.144171
-0.151008 -0.157871 -0.164169 -0.169357 -0.17435 -0.179328 -0.183449
-0.188161 -0.192357 -0.197207 -0.201754 -0.2071 -0.212059 -0.217692
-0.223123 -0.228361 -0.233831 -0.238517 -0.242754 -0.246626 -0.249284
-0.251069 -0.25206 -0.251574 -0.250047 -0.247516 -0.24357 -0.23887
-0.233146 -0.226704 -0.219822 -0.212537 -0.205291 -0.198169 -0.191462
-0.18545 -0.180163 -0.175883 -0.172673 -0.170538 -0.169531 -0.169557
-0.170491 -0.172165 -0.174388 -0.176934 -0.179586 -0.182123 -0.184356
-0.186129 -0.187342 -0.187951 -0.187972 -0.187483 -0.186609 -0.185516
-0.184391 -0.183423 -0.182783 -0.18261 -0.182988 -0.183943 -0.185437
-0.187366 -0.189571 -0.19185 -0.193973 -0.195702 -0.196808 -0.197078
-0.196346 -0.194485 -0.191427 -0.187147 -0.181675 -0.175084 -0.16748
-0.158995 -0.149779 -0.13999;
#X coords 0 1 499 -1 200 140 1;
#X restore 193 14 graph;
#X obj 31 49 tgl 15 0 empty empty empty 17 7 0 10 -262144 -1 -1 0 1
;
#X obj 103 166 tgl 15 0 empty empty empty 17 7 0 10 -262144 -1 -1 0
1;
#X obj 141 181 sel 1 0;
#X obj 36 366 tabwrite~ view;
#X obj 36 325 tgl 15 0 empty empty empty 17 7 0 10 -262144 -1 -1 0
1;
#X obj 31 26 r tog;
#X floatatom 53 326 6 0 0 0 - view -, f 6;
#X msg 223 253 4000;
#X obj 36 344 metro;
#X msg 223 210 800;
#X obj 194 253 f;
#X obj 194 210 f;
#X obj 212 233 r dcay;
#X obj 212 190 r atak;
#X obj 272 270 s _dcay;
#X obj 272 227 s _atak;
#X msg 223 296 800;
#X obj 194 296 f;
#X obj 212 276 r xramp;
#X obj 272 313 s _xramp;
#X msg 141 262 1;
#X msg 64 279 0;
#X obj 96 279 s tog;
#X obj 31 70 metro;
#X obj 31 92 s bt;
#N canvas 855 436 377 236 drums 0;
#X obj 200 51 noise~;
#X obj 200 79 *~;
#X floatatom 306 77 5 0 0 0 - - -, f 5;
#X floatatom 300 61 5 0 0 0 - - -, f 5;
#X obj 235 195 throw~ sview;
#X obj 200 160 *~;
#X obj 52 131 sel;
#X floatatom 122 86 5 0 0 0 - - -, f 5;
#X floatatom 82 86 5 0 0 0 - - -, f 5;
#X obj 174 195 adac~;
#X obj 52 33 spigot;
#X obj 91 13 r b4;
#X obj 253 29 r c;
#X obj 52 13 r c;
#X obj 52 77 sel;
#N canvas 857 502 450 300 vol 0;
#X obj 195 90 ii;
#X obj 224 139 r met;
#X obj 195 139 *;
#X obj 146 138 t;
#X obj 146 262 outlet;
#X obj 195 262 outlet;
#X obj 309 72 r eq;
#X obj 309 94 == 0;
#X obj 37 165 spigot;
#X obj 81 143 r eq;
#X obj 195 238 spigot;
#X obj 146 238 spigot;
#X obj 157 186 r b4;
#X obj 309 169 sel;
#X msg 309 191 10;
#X obj 37 143 r eq6;
#X obj 37 187 graid 63 0.9 0;
#X obj 157 206 t f f;
#X msg 125 206 0.9;
#X obj 146 111 spigot;
#X obj 146 89 cpt;
#X obj 146 67 r bt;
#X floatatom 205 184 5 0 0 0 - - -, f 5;
#X floatatom 193 73 5 0 0 0 - - -, f 5;
#X floatatom 271 142 5 0 0 0 - - -, f 5;
#X obj 195 115 rand 100 700;
#X obj 146 163 grand 0.6 0.8;
#X connect 0 0 25 0;
#X connect 1 0 2 1;
#X connect 2 0 10 0;
#X connect 3 0 26 0;
#X connect 3 1 25 0;
#X connect 6 0 7 0;
#X connect 7 0 10 1;
#X connect 7 0 13 0;
#X connect 7 0 19 1;
#X connect 8 0 16 0;
#X connect 9 0 8 1;
#X connect 10 0 5 0;
#X connect 11 0 4 0;
#X connect 12 0 17 0;
#X connect 13 0 14 0;
#X connect 14 0 5 0;
#X connect 15 0 8 0;
#X connect 16 0 11 0;
#X connect 17 0 18 0;
#X connect 17 1 14 0;
#X connect 17 1 11 1;
#X connect 18 0 11 0;
#X connect 19 0 3 0;
#X connect 20 0 19 0;
#X connect 20 1 23 0;
#X connect 21 0 20 0;
#X connect 25 0 2 0;
#X connect 25 0 20 1;
#X connect 25 0 24 0;
#X connect 26 0 11 0;
#X connect 26 0 22 0;
#X restore 127 109 pd vol;
#X obj 132 130 pad~;
#N canvas 835 546 450 300 vol 0;
#X obj 205 87 ii;
#X obj 234 139 r met;
#X obj 205 139 *;
#X obj 152 138 t;
#X obj 152 242 outlet;
#X obj 205 242 outlet;
#X obj 152 111 spigot;
#X obj 309 72 r eq;
#X obj 309 94 == 0;
#X obj 37 165 spigot;
#X obj 81 143 r eq;
#X obj 205 218 spigot;
#X obj 152 218 spigot;
#X obj 309 157 sel;
#X msg 309 179 10;
#X obj 37 143 r eq7;
#X obj 166 196 r b8;
#X obj 37 189 graid 63 0.12 0;
#X floatatom 212 190 5 0 0 0 - - -, f 5;
#X obj 152 90 cpt;
#X obj 205 116 rand 100 1000;
#X obj 152 68 r bt;
#X obj 152 163 grand 0.06 0.12;
#X connect 0 0 20 0;
#X connect 1 0 2 1;
#X connect 2 0 11 0;
#X connect 3 0 22 0;
#X connect 3 1 20 0;
#X connect 6 0 3 0;
#X connect 7 0 8 0;
#X connect 8 0 6 1;
#X connect 8 0 11 1;
#X connect 8 0 13 0;
#X connect 9 0 17 0;
#X connect 10 0 9 1;
#X connect 11 0 5 0;
#X connect 11 0 18 0;
#X connect 12 0 4 0;
#X connect 13 0 14 0;
#X connect 14 0 5 0;
#X connect 15 0 9 0;
#X connect 16 0 12 1;
#X connect 17 0 12 0;
#X connect 19 0 6 0;
#X connect 20 0 2 0;
#X connect 20 0 19 1;
#X connect 21 0 19 0;
#X connect 22 0 12 0;
#X restore 214 114 pd vol;
#X obj 219 135 pad~;
#X obj 253 52 % 48;
#X obj 253 74 sel 24;
#N canvas 1073 493 450 300 ptrn 0;
#X obj 81 232 outlet;
#X obj 86 61 r c;
#X obj 86 107 sel;
#X obj 86 129 t;
#X obj 86 210 spigot;
#X obj 267 219 outlet;
#X obj 188 228 outlet;
#X obj 114 133 bng 15 250 50 0 empty empty empty 17 7 0 10 -262144
-1 -1;
#X floatatom 273 245 5 0 0 0 - - -, f 5;
#X floatatom 234 245 5 0 0 0 - - -, f 5;
#X obj 86 173 t f f;
#X floatatom 154 175 5 0 0 0 - - -, f 5;
#X obj 257 196 expr $f1/5 + 2;
#X obj 86 151 rand 2 7;
#X obj 220 140 expr (($f1-2) / -1) + 7;
#X obj 220 162 expr $f1/3 + 2;
#X obj 86 85 % 72;
#X obj 135 210 r b16;
#X connect 1 0 16 0;
#X connect 2 0 3 0;
#X connect 3 0 13 0;
#X connect 4 0 0 0;
#X connect 7 0 13 0;
#X connect 10 0 4 0;
#X connect 10 1 12 0;
#X connect 10 1 14 0;
#X connect 12 0 5 0;
#X connect 12 0 8 0;
#X connect 13 0 10 0;
#X connect 13 0 11 0;
#X connect 14 0 15 0;
#X connect 15 0 6 0;
#X connect 15 0 9 0;
#X connect 16 0 2 0;
#X connect 17 0 4 1;
#X restore 83 55 pd ptrn;
#N canvas 414 493 450 300 bd 0;
#X obj 185 182 *~;
#X obj 174 13 inlet;
#X obj 185 146 /~ 8;
#X obj 135 272 adac~;
#X obj 185 122 ad~ 1 800;
#X obj 178 244 throw~ sview;
#X obj 264 149 freqm~;
#X obj 145 214 *~;
#X obj 176 36 spigot;
#X obj 215 13 r b0;
#X obj 175 214 inlet~;
#X floatatom 123 102 5 0 0 0 - - -, f 5;
#X floatatom 167 102 5 0 0 0 - - -, f 5;
#N canvas 948 122 450 301 vals 0;
#X obj 37 128 noise~;
#X obj 37 150 *~ 880;
#X obj 37 216 *~ 5555;
#X obj 37 194 vcf~ 5;
#X obj 37 238 outlet~;
#X obj 89 169 +~ 1000;
#X obj 118 198 *~;
#X obj 89 111 ad~ 0 100;
#X obj 89 140 *~ 900;
#X obj 118 238 outlet~;
#X obj 37 172 osc~;
#X obj 185 211 vline~;
#X obj 185 162 pack 0 0 0;
#X msg 185 187 \$1 \, \$2 \$3;
#X obj 185 137 grand 120 300;
#X obj 252 88 grand 20 70;
#X obj 218 113 grand 10 30;
#X obj 185 238 outlet~;
#X obj 148 22 inlet;
#X obj 148 44 t b b b b b;
#X obj 149 88 grand 200;
#X connect 0 0 1 0;
#X connect 1 0 10 0;
#X connect 2 0 4 0;
#X connect 3 0 2 0;
#X connect 5 0 3 1;
#X connect 6 0 9 0;
#X connect 7 0 6 1;
#X connect 7 0 8 0;
#X connect 8 0 5 0;
#X connect 8 0 6 0;
#X connect 10 0 3 0;
#X connect 11 0 17 0;
#X connect 12 0 13 0;
#X connect 13 0 11 0;
#X connect 14 0 12 0;
#X connect 15 0 12 2;
#X connect 16 0 12 1;
#X connect 18 0 19 0;
#X connect 19 0 7 0;
#X connect 19 1 20 0;
#X connect 19 2 14 0;
#X connect 19 3 16 0;
#X connect 19 4 15 0;
#X connect 20 0 7 2;
#X restore 260 122 pd vals;
#X obj 176 57 t;
#X floatatom 136 147 5 0 0 0 - - -, f 5;
#X obj 136 166 * 0.01;
#X obj 80 147 *~ 0.7;
#X obj 79 122 fkick 70 34.25;
#X obj 280 7 r bt;
#X obj 280 29 cpt;
#X obj 280 51 t;
#X obj 280 96 pad;
#X obj 313 51 *;
#X obj 342 51 r met;
#X floatatom 14 158 5 0 0 0 - - -, f 5;
#X floatatom 333 104 5 0 0 0 - - -, f 5;
#X obj 313 29 rand 5 30;
#X obj 280 73 grand 34 34.4;
#X connect 0 0 7 0;
#X connect 1 0 8 0;
#X connect 2 0 0 0;
#X connect 4 0 2 0;
#X connect 6 0 0 1;
#X connect 7 0 3 1;
#X connect 7 0 3 0;
#X connect 7 0 5 0;
#X connect 8 0 14 0;
#X connect 9 0 8 1;
#X connect 10 0 7 1;
#X connect 11 0 18 1;
#X connect 12 0 18 2;
#X connect 13 0 6 0;
#X connect 13 1 6 1;
#X connect 13 2 6 2;
#X connect 14 0 4 0;
#X connect 14 0 18 0;
#X connect 14 1 13 0;
#X connect 15 0 16 0;
#X connect 16 0 17 1;
#X connect 17 0 7 0;
#X connect 18 0 17 0;
#X connect 19 0 20 0;
#X connect 20 0 21 0;
#X connect 21 0 28 0;
#X connect 21 1 27 0;
#X connect 22 0 26 0;
#X connect 22 0 18 2;
#X connect 23 0 22 1;
#X connect 24 0 23 1;
#X connect 27 0 20 1;
#X connect 27 0 23 0;
#X connect 28 0 22 0;
#X restore 77 166 pd bd;
#X obj 52 55 % 6;
#X obj 262 95 ad~ 6 30;
#X obj 52 109 randv 4 4;
#X connect 0 0 1 0;
#X connect 1 0 5 0;
#X connect 2 0 24 2;
#X connect 3 0 24 1;
#X connect 5 0 4 0;
#X connect 5 0 9 1;
#X connect 5 0 9 0;
#X connect 6 0 22 0;
#X connect 7 0 25 2;
#X connect 8 0 25 1;
#X connect 10 0 23 0;
#X connect 11 0 10 1;
#X connect 12 0 19 0;
#X connect 13 0 10 0;
#X connect 14 0 25 0;
#X connect 15 0 16 0;
#X connect 15 1 16 1;
#X connect 16 0 22 1;
#X connect 17 0 18 0;
#X connect 17 1 18 1;
#X connect 18 0 5 1;
#X connect 19 0 20 0;
#X connect 20 0 24 0;
#X connect 21 0 23 1;
#X connect 21 1 25 1;
#X connect 21 2 25 2;
#X connect 23 0 14 0;
#X connect 24 0 1 1;
#X connect 25 0 6 0;
#X coords 0 236 1 235 85 60 0;
#X restore 31 158 pd drums;
#X obj 59 235 spigot;
#X obj 98 189 == 0;
#X obj 91 255 f;
#X obj 102 309 catch~ sview;
#N canvas 245 370 383 312 fm 0;
#X obj 112 285 adac~;
#N canvas 398 565 447 393 shape 0;
#X obj 250 160 r met;
#X obj 278 187 r dcay;
#X obj 250 182 f;
#X obj 278 209 b;
#X obj 240 204 *;
#X obj 203 192 *;
#X obj 165 167 %;
#X obj 79 302 s pt;
#X obj 136 167 sel;
#X obj 79 211 t;
#X obj 111 249 grand 2 100;
#X floatatom 128 224 5 0 0 0 - - -, f 5;
#X obj 185 281 f;
#X obj 129 285 t b f;
#X obj 185 314 -;
#X obj 240 226 b;
#X obj 128 337 s _atak;
#X obj 185 337 s _dcay;
#X obj 178 225 /;
#X obj 128 200 r atak;
#X floatatom 89 282 5 0 0 0 - - -, f 5;
#X floatatom 229 252 5 0 0 0 - - -, f 5;
#X floatatom 203 168 5 0 0 0 - - -, f 5;
#X obj 166 77 sel;
#X obj 117 33 r c;
#X obj 194 77 t;
#X obj 231 12 % 768;
#X obj 259 36 tgl 15 0 empty empty empty 17 7 0 10 -262144 -1 -1 0
1;
#X obj 231 34 sel;
#X obj 259 56 sel;
#X msg 236 78 5, f 1;
#X msg 250 78 4, f 1;
#X obj 174 114 rand 2 9;
#X obj 118 55 % 12;
#X connect 0 0 2 0;
#X connect 1 0 4 1;
#X connect 1 0 3 0;
#X connect 2 0 4 0;
#X connect 3 0 2 0;
#X connect 4 0 5 1;
#X connect 4 0 15 0;
#X connect 5 0 12 1;
#X connect 5 0 18 0;
#X connect 5 0 21 0;
#X connect 6 0 8 0;
#X connect 8 0 9 0;
#X connect 9 0 7 0;
#X connect 9 1 10 0;
#X connect 10 0 13 0;
#X connect 10 0 20 0;
#X connect 11 0 18 1;
#X connect 12 0 14 0;
#X connect 13 0 12 0;
#X connect 13 1 16 0;
#X connect 13 1 14 1;
#X connect 14 0 17 0;
#X connect 15 0 5 0;
#X connect 18 0 10 2;
#X connect 19 0 11 0;
#X connect 22 0 5 0;
#X connect 22 0 6 1;
#X connect 23 0 25 0;
#X connect 24 0 33 0;
#X connect 25 0 32 0;
#X connect 26 0 28 0;
#X connect 27 0 29 0;
#X connect 28 0 27 0;
#X connect 29 0 30 0;
#X connect 29 1 31 0;
#X connect 30 0 32 2;
#X connect 31 0 32 2;
#X connect 32 0 22 0;
#X connect 33 0 23 0;
#X connect 33 0 6 0;
#X coords 0 0 1 1 85 60 0;
#X restore 294 70 pd shape;
#X obj 14 92 *~;
#X obj 295 141 \$0;
#X obj 14 61 freqm~;
#N canvas 829 607 450 300 vals 0;
#X obj 23 178 pad~;
#X floatatom 96 126 5 0 0 0 - - -, f 5;
#X floatatom 256 50 5 0 0 0 - - -, f 5;
#X obj 167 170 pad~;
#X floatatom 199 120 5 0 0 0 - - -, f 5;
#X obj 316 173 pad~;
#X floatatom 362 85 5 0 0 0 - - -, f 5;
#X obj 317 253 outlet~;
#X obj 167 252 outlet~;
#X obj 23 260 outlet~;
#X obj 167 74 r pt;
#X floatatom 70 41 5 0 0 0 - - -, f 5;
#X msg 70 60 k \$1;
#X obj 256 69 * 10;
#X obj 167 148 grand 40 4000;
#X floatatom 348 41 5 0 0 0 - - -, f 5;
#X msg 348 60 k \$1;
#X obj 23 134 rand 24;
#X obj 23 156 muse 14 7;
#X obj 316 151 muse 7 3 5 7 10;
#X obj 316 129 rand 37;
#X floatatom 109 146 5 0 0 0 - - -, f 5;
#X floatatom 110 165 5 0 0 0 - - -, f 5;
#X floatatom 112 184 5 0 0 0 - - -, f 5;
#X obj 275 101 r _dcay;
#X obj 167 96 t;
#X obj 207 171 grand;
#X obj 248 216 / 1.5;
#X obj 353 173 grand;
#X obj 62 180 grand;
#X connect 0 0 9 0;
#X connect 1 0 17 1;
#X connect 2 0 13 0;
#X connect 3 0 8 0;
#X connect 4 0 14 1;
#X connect 5 0 7 0;
#X connect 6 0 20 1;
#X connect 10 0 25 0;
#X connect 11 0 12 0;
#X connect 12 0 18 0;
#X connect 13 0 14 2;
#X connect 14 0 3 0;
#X connect 14 0 23 0;
#X connect 15 0 16 0;
#X connect 16 0 19 0;
#X connect 17 0 18 0;
#X connect 17 0 21 0;
#X connect 18 0 0 0;
#X connect 19 0 5 0;
#X connect 20 0 19 0;
#X connect 20 0 22 0;
#X connect 24 0 27 0;
#X connect 25 0 20 0;
#X connect 25 0 14 0;
#X connect 25 0 17 0;
#X connect 26 0 3 1;
#X connect 27 0 26 2;
#X connect 27 0 28 2;
#X connect 27 0 29 2;
#X connect 28 0 5 1;
#X connect 29 0 0 1;
#X restore 11 38 pd vals;
#N canvas 711 290 387 238 vals 0;
#X obj 230 209 outlet~;
#X obj 5 209 outlet~;
#X obj 115 209 outlet~;
#X obj 239 159 pad~;
#X obj 5 163 pad~;
#X obj 115 161 pad~;
#X obj 145 51 t;
#X obj 168 128 b;
#X floatatom 13 29 5 0 0 0 - - -, f 5;
#X msg 13 48 k \$1;
#X floatatom 251 27 5 0 0 0 - - -, f 5;
#X msg 251 46 k \$1;
#X floatatom 106 27 5 0 0 0 - - -, f 5;
#X msg 106 46 k \$1;
#X obj 279 159 grand;
#X obj 157 161 grand;
#X obj 44 163 grand;
#X obj 145 28 r pt2;
#X obj 185 51 r _dcay2;
#X obj 199 131 / 1.5;
#X obj 0 107 muse 48 4 7 9 10;
#X obj 120 107 muse 72 4 7 9 10;
#X obj 239 107 muse 24 4 7 9 10;
#X obj 75 131 r peek;
#X obj 2 84 grand 20;
#X obj 125 84 grand 46;
#X obj 239 85 grand 30;
#X connect 3 0 0 0;
#X connect 4 0 1 0;
#X connect 5 0 2 0;
#X connect 6 0 24 0;
#X connect 6 0 25 0;
#X connect 6 0 26 0;
#X connect 6 1 7 0;
#X connect 7 0 14 0;
#X connect 7 0 15 0;
#X connect 7 0 16 0;
#X connect 8 0 9 0;
#X connect 9 0 20 0;
#X connect 10 0 11 0;
#X connect 11 0 22 0;
#X connect 12 0 13 0;
#X connect 13 0 21 0;
#X connect 14 0 3 1;
#X connect 15 0 5 1;
#X connect 16 0 4 1;
#X connect 17 0 6 0;
#X connect 18 0 19 0;
#X connect 19 0 16 2;
#X connect 19 0 15 2;
#X connect 19 0 14 2;
#X connect 20 0 4 0;
#X connect 21 0 5 0;
#X connect 22 0 3 0;
#X connect 23 0 16 0;
#X connect 23 0 15 0;
#X connect 23 0 14 0;
#X connect 24 0 20 0;
#X connect 25 0 21 0;
#X connect 26 0 22 0;
#X coords 0 238 1 237 85 60 0;
#X restore 178 15 pd vals;
#X obj 183 37 freqm~;
#N canvas 612 81 316 251 vals 0;
#X obj 38 183 outlet~;
#X obj 161 187 outlet~;
#X obj 38 153 pad~;
#X obj 161 152 pad~;
#X obj 113 20 t;
#X obj 124 117 b;
#X floatatom 202 22 5 0 0 0 - - -, f 5;
#X msg 202 44 k \$1;
#X floatatom 67 15 5 0 0 0 - - -, f 5;
#X msg 66 34 k \$1;
#X floatatom 148 36 5 0 0 0 - - -, f 5;
#X floatatom 258 1 5 0 0 0 - - -, f 5;
#X msg 74 -27 7;
#X obj 72 153 grand;
#X obj 197 152 grand;
#X obj 154 119 / 1.5;
#X obj 113 -2 r pt2;
#X obj 161 -16 r _dcay2;
#X obj 198 119 r ramp;
#X obj 39 90 muse 36 4 7 9 10;
#X obj 167 91 muse -12 4 7 9 10;
#X obj 20 27 r peek;
#X obj 35 62 grand 32;
#X obj 167 68 grand 30;
#X connect 2 0 0 0;
#X connect 3 0 1 0;
#X connect 4 0 22 0;
#X connect 4 0 23 0;
#X connect 4 1 5 0;
#X connect 5 0 13 0;
#X connect 5 0 14 0;
#X connect 6 0 7 0;
#X connect 7 0 20 0;
#X connect 8 0 9 0;
#X connect 9 0 19 0;
#X connect 12 0 8 0;
#X connect 12 0 6 0;
#X connect 13 0 2 1;
#X connect 14 0 3 1;
#X connect 15 0 13 2;
#X connect 15 0 14 2;
#X connect 16 0 4 0;
#X connect 17 0 15 0;
#X connect 18 0 15 1;
#X connect 19 0 2 0;
#X connect 20 0 3 0;
#X connect 21 0 14 0;
#X connect 21 0 13 0;
#X connect 21 0 22 0;
#X connect 21 0 23 0;
#X connect 22 0 19 0;
#X connect 23 0 20 0;
#X coords 0 251 1 250 85 60 0;
#X restore 232 37 pd vals;
#X obj 226 165 ad~;
#X floatatom 255 159 5 0 0 0 - _dcay2 -, f 5;
#X floatatom 235 142 5 0 0 0 - _atak2 -, f 5;
#X obj 208 202 *~;
#X obj 328 140 bng 15 250 50 0 empty empty empty 17 7 0 10 -262144
-1 -1;
#X obj 220 121 r pt2;
#N canvas 849 555 447 393 shape2 0;
#X obj 262 171 r met;
#X obj 262 193 f;
#X obj 290 220 b;
#X obj 252 215 *;
#X obj 203 192 *;
#X obj 165 167 %;
#X obj 136 167 sel;
#X obj 79 211 t;
#X obj 111 249 grand 2 100;
#X floatatom 128 224 5 0 0 0 - - -, f 5;
#X obj 185 275 f;
#X obj 129 279 t b f;
#X obj 185 308 -;
#X obj 252 237 b;
#X obj 178 225 /;
#X floatatom 88 277 5 0 0 0 - - -, f 5;
#X floatatom 237 259 5 0 0 0 - - -, f 5;
#X obj 128 331 s _atak2;
#X obj 190 331 s _dcay2;
#X obj 79 296 s pt2;
#X obj 290 198 r dcay2;
#X obj 128 200 r atak2;
#X floatatom 206 163 5 0 0 0 - - -, f 5;
#X obj 177 74 sel;
#X obj 128 25 r c;
#X obj 205 74 t;
#X obj 242 8 % 768;
#X obj 270 32 tgl 15 0 empty empty empty 17 7 0 10 -262144 -1 -1 0
1;
#X obj 242 30 sel;
#X obj 270 52 sel;
#X obj 335 46 bng 15 250 50 0 empty empty empty 17 7 0 10 -262144 -1
-1;
#X floatatom 352 97 5 0 0 0 - - -, f 5;
#X floatatom 377 39 5 0 0 0 - - -, f 5;
#X floatatom 398 56 5 0 0 0 - - -, f 5;
#X obj 352 75 rand -4 5;
#X msg 247 74 5, f 1;
#X msg 262 74 4, f 1;
#X obj 182 109 rand 2 9;
#X obj 128 47 % 18;
#X connect 0 0 1 0;
#X connect 1 0 3 0;
#X connect 2 0 1 0;
#X connect 3 0 4 1;
#X connect 3 0 13 0;
#X connect 4 0 10 1;
#X connect 4 0 14 0;
#X connect 4 0 16 0;
#X connect 5 0 6 0;
#X connect 6 0 7 0;
#X connect 7 0 19 0;
#X connect 7 1 8 0;
#X connect 8 0 11 0;
#X connect 8 0 15 0;
#X connect 9 0 14 1;
#X connect 10 0 12 0;
#X connect 11 0 10 0;
#X connect 11 1 12 1;
#X connect 11 1 17 0;
#X connect 12 0 18 0;
#X connect 13 0 4 0;
#X connect 14 0 8 2;
#X connect 20 0 3 1;
#X connect 20 0 2 0;
#X connect 21 0 9 0;
#X connect 22 0 5 1;
#X connect 22 0 4 0;
#X connect 23 0 25 0;
#X connect 24 0 38 0;
#X connect 25 0 37 0;
#X connect 26 0 28 0;
#X connect 27 0 29 0;
#X connect 28 0 27 0;
#X connect 29 0 35 0;
#X connect 29 1 36 0;
#X connect 30 0 34 0;
#X connect 32 0 34 1;
#X connect 33 0 34 2;
#X connect 34 0 31 0;
#X connect 35 0 37 2;
#X connect 36 0 37 2;
#X connect 37 0 22 0;
#X connect 38 0 23 0;
#X connect 38 0 5 0;
#X coords 0 0 1 1 85 60 0;
#X restore 294 92 pd shape2;
#X obj 208 248 pan~;
#X obj 208 92 *~;
#X obj 97 200 throw~ sview;
#X obj 14 248 pan~;
#N canvas 782 217 450 300 dcay2 0;
#X obj 181 191 pad;
#X obj 181 213 s dcay2;
#X obj 246 148 r met;
#X obj 217 148 *;
#X obj 182 135 t;
#X obj 204 63 r eq;
#X obj 204 85 == 0;
#X obj 265 63 graid 63 2 0.1;
#X floatatom 307 43 5 0 0 0 - - -, f 5;
#X obj 265 85 s dcay2;
#X obj 265 41 r eq3;
#X obj 217 107 ii;
#X floatatom 122 224 5 0 0 0 - - -, f 5;
#X obj 121 169 ii 0.6;
#X obj 165 107 spigot;
#X obj 165 85 cpt;
#X obj 165 63 r bt;
#X obj 217 127 rand 100 700;
#X obj 182 169 grand 0.3 0.75;
#X connect 0 0 1 0;
#X connect 0 0 12 0;
#X connect 2 0 3 1;
#X connect 3 0 0 1;
#X connect 4 0 18 0;
#X connect 4 1 17 0;
#X connect 5 0 6 0;
#X connect 6 0 14 1;
#X connect 7 0 9 0;
#X connect 8 0 7 0;
#X connect 10 0 7 0;
#X connect 11 0 17 0;
#X connect 13 0 0 0;
#X connect 14 0 4 0;
#X connect 15 0 14 0;
#X connect 16 0 15 0;
#X connect 17 0 3 0;
#X connect 17 0 15 1;
#X connect 18 0 0 0;
#X restore 294 43 pd dcay2;
#N canvas 316 217 450 300 dcay 0;
#X obj 155 167 pad;
#X obj 155 189 s dcay;
#X obj 218 121 r met;
#X obj 189 121 *;
#X obj 155 120 t;
#X obj 179 33 r eq;
#X obj 179 55 == 0;
#X obj 244 67 s dcay;
#X obj 244 45 graid 63 2 0.1;
#X floatatom 286 25 5 0 0 0 - - -, f 5;
#X obj 244 23 r eq1;
#X floatatom 98 201 5 0 0 0 - - -, f 5;
#X obj 191 77 ii;
#X obj 140 79 spigot;
#X obj 140 57 cpt;
#X obj 140 35 r bt;
#X obj 191 98 rand 100 1000;
#X obj 155 145 grand 0.15 0.95;
#X connect 0 0 1 0;
#X connect 0 0 11 0;
#X connect 2 0 3 1;
#X connect 3 0 0 1;
#X connect 4 0 17 0;
#X connect 4 1 16 0;
#X connect 5 0 6 0;
#X connect 6 0 13 1;
#X connect 8 0 7 0;
#X connect 9 0 8 0;
#X connect 10 0 8 0;
#X connect 12 0 16 0;
#X connect 13 0 4 0;
#X connect 14 0 13 0;
#X connect 15 0 14 0;
#X connect 16 0 3 0;
#X connect 16 0 14 1;
#X connect 17 0 0 0;
#X restore 294 21 pd dcay;
#N canvas 721 541 450 300 vol 0;
#X obj 198 90 ii;
#X obj 227 139 r met;
#X obj 198 139 *;
#X obj 149 138 t;
#X obj 149 187 outlet;
#X obj 198 210 outlet;
#X msg 303 179 10;
#X obj 35 165 spigot;
#X obj 76 143 r eq;
#X obj 35 187 graid 63 0.34 0;
#X obj 198 187 spigot;
#X obj 303 72 r eq;
#X obj 303 94 == 0;
#X obj 303 157 sel;
#X obj 35 143 r eq2;
#X obj 149 111 spigot;
#X obj 149 89 cpt;
#X obj 149 67 r bt;
#X obj 198 115 rand 100 500;
#X obj 149 163 grand 0.25 0.38;
#X connect 0 0 18 0;
#X connect 1 0 2 1;
#X connect 2 0 10 0;
#X connect 3 0 19 0;
#X connect 3 1 18 0;
#X connect 6 0 5 0;
#X connect 7 0 9 0;
#X connect 8 0 7 1;
#X connect 9 0 4 0;
#X connect 10 0 5 0;
#X connect 11 0 12 0;
#X connect 12 0 10 1;
#X connect 12 0 13 0;
#X connect 12 0 15 1;
#X connect 13 0 6 0;
#X connect 14 0 7 0;
#X connect 15 0 3 0;
#X connect 16 0 15 0;
#X connect 17 0 16 0;
#X connect 18 0 2 0;
#X connect 18 0 16 1;
#X connect 19 0 4 0;
#X restore 238 81 pd vol;
#X obj 208 60 fmbloc~;
#X obj 295 118 r b0;
#N canvas 508 186 450 302 vol 0;
#X obj 195 89 ii;
#X obj 224 139 r met;
#X obj 195 139 *;
#X obj 146 138 t;
#X obj 146 236 outlet;
#X obj 195 236 outlet;
#X obj 146 110 spigot;
#X obj 37 165 spigot;
#X obj 81 143 r eq;
#X obj 195 212 spigot;
#X obj 37 187 graid 63 0.25 0;
#X obj 37 143 r eq0;
#X obj 146 212 spigot;
#X obj 160 190 r b4;
#X floatatom 252 77 5 0 0 0 - - -, f 5;
#X floatatom 250 233 5 0 0 0 - - -, f 5;
#X obj 146 68 r bt;
#X obj 146 89 cpt;
#X obj 195 114 rand 100 500;
#X msg 303 179 10;
#X obj 303 71 r eq;
#X obj 303 93 == 0;
#X obj 303 157 sel;
#X obj 146 163 grand 0.04 0.18;
#X connect 0 0 18 0;
#X connect 1 0 2 1;
#X connect 2 0 9 0;
#X connect 3 0 23 0;
#X connect 3 1 18 0;
#X connect 6 0 3 0;
#X connect 7 0 10 0;
#X connect 8 0 7 1;
#X connect 9 0 5 0;
#X connect 9 0 15 0;
#X connect 10 0 12 0;
#X connect 11 0 7 0;
#X connect 12 0 4 0;
#X connect 13 0 12 1;
#X connect 16 0 17 0;
#X connect 17 0 6 0;
#X connect 18 0 2 0;
#X connect 18 0 14 0;
#X connect 18 0 17 1;
#X connect 19 0 5 0;
#X connect 20 0 21 0;
#X connect 21 0 22 0;
#X connect 21 0 6 1;
#X connect 22 0 19 0;
#X connect 23 0 12 0;
#X restore 77 65 pd vol;
#X obj 32 165 ad~;
#X floatatom 64 160 5 0 0 0 - _dcay -, f 5;
#X floatatom 41 142 5 0 0 0 - _atak -, f 5;
#X obj 14 202 *~;
#X obj 26 121 r pt;
#X obj 82 86 pad~;
#X obj 242 101 pad~;
#X obj 220 224 grand 0.45 0.63;
#X obj 26 224 grand 0.33 0.75;
#X msg 295 162 \; atak 10;
#N canvas 579 156 450 300 atak 0;
#X obj 146 95 %;
#X obj 146 117 sel;
#X obj 199 92 ii;
#X obj 228 139 r met;
#X obj 199 139 *;
#X obj 146 138 t;
#X obj 146 51 r c;
#X obj 146 73 spigot;
#X floatatom 256 77 5 0 0 0 - - -, f 5;
#X obj 199 115 grand 100 500;
#X obj 146 160 grand 3 10;
#X obj 146 182 pad;
#X obj 146 204 s atak;
#X connect 0 0 1 0;
#X connect 1 0 5 0;
#X connect 2 0 9 0;
#X connect 3 0 4 1;
#X connect 4 0 11 1;
#X connect 5 0 10 0;
#X connect 5 1 9 0;
#X connect 6 0 7 0;
#X connect 7 0 0 0;
#X connect 9 0 0 1;
#X connect 9 0 4 0;
#X connect 9 0 8 0;
#X connect 10 0 11 0;
#X connect 11 0 12 0;
#X restore 131 95 pd atak;
#N canvas 1051 156 450 300 atak2 0;
#X obj 146 95 %;
#X obj 146 117 sel;
#X obj 199 92 ii;
#X obj 228 139 r met;
#X obj 199 139 *;
#X obj 146 138 t;
#X obj 146 51 r c;
#X obj 146 73 spigot;
#X floatatom 256 77 5 0 0 0 - - -, f 5;
#X obj 199 115 grand 100 500;
#X obj 146 160 grand 3 10;
#X obj 146 182 pad;
#X obj 146 204 s atak2;
#X connect 0 0 1 0;
#X connect 1 0 5 0;
#X connect 2 0 9 0;
#X connect 3 0 4 1;
#X connect 4 0 11 1;
#X connect 5 0 10 0;
#X connect 5 1 9 0;
#X connect 6 0 7 0;
#X connect 7 0 0 0;
#X connect 9 0 0 1;
#X connect 9 0 4 0;
#X connect 9 0 8 0;
#X connect 10 0 11 0;
#X connect 11 0 12 0;
#X restore 131 117 pd atak2;
#X connect 2 0 29 0;
#X connect 3 0 35 0;
#X connect 4 0 2 0;
#X connect 5 0 4 0;
#X connect 5 1 4 1;
#X connect 5 2 4 2;
#X connect 6 0 7 0;
#X connect 6 1 7 1;
#X connect 6 2 7 2;
#X connect 7 0 23 0;
#X connect 8 0 23 1;
#X connect 8 1 23 2;
#X connect 9 0 12 1;
#X connect 10 0 9 2;
#X connect 10 0 16 2;
#X connect 11 0 9 1;
#X connect 12 0 16 0;
#X connect 12 0 18 0;
#X connect 13 0 3 0;
#X connect 14 0 9 0;
#X connect 14 0 33 0;
#X connect 16 0 0 0;
#X connect 16 1 0 1;
#X connect 17 0 12 0;
#X connect 19 0 0 0;
#X connect 19 1 0 1;
#X connect 22 0 32 0;
#X connect 22 1 32 1;
#X connect 23 0 17 0;
#X connect 24 0 3 0;
#X connect 25 0 31 0;
#X connect 25 1 31 1;
#X connect 26 0 29 1;
#X connect 27 0 26 2;
#X connect 27 0 19 2;
#X connect 28 0 26 1;
#X connect 29 0 19 0;
#X connect 29 0 18 0;
#X connect 30 0 26 0;
#X connect 30 0 34 0;
#X connect 31 0 2 1;
#X connect 32 0 17 1;
#X connect 33 0 16 1;
#X connect 34 0 19 1;
#X coords 0 312 1 311 85 60 0;
#X restore 31 114 pd fm;
#X obj 59 213 r pt;
#X floatatom 358 242 5 0 0 0 - - -, f 5;
#X obj 358 261 s atak;
#X obj 359 204 s met;
#X floatatom 359 183 5 0 0 0 - - -, f 5;
#X floatatom 358 284 5 0 0 0 - - -, f 5;
#X obj 358 323 s dcay;
#X floatatom 359 345 5 0 0 0 - - -, f 5;
#X obj 359 364 s ramp;
#N canvas 579 528 465 341 hum 0;
#X obj 95 186 s lbt;
#X obj 219 136 s latak;
#X obj 239 35 r met;
#X obj 277 136 s lramp;
#X floatatom 212 159 5 0 0 0 - - -, f 5;
#N canvas 142 580 409 260 lofm 0;
#X obj 143 101 *~;
#X floatatom 239 46 5 0 0 0 - ldcay -, f 5;
#X obj 165 27 bng 15 250 50 0 empty empty empty 17 7 0 10 -262144 -1
-1;
#X floatatom 198 46 5 0 0 0 - latak -, f 5;
#X obj 143 135 *~;
#X obj 188 26 r lbt;
#X obj 127 182 adac~;
#X obj 170 158 throw~ sview;
#N canvas 599 316 450 177 vals 0;
#X floatatom 56 97 5 0 0 0 - lramp -, f 5;
#X obj 19 97 pad~;
#X obj 19 50 r lt;
#X floatatom 104 55 5 0 0 0 - - -, f 5;
#X floatatom 182 56 5 0 0 0 - - -, f 5;
#X floatatom 204 97 5 0 0 0 - xlramp -, f 5;
#X obj 167 97 pad~;
#X obj 167 21 r lbt;
#X floatatom 221 56 5 0 0 0 - - -, f 5;
#X obj 167 75 grand 100 800;
#X floatatom 342 99 5 0 0 0 - ramp -, f 5;
#X obj 305 99 pad~;
#X obj 305 55 r lt;
#X obj 19 145 outlet~;
#X obj 167 142 outlet~;
#X obj 305 145 outlet~;
#X obj 251 100 ii;
#X obj 19 75 muse 31 2 3 -1 -4 -5;
#X obj 305 77 muse 50 2 3 4 5 4;
#X connect 0 0 1 1;
#X connect 1 0 13 0;
#X connect 2 0 3 0;
#X connect 2 0 17 0;
#X connect 4 0 9 1;
#X connect 5 0 6 1;
#X connect 6 0 14 0;
#X connect 7 0 9 0;
#X connect 8 0 9 2;
#X connect 9 0 6 0;
#X connect 10 0 11 1;
#X connect 11 0 15 0;
#X connect 12 0 18 0;
#X connect 16 0 9 0;
#X connect 17 0 1 0;
#X connect 18 0 11 0;
#X restore 112 43 pd vals;
#X obj 116 69 freqm~;
#N canvas 932 525 311 248 vals 0;
#X obj 38 180 outlet~;
#X obj 38 150 pad~;
#X obj 113 17 t;
#X obj 124 114 b;
#X floatatom 67 12 5 0 0 0 - - -, f 5;
#X msg 66 31 k \$1;
#X msg 74 -30 7;
#X obj 72 150 grand;
#X floatatom 84 114 5 0 0 0 - - -, f 5;
#X floatatom 45 114 5 0 0 0 - - -, f 5;
#X obj 113 -5 r lbt;
#X obj 161 -19 r ldcay;
#X floatatom 107 41 5 0 0 0 - - -, f 5;
#X obj 158 115 / 4;
#X obj 38 87 muse 19 2 3 7 8;
#X obj 38 62 grand 30;
#X connect 1 0 0 0;
#X connect 2 0 15 0;
#X connect 2 1 3 0;
#X connect 3 0 7 0;
#X connect 4 0 5 0;
#X connect 5 0 14 0;
#X connect 6 0 4 0;
#X connect 7 0 1 1;
#X connect 10 0 2 0;
#X connect 11 0 13 0;
#X connect 12 0 15 1;
#X connect 13 0 7 2;
#X connect 14 0 1 0;
#X connect 14 0 9 0;
#X connect 14 1 8 0;
#X connect 15 0 14 0;
#X coords 0 248 1 247 85 60 0;
#X restore 60 69 pd vals;
#X obj 188 65 ad~;
#X obj 83 123 *~ 0.5;
#X obj 83 101 fmbloc~;
#N canvas 1046 444 450 300 vol 0;
#X obj 195 89 ii;
#X obj 224 139 r met;
#X obj 195 139 *;
#X obj 146 138 t;
#X obj 146 262 outlet;
#X obj 195 262 outlet;
#X obj 309 71 r eq;
#X obj 309 93 == 0;
#X obj 16 170 spigot;
#X obj 60 148 r eq;
#X obj 195 238 spigot;
#X obj 146 238 spigot;
#X obj 309 169 sel;
#X msg 309 191 10;
#X obj 16 148 r eq4;
#X obj 172 183 r b4;
#X obj 172 203 t f f;
#X msg 127 202 0.12;
#X obj 15 192 graid 63 0.12 0;
#X obj 146 163 grand 0.07 0.12;
#X obj 146 110 spigot;
#X obj 146 89 cpt;
#X obj 146 67 r bt;
#X obj 195 114 rand 100 1000;
#X connect 0 0 23 0;
#X connect 1 0 2 1;
#X connect 2 0 10 0;
#X connect 3 0 19 0;
#X connect 3 1 23 0;
#X connect 6 0 7 0;
#X connect 7 0 10 1;
#X connect 7 0 12 0;
#X connect 7 0 20 1;
#X connect 8 0 18 0;
#X connect 9 0 8 1;
#X connect 10 0 5 0;
#X connect 11 0 4 0;
#X connect 12 0 13 0;
#X connect 13 0 5 0;
#X connect 14 0 8 0;
#X connect 15 0 16 0;
#X connect 16 0 17 0;
#X connect 16 1 11 1;
#X connect 16 1 13 0;
#X connect 17 0 11 0;
#X connect 18 0 11 0;
#X connect 19 0 11 0;
#X connect 20 0 3 0;
#X connect 21 0 20 0;
#X connect 22 0 21 0;
#X connect 23 0 2 0;
#X connect 23 0 21 1;
#X restore 185 112 pd vol;
#X obj 190 133 pad~;
#X connect 0 0 4 0;
#X connect 1 0 11 2;
#X connect 2 0 11 0;
#X connect 3 0 11 1;
#X connect 4 0 6 1;
#X connect 4 0 6 0;
#X connect 4 0 7 0;
#X connect 5 0 11 0;
#X connect 8 0 9 0;
#X connect 8 1 9 1;
#X connect 8 2 9 2;
#X connect 9 0 0 0;
#X connect 9 0 13 0;
#X connect 10 0 13 1;
#X connect 11 0 0 1;
#X connect 12 0 0 0;
#X connect 13 0 12 0;
#X connect 14 0 15 0;
#X connect 14 1 15 1;
#X connect 15 0 4 1;
#X restore 57 151 pd lofm;
#N canvas 906 492 443 257 hifm 0;
#X obj 134 97 *~;
#X floatatom 234 52 5 0 0 0 - ldcay -, f 5;
#X floatatom 177 25 5 0 0 0 - latak -, f 5;
#X obj 134 131 *~;
#X obj 194 133 r lbt;
#X obj 129 204 adac~;
#X obj 43 177 throw~ sview;
#N canvas 610 340 450 177 vals 0;
#X floatatom 70 83 5 0 0 0 - lramp -, f 5;
#X obj 33 83 pad~;
#X obj 33 62 muse 59 10 10 12;
#X obj 33 41 r ht;
#X floatatom 203 19 5 0 0 0 - - -, f 5;
#X floatatom 194 44 5 0 0 0 - - -, f 5;
#X floatatom 199 85 5 0 0 0 - xlramp -, f 5;
#X obj 152 85 pad~;
#X obj 152 41 r lbt;
#X floatatom 234 44 5 0 0 0 - - -, f 5;
#X floatatom 199 102 5 0 0 0 - - -, f 5;
#X obj 152 63 grand 100 800;
#X floatatom 347 86 5 0 0 0 - ramp -, f 5;
#X obj 310 86 pad~;
#X floatatom 346 45 5 0 0 0 - - -, f 5;
#X obj 310 64 muse 29 2 -3 -2;
#X obj 310 42 r ht;
#X obj 33 140 outlet~;
#X obj 152 140 outlet~;
#X obj 310 139 outlet~;
#X obj 258 92 ii;
#X connect 0 0 1 1;
#X connect 1 0 17 0;
#X connect 2 0 1 0;
#X connect 3 0 2 0;
#X connect 5 0 11 1;
#X connect 6 0 7 1;
#X connect 7 0 18 0;
#X connect 8 0 11 0;
#X connect 9 0 11 2;
#X connect 10 0 7 0;
#X connect 11 0 4 0;
#X connect 11 0 7 0;
#X connect 12 0 13 1;
#X connect 13 0 19 0;
#X connect 14 0 15 1;
#X connect 15 0 13 0;
#X connect 16 0 15 0;
#X connect 20 0 11 0;
#X restore 109 21 pd vals;
#X obj 112 43 freqm~;
#N canvas 622 580 311 248 vals 0;
#X obj 38 180 outlet~;
#X obj 38 150 pad~;
#X obj 113 17 t;
#X obj 124 114 b;
#X floatatom 67 12 5 0 0 0 - - -, f 5;
#X msg 66 31 k \$1;
#X floatatom 106 38 5 0 0 0 - - -, f 5;
#X msg 74 -30 7;
#X obj 72 150 grand;
#X floatatom 84 114 5 0 0 0 - - -, f 5;
#X floatatom 45 114 5 0 0 0 - - -, f 5;
#X obj 113 -5 r lbt;
#X obj 161 -19 r ldcay;
#X obj 38 87 muse 19 2 3 7 8;
#X obj 38 65 grand 0 30;
#X obj 154 116 / 4;
#X connect 1 0 0 0;
#X connect 2 0 14 0;
#X connect 2 1 3 0;
#X connect 3 0 8 0;
#X connect 4 0 5 0;
#X connect 5 0 13 0;
#X connect 6 0 14 1;
#X connect 7 0 4 0;
#X connect 8 0 1 1;
#X connect 11 0 2 0;
#X connect 12 0 15 0;
#X connect 13 0 1 0;
#X connect 13 0 10 0;
#X connect 13 1 9 0;
#X connect 14 0 13 0;
#X connect 15 0 8 2;
#X coords 0 248 1 247 85 60 0;
#X restore 56 43 pd vals;
#X obj 183 183 ii 0.5;
#X obj 167 44 ad~;
#X obj 134 177 pan~;
#X obj 72 102 *~ 0.6;
#X obj 72 80 fmbloc~;
#N canvas 460 173 450 300 vol 0;
#X obj 195 88 ii;
#X obj 224 139 r met;
#X obj 195 139 *;
#X obj 146 138 t;
#X obj 146 262 outlet;
#X obj 195 262 outlet;
#X obj 309 70 r eq;
#X obj 309 92 == 0;
#X obj 16 170 spigot;
#X obj 60 148 r eq;
#X obj 195 238 spigot;
#X obj 146 238 spigot;
#X obj 309 157 sel;
#X msg 309 179 10;
#X obj 16 148 r eq5;
#X obj 167 187 r b4;
#X obj 167 207 t f f;
#X msg 128 207 0.17;
#X obj 16 192 graid 63 0.17 0;
#X obj 146 163 grand 0.08 0.17;
#X obj 146 109 spigot;
#X obj 146 88 cpt;
#X obj 146 66 r bt;
#X obj 195 113 rand 100 1000;
#X connect 0 0 23 0;
#X connect 1 0 2 1;
#X connect 2 0 10 0;
#X connect 3 0 19 0;
#X connect 3 1 23 0;
#X connect 6 0 7 0;
#X connect 7 0 10 1;
#X connect 7 0 12 0;
#X connect 7 0 20 1;
#X connect 8 0 18 0;
#X connect 9 0 8 1;
#X connect 10 0 5 0;
#X connect 11 0 4 0;
#X connect 12 0 13 0;
#X connect 13 0 5 0;
#X connect 14 0 8 0;
#X connect 15 0 16 0;
#X connect 16 0 17 0;
#X connect 16 1 11 1;
#X connect 16 1 13 0;
#X connect 17 0 11 0;
#X connect 18 0 11 0;
#X connect 19 0 11 0;
#X connect 20 0 3 0;
#X connect 21 0 20 0;
#X connect 22 0 21 0;
#X connect 23 0 2 0;
#X connect 23 0 21 1;
#X restore 170 88 pd vol;
#X obj 175 109 pad~;
#X obj 146 154 grand 0.4 0.6;
#X connect 0 0 3 0;
#X connect 1 0 11 2;
#X connect 1 0 12 2;
#X connect 2 0 11 1;
#X connect 3 0 6 0;
#X connect 3 0 12 0;
#X connect 4 0 11 0;
#X connect 4 0 17 0;
#X connect 7 0 8 0;
#X connect 7 1 8 1;
#X connect 7 2 8 2;
#X connect 8 0 0 0;
#X connect 8 0 14 0;
#X connect 9 0 14 1;
#X connect 10 0 12 1;
#X connect 11 0 0 1;
#X connect 12 0 5 0;
#X connect 12 1 5 1;
#X connect 13 0 0 0;
#X connect 14 0 13 0;
#X connect 15 0 16 0;
#X connect 15 1 16 1;
#X connect 16 0 3 1;
#X connect 17 0 12 1;
#X restore 57 129 pd hifm;
#X floatatom 80 215 5 0 0 0 - - -, f 5;
#X obj 133 232 s lt;
#X floatatom 243 232 5 0 0 0 - - -, f 5;
#X floatatom 168 232 5 0 0 0 - - -, f 5;
#X obj 239 81 f;
#X floatatom 351 43 5 0 0 0 - - -, f 5;
#X obj 208 232 s ht;
#X obj 208 210 randv 4 1;
#X obj 122 97 spigot;
#X obj 277 114 * 1.3;
#N canvas 836 517 452 352 shape 0;
#X obj 215 216 -;
#X obj 246 238 s ldcay;
#X obj 206 296 s xlramp;
#X obj 246 216 r latak;
#X obj 202 102 r met;
#X obj 215 197 f;
#X obj 246 197 b;
#X floatatom 285 122 5 0 0 0 - - -, f 5;
#X msg 297 81 128;
#X obj 199 134 f;
#X obj 252 97 b;
#X obj 206 167 * 318;
#X connect 0 0 1 0;
#X connect 3 0 0 1;
#X connect 3 0 6 0;
#X connect 4 0 9 1;
#X connect 4 0 10 0;
#X connect 5 0 0 0;
#X connect 6 0 5 0;
#X connect 7 0 10 0;
#X connect 7 0 11 1;
#X connect 8 0 7 0;
#X connect 9 0 11 0;
#X connect 10 0 9 0;
#X connect 11 0 2 0;
#X connect 11 0 5 0;
#X restore 212 182 pd shape;
#X obj 219 114 * 0.1;
#X obj 239 57 t b f;
#X floatatom 309 46 5 0 0 0 - - -, f 5;
#X floatatom 176 120 5 0 0 0 - - -, f 5;
#X obj 122 163 t;
#X obj 122 76 r c;
#X obj 122 141 sel;
#X obj 161 76 r b8;
#X obj 135 210 randv 6 1;
#X obj 122 119 % 192;
#X connect 2 0 19 0;
#X connect 7 0 8 0;
#X connect 11 0 16 0;
#X connect 11 0 18 0;
#X connect 12 0 16 1;
#X connect 14 0 9 0;
#X connect 14 0 13 0;
#X connect 15 0 27 0;
#X connect 18 0 1 0;
#X connect 18 0 3 0;
#X connect 18 0 21 0;
#X connect 19 0 11 0;
#X connect 19 1 11 1;
#X connect 20 0 18 1;
#X connect 22 0 0 0;
#X connect 22 1 14 0;
#X connect 22 1 26 0;
#X connect 23 0 15 0;
#X connect 24 0 22 0;
#X connect 25 0 15 1;
#X connect 26 0 8 0;
#X connect 26 0 10 0;
#X connect 27 0 24 0;
#X restore 31 136 pd hum;
#N canvas 73 620 450 300 record 0;
#X obj 227 69 bng 15 250 50 0 empty empty empty 17 7 0 10 -262144 -1
-1;
#X msg 227 89 open imafreq.wav;
#X obj 177 232 writesf~ 2;
#X msg 249 121 start;
#X msg 322 137 stop;
#X obj 128 188 inlet~;
#X obj 297 187 inlet~;
#X connect 0 0 1 0;
#X connect 1 0 2 0;
#X connect 3 0 2 0;
#X connect 4 0 2 0;
#X connect 5 0 2 0;
#X connect 6 0 2 1;
#X restore 194 385 pd record;
#X obj 63 48 r _met;
#N canvas 0 82 450 300 privates 0;
#X obj 298 116 r met;
#X obj 298 138 s _met;
#X obj 117 116 r atak;
#X obj 117 138 s _atak;
#X obj 175 116 r dcay;
#X obj 175 138 s _dcay;
#X obj 233 116 r xramp;
#X obj 233 138 s _xramp;
#X connect 0 0 1 0;
#X connect 2 0 3 0;
#X connect 4 0 5 0;
#X connect 6 0 7 0;
#X restore 199 169 pd privates;
#X obj 358 302 * 0.01;
#X obj 262 352 * 0.01;
#X msg 101 332 \; view 18.87;
#X obj 59 257 t;
#X obj 103 146 r play;
#X obj 201 331 r vol;
#N canvas 1048 600 450 300 mix 0;
#X obj 184 158 dac~;
#X obj 137 47 catch~ L;
#X obj 240 47 catch~ R;
#X obj 148 115 *~;
#X obj 240 115 *~;
#X obj 198 70 inlet;
#X obj 102 151 outlet~;
#X obj 278 147 outlet~;
#X obj 156 136 *~ 0.97;
#X obj 214 136 *~ 0.97;
#X connect 1 0 3 0;
#X connect 1 0 6 0;
#X connect 2 0 4 0;
#X connect 2 0 7 0;
#X connect 3 0 8 0;
#X connect 4 0 9 0;
#X connect 5 0 4 1;
#X connect 5 0 3 1;
#X connect 8 0 0 0;
#X connect 9 0 0 1;
#X restore 201 363 pd mix;
#N canvas 424 244 450 300 info 0;
#X text 174 77 artist : miwi;
#X text 181 91 title : freq;
#X text 174 105 length off 480000;
#X restore 273 202 pd info;
#X obj 139 15 bng 15 250 50 0 empty empty empty 17 7 0 10 -262144 -1
-1;
#N canvas 230 521 450 300 timing 0;
#X obj 133 34 r bt;
#X obj 133 56 cup;
#X obj 133 139 s b0;
#X obj 165 120 s b4;
#X obj 198 139 s b8;
#X obj 104 78 s c;
#X obj 129 243 s met;
#X obj 111 177 r pre;
#X msg 133 99 1;
#X msg 165 99 1;
#X msg 198 99 1;
#X obj 111 199 sel;
#X floatatom 187 186 5 0 0 0 - - -, f 5;
#X floatatom 189 250 5 0 0 0 - - -, f 5;
#X floatatom 166 57 5 0 0 0 - - -, f 5;
#X msg 230 99 1;
#X floatatom 298 167 5 0 0 0 - - -, f 5;
#X floatatom 296 238 5 0 0 0 - - -, f 5;
#X obj 129 221 graid 60 10 63;
#X obj 296 216 graid 69;
#X obj 304 63 bng 15 250 50 0 empty empty empty 17 7 0 10 -262144 -1
-1;
#X floatatom 332 105 5 0 0 0 - - -, f 5;
#X floatatom 385 105 5 0 0 0 - - -, f 5;
#X obj 343 26 metro 1;
#X obj 304 32 tgl 15 0 empty empty empty 17 7 0 10 -262144 -1 -1 0
1;
#X obj 291 144 tgl 15 0 empty empty empty 17 7 0 10 -262144 -1 -1 0
1;
#X obj 291 122 sel 999 1000;
#X obj 331 144 tgl 15 0 empty empty empty 17 7 0 10 -262144 -1 -1 0
1;
#X obj 332 83 grand 0 69;
#X obj 133 78 sel 0 768 1536 3702;
#X obj 230 120 s b16;
#X connect 0 0 1 0;
#X connect 1 0 5 0;
#X connect 1 0 14 0;
#X connect 1 0 29 0;
#X connect 7 0 11 0;
#X connect 8 0 2 0;
#X connect 9 0 3 0;
#X connect 10 0 4 0;
#X connect 11 1 18 0;
#X connect 12 0 18 0;
#X connect 15 0 30 0;
#X connect 16 0 19 0;
#X connect 18 0 6 0;
#X connect 18 0 13 0;
#X connect 19 0 17 0;
#X connect 20 0 28 0;
#X connect 23 0 28 0;
#X connect 24 0 23 0;
#X connect 26 0 25 0;
#X connect 26 1 27 0;
#X connect 28 0 21 0;
#X connect 28 1 22 0;
#X connect 28 1 26 0;
#X connect 29 0 8 0;
#X connect 29 1 9 0;
#X connect 29 2 10 0;
#X connect 29 3 15 0;
#X restore 63 2 pd timing;
#X msg 313 357 peek;
#X obj 304 378 s peek;
#X obj 308 333 r play;
#N canvas 550 534 450 300 play 0;
#X obj 164 71 inlet;
#X obj 241 141 s eq;
#X msg 241 119 0;
#X msg 148 119 1;
#X obj 148 141 s play;
#X obj 198 141 s pre;
#X obj 164 93 t b b b;
#X msg 198 119 26;
#X connect 0 0 6 0;
#X connect 2 0 1 0;
#X connect 3 0 4 0;
#X connect 6 0 3 0;
#X connect 6 1 7 0;
#X connect 6 2 2 0;
#X connect 7 0 5 0;
#X restore 139 35 pd play;
#X msg 102 85 \; met 20 \; ramp 10 \; view 37.73 \;;
#X obj 114 65 ii;
#X connect 0 0 47 0;
#X connect 2 0 25 0;
#X connect 3 0 29 0;
#X connect 3 0 4 0;
#X connect 3 0 30 1;
#X connect 4 0 12 0;
#X connect 4 0 13 0;
#X connect 4 0 19 0;
#X connect 4 0 22 0;
#X connect 4 1 9 0;
#X connect 4 1 11 0;
#X connect 4 1 18 0;
#X connect 6 0 10 0;
#X connect 7 0 2 0;
#X connect 8 0 10 1;
#X connect 9 0 16 0;
#X connect 10 0 5 0;
#X connect 11 0 17 0;
#X connect 12 0 16 0;
#X connect 13 0 17 0;
#X connect 14 0 12 1;
#X connect 15 0 13 1;
#X connect 18 0 21 0;
#X connect 19 0 21 0;
#X connect 20 0 19 1;
#X connect 22 0 24 0;
#X connect 23 0 24 0;
#X connect 25 0 26 0;
#X connect 28 0 49 0;
#X connect 29 0 28 1;
#X connect 30 0 4 0;
#X connect 31 0 5 0;
#X connect 33 0 28 0;
#X connect 34 0 35 0;
#X connect 37 0 36 0;
#X connect 38 0 46 0;
#X connect 40 0 41 0;
#X connect 44 0 25 1;
#X connect 46 0 39 0;
#X connect 47 0 52 0;
#X connect 49 0 23 0;
#X connect 49 1 30 0;
#X connect 50 0 3 0;
#X connect 51 0 52 0;
#X connect 52 0 43 0;
#X connect 52 1 43 1;
#X connect 54 0 59 0;
#X connect 56 0 57 0;
#X connect 61 0 60 0;
#X coords 0 411 1 410 85 60 0;
