#N canvas 452 360 295 319 10;
#N canvas 934 384 313 220 vals 0;
#X obj 207 188 outlet~;
#X obj 6 188 outlet~;
#X obj 93 188 outlet~;
#X obj 207 142 pad~;
#X obj 6 142 pad~;
#X obj 93 142 pad~;
#X obj 160 114 r met;
#X floatatom 267 68 5 0 0 0 - - -, f 5;
#X floatatom 57 65 5 0 0 0 - - -, f 5;
#X floatatom 145 69 5 0 0 0 - - -, f 5;
#X floatatom 214 112 5 0 0 0 - - -, f 5;
#X floatatom 9 112 5 0 0 0 - - -, f 5;
#X floatatom 104 112 5 0 0 0 - - -, f 5;
#X floatatom 18 65 5 0 0 0 - - -, f 5;
#X floatatom 104 69 5 0 0 0 - - -, f 5;
#X floatatom 228 68 5 0 0 0 - - -, f 5;
#X obj 93 22 r bt;
#X obj 6 90 grand 0 500;
#X obj 93 90 grand 10 1000;
#X obj 207 90 grand -500 500;
#X connect 3 0 0 0;
#X connect 4 0 1 0;
#X connect 5 0 2 0;
#X connect 6 0 4 1;
#X connect 6 0 5 1;
#X connect 6 0 3 1;
#X connect 7 0 19 3;
#X connect 8 0 17 3;
#X connect 9 0 18 3;
#X connect 13 0 17 2;
#X connect 14 0 18 2;
#X connect 15 0 19 2;
#X connect 16 0 17 0;
#X connect 16 0 18 0;
#X connect 16 0 19 0;
#X connect 17 0 4 0;
#X connect 17 0 11 0;
#X connect 18 0 5 0;
#X connect 18 0 12 0;
#X connect 19 0 3 0;
#X connect 19 0 10 0;
#X coords 0 220 1 219 85 60 0;
#X restore 98 121 pd vals;
#X obj 102 143 freqm~;
#X obj 67 79 metro;
#X obj 42 55 tgl 15 0 empty empty empty 17 7 0 10 -262144 -1 -1 0 1
;
#X floatatom 105 59 5 0 0 0 - - -, f 5;
#X obj 123 251 *~;
#X floatatom 214 243 5 0 0 0 - - -, f 5;
#X obj 115 276 dac~;
#X obj 111 79 s met;
#X obj 85 100 s bt;
#N canvas 999 678 231 213 vals 0;
#X obj 9 173 outlet~;
#X obj 115 173 outlet~;
#X obj 9 127 pad~;
#X obj 115 127 pad~;
#X obj 58 98 r met;
#X floatatom 69 56 5 0 0 0 - - -, f 5;
#X floatatom 167 54 5 0 0 0 - - -, f 5;
#X floatatom 16 97 5 0 0 0 - - -, f 5;
#X floatatom 128 99 5 0 0 0 - - -, f 5;
#X floatatom 127 54 5 0 0 0 - - -, f 5;
#X floatatom 30 56 5 0 0 0 - - -, f 5;
#X obj 36 18 r bt;
#X obj 9 75 grand 50 1500;
#X obj 115 75 grand -500 500;
#X connect 2 0 0 0;
#X connect 3 0 1 0;
#X connect 4 0 3 1;
#X connect 4 0 2 1;
#X connect 5 0 12 3;
#X connect 6 0 13 3;
#X connect 9 0 13 2;
#X connect 10 0 12 2;
#X connect 11 0 12 0;
#X connect 11 0 13 0;
#X connect 12 0 2 0;
#X connect 12 0 7 0;
#X connect 13 0 3 0;
#X connect 13 0 8 0;
#X coords 0 213 1 212 85 60 0;
#X restore 156 143 pd vals;
#N canvas 1091 661 161 204 fmblock 0;
#X obj 35 53 *~;
#X obj 35 75 +~;
#X obj 35 119 outlet~;
#X obj 35 9 inlet~;
#X obj 58 31 inlet~;
#X obj 65 53 inlet~;
#X obj 35 97 osc~;
#X connect 0 0 1 0;
#X connect 1 0 6 0;
#X connect 3 0 0 0;
#X connect 4 0 0 1;
#X connect 5 0 1 1;
#X connect 6 0 2 0;
#X coords 0 204 1 203 85 60 0;
#X restore 124 165 pd fmblock;
#X obj 123 207 *~;
#X obj 9 82 sel;
#X obj 181 34 tgl 15 0 empty empty empty 17 7 0 10 -262144 -1 -1 0
1;
#X obj 181 54 metro 10000;
#X obj 171 243 r vol;
#X obj 201 33 r play;
#X obj 181 98 * 1000;
#X floatatom 199 120 5 0 0 0 - - -, f 5;
#X obj 27 236 == 0;
#X obj 20 283 *~;
#X obj 9 212 ad~ 5 10000;
#X obj 227 8 r shft;
#X obj 172 120 del;
#X obj 103 187 pad~ 200;
#X obj 27 258 pad~ 200;
#X obj 27 171 s shft;
#X obj 27 106 b;
#X floatatom 76 170 5 0 0 0 - - -, f 5;
#X obj 181 76 grand 1 7;
#X obj 86 6 loadbang;
#X obj 105 37 650;
#X obj 214 262 * 0.01;
#X text 17 5 miwi;
#X obj 27 126 grand 1 5;
#X obj 27 148 * 5000;
#X obj 123 229 *~ 0.5;
#X connect 0 0 1 0;
#X connect 0 1 1 1;
#X connect 0 2 1 2;
#X connect 1 0 11 0;
#X connect 2 0 9 0;
#X connect 3 0 2 0;
#X connect 3 0 13 0;
#X connect 3 0 20 0;
#X connect 3 0 25 0;
#X connect 4 0 2 1;
#X connect 4 0 8 0;
#X connect 5 0 7 0;
#X connect 5 0 7 1;
#X connect 6 0 33 0;
#X connect 10 0 11 1;
#X connect 10 1 11 2;
#X connect 11 0 12 0;
#X connect 12 0 37 0;
#X connect 13 0 22 0;
#X connect 13 1 28 0;
#X connect 14 0 15 0;
#X connect 15 0 3 0;
#X connect 15 0 30 0;
#X connect 16 0 5 1;
#X connect 17 0 14 0;
#X connect 18 0 19 0;
#X connect 18 0 24 1;
#X connect 18 0 24 0;
#X connect 20 0 26 0;
#X connect 21 0 12 1;
#X connect 22 0 21 0;
#X connect 23 0 15 1;
#X connect 24 0 3 0;
#X connect 25 0 12 1;
#X connect 26 0 21 1;
#X connect 28 0 35 0;
#X connect 30 0 18 0;
#X connect 31 0 32 0;
#X connect 32 0 4 0;
#X connect 33 0 5 1;
#X connect 35 0 36 0;
#X connect 36 0 27 0;
#X connect 36 0 29 0;
#X connect 36 0 22 2;
#X connect 37 0 5 0;
#X coords 0 319 1 318 85 60 0;
