#N canvas 385 294 485 347 10;
#X obj 257 153 dac~;
#X obj 261 119 *~;
#X obj 343 145 * 0.01;
#X floatatom 345 126 5 0 0 0 - - -, f 5;
#N canvas 0 50 450 250 (subpatch) 0;
#X array view 500 float 1;
#A 0 0 0 0 0 0 0 0 0 0 0 0 0 0 0 0 0 0 0 0 0 0 0 0 0 0 0 0 0 0 0 0
0 0 0 0 0 0 0 0 0 0 0 0 0 0 0 0 0 0 0 0 0 0 0 0 0 0 0 0 0 0 0 0 0 0
0 0 0 0 0 0 0 0 0 0 0 0 0 0 0 0 0 0 0 0 0 0 0 0 0 0 0 0 0 0 0 0 0 0
0 0 0 0 0 0 0 0 0 0 0 0 0 0 0 0 0 0 0 0 0 0 0 0 0 0 0 0 0 0 0 0 0 0
0 0 0 0 0 0 0 0 0 0 0 0 0 0 0 0 0 0 0 0 0 0 0 0 0 0 0 0 0 0 0 0 0 0
0 0 0 0 0 0 0 0 0 0 0 0 0 0 0 0 0 0 0 0 0 0 0 0 0 0 0 0 0 0 0 0 0 0
0 0 0 0 0 0 0 0 0 0 0 0 0 0 0 0 0 0 0 0 0 0 0 0 0 0 0 0 0 0 0 0 0 0
0 0 0 0 0 0 0 0 0 0 0 0 0 0 0 0 0 0 0 0 0 0 0 0 0 0 0 0 0 0 0 0 0 0
0 0 0 0 0 0 0 0 0 0 0 0 0 0 0 0 0 0 0 0 0 0 0 0 0 0 0 0 0 0 0 0 0 0
0 0 0 0 0 0 0 0 0 0 0 0 0 0 0 0 0 0 0 0 0 0 0 0 0 0 0 0 0 0 0 0 0 0
0 0 0 0 0 0 0 0 0 0 0 0 0 0 0 0 0 0 0 0 0 0 0 0 0 0 0 0 0 0 0 0 0 0
0 0 0 0 0 0 0 0 0 0 0 0 0 0 0 0 0 0 0 0 0 0 0 0 0 0 0 0 0 0 0 0 0 0
0 0 0 0 0 0 0 0 0 0 0 0 0 0 0 0 0 0 0 0 0 0 0 0 0 0 0 0 0 0 0 0 0 0
0 0 0 0 0 0 0 0 0 0 0 0 0 0 0 0 0 0 0 0 0 0 0 0 0 0 0 0 0 0 0 0 0 0
0 0 0 0 0 0 0 0 0 0 0 0 0 0 0 0 0 0 0 0 0 0 0 0 0 0 0;
#X coords 0 1 499 -1 200 140 1;
#X restore 262 186 graph;
#X obj 347 106 tabwrite~ view;
#X floatatom 421 67 5 0 0 0 - - -, f 5;
#X obj 347 65 tgl 15 0 empty empty empty 17 7 0 10 -261234 -1 -1 0
1;
#X obj 261 65 *~;
#X obj 224 131 tgl 15 0 empty empty empty 17 7 0 10 -204786 -1 -1 0
1;
#X obj 96 173 s tog;
#X obj 50 23 tgl 15 0 empty empty empty 17 7 0 10 -203904 -1 -1 0 1
;
#X obj 347 84 metro 18.87;
#N canvas 660 105 340 219 pause 0;
#X msg 93 148 0, f 2;
#X obj 93 52 spigot;
#X obj 208 64 == 0;
#X obj 129 78 f;
#X obj 159 52 t f f;
#X obj 159 30 inlet;
#X obj 93 30 inlet;
#X obj 191 145 outlet;
#X obj 93 170 outlet;
#X obj 108 124 outlet;
#X obj 159 124 t;
#X msg 117 148 1, f 2;
#X obj 108 102 sel 0;
#X obj 159 102 sel 1;
#X obj 132 30 !;
#X connect 0 0 8 0;
#X connect 1 0 0 0;
#X connect 1 0 3 0;
#X connect 2 0 1 1;
#X connect 3 0 12 0;
#X connect 3 0 13 0;
#X connect 4 0 3 1;
#X connect 4 0 13 0;
#X connect 4 1 2 0;
#X connect 5 0 4 0;
#X connect 6 0 1 0;
#X connect 10 0 11 0;
#X connect 10 1 7 0;
#X connect 11 0 8 0;
#X connect 12 0 9 0;
#X connect 13 0 10 0;
#X coords 0 219 1 218 85 60 0;
#X restore 171 151 pd pause;
#X obj 18 88 s bt;
#X obj 303 21 r bt;
#X obj 61 215 -;
#X obj 171 128 r bt;
#X floatatom 217 65 5 0 0 0 - - -, f 5;
#X obj 61 239 spigot;
#X obj 126 195 t f f;
#X obj 286 21 bng 15 250 50 0 empty empty empty 17 7 0 10 -262130 -1
-1;
#X floatatom 109 25 5 0 0 0 - - -, f 5;
#X obj 112 75 s met;
#X obj 75 120 r met;
#X obj 50 67 t b b b;
#X obj 164 46 r pet;
#X obj 122 127 s atk;
#X obj 337 21 r atk;
#X obj 72 195 r atk;
#X obj 101 263 f;
#X obj 50 43 metro;
#X obj 40 153 grand;
#X obj 85 305 s dcy;
#X obj 378 21 r dcy;
#X text 214 115 START;
#X obj 148 263 3000;
#X floatatom 132 147 5 0 0 0 - - -, f 5;
#X floatatom 189 227 5 0 0 0 - - -, f 5;
#X obj 189 246 * 10;
#X text 14 7 PAUSE||PUNCH;
#X msg 291 65 1;
#X obj 282 43 ad~ 10 130;
#X floatatom 179 295 5 0 0 0 - - -, f 5;
#X floatatom 130 297 5 0 0 0 - - -, f 5;
#X obj 10 28 r tog;
#X obj 54 173 s pet;
#X obj 210 98 r play;
#X obj 347 165 r vol;
#X obj 261 98 *~ 0.6;
#X obj 308 129 pad~;
#N canvas 338 147 387 238 vals 1;
#X obj 230 209 outlet~;
#X obj 5 209 outlet~;
#X obj 115 209 outlet~;
#X obj 239 159 pad~;
#X obj 5 163 pad~;
#X obj 115 161 pad~;
#X floatatom 246 129 5 0 0 0 - - -, f 5;
#X obj 145 28 r bt;
#X floatatom 11 132 5 0 0 0 - - -, f 5;
#X obj 145 51 t;
#X obj 231 33 r met;
#X obj 168 128 b;
#X floatatom 63 86 5 0 0 0 - - -, f 5;
#X floatatom 182 85 5 0 0 0 - - -, f 5;
#X floatatom 301 88 5 0 0 0 - - -, f 5;
#X floatatom 55 119 5 0 0 0 - - -, f 5;
#X msg 55 138 k \$1;
#X floatatom 271 46 5 0 0 0 - - -, f 5;
#X msg 271 65 k \$1;
#X floatatom 101 34 5 0 0 0 - - -, f 5;
#X msg 101 53 k \$1;
#X msg 198 30 7;
#X obj 279 159 grand;
#X obj 157 161 grand;
#X obj 43 162 grand;
#X obj 2 84 rand 46;
#X obj 0 107 muse 0 4 7 9 10;
#X obj 239 85 rand 30;
#X obj 239 107 muse 20 3 6 9 10;
#X floatatom 204 174 5 0 0 0 - - -, f 5;
#X obj 199 131 / 1.5;
#X floatatom 129 129 5 0 0 0 - - -, f 5;
#X obj 119 84 rand 25;
#X obj 120 107 muse 72 4 7 9 10;
#X connect 3 0 0 0;
#X connect 4 0 1 0;
#X connect 5 0 2 0;
#X connect 7 0 9 0;
#X connect 9 0 25 0;
#X connect 9 0 27 0;
#X connect 9 0 32 0;
#X connect 9 1 11 0;
#X connect 10 0 30 0;
#X connect 11 0 22 0;
#X connect 11 0 23 0;
#X connect 11 0 24 0;
#X connect 12 0 25 1;
#X connect 13 0 32 1;
#X connect 14 0 27 1;
#X connect 15 0 16 0;
#X connect 16 0 26 0;
#X connect 17 0 18 0;
#X connect 18 0 28 0;
#X connect 19 0 20 0;
#X connect 20 0 33 0;
#X connect 21 0 12 0;
#X connect 21 0 13 0;
#X connect 21 0 14 0;
#X connect 22 0 3 1;
#X connect 23 0 5 1;
#X connect 24 0 4 1;
#X connect 25 0 26 0;
#X connect 25 0 8 0;
#X connect 26 0 4 0;
#X connect 27 0 28 0;
#X connect 27 0 6 0;
#X connect 28 0 3 0;
#X connect 30 0 24 2;
#X connect 30 0 23 2;
#X connect 30 0 22 2;
#X connect 30 0 29 0;
#X connect 32 0 31 0;
#X connect 32 0 33 0;
#X connect 33 0 5 0;
#X coords 0 238 1 237 85 60 0;
#X restore 176 -2 pd vals;
#X obj 181 20 freqm~;
#N canvas 746 141 311 248 vals 1;
#X obj 38 180 outlet~;
#X obj 161 184 outlet~;
#X obj 38 150 pad~;
#X obj 161 149 pad~;
#X obj 161 -19 r met;
#X obj 113 -5 r bt;
#X obj 113 17 t;
#X obj 124 114 b;
#X floatatom 202 19 5 0 0 0 - - -, f 5;
#X msg 202 41 k \$1;
#X floatatom 67 12 5 0 0 0 - - -, f 5;
#X msg 66 31 k \$1;
#X floatatom 100 65 5 0 0 0 - - -, f 5;
#X floatatom 227 67 5 0 0 0 - - -, f 5;
#X msg 74 -30 7;
#X floatatom 210 111 5 0 0 0 - - -, f 5;
#X obj 72 150 grand;
#X obj 197 149 grand;
#X obj 154 116 / 1.5;
#X floatatom 67 115 5 0 0 0 - - -, f 5;
#X obj 38 65 rand 19;
#X obj 167 87 muse -4 2 4 6 8;
#X obj 167 65 rand 20;
#X obj 38 87 muse 50 4 5 6 9;
#X connect 2 0 0 0;
#X connect 3 0 1 0;
#X connect 4 0 18 0;
#X connect 5 0 6 0;
#X connect 6 0 20 0;
#X connect 6 0 22 0;
#X connect 6 1 7 0;
#X connect 7 0 16 0;
#X connect 7 0 17 0;
#X connect 8 0 9 0;
#X connect 9 0 21 0;
#X connect 10 0 11 0;
#X connect 11 0 23 0;
#X connect 12 0 20 1;
#X connect 13 0 22 1;
#X connect 14 0 10 0;
#X connect 14 0 8 0;
#X connect 16 0 2 1;
#X connect 17 0 3 1;
#X connect 18 0 16 2;
#X connect 18 0 17 2;
#X connect 20 0 19 0;
#X connect 20 0 23 0;
#X connect 21 0 3 0;
#X connect 22 0 15 0;
#X connect 22 0 21 0;
#X connect 23 0 2 0;
#X coords 0 248 1 247 85 60 0;
#X restore 230 20 pd vals;
#X obj 122 105 grand 1 1;
#X text 17 297 miwi;
#N canvas 159 139 450 300 info 0;
#X text 165 105 artist : miwi;
#X text 172 119 title : ModStep;
#X text 165 133 l!ength : 179700;
#X text 165 148 length : 0;
#X restore 19 278 pd info;
#X text 363 65 VIEW;
#X obj 109 43 * 10;
#X floatatom 18 226 5 0 0 0 - - -, f 5;
#X obj 139 163 b;
#X floatatom 97 217 5 0 0 0 - - -, f 5;
#X floatatom 11 173 5 0 0 0 - - -, f 5;
#X obj 82 151 * 1.05;
#X obj 184 79 / 25;
#X floatatom 153 67 5 0 0 0 - - -, f 5;
#X obj 211 178 bng 15 250 50 0 empty empty empty 17 7 0 10 -262144
-1 -1;
#X obj 211 200 s play;
#X obj 109 4 ii 400;
#X obj 206 43 fmbloc~;
#X connect 1 0 0 0;
#X connect 1 0 0 1;
#X connect 2 0 50 0;
#X connect 3 0 2 0;
#X connect 6 0 12 1;
#X connect 7 0 12 0;
#X connect 8 0 5 0;
#X connect 8 0 49 0;
#X connect 9 0 13 1;
#X connect 11 0 31 0;
#X connect 12 0 5 0;
#X connect 13 0 20 0;
#X connect 13 1 36 0;
#X connect 13 2 30 0;
#X connect 15 0 42 0;
#X connect 16 0 19 0;
#X connect 16 0 59 0;
#X connect 17 0 13 0;
#X connect 18 0 64 1;
#X connect 19 0 30 0;
#X connect 20 0 10 0;
#X connect 20 1 19 1;
#X connect 21 0 42 0;
#X connect 22 0 58 0;
#X connect 24 0 32 2;
#X connect 24 0 63 0;
#X connect 25 0 14 0;
#X connect 25 1 32 0;
#X connect 25 2 54 0;
#X connect 26 0 64 0;
#X connect 28 0 42 1;
#X connect 29 0 16 1;
#X connect 29 0 61 0;
#X connect 30 0 33 0;
#X connect 30 0 44 0;
#X connect 31 0 25 0;
#X connect 32 0 16 0;
#X connect 32 0 46 0;
#X connect 32 0 62 0;
#X connect 34 0 42 2;
#X connect 36 0 33 0;
#X connect 36 0 43 0;
#X connect 37 0 60 0;
#X connect 37 0 63 1;
#X connect 38 0 39 0;
#X connect 39 0 36 1;
#X connect 39 0 42 2;
#X connect 41 0 8 1;
#X connect 42 0 8 1;
#X connect 45 0 11 0;
#X connect 47 0 9 0;
#X connect 48 0 50 0;
#X connect 49 0 1 0;
#X connect 50 0 1 1;
#X connect 51 0 52 0;
#X connect 51 1 52 1;
#X connect 51 2 52 2;
#X connect 52 0 69 0;
#X connect 53 0 69 1;
#X connect 53 1 69 2;
#X connect 54 0 27 0;
#X connect 58 0 31 1;
#X connect 58 0 23 0;
#X connect 60 0 63 0;
#X connect 63 0 32 3;
#X connect 64 0 54 3;
#X connect 64 0 65 0;
#X connect 66 0 67 0;
#X connect 68 0 22 0;
#X connect 69 0 8 0;
#X coords 0 -1 1 1 85 60 1 0 0;
