#N canvas 234 153 501 406 12;
#X floatatom 151 172 5 0 0 0 - - -;
#X obj 238 190 *~;
#X obj 114 225 +~;
#X obj 113 279 cos~;
#X text 114 68 Carrier;
#X text 17 118 Carrier;
#X text 17 138 Phase;
#X text 16 231 Modulation;
#X text 30 25 3.6.3.1. Phase modulation;
#X text 114 88 Frequency;
#X text 215 95 Frequency;
#X text 213 76 Modulation;
#X text 18 212 Phase;
#X text 19 283 waveform;
#X text 295 354 www.pd-tutorial.com;
#X text 301 339 Johannes Kreidler;
#X floatatom 213 324 5 0 0 0 - - -;
#X obj 175 332 *~;
#X obj 160 256 r vol;
#X obj 152 279 * 0.33;
#X obj 114 140 phasor~;
#X obj 238 142 osc~;
#X obj 175 370 outlet~;
#X obj 54 369 dac~;
#X obj 68 331 *~;
#N canvas 506 420 304 303 modindex 0;
#X obj 17 107 tgl 15 0 empty empty empty 17 7 0 10 -262144 -1 -1 1
1;
#X floatatom 22 200 5 0 0 0 - - -;
#X obj 113 161 rind;
#X obj 127 40 r pre;
#X floatatom 187 194 5 0 0 0 - - -;
#X obj 36 151 t;
#X floatatom 85 221 5 0 0 0 - - -;
#X obj 136 192 r eq2;
#X obj 136 217 graid 12 0.5 63;
#X floatatom 174 43 5 0 0 0 - - -;
#X floatatom 154 159 5 0 0 0 - - -;
#X floatatom 142 241 5 0 0 0 - - -;
#X obj 145 134 * 6;
#X obj 127 68 graid 50 2000 63;
#X obj 36 248 outlet~;
#X obj 145 93 ii 1000;
#X obj 17 65 r play;
#X obj 17 127 metro;
#X obj 65 104 ii 8000;
#X obj 36 223 pad~;
#X floatatom 88 135 5 0 0 0 - - -;
#X obj 23 175 rind 2.5 7;
#X connect 0 0 17 0;
#X connect 2 0 6 0;
#X connect 2 0 17 1;
#X connect 2 0 19 1;
#X connect 3 0 13 0;
#X connect 4 0 8 0;
#X connect 5 0 21 0;
#X connect 5 1 2 0;
#X connect 7 0 8 0;
#X connect 8 0 11 0;
#X connect 8 0 21 2;
#X connect 9 0 13 0;
#X connect 12 0 2 2;
#X connect 12 0 10 0;
#X connect 13 0 2 1;
#X connect 13 0 12 0;
#X connect 15 0 2 1;
#X connect 15 0 12 0;
#X connect 16 0 0 0;
#X connect 17 0 5 0;
#X connect 18 0 17 1;
#X connect 18 0 19 1;
#X connect 19 0 14 0;
#X connect 20 0 21 1;
#X connect 21 0 1 0;
#X connect 21 0 19 0;
#X restore 276 142 pd modindex;
#X text 274 120 Modulation Index;
#N canvas 589 652 288 300 carrier 0;
#X obj 33 99 tgl 15 0 empty empty empty 17 7 0 10 -262144 -1 -1 1 1
;
#X obj 33 119 metro 8000;
#X obj 33 227 pad~ 8000;
#X obj 113 139 rind;
#X obj 33 144 t;
#X floatatom 166 164 5 0 0 0 - - -;
#X floatatom 158 138 5 0 0 0 - - -;
#X obj 130 108 * 6;
#X obj 33 252 outlet~;
#X obj 162 112 ii 1000;
#X obj 33 198 +;
#X floatatom 65 198 5 0 0 0 - - -;
#X floatatom 162 60 5 0 0 0 - - -;
#X obj 115 84 graid 50 2000 63;
#X obj 115 57 r eq3;
#X floatatom 221 188 5 0 0 0 - - -;
#X floatatom 183 233 5 0 0 0 - - -;
#X obj 143 233 * -1;
#X obj 114 18 r rt;
#X floatatom 97 256 7 0 0 0 - - -;
#X obj 164 185 r eq0;
#X obj 33 73 r play;
#X obj 10 22 loadbang;
#X msg 10 47 39.97 0;
#X obj 161 209 graid 4 0.2 63;
#X obj 33 173 rind -0.2 0.2;
#X floatatom 69 98 5 0 0 0 - - -;
#X floatatom 166 32 5 0 0 0 - - -;
#X obj 82 43 * 1;
#X obj 67 143 t b f;
#X msg 116 202 5;
#X connect 0 0 1 0;
#X connect 1 0 4 0;
#X connect 2 0 8 0;
#X connect 3 0 2 1;
#X connect 3 0 1 1;
#X connect 3 0 5 0;
#X connect 4 0 25 0;
#X connect 4 1 3 0;
#X connect 7 0 3 2;
#X connect 7 0 6 0;
#X connect 9 0 3 1;
#X connect 9 0 7 0;
#X connect 10 0 2 0;
#X connect 10 0 11 0;
#X connect 10 0 19 0;
#X connect 12 0 13 0;
#X connect 13 0 3 1;
#X connect 13 0 7 0;
#X connect 14 0 13 0;
#X connect 15 0 24 0;
#X connect 17 0 25 1;
#X connect 18 0 28 0;
#X connect 20 0 24 0;
#X connect 21 0 0 0;
#X connect 22 0 23 0;
#X connect 23 0 2 0;
#X connect 24 0 16 0;
#X connect 24 0 17 0;
#X connect 24 0 25 2;
#X connect 25 0 10 0;
#X connect 27 0 28 1;
#X connect 28 0 26 0;
#X connect 28 0 29 0;
#X connect 29 0 10 0;
#X connect 29 1 30 0;
#X connect 29 1 10 1;
#X connect 30 0 2 1;
#X restore 114 113 pd carrier;
#X obj 343 257 s rt;
#X obj 217 281 s rt;
#X obj 193 142 r rt;
#X floatatom 259 264 5 0 0 0 - - -;
#X obj 217 255 r eq1;
#X obj 58 58 bng 15 250 50 0 empty empty empty 17 7 0 10 -262144 -1
-1;
#X obj 58 78 s play;
#X floatatom 343 233 5 0 0 0 - - -;
#X text 381 257 root;
#X obj 276 204 loadbang;
#X msg 294 232 39.97;
#X obj 199 172 pad~;
#X msg 403 228 49.92;
#X msg 421 250 46.15;
#X floatatom 107 326 5 0 0 0 - - -;
#X obj 107 348 / 1000;
#X obj 213 346 / 1000;
#X obj 394 116 bng 15 250 50 0 empty empty empty 17 7 0 10 -262144
-1 -1;
#X floatatom 345 202 5 0 0 0 - - -;
#X floatatom 447 154 5 0 0 0 - - -;
#X obj 394 74 tgl 15 0 empty empty empty 17 7 0 10 -262144 -1 -1 1
1;
#X obj 394 93 metro 100;
#X floatatom 390 202 5 0 0 0 - - -;
#X msg 292 162 oct 12;
#X obj 394 134 rand 14;
#X obj 345 176 muse 30 2 4 7 11;
#X connect 0 0 39 0;
#X connect 1 0 2 1;
#X connect 2 0 3 0;
#X connect 3 0 24 0;
#X connect 3 0 17 0;
#X connect 16 0 44 0;
#X connect 17 0 22 0;
#X connect 18 0 19 0;
#X connect 19 0 24 1;
#X connect 20 0 2 0;
#X connect 21 0 1 0;
#X connect 24 0 23 0;
#X connect 24 0 23 1;
#X connect 25 0 1 1;
#X connect 27 0 20 0;
#X connect 30 0 0 0;
#X connect 32 0 29 0;
#X connect 33 0 34 0;
#X connect 35 0 28 0;
#X connect 37 0 38 0;
#X connect 38 0 35 0;
#X connect 39 0 21 0;
#X connect 40 0 35 0;
#X connect 41 0 35 0;
#X connect 42 0 43 0;
#X connect 43 0 24 1;
#X connect 44 0 17 1;
#X connect 45 0 52 0;
#X connect 48 0 49 0;
#X connect 49 0 45 0;
#X connect 50 0 53 1;
#X connect 51 0 53 0;
#X connect 52 0 47 0;
#X connect 52 0 53 0;
#X connect 53 0 28 0;
#X connect 53 0 46 0;
#X coords 0 406 1 405 85 60 0;
