#N canvas 699 534 450 300 10;
#X text 246 27 artist : miwi;
#X text 253 41 title : pos test;
#X obj 173 64 r met;
#X obj 141 42 r play;
#X obj 87 97 noise~;
#X obj 105 143 *~;
#X obj 93 203 dac~;
#X obj 237 136 bng 15 250 50 0 empty empty empty 17 7 0 10 -262144
-1 -1;
#X obj 237 156 s play;
#N canvas 1002 237 450 300 pos 1;
#X obj 190 37 r pos;
#X obj 190 81 s met;
#X obj 93 125 s pos;
#X floatatom 93 84 5 0 0 0 - - -, f 5;
#X floatatom 48 127 5 0 0 0 - - -, f 5;
#X floatatom 152 84 5 0 0 0 - - -, f 5;
#X obj 93 103 * 0.01;
#X obj 190 59 graid 1 1000 10;
#X connect 0 0 7 0;
#X connect 3 0 6 0;
#X connect 6 0 2 0;
#X connect 6 0 4 0;
#X connect 7 0 5 0;
#X connect 7 0 1 0;
#X restore 301 101 pd pos;
#X obj 141 86 metro 1000;
#X text 246 55 length : 60000;
#X obj 105 165 *~;
#X floatatom 154 171 5 0 0 0 - - -, f 5;
#X obj 146 142 r vol;
#X obj 141 108 ad~ 2 50;
#X obj 87 119 bp~;
#X floatatom 50 49 5 0 0 0 - - -, f 5;
#X floatatom 93 36 5 0 0 0 - - -, f 5;
#X obj 50 70 * 10;
#X obj 41 24 ii 45;
#X obj 95 17 ii 10;
#X obj 154 190 * 0.01;
#X connect 2 0 10 1;
#X connect 3 0 10 0;
#X connect 4 0 16 0;
#X connect 5 0 12 0;
#X connect 7 0 8 0;
#X connect 10 0 15 0;
#X connect 12 0 6 1;
#X connect 12 0 6 0;
#X connect 13 0 22 0;
#X connect 14 0 12 1;
#X connect 15 0 5 1;
#X connect 16 0 5 0;
#X connect 17 0 19 0;
#X connect 18 0 16 2;
#X connect 19 0 16 1;
#X connect 20 0 17 0;
#X connect 21 0 18 0;
#X connect 22 0 12 1;
