#N canvas 1053 220 359 311 10;
#X floatatom 39 111 5 0 0 0 - - -, f 5;
#N canvas 552 672 450 300 divider 0;
#X obj 124 118 random;
#X obj 161 79 2;
#X obj 93 211 *;
#X obj 80 79 inlet;
#X obj 80 118 random;
#X floatatom 129 189 5 0 0 0 - - -, f 5;
#X floatatom 95 189 5 0 0 0 - - -, f 5;
#X floatatom 120 211 5 0 0 0 - - -, f 5;
#X obj 95 244 outlet;
#X obj 107 21 loadbang;
#X obj 204 32 bng 15 250 50 0 empty empty empty 17 7 0 10 -262144 -1
-1;
#X floatatom 242 48 5 0 0 0 - - -, f 5;
#X floatatom 67 45 5 0 0 0 - - -, f 5;
#X obj 316 69 random 100;
#X obj 124 166 +;
#X obj 250 69 random 100;
#X obj 250 115 + 1;
#X obj 80 166 +;
#X floatatom 250 144 5 0 0 0 - - -, f 5;
#X obj 303 45 r downBeat;
#X floatatom 187 205 5 0 0 0 - - -, f 5;
#X obj 117 79 3;
#X obj 250 91 / 500;
#X obj 316 91 / 500;
#X obj 316 115 -;
#X msg 288 115 1;
#X floatatom 311 152 5 0 0 0 - - -, f 5;
#X obj 168 118 1;
#X obj 199 91 bng 15 250 50 0 empty empty empty 17 7 0 10 -262144 -1
-1;
#X connect 0 0 14 0;
#X connect 1 0 0 1;
#X connect 2 0 7 0;
#X connect 2 0 8 0;
#X connect 3 0 0 0;
#X connect 3 0 4 0;
#X connect 4 0 17 0;
#X connect 9 0 1 0;
#X connect 9 0 21 0;
#X connect 9 0 27 0;
#X connect 10 0 1 0;
#X connect 10 0 21 0;
#X connect 11 0 1 0;
#X connect 12 0 21 0;
#X connect 13 0 23 0;
#X connect 14 0 5 0;
#X connect 14 0 2 1;
#X connect 15 0 22 0;
#X connect 16 0 18 0;
#X connect 17 0 6 0;
#X connect 17 0 2 0;
#X connect 19 0 13 0;
#X connect 19 0 15 0;
#X connect 20 0 14 1;
#X connect 21 0 4 1;
#X connect 22 0 16 0;
#X connect 23 0 24 1;
#X connect 23 0 25 0;
#X connect 24 0 26 0;
#X connect 25 0 24 0;
#X connect 27 0 14 1;
#X connect 27 0 17 1;
#X connect 28 0 27 0;
#X restore 222 66 pd divider;
#N canvas 555 559 450 300 bells 0;
#X obj 176 81 osc~;
#X obj 149 168 dac~;
#X obj 175 136 *~;
#X obj 176 56 mtof;
#X obj 145 81 osc~;
#X obj 176 108 *~;
#X obj 145 56 mtof;
#X obj 145 136 *~;
#X obj 145 108 *~;
#X obj 30 79 bng 15 250 50 0 empty empty empty 17 7 0 10 -262144 -1
-1;
#X obj 58 110 bng 15 250 50 0 empty empty empty 17 7 0 10 -262144 -1
-1;
#N canvas 408 645 450 300 ring 0;
#X obj 39 80 vline~;
#X msg 39 54 1 100 0 \, 0 1000 100;
#X obj 39 29 inlet;
#X obj 39 107 outlet~;
#X connect 0 0 3 0;
#X connect 1 0 0 0;
#X connect 2 0 1 0;
#X restore 96 108 pd ring;
#N canvas 697 601 450 300 ring 0;
#X obj 39 80 vline~;
#X obj 39 29 inlet;
#X obj 39 107 outlet~;
#X msg 39 53 1 100 0 \, 0 1000 100;
#X connect 0 0 2 0;
#X connect 1 0 3 0;
#X connect 3 0 0 0;
#X restore 96 136 pd ring;
#X obj 145 27 38;
#X obj 176 27 53;
#X obj 108 22 inlet;
#X obj 88 75 inlet;
#X obj 244 110 inlet;
#X obj 232 45 loadbang;
#X obj 232 65 bng 15 250 50 0 empty empty empty 17 7 0 10 -262144 -1
-1;
#X obj 30 44 select 0 4;
#X connect 0 0 5 0;
#X connect 2 0 1 0;
#X connect 2 0 1 1;
#X connect 3 0 0 0;
#X connect 4 0 8 0;
#X connect 5 0 2 0;
#X connect 6 0 4 0;
#X connect 7 0 1 1;
#X connect 7 0 1 0;
#X connect 8 0 7 0;
#X connect 9 0 11 0;
#X connect 10 0 12 0;
#X connect 11 0 8 1;
#X connect 12 0 5 1;
#X connect 13 0 6 0;
#X connect 14 0 3 0;
#X connect 15 0 20 0;
#X connect 16 0 7 1;
#X connect 17 0 2 1;
#X connect 18 0 19 0;
#X connect 19 0 13 0;
#X connect 19 0 14 0;
#X connect 20 0 9 0;
#X connect 20 0 11 0;
#X connect 20 1 10 0;
#X connect 20 1 12 0;
#X restore 28 132 pd bells;
#X obj 11 131 vsl 15 128 0.01 1 0 0 empty empty empty 0 -9 0 10 -262144
-1 -1 0 1;
#X obj 82 131 vsl 15 128 0 1 0 0 empty empty empty 0 -9 0 10 -262144
-1 -1 0 1;
#X obj 207 117 /;
#X obj 207 96 bng 15 250 50 0 empty empty empty 17 7 0 10 -262144 -1
-1;
#X floatatom 313 92 5 0 0 0 - - -, f 5;
#X obj 124 121 bng 15 250 50 0 empty empty empty 17 7 0 10 -262144
-1 -1;
#X obj 124 99 tgl 15 0 empty start empty 17 7 0 10 -262144 -1 -1 1
1;
#N canvas 730 458 723 386 drones 0;
#X floatatom 61 12 5 0 0 0 - - -, f 5;
#X obj 323 326 dac~;
#X obj 322 302 *~;
#X obj 363 327 hsl 128 15 0 1.25 0 0 empty empty empty -2 -8 0 10 -262144
-1 -1 5080 1;
#X obj 363 291 loadbang;
#X obj 363 309 0.5;
#X floatatom 360 343 5 0 0 0 - - -, f 5;
#X obj 559 337 s shiftSpd;
#N canvas 214 499 286 184 drone 0;
#X obj 7 45 osc~;
#X obj 7 24 mtof;
#X obj 20 75 *~;
#N canvas 804 628 450 300 shift 0;
#X obj 57 46 random 100;
#X obj 57 68 / 2000;
#X obj 57 25 inlet;
#X obj 57 135 line~;
#X obj 57 158 outlet~;
#X obj 107 135 line;
#X obj 107 158 outlet;
#X obj 131 98 0.03937;
#X obj 131 74 loadbang;
#X obj 57 90 pack;
#X obj 133 45 r shiftSpd;
#X msg 57 114 \$1 \$2;
#X connect 0 0 1 0;
#X connect 1 0 9 0;
#X connect 2 0 0 0;
#X connect 3 0 4 0;
#X connect 5 0 6 0;
#X connect 7 0 4 0;
#X connect 8 0 7 0;
#X connect 9 0 11 0;
#X connect 10 0 9 1;
#X connect 11 0 3 0;
#X connect 11 0 5 0;
#X restore 48 45 pd shift;
#X obj 93 96 outlet;
#X obj 7 4 inlet;
#X obj 20 96 outlet~;
#X obj 48 4 inlet;
#X connect 0 0 2 0;
#X connect 1 0 0 0;
#X connect 2 0 6 0;
#X connect 3 0 2 1;
#X connect 3 1 4 0;
#X connect 5 0 1 0;
#X connect 7 0 3 0;
#X coords 0 184 1 183 85 60 0;
#X restore 16 172 pd drone;
#X floatatom 559 318 5 0 0 0 - - -, f 5;
#N canvas 630 482 286 184 drone 0;
#X obj 7 45 osc~;
#X obj 7 24 mtof;
#X obj 20 75 *~;
#N canvas 879 339 450 300 shift 0;
#X obj 57 46 random 100;
#X obj 57 25 inlet;
#X obj 57 135 line~;
#X obj 57 158 outlet~;
#X obj 107 135 line;
#X obj 107 158 outlet;
#X obj 131 74 loadbang;
#X obj 57 90 pack;
#X obj 133 45 r shiftSpd;
#X msg 57 114 \$1 \$2;
#X obj 57 68 / 666.66;
#X obj 131 98 0.116929;
#X connect 0 0 10 0;
#X connect 1 0 0 0;
#X connect 2 0 3 0;
#X connect 4 0 5 0;
#X connect 6 0 11 0;
#X connect 7 0 9 0;
#X connect 8 0 7 1;
#X connect 9 0 2 0;
#X connect 9 0 4 0;
#X connect 10 0 7 0;
#X connect 11 0 3 0;
#X restore 48 45 pd shift;
#X obj 93 96 outlet;
#X obj 7 4 inlet;
#X obj 20 96 outlet~;
#X obj 48 4 inlet;
#X connect 0 0 2 0;
#X connect 1 0 0 0;
#X connect 2 0 6 0;
#X connect 3 0 2 1;
#X connect 3 1 4 0;
#X connect 5 0 1 0;
#X connect 7 0 3 0;
#X coords 0 184 1 183 85 60 0;
#X restore 72 172 pd drone;
#X floatatom 117 12 5 0 0 0 - - -, f 5;
#X obj 98 39 vsl 15 128 0 0.15 0 0 empty empty empty 0 -9 0 10 -262144
-1 -1 8255 1;
#X obj 42 39 vsl 15 128 0 0.05 0 0 empty empty empty 0 -9 0 10 -262144
-1 -1 9017 1;
#X obj 507 337 s init;
#X obj 534 273 loadbang;
#X floatatom 173 12 5 0 0 0 - - -, f 5;
#N canvas 630 482 286 184 drone 0;
#X obj 7 45 osc~;
#X obj 7 24 mtof;
#X obj 20 75 *~;
#N canvas 724 329 450 300 shift 0;
#X obj 57 46 random 100;
#X obj 57 25 inlet;
#X obj 57 135 line~;
#X obj 57 158 outlet~;
#X obj 107 135 line;
#X obj 107 158 outlet;
#X obj 131 74 loadbang;
#X obj 57 90 pack;
#X obj 133 45 r shiftSpd;
#X msg 57 114 \$1 \$2;
#X obj 57 68 / 500;
#X obj 131 98 0.171654;
#X connect 0 0 10 0;
#X connect 1 0 0 0;
#X connect 2 0 3 0;
#X connect 4 0 5 0;
#X connect 6 0 11 0;
#X connect 7 0 9 0;
#X connect 8 0 7 1;
#X connect 9 0 2 0;
#X connect 9 0 4 0;
#X connect 10 0 7 0;
#X connect 11 0 3 0;
#X restore 48 45 pd shift;
#X obj 93 96 outlet;
#X obj 7 4 inlet;
#X obj 20 96 outlet~;
#X obj 48 4 inlet;
#X connect 0 0 2 0;
#X connect 1 0 0 0;
#X connect 2 0 6 0;
#X connect 3 0 2 1;
#X connect 3 1 4 0;
#X connect 5 0 1 0;
#X connect 7 0 3 0;
#X coords 0 184 1 183 85 60 0;
#X restore 128 172 pd drone;
#N canvas 546 486 286 184 drone 0;
#X obj 7 45 osc~;
#X obj 7 24 mtof;
#X obj 20 75 *~;
#N canvas 879 339 450 300 shift 0;
#X obj 57 46 random 100;
#X obj 57 25 inlet;
#X obj 57 135 line~;
#X obj 57 158 outlet~;
#X obj 107 135 line;
#X obj 107 158 outlet;
#X obj 131 74 loadbang;
#X obj 57 90 pack;
#X obj 133 45 r shiftSpd;
#X msg 57 114 \$1 \$2;
#X obj 57 68 / 666.66;
#X obj 131 98 0.03367;
#X connect 0 0 10 0;
#X connect 1 0 0 0;
#X connect 2 0 3 0;
#X connect 4 0 5 0;
#X connect 6 0 11 0;
#X connect 7 0 9 0;
#X connect 8 0 7 1;
#X connect 9 0 2 0;
#X connect 9 0 4 0;
#X connect 10 0 7 0;
#X connect 11 0 3 0;
#X restore 48 45 pd shift;
#X obj 93 96 outlet;
#X obj 7 4 inlet;
#X obj 20 96 outlet~;
#X obj 48 4 inlet;
#X connect 0 0 2 0;
#X connect 1 0 0 0;
#X connect 2 0 6 0;
#X connect 3 0 2 1;
#X connect 3 1 4 0;
#X connect 5 0 1 0;
#X connect 7 0 3 0;
#X coords 0 184 1 183 85 60 0;
#X restore 184 172 pd drone;
#X floatatom 229 12 5 0 0 0 - - -, f 5;
#X obj 210 39 vsl 15 128 0 0.15 0 0 empty empty empty 0 -9 0 10 -262144
-1 -1 10795 1;
#X obj 154 39 vsl 15 128 0 0.2 0 0 empty empty empty 0 -9 0 10 -262144
-1 -1 3937 1;
#X obj 16 152 + 0;
#X obj 72 152 + 7;
#X obj 507 297 50;
#X obj 128 152 + 9;
#X obj 184 152 + 10;
#X floatatom 507 318 5 0 0 0 - - -, f 5;
#X floatatom 285 12 5 0 0 0 - - -, f 5;
#N canvas 630 482 286 184 drone 0;
#X obj 7 45 osc~;
#X obj 7 24 mtof;
#X obj 20 75 *~;
#N canvas 635 507 450 300 shift 0;
#X obj 57 46 random 100;
#X obj 57 25 inlet;
#X obj 57 135 line~;
#X obj 57 158 outlet~;
#X obj 107 135 line;
#X obj 107 158 outlet;
#X obj 131 74 loadbang;
#X obj 57 90 pack;
#X obj 133 45 r shiftSpd;
#X msg 57 114 \$1 \$2;
#X obj 57 68 / 1000;
#X obj 131 98 0.062992;
#X connect 0 0 10 0;
#X connect 1 0 0 0;
#X connect 2 0 3 0;
#X connect 4 0 5 0;
#X connect 6 0 11 0;
#X connect 7 0 9 0;
#X connect 8 0 7 1;
#X connect 9 0 2 0;
#X connect 9 0 4 0;
#X connect 10 0 7 0;
#X connect 11 0 3 0;
#X restore 48 45 pd shift;
#X obj 93 96 outlet;
#X obj 7 4 inlet;
#X obj 20 96 outlet~;
#X obj 48 4 inlet;
#X connect 0 0 2 0;
#X connect 1 0 0 0;
#X connect 2 0 6 0;
#X connect 3 0 2 1;
#X connect 3 1 4 0;
#X connect 5 0 1 0;
#X connect 7 0 3 0;
#X coords 0 184 1 183 85 60 0;
#X restore 240 172 pd drone;
#N canvas 473 703 286 184 drone 0;
#X obj 7 45 osc~;
#X obj 7 24 mtof;
#X obj 20 75 *~;
#N canvas 879 339 450 300 shift 0;
#X obj 57 46 random 100;
#X obj 57 25 inlet;
#X obj 57 135 line~;
#X obj 57 158 outlet~;
#X obj 107 135 line;
#X obj 107 158 outlet;
#X obj 131 74 loadbang;
#X obj 57 90 pack;
#X obj 133 45 r shiftSpd;
#X msg 57 114 \$1 \$2;
#X obj 57 68 / 2000;
#X obj 131 98 0.033858;
#X connect 0 0 10 0;
#X connect 1 0 0 0;
#X connect 2 0 3 0;
#X connect 4 0 5 0;
#X connect 6 0 11 0;
#X connect 7 0 9 0;
#X connect 8 0 7 1;
#X connect 9 0 2 0;
#X connect 9 0 4 0;
#X connect 10 0 7 0;
#X connect 11 0 3 0;
#X restore 48 45 pd shift;
#X obj 93 96 outlet;
#X obj 7 4 inlet;
#X obj 20 96 outlet~;
#X obj 48 4 inlet;
#X connect 0 0 2 0;
#X connect 1 0 0 0;
#X connect 2 0 6 0;
#X connect 3 0 2 1;
#X connect 3 1 4 0;
#X connect 5 0 1 0;
#X connect 7 0 3 0;
#X coords 0 184 1 183 85 60 0;
#X restore 296 172 pd drone;
#X floatatom 341 12 5 0 0 0 - - -, f 5;
#X obj 322 39 vsl 15 128 0 0.05 0 0 empty empty empty 0 -9 0 10 -262144
-1 -1 10414 1;
#X obj 266 39 vsl 15 128 0 0.1 0 0 empty empty empty 0 -9 0 10 -262144
-1 -1 7366 1;
#X floatatom 397 12 5 0 0 0 - - -, f 5;
#N canvas 630 482 286 184 drone 0;
#X obj 7 45 osc~;
#X obj 7 24 mtof;
#X obj 20 75 *~;
#N canvas 736 491 450 300 shift 0;
#X obj 57 46 random 100;
#X obj 57 25 inlet;
#X obj 57 135 line~;
#X obj 57 158 outlet~;
#X obj 107 135 line;
#X obj 107 158 outlet;
#X obj 131 74 loadbang;
#X obj 57 90 pack;
#X obj 133 45 r shiftSpd;
#X msg 57 114 \$1 \$2;
#X obj 57 68 / 4000;
#X obj 131 98 0.015551;
#X connect 0 0 10 0;
#X connect 1 0 0 0;
#X connect 2 0 3 0;
#X connect 4 0 5 0;
#X connect 6 0 11 0;
#X connect 7 0 9 0;
#X connect 8 0 7 1;
#X connect 9 0 2 0;
#X connect 9 0 4 0;
#X connect 10 0 7 0;
#X connect 11 0 3 0;
#X restore 48 45 pd shift;
#X obj 93 96 outlet;
#X obj 7 4 inlet;
#X obj 20 96 outlet~;
#X obj 48 4 inlet;
#X connect 0 0 2 0;
#X connect 1 0 0 0;
#X connect 2 0 6 0;
#X connect 3 0 2 1;
#X connect 3 1 4 0;
#X connect 5 0 1 0;
#X connect 7 0 3 0;
#X coords 0 184 1 183 85 60 0;
#X restore 352 172 pd drone;
#N canvas 641 541 286 184 drone 0;
#X obj 7 45 osc~;
#X obj 7 24 mtof;
#X obj 20 75 *~;
#N canvas 1025 335 450 300 shift 0;
#X obj 57 46 random 100;
#X obj 57 25 inlet;
#X obj 57 135 line~;
#X obj 57 158 outlet~;
#X obj 107 135 line;
#X obj 107 158 outlet;
#X obj 131 74 loadbang;
#X obj 57 90 pack;
#X obj 133 45 r shiftSpd;
#X msg 57 114 \$1 \$2;
#X obj 131 98 0.005787;
#X obj 57 68 / 6666.66;
#X connect 0 0 11 0;
#X connect 1 0 0 0;
#X connect 2 0 3 0;
#X connect 4 0 5 0;
#X connect 6 0 10 0;
#X connect 7 0 9 0;
#X connect 8 0 7 1;
#X connect 9 0 2 0;
#X connect 9 0 4 0;
#X connect 10 0 3 0;
#X connect 11 0 7 0;
#X restore 48 45 pd shift;
#X obj 93 96 outlet;
#X obj 7 4 inlet;
#X obj 20 96 outlet~;
#X obj 48 4 inlet;
#X connect 0 0 2 0;
#X connect 1 0 0 0;
#X connect 2 0 6 0;
#X connect 3 0 2 1;
#X connect 3 1 4 0;
#X connect 5 0 1 0;
#X connect 7 0 3 0;
#X coords 0 184 1 183 85 60 0;
#X restore 408 172 pd drone;
#X floatatom 453 12 5 0 0 0 - - -, f 5;
#X obj 434 39 vsl 15 128 0 0.015 0 0 empty empty empty 0 -9 0 10 -262144
-1 -1 5461 1;
#X obj 378 39 vsl 15 128 0 0.025 0 0 empty empty empty 0 -9 0 10 -262144
-1 -1 7747 1;
#X floatatom 509 12 5 0 0 0 - - -, f 5;
#N canvas 630 482 286 184 drone 0;
#X obj 7 45 osc~;
#X obj 7 24 mtof;
#X obj 20 75 *~;
#N canvas 394 603 450 299 shift 0;
#X obj 57 46 random 100;
#X obj 57 25 inlet;
#X obj 57 135 line~;
#X obj 57 158 outlet~;
#X obj 107 135 line;
#X obj 107 158 outlet;
#X obj 131 74 loadbang;
#X obj 57 90 pack;
#X obj 133 45 r shiftSpd;
#X msg 57 114 \$1 \$2;
#X obj 57 68 / 6666.66;
#X obj 131 98 0.00496;
#X connect 0 0 10 0;
#X connect 1 0 0 0;
#X connect 2 0 3 0;
#X connect 4 0 5 0;
#X connect 6 0 11 0;
#X connect 7 0 9 0;
#X connect 8 0 7 1;
#X connect 9 0 2 0;
#X connect 9 0 4 0;
#X connect 10 0 7 0;
#X connect 11 0 3 0;
#X restore 48 45 pd shift;
#X obj 93 96 outlet;
#X obj 7 4 inlet;
#X obj 20 96 outlet~;
#X obj 48 4 inlet;
#X connect 0 0 2 0;
#X connect 1 0 0 0;
#X connect 2 0 6 0;
#X connect 3 0 2 1;
#X connect 3 1 4 0;
#X connect 5 0 1 0;
#X connect 7 0 3 0;
#X coords 0 184 1 183 85 60 0;
#X restore 464 172 pd drone;
#N canvas 682 611 286 184 drone 0;
#X obj 7 45 osc~;
#X obj 7 24 mtof;
#X obj 20 75 *~;
#N canvas 879 339 450 300 shift 0;
#X obj 57 46 random 100;
#X obj 57 25 inlet;
#X obj 57 135 line~;
#X obj 57 158 outlet~;
#X obj 107 135 line;
#X obj 107 158 outlet;
#X obj 131 74 loadbang;
#X obj 57 90 pack;
#X obj 133 45 r shiftSpd;
#X msg 57 114 \$1 \$2;
#X obj 57 68 / 6666.66;
#X obj 131 98 0.004133;
#X connect 0 0 10 0;
#X connect 1 0 0 0;
#X connect 2 0 3 0;
#X connect 4 0 5 0;
#X connect 6 0 11 0;
#X connect 7 0 9 0;
#X connect 8 0 7 1;
#X connect 9 0 2 0;
#X connect 9 0 4 0;
#X connect 10 0 7 0;
#X connect 11 0 3 0;
#X restore 48 45 pd shift;
#X obj 93 96 outlet;
#X obj 7 4 inlet;
#X obj 20 96 outlet~;
#X obj 48 4 inlet;
#X connect 0 0 2 0;
#X connect 1 0 0 0;
#X connect 2 0 6 0;
#X connect 3 0 2 1;
#X connect 3 1 4 0;
#X connect 5 0 1 0;
#X connect 7 0 3 0;
#X coords 0 184 1 183 85 60 0;
#X restore 520 172 pd drone;
#X floatatom 565 12 5 0 0 0 - - -, f 5;
#X obj 546 39 vsl 15 128 0 0.015 0 0 empty empty empty 0 -9 0 10 -262144
-1 -1 9906 1;
#X obj 490 39 vsl 15 128 0 0.015 0 0 empty empty empty 0 -9 0 10 -262144
-1 -1 5207 1;
#X floatatom 621 12 5 0 0 0 - - -, f 5;
#N canvas 630 482 286 184 drone 0;
#X obj 7 45 osc~;
#X obj 7 24 mtof;
#X obj 20 75 *~;
#N canvas 708 473 450 300 shift 0;
#X obj 57 46 random 100;
#X obj 57 25 inlet;
#X obj 57 135 line~;
#X obj 57 158 outlet~;
#X obj 107 135 line;
#X obj 107 158 outlet;
#X obj 131 74 loadbang;
#X obj 57 90 pack;
#X obj 133 45 r shiftSpd;
#X msg 57 114 \$1 \$2;
#X obj 57 68 / 6666.66;
#X obj 131 98 0.005669;
#X connect 0 0 10 0;
#X connect 1 0 0 0;
#X connect 2 0 3 0;
#X connect 4 0 5 0;
#X connect 6 0 11 0;
#X connect 7 0 9 0;
#X connect 8 0 7 1;
#X connect 9 0 2 0;
#X connect 9 0 4 0;
#X connect 10 0 7 0;
#X connect 11 0 3 0;
#X restore 48 45 pd shift;
#X obj 93 96 outlet;
#X obj 7 4 inlet;
#X obj 20 96 outlet~;
#X obj 48 4 inlet;
#X connect 0 0 2 0;
#X connect 1 0 0 0;
#X connect 2 0 6 0;
#X connect 3 0 2 1;
#X connect 3 1 4 0;
#X connect 5 0 1 0;
#X connect 7 0 3 0;
#X coords 0 184 1 183 85 60 0;
#X restore 576 172 pd drone;
#N canvas 630 482 286 184 drone 0;
#X obj 7 45 osc~;
#X obj 7 24 mtof;
#X obj 20 75 *~;
#N canvas 477 450 450 300 shift 0;
#X obj 57 46 random 100;
#X obj 57 25 inlet;
#X obj 57 135 line~;
#X obj 57 158 outlet~;
#X obj 107 135 line;
#X obj 107 158 outlet;
#X obj 131 74 loadbang;
#X obj 57 90 pack;
#X obj 133 45 r shiftSpd;
#X msg 57 114 \$1 \$2;
#X obj 131 98 0.018503;
#X obj 57 68 / 6666.66;
#X connect 0 0 11 0;
#X connect 1 0 0 0;
#X connect 2 0 3 0;
#X connect 4 0 5 0;
#X connect 6 0 10 0;
#X connect 7 0 9 0;
#X connect 8 0 7 1;
#X connect 9 0 2 0;
#X connect 9 0 4 0;
#X connect 10 0 3 0;
#X connect 11 0 7 0;
#X restore 48 45 pd shift;
#X obj 93 96 outlet;
#X obj 7 4 inlet;
#X obj 20 96 outlet~;
#X obj 48 4 inlet;
#X connect 0 0 2 0;
#X connect 1 0 0 0;
#X connect 2 0 6 0;
#X connect 3 0 2 1;
#X connect 3 1 4 0;
#X connect 5 0 1 0;
#X connect 7 0 3 0;
#X coords 0 184 1 183 85 60 0;
#X restore 632 172 pd drone;
#X floatatom 677 12 5 0 0 0 - - -, f 5;
#X obj 658 39 vsl 15 128 0 0.015 0 0 empty empty empty 0 -9 0 10 -262144
-1 -1 11176 1;
#X obj 602 39 vsl 15 128 0 0.015 0 0 empty empty empty 0 -9 0 10 -262144
-1 -1 5715 1;
#X obj 240 152 + 12;
#X obj 532 298 bng 15 250 50 0 empty empty empty 17 7 0 10 -262144
-1 -1;
#X obj 296 152 + 14;
#X obj 352 152 + 15;
#X obj 408 152 + 19;
#X obj 520 152 + 24;
#X obj 576 152 + 26;
#X obj 632 152 + 27;
#X obj 464 152 + 21;
#X obj 559 297 50;
#X obj 47 256 bng 15 250 50 0 empty empty empty 17 7 0 10 -262144 -1
-1;
#X obj 35 231 r beat;
#X obj 635 221 r init;
#X floatatom 626 243 5 0 0 0 - - -, f 5;
#X connect 0 0 13 0;
#X connect 2 0 1 0;
#X connect 2 0 1 1;
#X connect 3 0 2 1;
#X connect 3 0 6 0;
#X connect 4 0 5 0;
#X connect 5 0 3 0;
#X connect 8 0 2 0;
#X connect 8 1 0 0;
#X connect 9 0 7 0;
#X connect 10 0 2 0;
#X connect 10 1 11 0;
#X connect 11 0 12 0;
#X connect 15 0 24 0;
#X connect 15 0 61 0;
#X connect 16 0 21 0;
#X connect 17 0 2 0;
#X connect 17 1 16 0;
#X connect 18 0 2 0;
#X connect 18 1 19 0;
#X connect 19 0 20 0;
#X connect 22 0 8 0;
#X connect 23 0 10 0;
#X connect 24 0 27 0;
#X connect 25 0 17 0;
#X connect 26 0 18 0;
#X connect 27 0 14 0;
#X connect 28 0 33 0;
#X connect 29 0 2 0;
#X connect 29 1 28 0;
#X connect 30 0 2 0;
#X connect 30 1 31 0;
#X connect 31 0 32 0;
#X connect 34 0 39 0;
#X connect 35 0 2 0;
#X connect 35 1 34 0;
#X connect 36 0 2 0;
#X connect 36 1 37 0;
#X connect 37 0 38 0;
#X connect 40 0 45 0;
#X connect 41 0 2 0;
#X connect 41 1 40 0;
#X connect 42 0 2 0;
#X connect 42 1 43 0;
#X connect 43 0 44 0;
#X connect 46 0 51 0;
#X connect 47 0 2 0;
#X connect 47 1 46 0;
#X connect 48 0 2 0;
#X connect 48 1 49 0;
#X connect 49 0 50 0;
#X connect 52 0 29 0;
#X connect 53 0 27 0;
#X connect 54 0 30 0;
#X connect 55 0 35 0;
#X connect 56 0 36 0;
#X connect 57 0 42 0;
#X connect 58 0 47 0;
#X connect 59 0 48 0;
#X connect 60 0 41 0;
#X connect 61 0 9 0;
#X connect 62 0 8 1;
#X connect 62 0 10 1;
#X connect 62 0 17 1;
#X connect 62 0 18 1;
#X connect 62 0 29 1;
#X connect 62 0 30 1;
#X connect 62 0 35 1;
#X connect 62 0 36 1;
#X connect 62 0 41 1;
#X connect 62 0 42 1;
#X connect 62 0 47 1;
#X connect 62 0 48 1;
#X connect 63 0 62 0;
#X connect 64 0 65 0;
#X connect 65 0 22 0;
#X connect 65 0 23 0;
#X connect 65 0 25 0;
#X connect 65 0 26 0;
#X connect 65 0 52 0;
#X connect 65 0 54 0;
#X connect 65 0 55 0;
#X connect 65 0 56 0;
#X connect 65 0 60 0;
#X connect 65 0 57 0;
#X connect 65 0 58 0;
#X connect 65 0 59 0;
#X coords 0 386 1 385 85 60 0;
#X restore 187 228 pd drones;
#N canvas 224 464 586 365 rests 0;
#X obj 93 186 chainBreak;
#X obj 162 33 inlet;
#N canvas 0 50 450 300 (subpatch) 0;
#X array mem 2 float 1;
#A 0 0 1;
#X coords 0 1 1 -1 200 140 1;
#X restore 308 27 graph;
#X obj 162 83 tgl 15 0 empty empty empty 17 7 0 10 -262144 -1 -1 0
1;
#X obj 93 85 random 2;
#X obj 173 149 tabread mem;
#X obj 190 282 tabwrite mem;
#X obj 163 103 select;
#X msg 163 127 1;
#X msg 196 127 0;
#X floatatom 110 152 5 0 0 0 - - -, f 5;
#X floatatom 123 152 5 0 0 0 - - -, f 5;
#X obj 126 306 outlet;
#X obj 93 266 select;
#X obj 126 287 bng 15 250 50 0 empty empty empty 17 7 0 10 -262144
-1 -1;
#X obj 83 33 inlet;
#X msg 83 60 1;
#X connect 0 0 13 0;
#X connect 0 0 6 0;
#X connect 1 0 4 0;
#X connect 1 0 3 0;
#X connect 3 0 6 1;
#X connect 3 0 7 0;
#X connect 4 0 10 0;
#X connect 4 0 0 0;
#X connect 5 0 11 0;
#X connect 5 0 0 1;
#X connect 7 0 8 0;
#X connect 7 1 9 0;
#X connect 8 0 5 0;
#X connect 9 0 5 0;
#X connect 13 1 14 0;
#X connect 14 0 12 0;
#X connect 15 0 16 0;
#X connect 15 0 3 0;
#X connect 16 0 0 0;
#X restore 255 228 pd rests;
#N canvas 1023 441 450 300 spigif 0;
#X obj 76 83 &&;
#X obj 43 104 spigot;
#X obj 97 60 < 10;
#X obj 70 60 > 0;
#X obj 83 30 inlet;
#X obj 16 60 random 2;
#X obj 16 30 inlet;
#X obj 43 129 outlet;
#X connect 0 0 1 1;
#X connect 1 0 7 0;
#X connect 2 0 0 1;
#X connect 3 0 0 0;
#X connect 4 0 2 0;
#X connect 4 0 3 0;
#X connect 5 0 1 0;
#X connect 6 0 5 0;
#X restore 157 143 pd spigif;
#X obj 147 120 metro;
#X obj 147 18 r beat;
#X floatatom 113 41 5 0 0 0 - - -, f 5;
#X obj 147 98 select;
#N canvas 1011 286 450 300 start 0;
#X obj 17 15 loadbang;
#X obj 17 37 1;
#X obj 17 59 s start;
#X connect 0 0 1 0;
#X connect 1 0 2 0;
#X restore 3 3 pd start;
#X obj 50 70 r beat;
#X floatatom 213 169 5 0 0 0 - - -, f 5;
#N canvas 864 609 450 300 tempo 0;
#X obj 74 60 400;
#X obj 47 121 metro;
#X floatatom 74 99 5 0 0 0 - tempo -, f 5;
#X obj 47 143 s beat;
#X obj 74 40 loadbang;
#X floatatom 74 81 5 0 0 0 - - tempo, f 5;
#X obj 47 100 tgl 15 0 empty start empty 17 7 0 10 -262144 -1 -1 1
1;
#X connect 0 0 5 0;
#X connect 1 0 3 0;
#X connect 2 0 1 1;
#X connect 4 0 0 0;
#X connect 6 0 1 0;
#X restore 3 23 pd tempo;
#X obj 173 66 r tempo;
#N canvas 816 585 450 300 boundary 0;
#X obj 60 110 counter;
#X msg 148 62 0;
#X msg 170 62 1;
#X obj 122 143 select 0 10;
#X floatatom 25 110 5 0 0 0 - - -, f 5;
#X obj 93 61 1;
#X obj 69 61 2;
#X obj 118 61 10;
#X obj 93 35 loadbang;
#X obj 60 143 outlet;
#X obj 28 61 inlet;
#X obj 41 36 inlet;
#X connect 0 0 3 0;
#X connect 0 0 4 0;
#X connect 0 0 9 0;
#X connect 1 0 0 1;
#X connect 2 0 0 1;
#X connect 3 0 1 0;
#X connect 3 1 2 0;
#X connect 5 0 0 2;
#X connect 6 0 0 1;
#X connect 7 0 0 4;
#X connect 8 0 7 0;
#X connect 8 0 5 0;
#X connect 8 0 6 0;
#X connect 10 0 0 0;
#X connect 11 0 0 1;
#X restore 136 176 pd boundary;
#N canvas 695 591 450 300 solo 0;
#X obj 77 187 osc~;
#X obj 77 214 *~;
#X obj 76 242 *~;
#X obj 77 162 mtof;
#X obj 76 273 dac~;
#X obj 107 163 bng 15 250 50 0 empty empty empty 17 7 0 10 -262144
-1 -1;
#X msg 27 68 2;
#X msg 44 68 4;
#X msg 61 68 7;
#X msg 77 68 9;
#X msg 94 68 10;
#X msg 111 68 14;
#X msg 128 68 16;
#X obj 94 134 + 55;
#N canvas 607 463 450 300 sing 0;
#X obj 117 123 vline~;
#X obj 117 71 inlet;
#X obj 117 166 outlet~;
#X msg 116 102 0.3 10 0 \, 0.1 300 100 \, 0 600 600;
#X connect 0 0 2 0;
#X connect 1 0 3 0;
#X connect 3 0 0 0;
#X restore 107 212 pd sing;
#X obj 18 45 select 0 1 2 3 4 5 6 7 8 9;
#X msg 146 68 19;
#X msg 163 68 21;
#X msg 180 68 22;
#X obj 172 22 inlet;
#X obj 103 242 inlet;
#X connect 0 0 1 0;
#X connect 1 0 2 0;
#X connect 2 0 4 0;
#X connect 2 0 4 1;
#X connect 3 0 0 0;
#X connect 5 0 14 0;
#X connect 6 0 13 0;
#X connect 7 0 13 0;
#X connect 8 0 13 0;
#X connect 9 0 13 0;
#X connect 10 0 13 0;
#X connect 11 0 13 0;
#X connect 12 0 13 0;
#X connect 13 0 3 0;
#X connect 13 0 5 0;
#X connect 14 0 1 1;
#X connect 15 1 6 0;
#X connect 15 2 7 0;
#X connect 15 3 8 0;
#X connect 15 4 9 0;
#X connect 15 5 10 0;
#X connect 15 6 11 0;
#X connect 15 7 12 0;
#X connect 15 8 16 0;
#X connect 15 9 17 0;
#X connect 15 10 18 0;
#X connect 16 0 13 0;
#X connect 17 0 13 0;
#X connect 18 0 13 0;
#X connect 19 0 15 0;
#X connect 20 0 2 1;
#X coords 0 300 1 299 85 60 0;
#X restore 136 228 pd solo;
#X floatatom 177 196 5 0 0 0 - - -, f 5;
#X obj 263 31 tgl 15 0 start start empty 17 7 0 10 -262144 -1 -1 1
1;
#X obj 147 41 count 16;
#X obj 101 131 vsl 15 128 0 1 0 0 empty empty empty 0 -9 0 10 -262144
-1 -1 3810 1;
#X obj 63 14 loadbang;
#X obj 63 37 0.3;
#X obj 208 47 s downBeat;
#X obj 258 145 s beat2;
#X obj 136 141 bng 15 250 50 0 empty empty empty 17 7 0 10 -262144
-1 -1;
#X obj 50 91 count 8;
#X connect 1 0 5 1;
#X connect 1 0 6 0;
#X connect 3 0 2 0;
#X connect 4 0 2 2;
#X connect 5 0 7 0;
#X connect 5 0 13 1;
#X connect 6 0 5 0;
#X connect 9 0 13 0;
#X connect 12 0 19 0;
#X connect 12 0 22 1;
#X connect 13 0 8 0;
#X connect 13 0 12 0;
#X connect 13 0 22 0;
#X connect 13 0 31 0;
#X connect 14 0 1 0;
#X connect 14 0 26 0;
#X connect 16 0 13 0;
#X connect 16 0 30 0;
#X connect 16 0 32 0;
#X connect 18 0 33 0;
#X connect 21 0 5 0;
#X connect 22 0 24 0;
#X connect 22 0 23 1;
#X connect 22 0 12 1;
#X connect 26 0 15 0;
#X connect 27 0 23 0;
#X connect 28 0 29 0;
#X connect 29 0 27 0;
#X connect 33 0 0 0;
#X connect 33 0 2 1;
#X coords 0 -1 1 1 85 60 1 0 0;
