#N canvas 276 190 412 316 10;
#X obj 118 78 inlet;
#X obj 118 100 t b b;
#X obj 132 127 \$1;
#X obj 161 100 inlet;
#X obj 205 100 inlet;
#X obj 139 222 line;
#X obj 139 244 outlet;
#X msg 123 179 1 \$1;
#X obj 162 127 \$2;
#X msg 162 179 0 \$1;
#X obj 162 159 pipe;
#X connect 0 0 1 0;
#X connect 1 0 8 0;
#X connect 1 1 2 0;
#X connect 2 0 7 0;
#X connect 2 0 10 1;
#X connect 3 0 2 1;
#X connect 4 0 8 1;
#X connect 5 0 6 0;
#X connect 7 0 5 0;
#X connect 8 0 10 0;
#X connect 9 0 5 0;
#X connect 10 0 9 0;
#X coords 0 316 1 315 85 60 0;
