#N canvas 583 222 412 316 10;
#X obj 184 82 inlet;
#X obj 227 82 inlet;
#X obj 101 58 inlet;
#X obj 101 82 t b b;
#X obj 167 115 \$2;
#X obj 134 115 \$1;
#X obj 134 137 - 1;
#X obj 134 209 vline~;
#X obj 134 233 outlet~;
#X obj 134 160 pack 0 0 0;
#X msg 134 185 0 1 \, 1 \$1 1 \, 0 \$2 \$3;
#X connect 0 0 5 1;
#X connect 1 0 4 1;
#X connect 2 0 3 0;
#X connect 3 0 5 0;
#X connect 3 1 4 0;
#X connect 4 0 9 1;
#X connect 5 0 9 2;
#X connect 5 0 6 0;
#X connect 6 0 9 0;
#X connect 7 0 8 0;
#X connect 9 0 10 0;
#X connect 10 0 7 0;
#X coords 0 316 1 315 85 60 0;
