#N canvas 276 190 412 316 10;
#X obj 118 78 inlet;
#X obj 118 100 t b b;
#X obj 132 127 \$1;
#X obj 161 127 \$2;
#X obj 161 100 inlet;
#X obj 205 100 inlet;
#X obj 134 149 pack;
#X msg 134 171 1 \$1 \, 0 \$2 \$1;
#X obj 134 193 vline~;
#X obj 134 215 outlet~;
#X connect 0 0 1 0;
#X connect 1 0 2 0;
#X connect 1 1 3 0;
#X connect 2 0 6 0;
#X connect 3 0 6 1;
#X connect 4 0 2 1;
#X connect 5 0 3 1;
#X connect 6 0 7 0;
#X connect 7 0 8 0;
#X connect 8 0 9 0;
#X coords 0 316 1 315 85 60 0;
