#N canvas 868 120 450 286 10;
#X obj 127 56 inlet;
#X obj 127 78 route reset;
#X obj 183 100 b;
#X obj 157 143 f;
#X obj 191 143 + 1;
#X obj 191 165 % \$1;
#X obj 209 197 outlet;
#X obj 157 197 sel \$2;
#X obj 157 224 outlet;
#X obj 216 121 inlet;
#X obj 227 165 inlet;
#X connect 0 0 1 0;
#X connect 1 0 3 1;
#X connect 1 1 2 0;
#X connect 2 0 3 0;
#X connect 3 0 4 0;
#X connect 3 0 6 0;
#X connect 3 0 7 0;
#X connect 4 0 5 0;
#X connect 5 0 3 1;
#X connect 7 0 8 0;
#X connect 9 0 5 1;
#X connect 10 0 7 1;
#X coords 0 286 1 285 85 60 0;
