#N canvas 1213 527 412 316 10;
#X obj 63 37 inlet;
#X obj 63 61 t b b b;
#X obj 134 152 \$1;
#X obj 188 152 \$2;
#X obj 215 152 \$3;
#X obj 161 152 +;
#X obj 134 174 pack 0 0 0 0;
#X msg 134 196 0 \$1 \, 1 \$3 \$1 \, 0 \$4 \$2;
#X obj 134 218 vline~;
#X obj 134 242 outlet~;
#X obj 152 116 inlet;
#X obj 200 116 inlet;
#X obj 241 116 inlet;
#X connect 0 0 1 0;
#X connect 1 0 2 0;
#X connect 1 1 3 0;
#X connect 1 2 4 0;
#X connect 2 0 5 0;
#X connect 2 0 6 0;
#X connect 3 0 5 1;
#X connect 3 0 6 2;
#X connect 4 0 6 3;
#X connect 5 0 6 1;
#X connect 6 0 7 0;
#X connect 7 0 8 0;
#X connect 8 0 9 0;
#X connect 10 0 2 1;
#X connect 11 0 3 1;
#X connect 12 0 4 1;
#X coords 0 316 1 315 85 60 0;
