#N canvas 244 198 366 326 10;
#N canvas 740 380 552 459 panner-work 1;
#X obj 153 88 expr ($f1*$f2/2)-$f2/4;
#X obj 302 64 f 3.14159;
#X text 369 65 pi;
#X obj 302 40 loadbang;
#X obj 153 62 clip 0 1;
#X obj 153 142 expr (cos($f1)+sin($f1))*(sqrt(2)/2);
#X obj 261 168 expr (cos($f1)-sin($f1))*(sqrt(2)/2);
#X text 186 114 angle;
#X obj 153 33 inlet;
#X obj 153 291 line~;
#X obj 261 293 line~;
#X obj 27 387 outlet~;
#X obj 138 409 outlet~;
#X obj 27 33 inlet~;
#X obj 27 353 *~;
#X obj 138 381 *~;
#N canvas 236 434 450 300 init_interpolation_time 0;
#X obj 98 82 f \$1;
#X obj 98 52 loadbang;
#X obj 98 112 sel 0;
#X obj 98 190 outlet;
#X msg 98 144 200;
#X connect 0 0 2 0;
#X connect 1 0 0 0;
#X connect 2 0 4 0;
#X connect 2 1 3 0;
#X connect 4 0 3 0;
#X restore 244 224 pd init_interpolation_time;
#X obj 153 270 pack 0 200;
#X obj 261 271 pack 0 200;
#X text 162 166 right;
#X text 270 190 left;
#X obj 335 244 inlet;
#X connect 0 0 5 0;
#X connect 0 0 6 0;
#X connect 1 0 0 1;
#X connect 3 0 1 0;
#X connect 4 0 0 0;
#X connect 5 0 17 0;
#X connect 6 0 18 0;
#X connect 8 0 4 0;
#X connect 9 0 15 1;
#X connect 10 0 14 1;
#X connect 13 0 14 0;
#X connect 13 0 15 0;
#X connect 14 0 11 0;
#X connect 15 0 12 0;
#X connect 17 0 9 0;
#X connect 18 0 10 0;
#X connect 21 0 18 1;
#X connect 21 0 17 1;
#X restore 22 77 pd panner-work;
#X obj 123 31 inlet;
#X obj 22 31 inlet~;
#X obj 75 31 inlet;
#X obj 22 100 outlet~ l;
#X obj 117 100 outlet~ r;
#X connect 0 0 4 0;
#X connect 0 1 5 0;
#X connect 1 0 0 2;
#X connect 2 0 0 0;
#X connect 3 0 0 1;
#X coords 0 326 1 325 84 28 0;
