#N canvas 221 181 726 540 12;
#X obj 386 379 simpleFM~;
#X obj 236 172 vline~;
#X obj 345 376 *~;
#X obj 65 33 inlet;
#X obj 370 115 noise~;
#X obj 115 182 /~ 8;
#X obj 518 298 +~ 1000;
#X obj 371 166 osc~ 4400;
#X obj 518 269 *~ 1000;
#X obj 25 24 tgl 15 0 empty empty empty 17 7 0 10 -262144 -1 -1 0 1
;
#X obj 455 353 *~;
#X obj 371 141 *~ 880;
#X obj 417 220 vcf~ 10;
#X obj 416 248 *~ 5555;
#X obj 600 365 inlet;
#X obj 345 429 *~;
#X obj 154 107 pack 0 0 0;
#X msg 236 148 \$1 \, \$2 \$3;
#X obj 198 58 grand 30 75;
#X obj 154 82 grand 125 200;
#X obj 237 33 grand 50 200;
#X obj 39 150 bng 15 250 50 0 empty empty empty 17 7 0 10 -262144 -1
-1;
#X obj 330 502 adac~;
#X obj 570 193 grand 25 75;
#X obj 147 7 t b b b b b;
#X obj 116 144 ad~ 1 800;
#X obj 518 240 ad~ 0 100;
#X obj 126 288 fkick 70 32;
#X obj 345 454 *~ 0;
#X obj 45 172 r play;
#X obj 218 494 throw~ sview;
#X obj 27 216 del 1500;
#X obj 131 342 *~ 0.3;
#X connect 0 0 2 1;
#X connect 1 0 0 0;
#X connect 2 0 15 0;
#X connect 3 0 24 0;
#X connect 4 0 11 0;
#X connect 5 0 2 0;
#X connect 6 0 12 1;
#X connect 7 0 12 0;
#X connect 8 0 6 0;
#X connect 8 0 10 0;
#X connect 9 0 28 1;
#X connect 10 0 0 2;
#X connect 11 0 7 0;
#X connect 12 0 13 0;
#X connect 13 0 0 1;
#X connect 14 0 15 1;
#X connect 15 0 28 0;
#X connect 16 0 17 0;
#X connect 17 0 1 0;
#X connect 18 0 16 1;
#X connect 19 0 16 0;
#X connect 20 0 16 2;
#X connect 21 0 24 0;
#X connect 23 0 26 2;
#X connect 24 0 25 0;
#X connect 24 0 26 0;
#X connect 24 0 27 0;
#X connect 24 1 23 0;
#X connect 24 2 19 0;
#X connect 24 3 18 0;
#X connect 24 4 20 0;
#X connect 25 0 5 0;
#X connect 26 0 8 0;
#X connect 26 0 10 1;
#X connect 27 0 32 0;
#X connect 28 0 22 0;
#X connect 28 0 22 1;
#X connect 28 0 30 0;
#X connect 29 0 31 0;
#X connect 31 0 9 0;
#X connect 32 0 15 0;
#X coords 0 -1 1 1 85 60 1 0 0;
