#N canvas 519 165 1035 726 12;
#X obj 262 503 simpleFM~;
#X obj 242 529 *~;
#X obj 235 17 inlet;
#X obj 205 44 t b b f;
#X obj 257 470 sig~;
#X obj 294 466 expr~ $v1*.025;
#X obj 188 362 sig~;
#X obj 129 439 ad~ 0 800;
#X obj 368 306 ad~ 0 700;
#X obj 10 6 tgl 15 0 empty empty empty 17 7 0 10 -262144 -1 -1 1 1
;
#X obj 605 200 tgl 15 0 empty empty empty 17 7 0 10 -262144 -1 -1 1
1;
#X obj 599 259 timer;
#X obj 599 234 sel 0 1;
#X obj 354 13 inlet;
#X obj 375 161 spigot;
#X obj 382 66 t b b;
#X obj 418 134 > 90;
#X obj 367 333 *~ 1000;
#X obj 467 272 * 2;
#X obj 539 386 vd~ del;
#X obj 688 221 tgl 15 0 empty empty empty 17 7 0 10 -262144 -1 -1 1
1;
#X obj 688 195 cpt 32;
#X obj 629 297 pack f f;
#X obj 688 269 timer;
#X obj 688 244 sel 0 1;
#X obj 629 325 vline~;
#X obj 541 324 pack f f;
#X obj 541 355 vline~;
#X obj 610 354 sig~ 1;
#X obj 611 388 -~;
#X obj 540 447 *~;
#X obj 582 447 *~;
#X obj 293 558 delwrite~ del 4000;
#X obj 248 661 adac~;
#X obj 129 512 *~ 0;
#X obj 599 297 * 4;
#X obj 540 415 /~ 2;
#X obj 292 529 *~ 0.5;
#X obj 129 477 /~ 4;
#X obj 477 503 *~;
#X obj 439 503 *~;
#X obj 757 444 inlet;
#X obj 252 587 *~;
#X obj 188 313 rand 5;
#X obj 418 105 rand 100;
#X obj 333 55 bng 15 250 50 0 empty empty empty 17 7 0 10 -262144 -1
-1;
#X msg 649 503 1;
#X floatatom 528 244 5 0 0 0 - - -, f 5;
#X obj 467 15 tgl 15 0 empty empty empty 17 7 0 10 -262144 -1 -1 0
1;
#X obj 467 35 metro 48;
#X obj 100 57 tgl 15 0 empty empty empty 17 7 0 10 -262144 -1 -1 0
1;
#X floatatom 155 20 5 0 0 0 - - -, f 5;
#X obj 100 77 metro 600;
#X obj 109 173 grand 0 200;
#X floatatom 624 65 5 0 0 0 - - -, f 5;
#X msg 102 28 500;
#X obj 100 111 pattern 600 2 1;
#X obj 188 337 muse 124 -5 -9 7 -24;
#X obj 38 25 r play;
#X obj 312 661 throw~ sview;
#X obj 14 54 del 40000;
#X connect 0 0 1 1;
#X connect 1 0 32 0;
#X connect 1 0 42 0;
#X connect 2 0 3 0;
#X connect 3 0 7 0;
#X connect 3 1 8 0;
#X connect 3 1 10 0;
#X connect 3 1 21 0;
#X connect 3 1 43 0;
#X connect 3 2 4 0;
#X connect 4 0 0 0;
#X connect 5 0 0 1;
#X connect 6 0 5 0;
#X connect 7 0 38 0;
#X connect 8 0 17 0;
#X connect 9 0 34 1;
#X connect 10 0 12 0;
#X connect 11 0 18 0;
#X connect 11 0 26 0;
#X connect 11 0 35 0;
#X connect 11 0 7 2;
#X connect 11 0 47 0;
#X connect 12 0 11 0;
#X connect 12 1 11 1;
#X connect 13 0 15 0;
#X connect 14 0 10 0;
#X connect 14 0 8 0;
#X connect 15 0 14 0;
#X connect 15 1 44 0;
#X connect 16 0 14 1;
#X connect 17 0 0 2;
#X connect 18 0 8 2;
#X connect 19 0 36 0;
#X connect 19 0 37 0;
#X connect 20 0 24 0;
#X connect 20 0 22 0;
#X connect 21 0 20 0;
#X connect 22 0 25 0;
#X connect 23 0 22 1;
#X connect 24 0 23 0;
#X connect 24 1 23 1;
#X connect 25 0 29 1;
#X connect 25 0 31 1;
#X connect 26 0 27 0;
#X connect 27 0 19 0;
#X connect 28 0 29 0;
#X connect 29 0 30 1;
#X connect 30 0 40 0;
#X connect 31 0 39 0;
#X connect 34 0 1 0;
#X connect 35 0 26 1;
#X connect 36 0 30 0;
#X connect 36 0 31 0;
#X connect 37 0 32 0;
#X connect 38 0 34 0;
#X connect 39 0 33 1;
#X connect 40 0 33 0;
#X connect 41 0 39 1;
#X connect 41 0 40 1;
#X connect 41 0 42 1;
#X connect 42 0 33 1;
#X connect 42 0 33 0;
#X connect 42 0 59 0;
#X connect 43 0 57 0;
#X connect 44 0 16 0;
#X connect 45 0 15 0;
#X connect 46 0 39 1;
#X connect 46 0 40 1;
#X connect 46 0 42 1;
#X connect 48 0 49 0;
#X connect 49 0 15 0;
#X connect 50 0 52 0;
#X connect 51 0 52 1;
#X connect 51 0 56 1;
#X connect 52 0 56 0;
#X connect 53 0 3 0;
#X connect 54 0 49 1;
#X connect 55 0 51 0;
#X connect 56 0 53 0;
#X connect 56 1 53 0;
#X connect 57 0 6 0;
#X connect 58 0 60 0;
#X connect 60 0 9 0;
#X coords 0 -1 1 1 85 60 1 0 0;
