#N canvas 320 49 894 556 10;
#X obj 474 449 hsl 128 15 0 0.8 0 1 empty empty audio-level 20 8 0
10 -262144 -260097 -1 7700 0;
#X floatatom 471 470 5 0 0 0 - - -;
#X obj 437 498 dac~;
#X obj 437 470 *~ 0;
#X obj 420 31 tgl 25 1 empty empty empty 0 -6 0 8 -262144 -260097 -1
0 1;
#X obj 420 93 f;
#X obj 451 93 + 1;
#X obj 61 56 hsl 128 15 50 300 0 1 empty empty noise 20 8 0 10 -262144
-260097 -1 7900 0;
#N canvas 564 422 332 202 trig1 0;
#X obj 13 15 inlet;
#X obj 55 14 inlet;
#X obj 104 14 inlet;
#X obj 198 16 r \$0-trig1;
#X obj 40 70 f;
#X obj 89 71 f;
#X obj 139 71 f;
#X obj 89 138 s \$0-freq;
#X obj 139 107 s \$0-decay;
#X obj 40 167 s \$0-noise;
#X obj 154 16 inlet;
#X connect 0 0 4 0;
#X connect 0 0 5 0;
#X connect 0 0 6 0;
#X connect 1 0 4 1;
#X connect 2 0 5 1;
#X connect 3 0 4 0;
#X connect 3 0 5 0;
#X connect 3 0 6 0;
#X connect 4 0 9 0;
#X connect 5 0 7 0;
#X connect 6 0 8 0;
#X connect 10 0 6 1;
#X restore 13 107 pd trig1;
#X obj 61 71 hsl 128 15 50 1000 1 1 empty empty frequency 20 8 0 10
-262144 -260097 -1 4100 0;
#X obj 61 86 hsl 128 15 1 200 0 1 empty empty decaytime 20 8 0 10 -262144
-260097 -1 3100 0;
#X obj 487 93 & 15;
#X obj 13 55 bng 25 250 50 0 empty empty empty 17 7 0 10 -262144 -260097
-1;
#X obj 61 150 hsl 128 15 50 300 0 1 empty empty noise 20 8 0 10 -262144
-260097 -1 12400 0;
#X obj 61 165 hsl 128 15 50 1000 1 1 empty empty frequency 20 8 0 10
-262144 -260097 -1 1500 0;
#X obj 61 180 hsl 128 15 1 200 0 1 empty empty decaytime 20 8 0 10
-262144 -260097 -1 4300 0;
#X obj 13 149 bng 25 250 50 0 empty empty empty 17 7 0 10 -262144 -260097
-1;
#X obj 61 245 hsl 128 15 50 300 0 1 empty empty noise 20 8 0 10 -262144
-260097 -1 10800 0;
#X obj 61 260 hsl 128 15 50 1000 1 1 empty empty frequency 20 8 0 10
-262144 -260097 -1 8000 0;
#X obj 61 275 hsl 128 15 1 200 0 1 empty empty decaytime 20 8 0 10
-262144 -260097 -1 6800 0;
#X obj 13 244 bng 25 250 50 0 empty empty empty 17 7 0 10 -262144 -260097
-1;
#X obj 61 339 hsl 128 15 50 300 0 1 empty empty noise 20 8 0 10 -262144
-260097 -1 2300 0;
#X obj 61 354 hsl 128 15 50 2000 1 1 empty empty frequency 20 8 0 10
-262144 -260097 -1 4300 0;
#X obj 61 369 hsl 128 15 1 200 0 1 empty empty decaytime 20 8 0 10
-262144 -260097 -1 8600 0;
#X obj 13 338 bng 25 250 50 0 empty empty empty 17 7 0 10 -262144 -260097
-1;
#N canvas 564 422 332 202 trig2 0;
#X obj 13 15 inlet;
#X obj 55 14 inlet;
#X obj 104 14 inlet;
#X obj 40 70 f;
#X obj 89 71 f;
#X obj 139 71 f;
#X obj 89 138 s \$0-freq;
#X obj 139 107 s \$0-decay;
#X obj 40 167 s \$0-noise;
#X obj 154 16 inlet;
#X obj 198 16 r \$0-trig2;
#X connect 0 0 3 0;
#X connect 0 0 4 0;
#X connect 0 0 5 0;
#X connect 1 0 3 1;
#X connect 2 0 4 1;
#X connect 3 0 8 0;
#X connect 4 0 6 0;
#X connect 5 0 7 0;
#X connect 9 0 5 1;
#X connect 10 0 3 0;
#X connect 10 0 4 0;
#X connect 10 0 5 0;
#X restore 13 201 pd trig2;
#N canvas 564 422 332 202 trig3 0;
#X obj 13 15 inlet;
#X obj 55 14 inlet;
#X obj 104 14 inlet;
#X obj 40 70 f;
#X obj 89 71 f;
#X obj 139 71 f;
#X obj 89 138 s \$0-freq;
#X obj 139 107 s \$0-decay;
#X obj 40 167 s \$0-noise;
#X obj 154 16 inlet;
#X obj 198 16 r \$0-trig3;
#X connect 0 0 3 0;
#X connect 0 0 4 0;
#X connect 0 0 5 0;
#X connect 1 0 3 1;
#X connect 2 0 4 1;
#X connect 3 0 8 0;
#X connect 4 0 6 0;
#X connect 5 0 7 0;
#X connect 9 0 5 1;
#X connect 10 0 3 0;
#X connect 10 0 4 0;
#X connect 10 0 5 0;
#X restore 13 296 pd trig3;
#N canvas 564 422 332 202 trig4 0;
#X obj 13 15 inlet;
#X obj 55 14 inlet;
#X obj 104 14 inlet;
#X obj 40 70 f;
#X obj 89 71 f;
#X obj 139 71 f;
#X obj 89 138 s \$0-freq;
#X obj 139 107 s \$0-decay;
#X obj 40 167 s \$0-noise;
#X obj 154 16 inlet;
#X obj 198 16 r \$0-trig4;
#X connect 0 0 3 0;
#X connect 0 0 4 0;
#X connect 0 0 5 0;
#X connect 1 0 3 1;
#X connect 2 0 4 1;
#X connect 3 0 8 0;
#X connect 4 0 6 0;
#X connect 5 0 7 0;
#X connect 9 0 5 1;
#X connect 10 0 3 0;
#X connect 10 0 4 0;
#X connect 10 0 5 0;
#X restore 13 390 pd trig4;
#X obj 474 36 hsl 128 15 100 150 0 1 empty empty empty -2 -8 0 10 -262144
-260097 -1 9400 0;
#X floatatom 484 65 5 0 0 0 - - -;
#X obj 224 20 cnv 15 160 350 empty empty empty 20 12 0 14 -233017 -66577
0;
#X obj 247 266 *~;
#X obj 300 114 *~;
#X obj 247 215 *~;
#X obj 300 142 *~;
#X obj 247 114 *~;
#X obj 247 31 r \$0-noise;
#X obj 239 348 *~ 0.1;
#X obj 419 266 cnv 15 200 140 empty empty empty 20 12 0 14 -233017
-66577 0;
#X obj 441 377 cpole~;
#X obj 435 283 *~ 0.01;
#X obj 456 305 r \$0-freq;
#X obj 528 285 r \$0-decay;
#N canvas 660 223 305 217 coeffs 0;
#X obj 36 29 inlet;
#X obj 147 29 inlet;
#N canvas 655 104 209 307 freqtoradian 0;
#X obj 46 85 samplerate~;
#X obj 46 53 bng 15 250 50 0 empty empty empty 17 7 0 10 -262144 -1
-1;
#X obj 46 173 /;
#X msg 46 145 1;
#X obj 46 116 t b f;
#X obj 31 236 *;
#X obj 72 54 loadbang;
#X floatatom 62 236 8 0 0 0 - - -;
#X obj 31 18 inlet;
#X obj 31 265 outlet;
#X obj 46 206 * 6.28318;
#X connect 0 0 4 0;
#X connect 1 0 0 0;
#X connect 2 0 10 0;
#X connect 3 0 2 0;
#X connect 4 0 3 0;
#X connect 4 1 2 1;
#X connect 5 0 9 0;
#X connect 6 0 0 0;
#X connect 8 0 5 0;
#X connect 10 0 5 1;
#X connect 10 0 7 0;
#X restore 36 74 pd freqtoradian;
#N canvas 462 346 221 292 decaytoradius 0;
#X obj 37 41 inlet;
#X obj 37 259 outlet;
#X obj 106 64 samplerate~;
#X obj 106 93 t b f;
#X msg 106 123 -1000;
#X floatatom 106 185 8 0 0 0 - - -;
#X obj 106 41 bng 15 250 50 0 empty empty empty 17 7 0 10 -262144 -1
-1;
#X obj 106 155 /;
#X obj 37 132 t b f;
#X obj 37 172 f;
#X obj 37 202 /;
#X obj 129 39 loadbang;
#X obj 37 229 exp;
#X connect 0 0 8 0;
#X connect 2 0 3 0;
#X connect 3 0 4 0;
#X connect 3 1 7 1;
#X connect 4 0 7 0;
#X connect 6 0 2 0;
#X connect 7 0 9 1;
#X connect 7 0 5 0;
#X connect 8 0 9 0;
#X connect 8 1 10 1;
#X connect 9 0 10 0;
#X connect 10 0 12 0;
#X connect 11 0 2 0;
#X connect 12 0 1 0;
#X restore 147 73 pd decaytoradius;
#X obj 36 154 outlet;
#X obj 93 154 outlet;
#X text 73 31 freq;
#X text 188 31 decay time ms;
#N canvas 700 220 194 238 cos&sin 0;
#X obj 24 26 inlet;
#X obj 126 26 inlet;
#X obj 24 73 cos;
#X obj 85 72 sin;
#X obj 85 131 *;
#X obj 24 101 t b f;
#X obj 85 100 t b f;
#X obj 24 132 *;
#X obj 24 186 outlet;
#X obj 85 186 outlet;
#X connect 0 0 2 0;
#X connect 0 0 3 0;
#X connect 1 0 7 0;
#X connect 1 0 4 0;
#X connect 2 0 5 0;
#X connect 3 0 6 0;
#X connect 4 0 9 0;
#X connect 5 0 7 0;
#X connect 5 1 7 1;
#X connect 6 0 4 0;
#X connect 6 1 4 1;
#X connect 7 0 8 0;
#X restore 36 105 pd cos&sin;
#X text 19 175 real coeff;
#X text 92 176 im coeff;
#X connect 0 0 2 0;
#X connect 1 0 3 0;
#X connect 2 0 8 0;
#X connect 3 0 8 1;
#X connect 8 0 4 0;
#X connect 8 1 5 0;
#X restore 457 344 pd coeffs;
#X text 323 324 noise;
#X text 528 375 resonator;
#X text 11 28 set 4 different sounds:;
#X text 11 490 Katja Vetter Oct. 2012;
#X obj 420 142 vradio 15 1 1 5 \$0-note empty empty 0 -8 0 10 -262144
-1 -1 4;
#X obj 420 118 sel 0 1 2 3 4 5 6 7 8 9 10 11 12 13 14 15 ------------
;
#X obj 438 142 vradio 15 1 1 5 \$0-note empty empty 0 -8 0 10 -262144
-191407 -1 4;
#X obj 457 142 vradio 15 1 1 5 \$0-note empty empty 0 -8 0 10 -262144
-1 -1 2;
#X obj 476 142 vradio 15 1 1 5 \$0-note empty empty 0 -8 0 10 -262144
-191407 -1 0;
#X obj 495 142 vradio 15 1 1 5 \$0-note empty empty 0 -8 0 10 -262144
-1 -1 0;
#X obj 514 142 vradio 15 1 1 5 \$0-note empty empty 0 -8 0 10 -262144
-191407 -1 4;
#X obj 533 142 vradio 15 1 1 5 \$0-note empty empty 0 -8 0 10 -262144
-1 -1 4;
#X obj 552 142 vradio 15 1 1 5 \$0-note empty empty 0 -8 0 10 -262144
-191407 -1 3;
#X obj 571 142 vradio 15 1 1 5 \$0-note empty empty 0 -8 0 10 -262144
-1 -1 1;
#X obj 589 142 vradio 15 1 1 5 \$0-note empty empty 0 -8 0 10 -262144
-191407 -1 2;
#X obj 608 142 vradio 15 1 1 5 \$0-note empty empty 0 -8 0 10 -262144
-1 -1 2;
#X obj 627 142 vradio 15 1 1 5 \$0-note empty empty 0 -8 0 10 -262144
-191407 -1 1;
#X obj 646 142 vradio 15 1 1 5 \$0-note empty empty 0 -8 0 10 -262144
-1 -1 1;
#X obj 665 142 vradio 15 1 1 5 \$0-note empty empty 0 -8 0 10 -262144
-191407 -1 3;
#X obj 684 142 vradio 15 1 1 5 \$0-note empty empty 0 -8 0 10 -262144
-1 -1 1;
#X obj 703 142 vradio 15 1 1 5 \$0-note empty empty 0 -8 0 10 -262144
-191407 -1 1;
#N canvas 527 416 153 192 receive-triggers 0;
#X obj 20 15 r \$0-note;
#X obj 20 43 sel 1 2 3 4;
#X obj 20 149 s \$0-trig1;
#X obj 35 126 s \$0-trig2;
#X obj 51 97 s \$0-trig3;
#X obj 67 71 s \$0-trig4;
#X connect 0 0 1 0;
#X connect 1 0 2 0;
#X connect 1 1 3 0;
#X connect 1 2 4 0;
#X connect 1 3 5 0;
#X restore 420 234 pd receive-triggers;
#X obj 420 65 metro 130;
#X text 10 425 Different percussion sounds generated by one monophonic
synth. The noise generator is from Obiwannabee's [efficient-drums]
(snare part) \, and it is used to trigger a resonator.;
#X obj 301 83 line~;
#X msg 300 60 1 \, 0 \$1;
#X obj 287 216 r~ \$0-fb2;
#X obj 247 60 / 6;
#X obj 247 166 +~ 5;
#X obj 685 43 f;
#X obj 715 47 + 1;
#X obj 744 50 mod 16;
#X obj 686 22 until;
#X msg 687 3 16;
#X obj 638 45 t f b;
#X obj 615 79 pack;
#X obj 521 98 route 0 1 2 3 4 5 6 7 8 9 10 11 12 13 14 15;
#X obj 672 64 random 5;
#X obj 291 -5 hsl 128 15 0.1 10 1 1 empty empty empty -2 -8 0 10 -262144
-260097 -1 2100 0;
#X obj 430 -6 hsl 128 15 0.05 100 1 1 empty empty empty -2 -8 0 10
-262144 -260097 -1 7000 0;
#X obj 299 341 hsl 128 15 0.1 1 1 1 empty empty empty -2 -8 0 10 -262144
-260097 -1 9200 0;
#X obj 649 285 hsl 128 15 0.5 2 1 1 empty empty empty -2 -8 0 10 -262144
-260097 -1 3500 0;
#X msg 647 261 1;
#X obj 458 326 *;
#X obj 531 319 *;
#X obj 651 337 hsl 128 15 0.25 4 1 1 empty empty empty -2 -8 0 10 -262144
-260097 -1 7500 0;
#X msg 649 313 1;
#X text 724 2 <- random sequence;
#X text 689 268 total freq;
#X text 693 318 total decay;
#X obj 247 243 cos~;
#X obj 247 139 cos~;
#X obj 485 420 s~ \$0-fb2;
#X obj 483 399 *~ 0.5;
#X obj 657 395 hsl 128 15 0.2 4 1 1 empty empty empty -2 -8 0 10 -262144
-260097 -1 9100 0;
#X text 699 376 feedback;
#X msg 655 371 0.5;
#X text 9 510 hardoff remix :);
#X connect 0 0 1 0;
#X connect 0 0 3 1;
#X connect 3 0 2 0;
#X connect 3 0 2 1;
#X connect 4 0 66 0;
#X connect 5 0 6 0;
#X connect 5 0 49 0;
#X connect 6 0 11 0;
#X connect 7 0 8 1;
#X connect 9 0 8 2;
#X connect 10 0 8 3;
#X connect 11 0 5 1;
#X connect 12 0 8 0;
#X connect 13 0 25 1;
#X connect 14 0 25 2;
#X connect 15 0 25 3;
#X connect 16 0 25 0;
#X connect 17 0 26 1;
#X connect 18 0 26 2;
#X connect 19 0 26 3;
#X connect 20 0 26 0;
#X connect 21 0 27 1;
#X connect 22 0 27 2;
#X connect 23 0 27 3;
#X connect 24 0 27 0;
#X connect 28 0 29 0;
#X connect 28 0 66 1;
#X connect 31 0 37 0;
#X connect 31 0 40 0;
#X connect 32 0 34 0;
#X connect 32 0 34 1;
#X connect 32 0 35 1;
#X connect 33 0 94 0;
#X connect 34 0 31 1;
#X connect 35 0 95 0;
#X connect 36 0 69 0;
#X connect 36 0 71 0;
#X connect 37 0 3 0;
#X connect 39 0 3 0;
#X connect 39 1 97 0;
#X connect 40 0 39 0;
#X connect 41 0 87 0;
#X connect 42 0 88 0;
#X connect 43 0 39 2;
#X connect 43 1 39 3;
#X connect 49 0 48 0;
#X connect 49 1 50 0;
#X connect 49 2 51 0;
#X connect 49 3 52 0;
#X connect 49 4 53 0;
#X connect 49 5 54 0;
#X connect 49 6 55 0;
#X connect 49 7 56 0;
#X connect 49 8 57 0;
#X connect 49 9 58 0;
#X connect 49 10 59 0;
#X connect 49 11 60 0;
#X connect 49 12 61 0;
#X connect 49 13 62 0;
#X connect 49 14 63 0;
#X connect 49 15 64 0;
#X connect 66 0 5 0;
#X connect 68 0 32 0;
#X connect 68 0 32 1;
#X connect 69 0 68 0;
#X connect 70 0 33 1;
#X connect 71 0 35 0;
#X connect 72 0 33 0;
#X connect 73 0 74 0;
#X connect 73 0 78 0;
#X connect 74 0 75 0;
#X connect 75 0 73 1;
#X connect 76 0 73 0;
#X connect 77 0 76 0;
#X connect 78 0 79 0;
#X connect 78 1 81 0;
#X connect 79 0 80 0;
#X connect 80 0 48 0;
#X connect 80 1 50 0;
#X connect 80 2 51 0;
#X connect 80 3 52 0;
#X connect 80 4 53 0;
#X connect 80 5 54 0;
#X connect 80 6 55 0;
#X connect 80 7 56 0;
#X connect 80 8 57 0;
#X connect 80 9 58 0;
#X connect 80 10 59 0;
#X connect 80 11 60 0;
#X connect 80 12 61 0;
#X connect 80 13 62 0;
#X connect 80 14 63 0;
#X connect 80 15 64 0;
#X connect 81 0 79 1;
#X connect 82 0 71 1;
#X connect 83 0 72 1;
#X connect 84 0 37 1;
#X connect 85 0 87 1;
#X connect 86 0 85 0;
#X connect 87 0 43 0;
#X connect 88 0 43 1;
#X connect 89 0 88 1;
#X connect 90 0 89 0;
#X connect 94 0 31 0;
#X connect 95 0 72 0;
#X connect 97 0 96 0;
#X connect 98 0 97 1;
#X connect 100 0 98 0;
