#N canvas 84 484 482 418 10;
#X obj 72 76 tgl 15 0 empty empty empty 0 -6 0 8 -262144 -1 -1 0 1
;
#X obj 72 235 efficient-kick;
#X obj 179 347 dac~;
#X msg 72 205 1;
#X obj 189 234 efficient-snare;
#X obj 72 118 f;
#X obj 103 118 + 1;
#X obj 139 118 mod 16;
#X msg 189 204 1;
#X obj 72 142 sel 0 1 2 3 4 5 6 7 8 9 10 11 12 13 14 15;
#X obj 72 97 metro 100;
#X obj 310 234 efficient-fmhh;
#X msg 292 200 1;
#X msg 330 200 2;
#X obj 248 295 * 0.01;
#X floatatom 248 276 5 0 0 0 - - -, f 5;
#X text 243 46 artist : ajf;
#X text 250 60 title : Efficient Drums;
#X text 243 74 length : 0;
#X obj 72 54 r play;
#X obj 190 285 *~ 0.5;
#X obj 164 51 bng 15 250 50 0 empty empty empty 17 7 0 10 -262144 -1
-1;
#X obj 164 71 s play;
#X connect 0 0 10 0;
#X connect 1 0 20 0;
#X connect 3 0 1 0;
#X connect 4 0 20 0;
#X connect 5 0 6 0;
#X connect 5 0 9 0;
#X connect 6 0 7 0;
#X connect 7 0 5 1;
#X connect 8 0 4 0;
#X connect 9 0 3 0;
#X connect 9 0 12 0;
#X connect 9 2 12 0;
#X connect 9 4 8 0;
#X connect 9 4 12 0;
#X connect 9 6 13 0;
#X connect 9 8 12 0;
#X connect 9 10 3 0;
#X connect 9 10 12 0;
#X connect 9 12 8 0;
#X connect 9 12 12 0;
#X connect 9 14 12 0;
#X connect 9 15 12 0;
#X connect 10 0 5 0;
#X connect 11 0 20 0;
#X connect 12 0 11 0;
#X connect 13 0 11 0;
#X connect 14 0 20 1;
#X connect 15 0 14 0;
#X connect 19 0 0 0;
#X connect 20 0 2 0;
#X connect 20 0 2 1;
#X connect 21 0 22 0;
