#N canvas 28 27 788 507 10;
#X obj 475 402 hsl 128 15 0 0.8 0 0 empty empty audio-level 20 8 0
10 -262144 -260097 -1 11400 0;
#X floatatom 485 429 5 0 0 0 - - -;
#X obj 451 457 dac~;
#X obj 451 429 *~ 0;
#X obj 436 17 tgl 25 1 empty empty empty 0 -6 0 8 -262144 -260097 -1
1 1;
#X obj 436 79 f;
#X obj 467 79 + 1;
#X obj 77 42 hsl 128 15 50 300 0 1 empty empty noise 20 8 0 10 -262144
-260097 -1 1200 0;
#N canvas 564 422 332 202 trig1 0;
#X obj 13 15 inlet;
#X obj 55 14 inlet;
#X obj 104 14 inlet;
#X obj 198 16 r \$0-trig1;
#X obj 40 70 f;
#X obj 89 71 f;
#X obj 139 71 f;
#X obj 89 138 s \$0-freq;
#X obj 139 107 s \$0-decay;
#X obj 40 167 s \$0-noise;
#X obj 154 16 inlet;
#X connect 0 0 4 0;
#X connect 0 0 5 0;
#X connect 0 0 6 0;
#X connect 1 0 4 1;
#X connect 2 0 5 1;
#X connect 3 0 4 0;
#X connect 3 0 5 0;
#X connect 3 0 6 0;
#X connect 4 0 9 0;
#X connect 5 0 7 0;
#X connect 6 0 8 0;
#X connect 10 0 6 1;
#X restore 29 93 pd trig1;
#X obj 77 57 hsl 128 15 50 1000 1 1 empty empty frequency 20 8 0 10
-262144 -260097 -1 2200 0;
#X obj 77 72 hsl 128 15 1 200 0 1 empty empty decaytime 20 8 0 10 -262144
-260097 -1 12300 0;
#X obj 503 79 & 15;
#X obj 29 41 bng 25 250 50 0 empty empty empty 17 7 0 10 -262144 -260097
-1;
#X obj 77 136 hsl 128 15 50 300 0 1 empty empty noise 20 8 0 10 -262144
-260097 -1 1000 0;
#X obj 77 151 hsl 128 15 50 1000 1 1 empty empty frequency 20 8 0 10
-262144 -260097 -1 1500 0;
#X obj 77 166 hsl 128 15 1 200 0 1 empty empty decaytime 20 8 0 10
-262144 -260097 -1 7600 0;
#X obj 29 135 bng 25 250 50 0 empty empty empty 17 7 0 10 -262144 -260097
-1;
#X obj 77 231 hsl 128 15 50 300 0 1 empty empty noise 20 8 0 10 -262144
-260097 -1 8300 0;
#X obj 77 246 hsl 128 15 50 1000 1 1 empty empty frequency 20 8 0 10
-262144 -260097 -1 5500 0;
#X obj 77 261 hsl 128 15 1 200 0 1 empty empty decaytime 20 8 0 10
-262144 -260097 -1 900 0;
#X obj 29 230 bng 25 250 50 0 empty empty empty 17 7 0 10 -262144 -260097
-1;
#X obj 77 325 hsl 128 15 50 300 0 1 empty empty noise 20 8 0 10 -262144
-260097 -1 7000 0;
#X obj 77 340 hsl 128 15 50 2000 1 1 empty empty frequency 20 8 0 10
-262144 -260097 -1 12300 0;
#X obj 77 355 hsl 128 15 1 200 0 1 empty empty decaytime 20 8 0 10
-262144 -260097 -1 700 0;
#X obj 29 324 bng 25 250 50 0 empty empty empty 17 7 0 10 -262144 -260097
-1;
#N canvas 564 422 332 202 trig2 0;
#X obj 13 15 inlet;
#X obj 55 14 inlet;
#X obj 104 14 inlet;
#X obj 40 70 f;
#X obj 89 71 f;
#X obj 139 71 f;
#X obj 89 138 s \$0-freq;
#X obj 139 107 s \$0-decay;
#X obj 40 167 s \$0-noise;
#X obj 154 16 inlet;
#X obj 198 16 r \$0-trig2;
#X connect 0 0 3 0;
#X connect 0 0 4 0;
#X connect 0 0 5 0;
#X connect 1 0 3 1;
#X connect 2 0 4 1;
#X connect 3 0 8 0;
#X connect 4 0 6 0;
#X connect 5 0 7 0;
#X connect 9 0 5 1;
#X connect 10 0 3 0;
#X connect 10 0 4 0;
#X connect 10 0 5 0;
#X restore 29 187 pd trig2;
#N canvas 564 422 332 202 trig3 0;
#X obj 13 15 inlet;
#X obj 55 14 inlet;
#X obj 104 14 inlet;
#X obj 40 70 f;
#X obj 89 71 f;
#X obj 139 71 f;
#X obj 89 138 s \$0-freq;
#X obj 139 107 s \$0-decay;
#X obj 40 167 s \$0-noise;
#X obj 154 16 inlet;
#X obj 198 16 r \$0-trig3;
#X connect 0 0 3 0;
#X connect 0 0 4 0;
#X connect 0 0 5 0;
#X connect 1 0 3 1;
#X connect 2 0 4 1;
#X connect 3 0 8 0;
#X connect 4 0 6 0;
#X connect 5 0 7 0;
#X connect 9 0 5 1;
#X connect 10 0 3 0;
#X connect 10 0 4 0;
#X connect 10 0 5 0;
#X restore 29 282 pd trig3;
#N canvas 564 422 332 202 trig4 0;
#X obj 13 15 inlet;
#X obj 55 14 inlet;
#X obj 104 14 inlet;
#X obj 40 70 f;
#X obj 89 71 f;
#X obj 139 71 f;
#X obj 89 138 s \$0-freq;
#X obj 139 107 s \$0-decay;
#X obj 40 167 s \$0-noise;
#X obj 154 16 inlet;
#X obj 198 16 r \$0-trig4;
#X connect 0 0 3 0;
#X connect 0 0 4 0;
#X connect 0 0 5 0;
#X connect 1 0 3 1;
#X connect 2 0 4 1;
#X connect 3 0 8 0;
#X connect 4 0 6 0;
#X connect 5 0 7 0;
#X connect 9 0 5 1;
#X connect 10 0 3 0;
#X connect 10 0 4 0;
#X connect 10 0 5 0;
#X restore 29 376 pd trig4;
#X obj 490 22 hsl 128 15 100 150 0 0 empty empty empty -2 -8 0 10 -262144
-260097 -1 0 0;
#X floatatom 500 51 5 0 0 0 - - -;
#X obj 248 4 cnv 15 160 350 empty empty empty 20 12 0 14 -233017 -66577
0;
#X obj 263 252 *~;
#X obj 263 127 cos~;
#X obj 316 100 *~;
#X obj 263 229 cos~;
#X obj 263 201 *~;
#X obj 316 128 *~;
#X obj 263 100 *~;
#X obj 263 46 / 6;
#X obj 279 278 s~ \$0-fb2;
#X obj 278 177 r~ \$0-fb2;
#X obj 316 71 vline~;
#X obj 263 152 +~ 5;
#X obj 263 17 r \$0-noise;
#X msg 316 46 1 0 0 \, 0 \$1 3;
#X obj 263 309 *~ 0.1;
#X obj 435 252 cnv 15 200 140 empty empty empty 20 12 0 14 -233017
-66577 0;
#X obj 451 361 cpole~;
#X obj 451 269 *~ 0.01;
#X obj 473 297 r \$0-freq;
#X obj 540 297 r \$0-decay;
#N canvas 660 223 305 217 coeffs 0;
#X obj 36 29 inlet;
#X obj 147 29 inlet;
#N canvas 655 104 209 307 freqtoradian 0;
#X obj 46 85 samplerate~;
#X obj 46 53 bng 15 250 50 0 empty empty empty 17 7 0 10 -262144 -1
-1;
#X obj 46 173 /;
#X msg 46 145 1;
#X obj 46 116 t b f;
#X obj 31 236 *;
#X obj 72 54 loadbang;
#X floatatom 62 236 8 0 0 0 - - -;
#X obj 31 18 inlet;
#X obj 31 265 outlet;
#X obj 46 206 * 6.28318;
#X connect 0 0 4 0;
#X connect 1 0 0 0;
#X connect 2 0 10 0;
#X connect 3 0 2 0;
#X connect 4 0 3 0;
#X connect 4 1 2 1;
#X connect 5 0 9 0;
#X connect 6 0 0 0;
#X connect 8 0 5 0;
#X connect 10 0 5 1;
#X connect 10 0 7 0;
#X restore 36 74 pd freqtoradian;
#N canvas 462 346 221 292 decaytoradius 0;
#X obj 37 41 inlet;
#X obj 37 259 outlet;
#X obj 106 64 samplerate~;
#X obj 106 93 t b f;
#X msg 106 123 -1000;
#X floatatom 106 185 8 0 0 0 - - -;
#X obj 106 41 bng 15 250 50 0 empty empty empty 17 7 0 10 -262144 -1
-1;
#X obj 106 155 /;
#X obj 37 132 t b f;
#X obj 37 172 f;
#X obj 37 202 /;
#X obj 129 39 loadbang;
#X obj 37 229 exp;
#X connect 0 0 8 0;
#X connect 2 0 3 0;
#X connect 3 0 4 0;
#X connect 3 1 7 1;
#X connect 4 0 7 0;
#X connect 6 0 2 0;
#X connect 7 0 9 1;
#X connect 7 0 5 0;
#X connect 8 0 9 0;
#X connect 8 1 10 1;
#X connect 9 0 10 0;
#X connect 10 0 12 0;
#X connect 11 0 2 0;
#X connect 12 0 1 0;
#X restore 147 73 pd decaytoradius;
#X obj 36 154 outlet;
#X obj 93 154 outlet;
#X text 73 31 freq;
#X text 188 31 decay time ms;
#N canvas 700 220 194 238 cos&sin 0;
#X obj 24 26 inlet;
#X obj 126 26 inlet;
#X obj 24 73 cos;
#X obj 85 72 sin;
#X obj 85 131 *;
#X obj 24 101 t b f;
#X obj 85 100 t b f;
#X obj 24 132 *;
#X obj 24 186 outlet;
#X obj 85 186 outlet;
#X connect 0 0 2 0;
#X connect 0 0 3 0;
#X connect 1 0 7 0;
#X connect 1 0 4 0;
#X connect 2 0 5 0;
#X connect 3 0 6 0;
#X connect 4 0 9 0;
#X connect 5 0 7 0;
#X connect 5 1 7 1;
#X connect 6 0 4 0;
#X connect 6 1 4 1;
#X connect 7 0 8 0;
#X restore 36 105 pd cos&sin;
#X text 19 175 real coeff;
#X text 92 176 im coeff;
#X connect 0 0 2 0;
#X connect 1 0 3 0;
#X connect 2 0 8 0;
#X connect 3 0 8 1;
#X connect 8 0 4 0;
#X connect 8 1 5 0;
#X restore 473 330 pd coeffs;
#X text 339 310 noise;
#X text 544 361 resonator;
#X text 27 14 set 4 different sounds:;
#X text 27 476 Katja Vetter Oct. 2012;
#X obj 436 128 vradio 15 1 1 5 \$0-note empty empty 0 -8 0 10 -262144
-1 -1 1;
#X obj 436 104 sel 0 1 2 3 4 5 6 7 8 9 10 11 12 13 14 15 ------------
;
#X obj 454 128 vradio 15 1 1 5 \$0-note empty empty 0 -8 0 10 -262144
-191407 -1 0;
#X obj 473 128 vradio 15 1 1 5 \$0-note empty empty 0 -8 0 10 -262144
-1 -1 3;
#X obj 492 128 vradio 15 1 1 5 \$0-note empty empty 0 -8 0 10 -262144
-191407 -1 4;
#X obj 511 128 vradio 15 1 1 5 \$0-note empty empty 0 -8 0 10 -262144
-1 -1 2;
#X obj 530 128 vradio 15 1 1 5 \$0-note empty empty 0 -8 0 10 -262144
-191407 -1 3;
#X obj 549 128 vradio 15 1 1 5 \$0-note empty empty 0 -8 0 10 -262144
-1 -1 3;
#X obj 568 128 vradio 15 1 1 5 \$0-note empty empty 0 -8 0 10 -262144
-191407 -1 4;
#X obj 587 128 vradio 15 1 1 5 \$0-note empty empty 0 -8 0 10 -262144
-1 -1 1;
#X obj 605 128 vradio 15 1 1 5 \$0-note empty empty 0 -8 0 10 -262144
-191407 -1 0;
#X obj 624 128 vradio 15 1 1 5 \$0-note empty empty 0 -8 0 10 -262144
-1 -1 1;
#X obj 643 128 vradio 15 1 1 5 \$0-note empty empty 0 -8 0 10 -262144
-191407 -1 3;
#X obj 662 128 vradio 15 1 1 5 \$0-note empty empty 0 -8 0 10 -262144
-1 -1 2;
#X obj 681 128 vradio 15 1 1 5 \$0-note empty empty 0 -8 0 10 -262144
-191407 -1 3;
#X obj 700 128 vradio 15 1 1 5 \$0-note empty empty 0 -8 0 10 -262144
-1 -1 3;
#X obj 719 128 vradio 15 1 1 5 \$0-note empty empty 0 -8 0 10 -262144
-191407 -1 2;
#N canvas 527 416 153 192 receive-triggers 0;
#X obj 20 15 r \$0-note;
#X obj 20 43 sel 1 2 3 4;
#X obj 20 149 s \$0-trig1;
#X obj 35 126 s \$0-trig2;
#X obj 51 97 s \$0-trig3;
#X obj 67 71 s \$0-trig4;
#X connect 0 0 1 0;
#X connect 1 0 2 0;
#X connect 1 1 3 0;
#X connect 1 2 4 0;
#X connect 1 3 5 0;
#X restore 436 220 pd receive-triggers;
#X obj 436 51 metro 130;
#X text 26 411 Different percussion sounds generated by one monophonic
synth. The noise generator is from Obiwannabee's [efficient-drums]
(snare part) \, and it is used to trigger a resonator.;
#X connect 0 0 1 0;
#X connect 0 0 3 1;
#X connect 3 0 2 0;
#X connect 3 0 2 1;
#X connect 4 0 74 0;
#X connect 5 0 6 0;
#X connect 5 0 57 0;
#X connect 6 0 11 0;
#X connect 7 0 8 1;
#X connect 9 0 8 2;
#X connect 10 0 8 3;
#X connect 11 0 5 1;
#X connect 12 0 8 0;
#X connect 13 0 25 1;
#X connect 14 0 25 2;
#X connect 15 0 25 3;
#X connect 16 0 25 0;
#X connect 17 0 26 1;
#X connect 18 0 26 2;
#X connect 19 0 26 3;
#X connect 20 0 26 0;
#X connect 21 0 27 1;
#X connect 22 0 27 2;
#X connect 23 0 27 3;
#X connect 24 0 27 0;
#X connect 28 0 29 0;
#X connect 28 0 74 1;
#X connect 31 0 39 0;
#X connect 31 0 45 0;
#X connect 31 0 48 0;
#X connect 32 0 42 0;
#X connect 33 0 36 0;
#X connect 33 0 36 1;
#X connect 34 0 31 0;
#X connect 35 0 34 0;
#X connect 36 0 31 1;
#X connect 37 0 32 0;
#X connect 38 0 37 0;
#X connect 40 0 35 1;
#X connect 41 0 33 0;
#X connect 41 0 33 1;
#X connect 41 0 37 1;
#X connect 42 0 35 0;
#X connect 43 0 38 0;
#X connect 43 0 44 0;
#X connect 44 0 41 0;
#X connect 45 0 3 0;
#X connect 47 0 3 0;
#X connect 48 0 47 0;
#X connect 49 0 51 0;
#X connect 50 0 51 1;
#X connect 51 0 47 2;
#X connect 51 1 47 3;
#X connect 57 0 56 0;
#X connect 57 1 58 0;
#X connect 57 2 59 0;
#X connect 57 3 60 0;
#X connect 57 4 61 0;
#X connect 57 5 62 0;
#X connect 57 6 63 0;
#X connect 57 7 64 0;
#X connect 57 8 65 0;
#X connect 57 9 66 0;
#X connect 57 10 67 0;
#X connect 57 11 68 0;
#X connect 57 12 69 0;
#X connect 57 13 70 0;
#X connect 57 14 71 0;
#X connect 57 15 72 0;
#X connect 74 0 5 0;
