#N canvas 549 125 882 598 10;
#X obj 475 492 hsl 128 15 0 0.8 0 0 empty empty audio-level 20 8 0
10 -262144 -260097 -1 3500 0;
#X floatatom 485 519 5 0 0 0 - - -;
#X obj 451 547 dac~;
#X obj 451 519 *~ 0;
#X obj 77 132 hsl 128 15 50 300 0 1 empty empty noise 20 8 0 10 -262144
-260097 -1 1100 0;
#N canvas 564 422 332 202 trig1 0;
#X obj 13 15 inlet;
#X obj 55 14 inlet;
#X obj 104 14 inlet;
#X obj 198 16 r \$0-trig1;
#X obj 40 70 f;
#X obj 89 71 f;
#X obj 139 71 f;
#X obj 89 138 s \$0-freq;
#X obj 139 107 s \$0-decay;
#X obj 40 167 s \$0-noise;
#X obj 154 16 inlet;
#X connect 0 0 4 0;
#X connect 0 0 5 0;
#X connect 0 0 6 0;
#X connect 1 0 4 1;
#X connect 2 0 5 1;
#X connect 3 0 4 0;
#X connect 3 0 5 0;
#X connect 3 0 6 0;
#X connect 4 0 9 0;
#X connect 5 0 7 0;
#X connect 6 0 8 0;
#X connect 10 0 6 1;
#X restore 29 183 pd trig1;
#X obj 77 147 hsl 128 15 50 1000 1 1 empty empty frequency 20 8 0 10
-262144 -260097 -1 2200 0;
#X obj 77 162 hsl 128 15 1 200 0 1 empty empty decaytime 20 8 0 10
-262144 -260097 -1 8100 0;
#X obj 29 131 bng 25 250 50 0 empty empty empty 17 7 0 10 -262144 -260097
-1;
#X obj 77 226 hsl 128 15 50 300 0 1 empty empty noise 20 8 0 10 -262144
-260097 -1 1000 0;
#X obj 77 241 hsl 128 15 50 1000 1 1 empty empty frequency 20 8 0 10
-262144 -260097 -1 1500 0;
#X obj 77 256 hsl 128 15 1 200 0 1 empty empty decaytime 20 8 0 10
-262144 -260097 -1 7600 0;
#X obj 29 225 bng 25 250 50 0 empty empty empty 17 7 0 10 -262144 -260097
-1;
#X obj 77 321 hsl 128 15 50 300 0 1 empty empty noise 20 8 0 10 -262144
-260097 -1 8300 0;
#X obj 77 336 hsl 128 15 50 1000 1 1 empty empty frequency 20 8 0 10
-262144 -260097 -1 5500 0;
#X obj 77 351 hsl 128 15 1 200 0 1 empty empty decaytime 20 8 0 10
-262144 -260097 -1 1700 0;
#X obj 29 320 bng 25 250 50 0 empty empty empty 17 7 0 10 -262144 -260097
-1;
#X obj 77 415 hsl 128 15 50 300 0 1 empty empty noise 20 8 0 10 -262144
-260097 -1 7000 0;
#X obj 77 430 hsl 128 15 50 2000 1 1 empty empty frequency 20 8 0 10
-262144 -260097 -1 12300 0;
#X obj 77 445 hsl 128 15 1 200 0 1 empty empty decaytime 20 8 0 10
-262144 -260097 -1 700 0;
#X obj 29 414 bng 25 250 50 0 empty empty empty 17 7 0 10 -262144 -260097
-1;
#N canvas 564 422 332 202 trig2 0;
#X obj 13 15 inlet;
#X obj 55 14 inlet;
#X obj 104 14 inlet;
#X obj 40 70 f;
#X obj 89 71 f;
#X obj 139 71 f;
#X obj 89 138 s \$0-freq;
#X obj 139 107 s \$0-decay;
#X obj 40 167 s \$0-noise;
#X obj 154 16 inlet;
#X obj 198 16 r \$0-trig2;
#X connect 0 0 3 0;
#X connect 0 0 4 0;
#X connect 0 0 5 0;
#X connect 1 0 3 1;
#X connect 2 0 4 1;
#X connect 3 0 8 0;
#X connect 4 0 6 0;
#X connect 5 0 7 0;
#X connect 9 0 5 1;
#X connect 10 0 3 0;
#X connect 10 0 4 0;
#X connect 10 0 5 0;
#X restore 29 277 pd trig2;
#N canvas 562 459 332 202 trig3 0;
#X obj 13 15 inlet;
#X obj 55 14 inlet;
#X obj 104 14 inlet;
#X obj 40 70 f;
#X obj 89 71 f;
#X obj 139 71 f;
#X obj 89 138 s \$0-freq;
#X obj 139 107 s \$0-decay;
#X obj 40 167 s \$0-noise;
#X obj 154 16 inlet;
#X obj 198 16 r \$0-trig3;
#X connect 0 0 3 0;
#X connect 0 0 4 0;
#X connect 0 0 5 0;
#X connect 1 0 3 1;
#X connect 2 0 4 1;
#X connect 3 0 8 0;
#X connect 4 0 6 0;
#X connect 5 0 7 0;
#X connect 9 0 5 1;
#X connect 10 0 3 0;
#X connect 10 0 4 0;
#X connect 10 0 5 0;
#X restore 29 372 pd trig3;
#N canvas 564 422 332 202 trig4 0;
#X obj 13 15 inlet;
#X obj 55 14 inlet;
#X obj 104 14 inlet;
#X obj 40 70 f;
#X obj 89 71 f;
#X obj 139 71 f;
#X obj 89 138 s \$0-freq;
#X obj 139 107 s \$0-decay;
#X obj 40 167 s \$0-noise;
#X obj 154 16 inlet;
#X obj 198 16 r \$0-trig4;
#X connect 0 0 3 0;
#X connect 0 0 4 0;
#X connect 0 0 5 0;
#X connect 1 0 3 1;
#X connect 2 0 4 1;
#X connect 3 0 8 0;
#X connect 4 0 6 0;
#X connect 5 0 7 0;
#X connect 9 0 5 1;
#X connect 10 0 3 0;
#X connect 10 0 4 0;
#X connect 10 0 5 0;
#X restore 29 466 pd trig4;
#X obj 248 94 cnv 15 160 350 empty empty empty 20 12 0 14 -233017 -66577
0;
#X obj 263 342 *~;
#X obj 263 217 cos~;
#X obj 316 190 *~;
#X obj 263 319 cos~;
#X obj 263 291 *~;
#X obj 316 218 *~;
#X obj 263 190 *~;
#X obj 263 136 / 6;
#X obj 279 368 s~ \$0-fb2;
#X obj 278 267 r~ \$0-fb2;
#X obj 316 161 vline~;
#X obj 263 242 +~ 5;
#X obj 263 107 r \$0-noise;
#X msg 316 136 1 0 0 \, 0 \$1 3;
#X obj 263 399 *~ 0.1;
#X obj 435 342 cnv 15 200 140 empty empty empty 20 12 0 14 -233017
-66577 0;
#X obj 451 451 cpole~;
#X obj 451 359 *~ 0.01;
#X obj 473 387 r \$0-freq;
#X obj 540 387 r \$0-decay;
#N canvas 656 297 305 217 coeffs 0;
#X obj 36 29 inlet;
#X obj 147 29 inlet;
#N canvas 653 141 209 307 freqtoradian 0;
#X obj 46 85 samplerate~;
#X obj 46 53 bng 15 250 50 0 empty empty empty 17 7 0 10 -262144 -1
-1;
#X obj 46 173 /;
#X msg 46 145 1;
#X obj 46 116 t b f;
#X obj 31 236 *;
#X obj 72 54 loadbang;
#X floatatom 62 236 8 0 0 0 - - -;
#X obj 31 18 inlet;
#X obj 31 265 outlet;
#X obj 46 206 * 6.28318;
#X connect 0 0 4 0;
#X connect 1 0 0 0;
#X connect 2 0 10 0;
#X connect 3 0 2 0;
#X connect 4 0 3 0;
#X connect 4 1 2 1;
#X connect 5 0 9 0;
#X connect 6 0 0 0;
#X connect 8 0 5 0;
#X connect 10 0 5 1;
#X connect 10 0 7 0;
#X restore 36 74 pd freqtoradian;
#N canvas 460 383 221 292 decaytoradius 0;
#X obj 37 41 inlet;
#X obj 37 259 outlet;
#X obj 106 64 samplerate~;
#X obj 106 93 t b f;
#X msg 106 123 -1000;
#X floatatom 106 185 8 0 0 0 - - -;
#X obj 106 41 bng 15 250 50 0 empty empty empty 17 7 0 10 -262144 -1
-1;
#X obj 106 155 /;
#X obj 37 132 t b f;
#X obj 37 172 f;
#X obj 37 202 /;
#X obj 129 39 loadbang;
#X obj 37 229 exp;
#X connect 0 0 8 0;
#X connect 2 0 3 0;
#X connect 3 0 4 0;
#X connect 3 1 7 1;
#X connect 4 0 7 0;
#X connect 6 0 2 0;
#X connect 7 0 9 1;
#X connect 7 0 5 0;
#X connect 8 0 9 0;
#X connect 8 1 10 1;
#X connect 9 0 10 0;
#X connect 10 0 12 0;
#X connect 11 0 2 0;
#X connect 12 0 1 0;
#X restore 147 73 pd decaytoradius;
#X obj 36 154 outlet;
#X obj 93 154 outlet;
#X text 73 31 freq;
#X text 188 31 decay time ms;
#N canvas 698 257 194 238 cos&sin 0;
#X obj 24 26 inlet;
#X obj 126 26 inlet;
#X obj 24 73 cos;
#X obj 85 72 sin;
#X obj 85 131 *;
#X obj 24 101 t b f;
#X obj 85 100 t b f;
#X obj 24 132 *;
#X obj 24 186 outlet;
#X obj 85 186 outlet;
#X connect 0 0 2 0;
#X connect 0 0 3 0;
#X connect 1 0 7 0;
#X connect 1 0 4 0;
#X connect 2 0 5 0;
#X connect 3 0 6 0;
#X connect 4 0 9 0;
#X connect 5 0 7 0;
#X connect 5 1 7 1;
#X connect 6 0 4 0;
#X connect 6 1 4 1;
#X connect 7 0 8 0;
#X restore 36 105 pd cos&sin;
#X text 19 175 real coeff;
#X text 92 176 im coeff;
#X connect 0 0 2 0;
#X connect 1 0 3 0;
#X connect 2 0 8 0;
#X connect 3 0 8 1;
#X connect 8 0 4 0;
#X connect 8 1 5 0;
#X restore 473 420 pd coeffs;
#X text 339 400 noise;
#X text 544 451 resonator;
#X text 27 104 set 4 different sounds:;
#X text 27 566 Katja Vetter Oct. 2012;
#X obj 436 228 vradio 15 1 1 5 \$0-note empty empty 0 -8 0 10 -262144
-1 -1 1;
#X obj 436 204 sel 0 1 2 3 4 5 6 7 8 9 10 11 12 13 14 15 ------------
;
#X obj 454 228 vradio 15 1 1 5 \$0-note empty empty 0 -8 0 10 -262144
-191407 -1 0;
#X obj 473 228 vradio 15 1 1 5 \$0-note empty empty 0 -8 0 10 -262144
-1 -1 3;
#X obj 492 228 vradio 15 1 1 5 \$0-note empty empty 0 -8 0 10 -262144
-191407 -1 4;
#X obj 511 228 vradio 15 1 1 5 \$0-note empty empty 0 -8 0 10 -262144
-1 -1 2;
#X obj 530 228 vradio 15 1 1 5 \$0-note empty empty 0 -8 0 10 -262144
-191407 -1 3;
#X obj 549 228 vradio 15 1 1 5 \$0-note empty empty 0 -8 0 10 -262144
-1 -1 3;
#X obj 568 228 vradio 15 1 1 5 \$0-note empty empty 0 -8 0 10 -262144
-191407 -1 4;
#X obj 587 228 vradio 15 1 1 5 \$0-note empty empty 0 -8 0 10 -262144
-1 -1 1;
#X obj 605 228 vradio 15 1 1 5 \$0-note empty empty 0 -8 0 10 -262144
-191407 -1 0;
#X obj 624 228 vradio 15 1 1 5 \$0-note empty empty 0 -8 0 10 -262144
-1 -1 1;
#X obj 643 228 vradio 15 1 1 5 \$0-note empty empty 0 -8 0 10 -262144
-191407 -1 3;
#X obj 662 228 vradio 15 1 1 5 \$0-note empty empty 0 -8 0 10 -262144
-1 -1 2;
#X obj 681 228 vradio 15 1 1 5 \$0-note empty empty 0 -8 0 10 -262144
-191407 -1 3;
#X obj 700 228 vradio 15 1 1 5 \$0-note empty empty 0 -8 0 10 -262144
-1 -1 3;
#X obj 719 228 vradio 15 1 1 5 \$0-note empty empty 0 -8 0 10 -262144
-191407 -1 2;
#N canvas 527 416 153 192 receive-triggers 0;
#X obj 20 15 r \$0-note;
#X obj 20 43 sel 1 2 3 4;
#X obj 20 149 s \$0-trig1;
#X obj 35 126 s \$0-trig2;
#X obj 51 97 s \$0-trig3;
#X obj 67 71 s \$0-trig4;
#X connect 0 0 1 0;
#X connect 1 0 2 0;
#X connect 1 1 3 0;
#X connect 1 2 4 0;
#X connect 1 3 5 0;
#X restore 436 320 pd receive-triggers;
#X text 26 501 Different percussion sounds generated by one monophonic
synth. The noise generator is from Obiwannabee's [efficient-drums]
(snare part) \, and it is used to trigger a resonator.;
#X obj 410 227 bng 15 250 50 0 empty empty empty 17 7 0 10 -262144
-1 -1;
#X msg 436 9 0 0 0 0 0 0 0 0 0 0;
#X msg 436 49 0 0 0 16 0 0 0 7 0 0;
#X text 376 9 Presets;
#X msg 436 29 0 5 -3 4 0 0 0 5 0 0;
#X msg 436 93 0 0 5 -10 0 0 0 6 4 0;
#X text 587 93 ???;
#X text 587 9 neutral;
#N canvas 1 215 1041 640 swing-groove 0;
#X obj 103 527 int;
#X obj 103 549 change;
#X msg 130 163 60 \$1;
#X obj 130 185 /;
#X obj 130 207 * 1000;
#X obj 103 271 metro;
#X obj 103 293 f;
#X obj 133 293 + 1;
#X obj 103 601 outlet;
#X floatatom 105 141 5 0 0 1 bpm - -;
#X obj 105 119 tgl 15 0 empty empty play 17 7 0 10 -262144 -1 -1 1
1;
#X obj 64 116 bng 15 250 50 0 empty empty empty 17 7 0 10 -262144 -1
-1;
#X obj 163 293 mod 384;
#X obj 103 315 / 24;
#X obj 130 251 / 24;
#X obj 103 377 / 4;
#X obj 103 508 * 4;
#X text 168 142 asym;
#X obj 176 471 +;
#X obj 103 488 -;
#X obj 103 429 trigger float float float;
#N canvas 1 116 737 340 asym---- 0;
#X text 565 156 Assymetrie;
#X obj 159 213 / 100;
#X text 169 120 noires;
#X obj 62 213 / 100;
#X text 65 120 blanches;
#X obj 259 213 / 100;
#X obj 359 213 / 100;
#X text 263 120 croches;
#X text 368 120 doublecroches;
#X obj 12 121 * 0.125;
#X obj 122 121 * 0.25;
#X obj 222 121 * 0.5;
#X obj 322 121 * 1;
#X obj 12 165 * 6.2832;
#X obj 12 187 sin;
#X obj 12 230 * 0;
#X obj 12 250 * 0.4392;
#X obj 122 187 sin;
#X obj 122 230 * 0;
#X obj 122 250 * 0.4392;
#X obj 222 230 * 0;
#X obj 222 250 * 0.4392;
#X obj 322 250 * 0.4392;
#X obj 322 230 * 0;
#X obj 322 187 sin;
#X obj 222 187 sin;
#X obj 122 165 * 6.2832;
#X obj 222 165 * 6.2832;
#X obj 322 165 * 6.2832;
#X obj 12 4 inlet;
#X obj 12 76 t f f f f;
#X obj 12 327 outlet;
#X obj 222 292 +;
#X obj 122 292 +;
#X obj 12 292 +;
#X obj 62 14 inlet;
#X obj 159 14 inlet;
#X obj 259 14 inlet;
#X obj 359 14 inlet;
#X obj 471 8 inlet;
#X obj 12 46 +;
#X obj 471 30 / 100;
#X obj 322 143 wrap;
#X obj 222 143 wrap;
#X obj 122 143 wrap;
#X obj 12 143 wrap;
#X connect 1 0 18 1;
#X connect 3 0 15 1;
#X connect 5 0 20 1;
#X connect 6 0 23 1;
#X connect 9 0 45 0;
#X connect 10 0 44 0;
#X connect 11 0 43 0;
#X connect 12 0 42 0;
#X connect 13 0 14 0;
#X connect 14 0 15 0;
#X connect 15 0 16 0;
#X connect 16 0 34 0;
#X connect 17 0 18 0;
#X connect 18 0 19 0;
#X connect 19 0 33 0;
#X connect 20 0 21 0;
#X connect 21 0 32 0;
#X connect 22 0 32 1;
#X connect 23 0 22 0;
#X connect 24 0 23 0;
#X connect 25 0 20 0;
#X connect 26 0 17 0;
#X connect 27 0 25 0;
#X connect 28 0 24 0;
#X connect 29 0 40 0;
#X connect 30 0 9 0;
#X connect 30 1 10 0;
#X connect 30 2 11 0;
#X connect 30 3 12 0;
#X connect 32 0 33 1;
#X connect 33 0 34 1;
#X connect 34 0 31 0;
#X connect 35 0 3 0;
#X connect 36 0 1 0;
#X connect 37 0 5 0;
#X connect 38 0 6 0;
#X connect 39 0 41 0;
#X connect 40 0 30 0;
#X connect 41 0 40 1;
#X connect 42 0 28 0;
#X connect 43 0 27 0;
#X connect 44 0 26 0;
#X connect 45 0 13 0;
#X restore 176 451 pd asym----;
#X floatatom 205 112 5 0 0 3 2nd - -;
#X floatatom 245 112 5 0 0 3 4er - -;
#X floatatom 285 112 5 0 0 3 8th - -;
#X floatatom 325 112 5 0 0 3 16th - -;
#X floatatom 365 112 5 0 0 3 phase - -;
#X floatatom 205 143 5 0 0 0 - - -;
#X floatatom 245 143 5 0 0 0 - - -;
#X floatatom 285 143 5 0 0 0 - - -;
#X floatatom 325 143 5 0 0 0 - - -;
#X floatatom 365 143 5 0 0 0 - - -;
#X text 168 112 shift;
#X obj 130 229 / 4;
#X obj 531 304 pack float float float float float float float float
float float;
#X obj 544 269 t b f;
#X obj 584 269 t b f;
#X obj 624 269 t b f;
#X obj 664 269 t b f;
#X obj 704 269 t b f;
#X obj 744 269 t b f;
#X obj 784 269 t b f;
#X obj 824 269 t b f;
#X obj 864 269 t b f;
#X obj 531 381 outlet;
#X obj 324 16 inlet;
#X obj 324 49 unpack float float float float float float float float
float float;
#X obj 531 339 list prepend set;
#X obj 512 261 bng 15 250 50 0 empty empty empty 17 7 0 10 -262144
-1 -1;
#X obj 531 360 list trim;
#X text 175 206 bpm->ms;
#X text 175 230 beat division;
#X text 175 250 groove granularity;
#N canvas 1 125 724 401 shift 0;
#X obj 245 253 / 100;
#X obj 334 253 / 100;
#X text 318 140 croches;
#X text 407 140 doublecroches;
#X obj 423 253 / 100;
#X text 236 139 noires;
#X obj 144 253 / 100;
#X text 142 139 blanches;
#X obj 95 140 * 0.25;
#X obj 95 206 cos;
#X obj 95 228 - 1;
#X obj 95 250 * -0.5;
#X obj 95 270 * 0;
#X obj 95 290 * 0.4392;
#X obj 373 290 * 0.4392;
#X obj 284 290 * 0.4392;
#X obj 195 290 * 0.4392;
#X obj 195 270 * 0;
#X obj 284 270 * 0;
#X obj 373 270 * 0;
#X obj 373 250 * -0.5;
#X obj 284 250 * -0.5;
#X obj 195 250 * -0.5;
#X obj 195 229 - 1;
#X obj 284 228 - 1;
#X obj 373 228 - 1;
#X obj 373 206 cos;
#X obj 284 206 cos;
#X obj 195 206 cos;
#X obj 373 140 * 2;
#X obj 284 140 * 1;
#X obj 195 140 * 0.5;
#X obj 95 184 * 6.2832;
#X obj 195 184 * 6.2832;
#X obj 284 184 * 6.2832;
#X obj 373 184 * 6.2832;
#X obj 284 332 +;
#X obj 195 332 +;
#X obj 95 332 +;
#X obj 95 354 outlet;
#X obj 95 53 inlet;
#X obj 95 105 t f f f f;
#X obj 95 78 +;
#X obj 164 45 inlet;
#X obj 261 45 inlet;
#X obj 361 45 inlet;
#X obj 461 45 inlet;
#X obj 573 39 inlet;
#X obj 573 61 / 100;
#X obj 95 162 wrap;
#X obj 195 162 wrap;
#X obj 284 162 wrap;
#X obj 373 162 wrap;
#X connect 0 0 17 1;
#X connect 1 0 18 1;
#X connect 4 0 19 1;
#X connect 6 0 12 1;
#X connect 8 0 49 0;
#X connect 9 0 10 0;
#X connect 10 0 11 0;
#X connect 11 0 12 0;
#X connect 12 0 13 0;
#X connect 13 0 38 0;
#X connect 14 0 36 1;
#X connect 15 0 36 0;
#X connect 16 0 37 0;
#X connect 17 0 16 0;
#X connect 18 0 15 0;
#X connect 19 0 14 0;
#X connect 20 0 19 0;
#X connect 21 0 18 0;
#X connect 22 0 17 0;
#X connect 23 0 22 0;
#X connect 24 0 21 0;
#X connect 25 0 20 0;
#X connect 26 0 25 0;
#X connect 27 0 24 0;
#X connect 28 0 23 0;
#X connect 29 0 52 0;
#X connect 30 0 51 0;
#X connect 31 0 50 0;
#X connect 32 0 9 0;
#X connect 33 0 28 0;
#X connect 34 0 27 0;
#X connect 35 0 26 0;
#X connect 36 0 37 1;
#X connect 37 0 38 1;
#X connect 38 0 39 0;
#X connect 40 0 42 0;
#X connect 41 0 8 0;
#X connect 41 1 31 0;
#X connect 41 2 30 0;
#X connect 41 3 29 0;
#X connect 42 0 41 0;
#X connect 43 0 6 0;
#X connect 44 0 0 0;
#X connect 45 0 1 0;
#X connect 46 0 4 0;
#X connect 47 0 48 0;
#X connect 48 0 42 1;
#X connect 49 0 32 0;
#X connect 50 0 33 0;
#X connect 51 0 34 0;
#X connect 52 0 35 0;
#X restore 250 454 pd shift;
#X text 107 392 In the following swing process \, the beat unit is
1;
#X text 107 572 Back to 16 steps \, with timeshifts;
#X text 108 333 Back to 0->15 \, with added granularity;
#X text 161 310 loop: 384=24*4*4;
#X obj 158 42 loadbang;
#X obj 158 64 115;
#X connect 0 0 1 0;
#X connect 1 0 8 0;
#X connect 2 0 3 0;
#X connect 3 0 4 0;
#X connect 4 0 33 0;
#X connect 5 0 6 0;
#X connect 6 0 7 0;
#X connect 6 0 13 0;
#X connect 7 0 12 0;
#X connect 9 0 2 0;
#X connect 10 0 5 0;
#X connect 11 0 9 0;
#X connect 12 0 6 1;
#X connect 13 0 15 0;
#X connect 14 0 5 1;
#X connect 15 0 20 0;
#X connect 16 0 0 0;
#X connect 18 0 19 1;
#X connect 19 0 16 0;
#X connect 20 0 19 0;
#X connect 20 1 21 0;
#X connect 20 2 53 0;
#X connect 21 0 18 0;
#X connect 22 0 53 1;
#X connect 22 0 34 0;
#X connect 23 0 53 2;
#X connect 23 0 35 0;
#X connect 24 0 53 3;
#X connect 24 0 36 0;
#X connect 25 0 53 4;
#X connect 25 0 37 0;
#X connect 26 0 53 5;
#X connect 26 0 38 0;
#X connect 27 0 21 1;
#X connect 27 0 39 0;
#X connect 28 0 21 2;
#X connect 28 0 40 0;
#X connect 29 0 21 3;
#X connect 29 0 41 0;
#X connect 30 0 21 4;
#X connect 30 0 42 0;
#X connect 31 0 21 5;
#X connect 31 0 43 0;
#X connect 33 0 14 0;
#X connect 34 0 47 0;
#X connect 35 0 34 0;
#X connect 35 1 34 1;
#X connect 36 0 34 0;
#X connect 36 1 34 2;
#X connect 37 0 34 0;
#X connect 37 1 34 3;
#X connect 38 0 34 0;
#X connect 38 1 34 4;
#X connect 39 0 34 0;
#X connect 39 1 34 5;
#X connect 40 0 34 0;
#X connect 40 1 34 6;
#X connect 41 0 34 0;
#X connect 41 1 34 7;
#X connect 42 0 34 0;
#X connect 42 1 34 8;
#X connect 43 0 34 0;
#X connect 43 1 34 9;
#X connect 45 0 46 0;
#X connect 46 0 22 0;
#X connect 46 1 23 0;
#X connect 46 2 24 0;
#X connect 46 3 25 0;
#X connect 46 4 26 0;
#X connect 46 5 27 0;
#X connect 46 6 28 0;
#X connect 46 7 29 0;
#X connect 46 8 30 0;
#X connect 46 9 31 0;
#X connect 47 0 49 0;
#X connect 48 0 34 0;
#X connect 49 0 44 0;
#X connect 53 0 18 1;
#X connect 58 0 59 0;
#X connect 59 0 9 0;
#X coords 0 -1 1 1 300 60 1 100 100;
#X restore 436 118 pd swing-groove;
#X msg 729 182 0 0 -10 14 0 0 5 -2 0 0;
#X text 639 183 Current preset;
#X msg 436 69 0 0 -10 14 0 0 5 -2 0 0;
#X text 587 49 swing;
#X text 587 69 swing \, another;
#X text 587 29 slightly enhanced;
#X connect 0 0 1 0;
#X connect 0 0 3 1;
#X connect 3 0 2 0;
#X connect 3 0 2 1;
#X connect 4 0 5 1;
#X connect 6 0 5 2;
#X connect 7 0 5 3;
#X connect 8 0 5 0;
#X connect 9 0 21 1;
#X connect 10 0 21 2;
#X connect 11 0 21 3;
#X connect 12 0 21 0;
#X connect 13 0 22 1;
#X connect 14 0 22 2;
#X connect 15 0 22 3;
#X connect 16 0 22 0;
#X connect 17 0 23 1;
#X connect 18 0 23 2;
#X connect 19 0 23 3;
#X connect 20 0 23 0;
#X connect 25 0 33 0;
#X connect 25 0 39 0;
#X connect 25 0 42 0;
#X connect 26 0 36 0;
#X connect 27 0 30 0;
#X connect 27 0 30 1;
#X connect 28 0 25 0;
#X connect 29 0 28 0;
#X connect 30 0 25 1;
#X connect 31 0 26 0;
#X connect 32 0 31 0;
#X connect 34 0 29 1;
#X connect 35 0 27 0;
#X connect 35 0 27 1;
#X connect 35 0 31 1;
#X connect 36 0 29 0;
#X connect 37 0 32 0;
#X connect 37 0 38 0;
#X connect 38 0 35 0;
#X connect 39 0 3 0;
#X connect 41 0 3 0;
#X connect 42 0 41 0;
#X connect 43 0 45 0;
#X connect 44 0 45 1;
#X connect 45 0 41 2;
#X connect 45 1 41 3;
#X connect 51 0 50 0;
#X connect 51 0 69 0;
#X connect 51 1 52 0;
#X connect 51 2 53 0;
#X connect 51 3 54 0;
#X connect 51 4 55 0;
#X connect 51 5 56 0;
#X connect 51 6 57 0;
#X connect 51 7 58 0;
#X connect 51 8 59 0;
#X connect 51 9 60 0;
#X connect 51 10 61 0;
#X connect 51 11 62 0;
#X connect 51 12 63 0;
#X connect 51 13 64 0;
#X connect 51 14 65 0;
#X connect 51 15 66 0;
#X connect 70 0 77 0;
#X connect 71 0 77 0;
#X connect 73 0 77 0;
#X connect 74 0 77 0;
#X connect 77 0 51 0;
#X connect 77 1 78 0;
#X connect 80 0 77 0;
